# Made in Blockbench 4.8.3
mtllib qj_pot_carcass.mtl

o cylinder
v 0.5 0.4999999999999998 1
v 0.5 0.5 0
v 0.7867056359013014 1.57 1.0000000000000002
v 0.7867056359013014 1.5700000000000003 2.3758772726978356e-16
v 1.2832943640986985 1.2832943640986987 1.0000000000000002
v 1.2832943640986985 1.283294364098699 1.7392628761629923e-16
v 1.5700000000000003 0.7867056359013012 1
v 1.5700000000000003 0.7867056359013014 6.366143965348434e-17
v 1.5700000000000003 0.2132943640986984 0.9999999999999999
v 1.5700000000000003 0.21329436409869862 -6.366143965348434e-17
v 1.283294364098699 -0.2832943640986987 0.9999999999999998
v 1.283294364098699 -0.28329436409869846 -1.7392628761629913e-16
v 0.7867056359013016 -0.5700000000000005 0.9999999999999998
v 0.7867056359013016 -0.5700000000000003 -2.3758772726978356e-16
v 0.21329436409869917 -0.5700000000000005 0.9999999999999998
v 0.21329436409869917 -0.5700000000000003 -2.3758772726978356e-16
v -0.28329436409869857 -0.2832943640986991 0.9999999999999998
v -0.28329436409869857 -0.2832943640986989 -1.7392628761629923e-16
v -0.5700000000000001 0.21329436409869884 0.9999999999999999
v -0.5700000000000001 0.21329436409869906 -6.366143965348424e-17
v -0.5700000000000001 0.7867056359013007 1
v -0.5700000000000001 0.7867056359013009 6.366143965348424e-17
v -0.2832943640986989 1.2832943640986982 1.0000000000000002
v -0.2832943640986989 1.2832943640986985 1.7392628761629913e-16
v 0.21329436409869884 1.57 1.0000000000000002
v 0.21329436409869884 1.5700000000000003 2.3758772726978356e-16
vt 0.23463046875000002 0.95822421875
vt 0.17255703125 0.9940625000000001
vt 0.13671875 0.8603125
vt 0.62958828125 0.7421875
vt 0.70126484375 0.7421875
vt 0.70126484375 0.8671875
vt 0.62958828125 0.8671875
vt 0.39130703125 0.5293749999999999
vt 0.45338046875000004 0.5652132812499999
vt 0.35546875 0.663125
vt 0.27046875000000004 0.89615078125
vt 0.23463046875000002 0.95822421875
vt 0.13671875 0.8603125
vt 0.28311015625 0.875
vt 0.35478671875 0.875
vt 0.35478671875 1
vt 0.28311015625 1
vt 0.45338046875000004 0.5652132812499999
vt 0.48921875000000004 0.62728671875
vt 0.35546875 0.663125
vt 0.27046875000000004 0.82447421875
vt 0.27046875000000004 0.89615078125
vt 0.13671875 0.8603125
vt 0.35478671875 0.875
vt 0.42646328125 0.875
vt 0.42646328125 1
vt 0.35478671875 1
vt 0.48921875000000004 0.62728671875
vt 0.48921875000000004 0.69896328125
vt 0.35546875 0.663125
vt 0.23463046875000002 0.76240078125
vt 0.27046875000000004 0.82447421875
vt 0.13671875 0.8603125
vt 0.42646328125 0.875
vt 0.49813984375 0.875
vt 0.49813984375 1
vt 0.42646328125 1
vt 0.48921875000000004 0.69896328125
vt 0.45338046875000004 0.76103671875
vt 0.35546875 0.663125
vt 0.17255703125 0.7265625
vt 0.23463046875000002 0.76240078125
vt 0.13671875 0.8603125
vt 0.0018601562499999946 0.484375
vt 0.07353671875000001 0.484375
vt 0.07353671875000001 0.609375
vt 0.0018601562499999946 0.609375
vt 0.45338046875000004 0.76103671875
vt 0.39130703125 0.796875
vt 0.35546875 0.663125
vt 0.10088046875000001 0.7265625
vt 0.17255703125 0.7265625
vt 0.13671875 0.8603125
vt 0.07353671875000001 0.484375
vt 0.14521328125 0.484375
vt 0.14521328125 0.609375
vt 0.07353671875000001 0.609375
vt 0.39130703125 0.796875
vt 0.31963046875 0.796875
vt 0.35546875 0.663125
vt 0.03880703125 0.76240078125
vt 0.10088046875000001 0.7265625
vt 0.13671875 0.8603125
vt 0.14521328125 0.484375
vt 0.21688984375 0.484375
vt 0.21688984375 0.609375
vt 0.14521328125 0.609375
vt 0.31963046875 0.796875
vt 0.25755703125 0.76103671875
vt 0.35546875 0.663125
vt 0.0029687499999999922 0.82447421875
vt 0.03880703125 0.76240078125
vt 0.13671875 0.8603125
vt 0.44717265625 0.421875
vt 0.51884921875 0.421875
vt 0.51884921875 0.546875
vt 0.44717265625 0.546875
vt 0.25755703125 0.76103671875
vt 0.22171875 0.69896328125
vt 0.35546875 0.663125
vt 0.0029687499999999922 0.89615078125
vt 0.0029687499999999922 0.82447421875
vt 0.13671875 0.8603125
vt 0.51884921875 0.421875
vt 0.59052578125 0.421875
vt 0.59052578125 0.546875
vt 0.51884921875 0.546875
vt 0.22171875 0.69896328125
vt 0.22171875 0.62728671875
vt 0.35546875 0.663125
vt 0.03880703125 0.95822421875
vt 0.0029687499999999922 0.89615078125
vt 0.13671875 0.8603125
vt 0.59052578125 0.421875
vt 0.66220234375 0.421875
vt 0.66220234375 0.546875
vt 0.59052578125 0.546875
vt 0.22171875 0.62728671875
vt 0.25755703125 0.5652132812499999
vt 0.35546875 0.663125
vt 0.10088046875000001 0.9940625000000001
vt 0.03880703125 0.95822421875
vt 0.13671875 0.8603125
vt 0.48623515625 0.7421875
vt 0.55791171875 0.7421875
vt 0.55791171875 0.8671875
vt 0.48623515625 0.8671875
vt 0.25755703125 0.5652132812499999
vt 0.31963046875 0.5293749999999999
vt 0.35546875 0.663125
vt 0.17255703125 0.9940625000000001
vt 0.10088046875000001 0.9940625000000001
vt 0.13671875 0.8603125
vt 0.55791171875 0.7421875
vt 0.62958828125 0.7421875
vt 0.62958828125 0.8671875
vt 0.55791171875 0.8671875
vt 0.31963046875 0.5293749999999999
vt 0.39130703125 0.5293749999999999
vt 0.35546875 0.663125
vn 0 -2.220446049250313e-16 1
vn 0.5000000000000004 0.8660254037844385 1.9229626863835636e-16
vn 0 2.220446049250313e-16 -1
vn 0 -2.220446049250313e-16 1
vn 0.8660254037844385 0.5000000000000007 1.110223024625158e-16
vn 0 2.220446049250313e-16 -1
vn 0 -2.220446049250313e-16 1
vn 1 0 0
vn 0 2.220446049250313e-16 -1
vn 0 -2.220446049250313e-16 1
vn 0.8660254037844385 -0.5000000000000004 -1.1102230246251575e-16
vn 0 2.220446049250313e-16 -1
vn 0 -2.220446049250313e-16 1
vn 0.5000000000000009 -0.8660254037844384 -1.9229626863835633e-16
vn 0 2.220446049250313e-16 -1
vn 0 -2.220446049250313e-16 1
vn 0 -1 -2.220446049250313e-16
vn 0 2.220446049250313e-16 -1
vn 0 -2.220446049250313e-16 1
vn -0.49999999999999994 -0.8660254037844388 -1.9229626863835643e-16
vn 0 2.220446049250313e-16 -1
vn 0 -2.220446049250313e-16 1
vn -0.8660254037844387 -0.49999999999999983 -1.1102230246251562e-16
vn 0 2.220446049250313e-16 -1
vn 0 -2.220446049250313e-16 1
vn -1 0 0
vn 0 2.220446049250313e-16 -1
vn 0 -2.220446049250313e-16 1
vn -0.8660254037844389 0.49999999999999983 1.1102230246251562e-16
vn 0 2.220446049250313e-16 -1
vn 0 -2.220446049250313e-16 1
vn -0.5000000000000004 0.8660254037844385 1.9229626863835636e-16
vn 0 2.220446049250313e-16 -1
vn 0 -2.220446049250313e-16 1
vn 0 1 2.220446049250313e-16
vn 0 2.220446049250313e-16 -1
usemtl m_b509ea1c-4fd7-06fa-6a3f-46fe94e32c37
f 5/1/1 3/2/1 1/3/1
f 3/4/2 5/5/2 6/6/2 4/7/2
f 4/8/3 6/9/3 2/10/3
f 7/11/4 5/12/4 1/13/4
f 5/14/5 7/15/5 8/16/5 6/17/5
f 6/18/6 8/19/6 2/20/6
f 9/21/7 7/22/7 1/23/7
f 7/24/8 9/25/8 10/26/8 8/27/8
f 8/28/9 10/29/9 2/30/9
f 11/31/10 9/32/10 1/33/10
f 9/34/11 11/35/11 12/36/11 10/37/11
f 10/38/12 12/39/12 2/40/12
f 13/41/13 11/42/13 1/43/13
f 11/44/14 13/45/14 14/46/14 12/47/14
f 12/48/15 14/49/15 2/50/15
f 15/51/16 13/52/16 1/53/16
f 13/54/17 15/55/17 16/56/17 14/57/17
f 14/58/18 16/59/18 2/60/18
f 17/61/19 15/62/19 1/63/19
f 15/64/20 17/65/20 18/66/20 16/67/20
f 16/68/21 18/69/21 2/70/21
f 19/71/22 17/72/22 1/73/22
f 17/74/23 19/75/23 20/76/23 18/77/23
f 18/78/24 20/79/24 2/80/24
f 21/81/25 19/82/25 1/83/25
f 19/84/26 21/85/26 22/86/26 20/87/26
f 20/88/27 22/89/27 2/90/27
f 23/91/28 21/92/28 1/93/28
f 21/94/29 23/95/29 24/96/29 22/97/29
f 22/98/30 24/99/30 2/100/30
f 25/101/31 23/102/31 1/103/31
f 23/104/32 25/105/32 26/106/32 24/107/32
f 24/108/33 26/109/33 2/110/33
f 3/111/34 25/112/34 1/113/34
f 25/114/35 3/115/35 4/116/35 26/117/35
f 26/118/36 4/119/36 2/120/36