# Made in Blockbench 4.11.2
mtllib df11g_chimney.mtl

o cube_selection_selection_selection_selection
v 2.502416210208974 1.0781249716186219 1.0000000358250134
v 0.002417429007725902 1.0781249963108452 0.9999999762127125
v 2.502416210208974 1.078124971618622 1.000000035825013
v 0.002417429007725902 1.0781249963108452 0.9999999762127124
v 0.0024161972520673203 0.9281249963108554 1.4812499762126832
v 2.5024161972520664 0.9281249716186201 1.4812500358250134
v 0.7186674341325519 1.146963884059304 0.8135909352704865
v 0.7186674341325519 0.9737364717134374 0.7418377917020328
v 0.718667440584944 1.2426347421505752 0.5826210521426642
v 0.718667440584944 1.0694073298047102 0.5108679085742117
v 0.3436674341325521 1.1469638877631403 0.8135909263286365
v 0.7186674341325519 1.146963884059305 0.8135909352704861
v 0.3436674341325521 0.9737364754172746 0.7418377827601834
v 0.7186674341325519 0.9737364717134392 0.7418377917020329
v 0.34366744058494414 1.2426347458544114 0.5826210432008151
v 0.718667440584944 1.2426347421505761 0.5826210521426647
v 0.34366744058494414 1.0694073335085457 0.5108678996323621
v 0.718667440584944 1.0694073298047102 0.5108679085742117
v 0.7524162106538737 1.1156249889031817 0.9968749940963819
v 1.5024162106538734 1.115624981495511 0.9968750119800809
v 0.7524162094192619 0.9906249889031806 0.9968749940963824
v 1.5024162094192617 0.99062498149551 0.9968750119800813
v 0.7524162173602609 1.1156249889031813 0.7156249940963825
v 1.5024162173602604 1.1156249814955106 0.7156250119800814
v 0.7524162161256491 0.9906249889031824 0.7156249940963825
v 1.5024162161256487 0.9906249814955118 0.7156250119800815
v 0.7524161989871041 0.9906249889031834 1.4343749940963821
v 0.7524161977524924 0.8656249889031816 1.4343749940963821
v 1.5024161989871039 0.9906249814955128 1.434375011980081
v 1.502416197752492 0.865624981495511 1.434375011980081
v 1.6899162106538732 1.1156249796435933 0.9968750164510056
v 2.4399162106538728 1.1156249722359228 0.9968750343347047
v 1.6899162094192617 0.9906249796435924 0.9968750164510061
v 2.439916209419261 0.9906249722359217 0.996875034334705
v 1.6899162173602604 1.115624979643593 0.7156250164510063
v 2.4399162173602598 1.1156249722359224 0.7156250343347053
v 1.6899162161256487 0.9906249796435942 0.7156250164510063
v 2.4399162161256482 0.9906249722359235 0.7156250343347053
v 1.6899161989871039 0.9906249796435951 1.434375016451006
v 1.689916197752492 0.8656249796435933 1.4343750164510058
v 2.4399161989871034 0.9906249722359245 1.434375034334705
v 2.4399161977524915 0.8656249722359227 1.4343750343347048
v 2.5024162340539062 1.0781249716186203 3.582501062471266e-8
v 0.002417452852657931 1.078124996310844 -2.378729080376729e-8
v 0.0024162440477464298 0.928124996310853 -0.48125002378731874
v 2.5024162440477453 0.9281249716186175 -0.4812499641749888
v 0.7186674490876613 1.1469638840593035 0.18640905131280244
v 0.7186674456657637 0.9737364717134367 0.2581621948812558
v 0.7186674445251311 1.2426347421505763 0.417378934440623
v 0.7186674411032334 1.06940732980471 0.4891320780090772
v 0.34366744908766145 1.1469638877631396 0.18640904237095124
v 0.7186674490876613 1.1469638840593044 0.18640905131280078
v 0.3436674456657638 0.9737364754172741 0.25816218593940576
v 0.7186674456657637 0.9737364717134389 0.2581621948812553
v 0.3436674445251312 1.2426347458544127 0.41737892549877303
v 0.7186674445251311 1.2426347421505775 0.4173789344406226
v 0.34366744110323355 1.0694073335085457 0.48913206906722684
v 0.7186674411032334 1.0694073298047104 0.4891320780090764
v 0.7524162343497749 1.1156249889031806 0.003124994096380229
v 1.5024162343497747 1.11562498149551 0.0031250119800793064
v 0.7524162331151631 0.9906249889031797 0.003124994096380229
v 1.502416233115163 0.990624981495509 0.0031250119800793064
v 0.7524162276433878 1.1156249889031808 0.2843749940963797
v 1.5024162276433874 1.1156249814955101 0.28437501198007875
v 0.752416226408776 0.9906249889031811 0.2843749940963797
v 1.5024162264087757 0.9906249814955104 0.28437501198007864
v 0.752416243547321 0.99062498890318 -0.4343750059036199
v 0.7524162423127092 0.8656249889031793 -0.4343750059036202
v 1.5024162435473207 0.9906249814955094 -0.4343749880199208
v 1.5024162423127088 0.8656249814955087 -0.43437498801992114
v 1.6899162343497744 1.1156249796435922 0.003125016451004048
v 2.439916234349774 1.1156249722359217 0.003125034334703014
v 1.689916233115163 0.9906249796435914 0.003125016451004048
v 2.439916233115162 0.9906249722359208 0.003125034334703014
v 1.6899162276433874 1.1156249796435926 0.2843750164510035
v 2.439916227643387 1.115624972235922 0.2843750343347025
v 1.6899162264087755 0.9906249796435928 0.28437501645100344
v 2.4399162264087755 0.9906249722359222 0.28437503433470246
v 1.6899162435473205 0.9906249796435916 -0.43437498354899606
v 1.6899162423127088 0.8656249796435911 -0.4343749835489964
v 2.4399162435473203 0.990624972235921 -0.4343749656652971
v 2.4399162423127083 0.8656249722359204 -0.43437496566529743
v 0.002416120960946122 0.8470269378468289 1.4784187471180972
v 2.502416120960945 0.8470269131545936 1.4784188067304271
v 2.502416167621603 0.8470269131545927 -0.47841873508040567
v 0.002416167621604348 0.847026937846828 -0.4784187946927356
v 2.502416210208974 1.078124971618622 1.000000035825013
v 2.5024161972520664 0.9281249716186201 1.4812500358250134
v 2.502416120960945 0.8470269131545936 1.4784188067304271
v 2.502416167621603 0.8470269131545927 -0.47841873508040567
v -1.9986770016799937e-8 0.8906250098768957 0.9999999761550675
v 0.9999999800132295 0.8906250000000017 0.9999999999999996
v -2.3844932028893595e-8 0.5000000098768953 0.9999999761550676
v 0.9999999761550677 0.5000000000000011 0.9999999999999997
v 3.858162012093658e-9 0.8906250098768947 -2.38449322509382e-8
v 1.0000000038581616 0.8906250000000006 -2.220446049250313e-16
v 2.220446049250313e-16 0.5000000098768942 -2.3844931917871293e-8
v 0.9999999999999998 0.5000000000000001 1.1102230246251565e-16
v 0.002416210208975089 1.0781249963108575 0.999999976212683
v 0.0024161972520673203 0.9281249963108554 1.4812499762126832
v 0.002416234053907118 1.0781249963108557 -2.3787319447521327e-8
v 0.0024162440477464298 0.928124996310853 -0.48125002378731874
v 0.002416272076215753 0.8470269378468275 1.4784187471181007
v 0.002416318736873979 0.8470269378468266 -0.4784187946927321
vt 0.3124999999999997 0.93359375
vt 0.3124999999999997 0.80859375
vt 0.6249999999999998 0.80859375
vt 0.6249999999999998 0.93359375
vt 0.625 0.9369898437499999
vt 0.625 1
vt 0.3125 1
vt 0.3125 0.9369898437499999
vt 0.03125 0.7109375
vt 0.03125 0.734375
vt 0 0.734375
vt 0 0.7109375
vt 0.2890625 0.734375
vt 0.2890625 0.7578125
vt 0.2421875 0.7578125
vt 0.2421875 0.734375
vt 0.2890625 0.765625
vt 0.2890625 0.7890625
vt 0.2421875 0.7890625
vt 0.2421875 0.765625
vt 0.234375 0.734375
vt 0.234375 0.78125
vt 0.203125 0.78125
vt 0.203125 0.734375
vt 0.0703125 0.7109375
vt 0.0703125 0.734375
vt 0.0390625 0.734375
vt 0.0390625 0.7109375
vt 0.09375 0.7578125
vt 0 0.7578125
vt 0 0.7421875
vt 0.09375 0.7421875
vt 0.1953125 0.7421875
vt 0.1953125 0.7578125
vt 0.1015625 0.7578125
vt 0.1015625 0.7421875
vt 0.0008589843749999965 0.765625
vt 0.036015234374999996 0.765625
vt 0.036015234374999996 0.859375
vt 0.0008589843749999965 0.859375
vt 0.240234375 0.84375
vt 0.240234375 0.859375
vt 0.205078125 0.859375
vt 0.205078125 0.84375
vt 0.294921875 0.8203125
vt 0.259765625 0.8203125
vt 0.259765625 0.8046875
vt 0.294921875 0.8046875
vt 0.092891015625 0.765625
vt 0.092891015625 0.859375
vt 0.036015234375 0.859375
vt 0.036015234374999996 0.765625
vt 0.294921875 0.828125
vt 0.294921875 0.84375
vt 0.240234375 0.859375
vt 0.240234375 0.84375
vt 0.205078125 0.8046875
vt 0.205078125 0.7890625
vt 0.259765625 0.8046875
vt 0.259765625 0.8203125
vt 0.09375 0.7578125
vt 0 0.7578125
vt 0 0.7421875
vt 0.09375 0.7421875
vt 0.1953125 0.7421875
vt 0.1953125 0.7578125
vt 0.1015625 0.7578125
vt 0.1015625 0.7421875
vt 0.0008589843749999965 0.765625
vt 0.036015234374999996 0.765625
vt 0.036015234374999996 0.859375
vt 0.0008589843749999965 0.859375
vt 0.240234375 0.84375
vt 0.240234375 0.859375
vt 0.205078125 0.859375
vt 0.205078125 0.84375
vt 0.294921875 0.8203125
vt 0.259765625 0.8203125
vt 0.259765625 0.8046875
vt 0.294921875 0.8046875
vt 0.092891015625 0.765625
vt 0.092891015625 0.859375
vt 0.036015234375 0.859375
vt 0.036015234374999996 0.765625
vt 0.294921875 0.828125
vt 0.294921875 0.84375
vt 0.240234375 0.859375
vt 0.240234375 0.84375
vt 0.205078125 0.8046875
vt 0.205078125 0.7890625
vt 0.259765625 0.8046875
vt 0.259765625 0.8203125
vt 0.3125 1
vt 0.625 1
vt 0.625 0.9369898437499999
vt 0.3125 0.9369898437499999
vt 0 0.734375
vt 0.03125 0.734375
vt 0.03125 0.7109375
vt 0 0.7109375
vt 0.2421875 0.7578125
vt 0.2890625 0.7578125
vt 0.2890625 0.734375
vt 0.2421875 0.734375
vt 0.2421875 0.7890625
vt 0.2890625 0.7890625
vt 0.2890625 0.765625
vt 0.2421875 0.765625
vt 0.203125 0.78125
vt 0.234375 0.78125
vt 0.234375 0.734375
vt 0.203125 0.734375
vt 0.0390625 0.734375
vt 0.0703125 0.734375
vt 0.0703125 0.7109375
vt 0.0390625 0.7109375
vt 0 0.7421875
vt 0 0.7578125
vt 0.09375 0.7578125
vt 0.09375 0.7421875
vt 0.1015625 0.7578125
vt 0.1953125 0.7578125
vt 0.1953125 0.7421875
vt 0.1015625 0.7421875
vt 0.036015234374999996 0.859375
vt 0.036015234374999996 0.765625
vt 0.0008589843749999965 0.765625
vt 0.0008589843749999965 0.859375
vt 0.205078125 0.859375
vt 0.240234375 0.859375
vt 0.240234375 0.84375
vt 0.205078125 0.84375
vt 0.259765625 0.8046875
vt 0.259765625 0.8203125
vt 0.294921875 0.8203125
vt 0.294921875 0.8046875
vt 0.036015234375 0.859375
vt 0.092891015625 0.859375
vt 0.092891015625 0.765625
vt 0.036015234374999996 0.765625
vt 0.240234375 0.859375
vt 0.294921875 0.84375
vt 0.294921875 0.828125
vt 0.240234375 0.84375
vt 0.259765625 0.8046875
vt 0.205078125 0.7890625
vt 0.205078125 0.8046875
vt 0.259765625 0.8203125
vt 0 0.7421875
vt 0 0.7578125
vt 0.09375 0.7578125
vt 0.09375 0.7421875
vt 0.1015625 0.7578125
vt 0.1953125 0.7578125
vt 0.1953125 0.7421875
vt 0.1015625 0.7421875
vt 0.036015234374999996 0.859375
vt 0.036015234374999996 0.765625
vt 0.0008589843749999965 0.765625
vt 0.0008589843749999965 0.859375
vt 0.205078125 0.859375
vt 0.240234375 0.859375
vt 0.240234375 0.84375
vt 0.205078125 0.84375
vt 0.259765625 0.8046875
vt 0.259765625 0.8203125
vt 0.294921875 0.8203125
vt 0.294921875 0.8046875
vt 0.036015234375 0.859375
vt 0.092891015625 0.859375
vt 0.092891015625 0.765625
vt 0.036015234374999996 0.765625
vt 0.240234375 0.859375
vt 0.294921875 0.84375
vt 0.294921875 0.828125
vt 0.240234375 0.84375
vt 0.259765625 0.8046875
vt 0.205078125 0.7890625
vt 0.205078125 0.8046875
vt 0.259765625 0.8203125
vt 0.3906249999999997 0.9921875
vt 0.3906249999999997 1
vt 0.07812499999999972 1
vt 0.07812499999999972 0.9921875
vt 0.07812499999999972 1
vt 0.07812499999999972 0.9921875
vt 0.3906249999999997 0.9921875
vt 0.3906249999999997 1
vt 0.3125000000000003 0.44531249999999956
vt 0.3125000000000003 0.6953124999999996
vt 2.7755575615628914e-16 0.6953124999999996
vt 2.7755575615628914e-16 0.44531249999999956
vt 0.3773250027935309 0.41875030373227395
vt 0.37732500279353076 0.6640625
vt 0.36718800180695116 0.663708661793187
vt 0.36718750000000033 0.4191040402421059
vt 0.547656699647373 0.45546855229370553
vt 0.547656699647373 0.5804686462438655
vt 0.5289072479533521 0.6406249999999996
vt 0.5289062500000006 0.39531250476292723
vt 0.984375 0.6953125
vt 0.984375 0.75
vt 0.859375 0.75
vt 0.859375 0.6953125
vt 0.8125 0.2734375
vt 0.8125 0.328125
vt 0.6875 0.328125
vt 0.6875 0.2734375
vt 0.1328125 0.2890625
vt 0.1328125 0.4140625
vt 0.0078125 0.4140625
vt 0.0078125 0.2890625
vt 0.6484375 0.1015625
vt 0.6484375 0.2265625
vt 0.5234375 0.2265625
vt 0.5234375 0.1015625
vt 0.75 0.4765625
vt 0.75 0.53125
vt 0.625 0.53125
vt 0.625 0.4765625
vt 0.9375 0.828125
vt 0.9375 0.8828125
vt 0.8125 0.8828125
vt 0.8125 0.828125
vt 0.36718800180695116 0.663708661793187
vt 0.37732500279353076 0.6640625
vt 0.3773250027935309 0.41875030373227395
vt 0.36718750000000033 0.4191040402421059
vt 0.5289072479533521 0.6406249999999996
vt 0.547656699647373 0.5804686462438655
vt 0.547656699647373 0.45546855229370553
vt 0.5289062500000006 0.39531250476292723
vn 9.876894230265236e-9 1 -1.3877787791930537e-15
vn 2.33396312262392e-9 0.9547003344873468 0.29756893542463136
vn 0.9999999999999998 -9.876894229069794e-9 2.384493207447374e-8
vn -2.5809568415270617e-8 -0.3826834323650854 0.9238795325112883
vn 2.5809568415270617e-8 0.3826834323650843 -0.9238795325112887
vn -7.075107981068114e-17 0.9238795325112885 0.38268343236508556
vn -0.9999999999999998 9.876894229069794e-9 -2.384493207447374e-8
vn -2.384493202889361e-8 -8.326672684688674e-16 0.9999999999999998
vn 2.3844932028893595e-8 -7.771561172376096e-16 -0.9999999999999998
vn 9.876894163651807e-9 1 -7.771561172376096e-16
vn -0.9999999999999998 9.876894229069794e-9 -2.384493207447374e-8
vn 0.9999999999999998 -9.876894229069794e-9 2.384493207447374e-8
vn 2.946163645051203e-9 0.9615239476408242 0.27472112789737446
vn -0.9999999999999998 9.876894229069794e-9 -2.384493207447374e-8
vn 0.9999999999999998 -9.876894229069794e-9 2.384493207447374e-8
vn -2.384493202889361e-8 -8.326672684688674e-16 0.9999999999999998
vn 2.3844932028893595e-8 -7.771561172376096e-16 -0.9999999999999998
vn 9.876894163651807e-9 1 -7.771561172376096e-16
vn -0.9999999999999998 9.876894229069794e-9 -2.384493207447374e-8
vn 0.9999999999999998 -9.876894229069794e-9 2.384493207447374e-8
vn 2.946163645051203e-9 0.9615239476408242 0.27472112789737446
vn -0.9999999999999998 9.876894229069794e-9 -2.384493207447374e-8
vn 0.9999999999999998 -9.876894229069794e-9 2.384493207447374e-8
vn 1.6524985200845093e-8 0.9547003344873459 -0.29756893542463336
vn 0.9999999999999998 -9.876894229069794e-9 2.384493207447374e-8
vn 1.825012089596459e-8 -0.38268343236509234 -0.9238795325112855
vn -1.8250120895964714e-8 0.3826834323650861 0.9238795325112881
vn 1.825012079590738e-8 0.9238795325112859 -0.3826834323650918
vn -0.9999999999999998 9.876894229069794e-9 -2.384493207447374e-8
vn 2.3844932028893628e-8 3.1086244689504375e-15 -0.9999999999999997
vn -2.3844932028893605e-8 -3.3306690738754696e-16 0.9999999999999998
vn 9.876894163651807e-9 1 -7.771561172376096e-16
vn -0.9999999999999998 9.876894229069794e-9 -2.384493207447374e-8
vn 0.9999999999999998 -9.876894229069794e-9 2.384493207447374e-8
vn 1.6047576888279057e-8 0.9615239476408229 -0.2747211278973788
vn -0.9999999999999998 9.876894229069794e-9 -2.384493207447374e-8
vn 0.9999999999999998 -9.876894229069794e-9 2.384493207447374e-8
vn 2.3844932028893628e-8 3.1086244689504375e-15 -0.9999999999999997
vn -2.3844932028893605e-8 -3.3306690738754696e-16 0.9999999999999998
vn 9.876894163651807e-9 1 -7.771561172376096e-16
vn -0.9999999999999998 9.876894229069794e-9 -2.384493207447374e-8
vn 0.9999999999999998 -9.876894229069794e-9 2.384493207447374e-8
vn 1.6047576888279057e-8 0.9615239476408229 -0.2747211278973788
vn -0.9999999999999998 9.876894229069794e-9 -2.384493207447374e-8
vn 0.9999999999999998 -9.876894229069794e-9 2.384493207447374e-8
vn -2.4175018423549573e-8 -0.03488992690984577 0.9993911611577446
vn 2.3485810192617322e-8 -0.03488992690985098 -0.9993911611577444
vn -9.876894163651794e-9 -1 2.220446049250313e-16
vn 0.9999999999995565 -9.4155930742721e-7 2.3844932074464292e-8
vn 0.9999999999999998 -9.876894229069794e-9 2.384493207447374e-8
vn -2.3844932028893595e-8 8.881784197001252e-16 0.9999999999999998
vn 2.3844932028893592e-8 -1.1657341758564144e-15 -0.9999999999999998
vn 9.876894163651805e-9 1 -7.216449660063516e-16
vn -9.876894163651807e-9 -1 7.216449660063518e-16
vn -0.9999999999999998 9.876894229069794e-9 -2.384493207447374e-8
vn 0.9999999999999998 -9.876894229069794e-9 2.384493207447374e-8
vn -0.9999999999995749 -9.218055189690783e-7 -2.3844932074462492e-8
vn -0.9999999999999998 9.876894229069794e-9 -2.384493207447374e-8
usemtl m_df89cc72-755f-6bc2-9d63-0b5deb473018
f 1/1/1 43/2/1 44/3/1 2/4/1
f 4/5/2 5/6/2 6/7/2 3/8/2
f 10/9/3 9/10/3 7/11/3 8/12/3
f 14/13/4 12/14/4 11/15/4 13/16/4
f 17/17/5 15/18/5 16/19/5 18/20/5
f 11/21/6 12/22/6 16/23/6 15/24/6
f 13/25/7 11/26/7 15/27/7 17/28/7
f 29/29/8 27/30/8 28/31/8 30/32/8
f 25/33/9 23/34/9 24/35/9 26/36/9
f 23/37/10 19/38/10 20/39/10 24/40/10
f 21/41/11 19/42/11 23/43/11 25/44/11
f 24/45/12 20/46/12 22/47/12 26/48/12
f 27/49/13 29/50/13 20/51/13 19/52/13
f 28/53/14 27/54/14 19/55/14 21/56/14
f 29/57/15 30/58/15 22/59/15 20/60/15
f 41/61/16 39/62/16 40/63/16 42/64/16
f 37/65/17 35/66/17 36/67/17 38/68/17
f 35/69/18 31/70/18 32/71/18 36/72/18
f 33/73/19 31/74/19 35/75/19 37/76/19
f 36/77/20 32/78/20 34/79/20 38/80/20
f 39/81/21 41/82/21 32/83/21 31/84/21
f 40/85/22 39/86/22 31/87/22 33/88/22
f 41/89/23 42/90/23 34/91/23 32/92/23
f 46/93/24 45/94/24 44/95/24 43/96/24
f 47/97/25 49/98/25 50/99/25 48/100/25
f 51/101/26 52/102/26 54/103/26 53/104/26
f 56/105/27 55/106/27 57/107/27 58/108/27
f 56/109/28 52/110/28 51/111/28 55/112/28
f 55/113/29 51/114/29 53/115/29 57/116/29
f 68/117/30 67/118/30 69/119/30 70/120/30
f 64/121/31 63/122/31 65/123/31 66/124/31
f 60/125/32 59/126/32 63/127/32 64/128/32
f 63/129/33 59/130/33 61/131/33 65/132/33
f 62/133/34 60/134/34 64/135/34 66/136/34
f 60/137/35 69/138/35 67/139/35 59/140/35
f 59/141/36 67/142/36 68/143/36 61/144/36
f 62/145/37 70/146/37 69/147/37 60/148/37
f 80/149/38 79/150/38 81/151/38 82/152/38
f 76/153/39 75/154/39 77/155/39 78/156/39
f 72/157/40 71/158/40 75/159/40 76/160/40
f 75/161/41 71/162/41 73/163/41 77/164/41
f 74/165/42 72/166/42 76/167/42 78/168/42
f 72/169/43 81/170/43 79/171/43 71/172/43
f 71/173/44 79/174/44 80/175/44 73/176/44
f 74/177/45 82/178/45 81/179/45 72/180/45
f 5/181/46 83/182/46 84/183/46 6/184/46
f 46/185/47 85/186/47 86/187/47 45/188/47
f 85/189/48 84/190/48 83/191/48 86/192/48
f 46/193/49 88/194/49 89/195/49 90/196/49
f 43/197/50 87/198/50 88/199/50 46/200/50
f 94/201/51 92/202/51 91/203/51 93/204/51
f 97/205/52 95/206/52 96/207/52 98/208/52
f 91/209/53 92/210/53 96/211/53 95/212/53
f 94/213/54 93/214/54 97/215/54 98/216/54
f 93/217/55 91/218/55 95/219/55 97/220/55
f 98/221/56 96/222/56 92/223/56 94/224/56
f 103/225/57 100/226/57 102/227/57 104/228/57
f 100/229/58 99/230/58 101/231/58 102/232/58