# Made in Blockbench 4.8.3
mtllib crosshead.mtl

o cube
v -0.04999999999999976 -0.09140625000000108 -0.15421874999999916
v 0.10000000000000037 -0.09140625000000108 -0.15421874999999916
v 0.10000000000000037 0.10859374999999866 -0.15421874999999916
v -0.04999999999999976 0.10859374999999866 -0.15421874999999916
v -0.04999999999999976 -0.09140625000000108 -0.441718749999999
v -0.04999999999999976 0.10859374999999866 -0.441718749999999
v 0.10000000000000037 -0.09140625000000108 -0.441718749999999
v 0.10000000000000037 0.10859374999999866 -0.441718749999999
v -0.06250000000000018 -0.05625000000000084 -0.09375000000000061
v 0.06250000000000003 -0.05625000000000084 -0.09375000000000061
v 0.06250000000000003 0.06874999999999915 -0.09375000000000061
v -0.06250000000000018 0.06874999999999915 -0.09375000000000061
v -0.06250000000000018 -0.05625000000000084 -1.599999999999993
v -0.06250000000000018 0.06874999999999915 -1.599999999999993
v 0.06250000000000003 -0.05625000000000084 -1.599999999999993
v 0.06250000000000003 0.06874999999999915 -1.599999999999993
v -0.10625000000000012 -0.1250000000000014 0.17499999999999952
v 0.10625000000000001 -0.1250000000000014 0.17499999999999952
v 0.10625000000000001 0.18124999999999897 0.17499999999999952
v -0.10625000000000012 0.18124999999999897 0.17499999999999952
v -0.10625000000000012 -0.1250000000000014 -0.18124999999999689
v -0.10625000000000012 0.18124999999999897 -0.18124999999999689
v 0.10625000000000001 -0.1250000000000014 -0.18124999999999689
v 0.10625000000000001 0.18124999999999897 -0.18124999999999689
v -0.10625000000000012 -0.2562500000000012 -0.05624999999999685
v -0.10625000000000012 -0.2562500000000012 -0.003124999999998908
v -0.10625000000000012 -0.12500000000000117 -0.003124999999998908
v -0.10625000000000012 -0.12500000000000117 -0.18124999999999733
v 0.10625000000000001 -0.12500000000000117 -0.18124999999999733
v 0.10625000000000001 -0.12500000000000117 -0.003124999999998908
v 0.10625000000000001 -0.2562500000000012 -0.003124999999998908
v 0.10625000000000001 -0.2562500000000012 -0.05624999999999685
v 0.10625000000000001 -0.2562500000000012 0.04999999999999905
v 0.10625000000000001 -0.12500000000000117 0.17499999999999907
v -0.10625000000000012 -0.12500000000000117 0.17499999999999907
v -0.10625000000000012 -0.2562500000000012 0.04999999999999905
v -0.15625000000000017 -0.050000000000000974 0.049999999999999496
v 0.1562500000000001 -0.050000000000000974 0.049999999999999496
v 0.1562500000000001 0.0562499999999992 0.049999999999999496
v -0.15625000000000017 0.0562499999999992 0.049999999999999496
v -0.15625000000000017 -0.050000000000000974 -0.05624999999999641
v -0.15625000000000017 0.0562499999999992 -0.05624999999999641
v 0.1562500000000001 -0.050000000000000974 -0.05624999999999641
v 0.1562500000000001 0.0562499999999992 -0.05624999999999641
vt 0.234375 0.012500000000000067
vt 0.271875 0.012500000000000067
vt 0.271875 0.0625
vt 0.234375 0.0625
vt 0 0.07500000000000007
vt 0.07187499999999991 0.07500000000000007
vt 0.07187499999999991 0.125
vt 0 0.125
vt 0.171875 0.07500000000000007
vt 0.20937499999999998 0.07500000000000007
vt 0.20937499999999998 0.125
vt 0.171875 0.125
vt 0.09999999999999998 0.020312500000000178
vt 0.1718749999999999 0.020312500000000178
vt 0.1718749999999999 0.07031250000000011
vt 0.09999999999999998 0.07031250000000011
vt 0.09999999999999998 0.21875
vt 0.0625 0.21875
vt 0.0625 0.1468750000000001
vt 0.09999999999999998 0.1468750000000001
vt 0.16249999999999998 0.1468750000000001
vt 0.125 0.1468750000000001
vt 0.125 0.21875
vt 0.16249999999999998 0.21875
vt 0.734375 0.46875
vt 0.765625 0.46875
vt 0.765625 0.5
vt 0.734375 0.5
vt 0.25 0.75
vt 0.625 0.75
vt 0.625 0.78125
vt 0.25 0.78125
vt 0.734375 0.421875
vt 0.765625 0.421875
vt 0.765625 0.453125
vt 0.734375 0.453125
vt 0.25 0.703125
vt 0.625 0.703125
vt 0.625 0.734375
vt 0.25 0.734375
vt 0.28125 0.6875
vt 0.25 0.6875
vt 0.25 0.3125
vt 0.28125 0.3125
vt 0.328125 0.3125
vt 0.296875 0.3125
vt 0.296875 0.6875
vt 0.328125 0.6875
vt 0.34375 0.484375
vt 0.390625 0.484375
vt 0.390625 0.5625
vt 0.34375 0.5625
vt 0.484375 0.609375
vt 0.578125 0.609375
vt 0.578125 0.6875
vt 0.484375 0.6875
vt 0.609375 0.40625
vt 0.65625 0.40625
vt 0.65625 0.484375
vt 0.609375 0.484375
vt 0.34375 0.390625
vt 0.4375 0.390625
vt 0.4375 0.46875
vt 0.34375 0.46875
vt 0.5 0.453125
vt 0.453125 0.453125
vt 0.453125 0.359375
vt 0.5 0.359375
vt 0.046875 0.328125
vt 0 0.328125
vt 0 0.421875
vt 0.046875 0.421875
vt 0.67421875 0.7484375
vt 0.6875 0.7484375
vt 0.6875 0.78125
vt 0.64296875 0.78125
vt 0.73203125 0.53125
vt 0.6875 0.53125
vt 0.6875 0.4984375
vt 0.70078125 0.4984375
vt 0.6046875 0.5046875
vt 0.6046875 0.54921875
vt 0.5515625 0.54921875
vt 0.5515625 0.5046875
vt 0.7390625 0.7453125
vt 0.7390625 0.73203125
vt 0.7921875 0.73203125
vt 0.7921875 0.7453125
vt 0.390625 0.265625
vt 0.390625 0.3125
vt 0.34375 0.3125
vt 0.34375 0.265625
vt 0.5625 0.265625
vt 0.5625 0.3125
vt 0.515625 0.3125
vt 0.515625 0.265625
vt 0.67421875 0.4984375
vt 0.6875 0.4984375
vt 0.6875 0.53125
vt 0.64296875 0.53125
vt 0.5515625 0.59375
vt 0.5515625 0.54921875
vt 0.6046875 0.54921875
vt 0.6046875 0.59375
vt 0.73203125 0.78125
vt 0.6875 0.78125
vt 0.6875 0.7484375
vt 0.70078125 0.7484375
vt 0.7921875 0.71875
vt 0.7921875 0.73203125
vt 0.7390625 0.73203125
vt 0.7390625 0.71875
vt 0.515625 0.328125
vt 0.59375 0.328125
vt 0.59375 0.359375
vt 0.515625 0.359375
vt 0.734375 0.671875
vt 0.765625 0.671875
vt 0.765625 0.703125
vt 0.734375 0.703125
vt 0.65625 0.96875
vt 0.734375 0.96875
vt 0.734375 1
vt 0.65625 1
vt 0.734375 0.625
vt 0.765625 0.625
vt 0.765625 0.65625
vt 0.734375 0.65625
vt 0.734375 0.953125
vt 0.65625 0.953125
vt 0.65625 0.921875
vt 0.734375 0.921875
vt 0.5 0.3125
vt 0.421875 0.3125
vt 0.421875 0.34375
vt 0.5 0.34375
vn 0 0 1
vn -1 0 0
vn 0 0 -1
vn 1 0 0
vn 0 1 0
vn 0 -1 0
vn 0 0 1
vn -1 0 0
vn 0 0 -1
vn 1 0 0
vn 0 1 0
vn 0 -1 0
vn 0 0 1
vn -1 0 0
vn 0 0 -1
vn 1 0 0
vn 0 1 0
vn 0 -1 0
vn -1 0 0
vn 1 0 0
vn 0 1 0
vn 0 -1 0
vn 0 -0.6896551724137945 -0.7241379310344815
vn 0 -0.6896551724137931 0.7241379310344828
vn 1 0 0
vn 0 1 0
vn -1 0 0
vn 0 -1 0
vn 0 0 1
vn -1 0 0
vn 0 0 -1
vn 1 0 0
vn 0 1 0
vn 0 -1 0
usemtl m_615b7bbc-138e-da1f-3efe-ffabdb062c3d
f 1/1/1 2/2/1 3/3/1 4/4/1
f 5/5/2 1/6/2 4/7/2 6/8/2
f 7/9/3 5/10/3 6/11/3 8/12/3
f 2/13/4 7/14/4 8/15/4 3/16/4
f 8/17/5 6/18/5 4/19/5 3/20/5
f 2/21/6 1/22/6 5/23/6 7/24/6
f 9/25/7 10/26/7 11/27/7 12/28/7
f 13/29/8 9/30/8 12/31/8 14/32/8
f 15/33/9 13/34/9 14/35/9 16/36/9
f 10/37/10 15/38/10 16/39/10 11/40/10
f 16/41/11 14/42/11 12/43/11 11/44/11
f 10/45/12 9/46/12 13/47/12 15/48/12
f 17/49/13 18/50/13 19/51/13 20/52/13
f 21/53/14 17/54/14 20/55/14 22/56/14
f 23/57/15 21/58/15 22/59/15 24/60/15
f 18/61/16 23/62/16 24/63/16 19/64/16
f 24/65/17 22/66/17 20/67/17 19/68/17
f 18/69/18 17/70/18 21/71/18 23/72/18
f 25/73/19 26/74/19 27/75/19 28/76/19
f 29/77/20 30/78/20 31/79/20 32/80/20
f 28/81/21 27/82/21 30/83/21 29/84/21
f 32/85/22 31/86/22 26/87/22 25/88/22
f 25/89/23 28/90/23 29/91/23 32/92/23
f 33/93/24 34/94/24 35/95/24 36/96/24
f 33/97/25 31/98/25 30/99/25 34/100/25
f 34/101/26 30/102/26 27/103/26 35/104/26
f 35/105/27 27/106/27 26/107/27 36/108/27
f 36/109/28 26/110/28 31/111/28 33/112/28
f 37/113/29 38/114/29 39/115/29 40/116/29
f 41/117/30 37/118/30 40/119/30 42/120/30
f 43/121/31 41/122/31 42/123/31 44/124/31
f 38/125/32 43/126/32 44/127/32 39/128/32
f 44/129/33 42/130/33 40/131/33 39/132/33
f 38/133/34 37/134/34 41/135/34 43/136/34