# Made in Blockbench 4.8.3
mtllib eccentric_rod.mtl

o åå¿ƒæ†
v -0.006250000000001268 -0.025707633530565127 -0.06444106219942551
v 0.024999999999998735 -0.025707633530565127 -0.06444106219942551
v 0.024999999999998735 0.024102101374022043 -0.06008327506204262
v -0.006250000000001268 0.024102101374022043 -0.06008327506204262
v -0.006250000000001268 0.10938376772830505 -1.6085428442416343
v -0.006250000000001268 0.15919350263289223 -1.6041850571042513
v 0.024999999999998735 0.10938376772830505 -1.6085428442416343
v 0.024999999999998735 0.15919350263289223 -1.6041850571042513
v -0.031250000000000736 0.0567911515720786 0.06825412594463606
v -0.031250000000000736 0.06768561941553586 -0.05627021131683233
v -0.031250000000000736 -0.05683871784593219 -0.0671646791602896
v -0.031250000000000736 -0.06773318568938946 0.05735965810117873
v 0.02499999999999918 -0.05683871784593219 -0.0671646791602896
v 0.02499999999999918 0.06768561941553586 -0.05627021131683233
v 0.02499999999999918 0.0567911515720786 0.06825412594463606
v 0.02499999999999918 -0.06773318568938946 0.05735965810117873
v -0.08750000000000088 0.18409837008518581 -1.6020061635355596
v -0.08750000000000088 0.19662700810516187 -1.745209151386248
v -0.08750000000000088 0.10945997202213398 -1.7528352788766681
v -0.08750000000000088 0.09693133400215811 -1.6096322910259797
v 0.02499999999999918 0.10945997202213398 -1.7528352788766681
v 0.02499999999999918 0.19662700810516187 -1.745209151386248
v 0.02499999999999918 0.18409837008518581 -1.6020061635355596
v 0.02499999999999918 0.09693133400215811 -1.6096322910259797
vt 0.1875 0.921875
vt 0.203125 0.921875
vt 0.203125 0.9375
vt 0.1875 0.9375
vt 0.21875 0.734375
vt 0.609375 0.734375
vt 0.609375 0.75
vt 0.21875 0.75
vt 0.375 0.796875
vt 0.390625 0.796875
vt 0.390625 0.8125
vt 0.375 0.8125
vt 0.265625 0.984375
vt 0.65625 0.984375
vt 0.65625 1
vt 0.265625 1
vt 0.015625 0.734375
vt 0 0.734375
vt 0 0.34375
vt 0.015625 0.34375
vt 0.046875 0.34375
vt 0.03125 0.34375
vt 0.03125 0.734375
vt 0.046875 0.734375
vt 0.4375 0.71875
vt 0.40625 0.71875
vt 0.40625 0.6875
vt 0.4375 0.6875
vt 0.4375 0.640625
vt 0.4375 0.671875
vt 0.40625 0.671875
vt 0.40625 0.640625
vt 0.078125 0.96875
vt 0.09375 0.96875
vt 0.09375 1
vt 0.078125 1
vt 0.515625 0.8125
vt 0.515625 0.84375
vt 0.5 0.84375
vt 0.5 0.8125
vt 0.21875 0.46875
vt 0.21875 0.5
vt 0.203125 0.5
vt 0.203125 0.46875
vt 0.515625 0.796875
vt 0.5 0.796875
vt 0.5 0.765625
vt 0.515625 0.765625
vt 0.515625 0.90625
vt 0.484375 0.90625
vt 0.484375 0.890625
vt 0.515625 0.890625
vt 0.46875 0.5
vt 0.46875 0.515625
vt 0.4375 0.515625
vt 0.4375 0.5
vt 0.40625 0.84375
vt 0.4375 0.84375
vt 0.4375 0.875
vt 0.40625 0.875
vt 0.4375 0.796875
vt 0.4375 0.828125
vt 0.40625 0.828125
vt 0.40625 0.796875
vt 0.515625 0.5
vt 0.515625 0.515625
vt 0.484375 0.515625
vt 0.484375 0.5
vt 0.53125 0.875
vt 0.5 0.875
vt 0.5 0.859375
vt 0.53125 0.859375
vn 0 -0.08715574274765803 0.9961946980917455
vn -1 0 0
vn 0 0.08715574274766008 -0.9961946980917455
vn 1 0 0
vn 0 0.9961946980917455 0.087155742747658
vn 0 -0.9961946980917455 -0.087155742747658
vn -1 0 0
vn 1 0 0
vn 0 0.9961946980917455 0.08715574274765794
vn 0 -0.9961946980917455 -0.08715574274765808
vn 0 0.08715574274765829 -0.9961946980917457
vn 0 -0.08715574274765875 0.9961946980917457
vn -1 0 0
vn 1 0 0
vn 0 0.9961946980917454 0.08715574274765953
vn 0 -0.9961946980917457 -0.08715574274765818
vn 0 0.08715574274765849 -0.9961946980917455
vn 0 -0.08715574274765868 0.9961946980917455
usemtl m_7a718f67-f9f6-23de-8de0-59404c44f2d6
f 1/1/1 2/2/1 3/3/1 4/4/1
f 5/5/2 1/6/2 4/7/2 6/8/2
f 7/9/3 5/10/3 6/11/3 8/12/3
f 2/13/4 7/14/4 8/15/4 3/16/4
f 8/17/5 6/18/5 4/19/5 3/20/5
f 2/21/6 1/22/6 5/23/6 7/24/6
f 9/25/7 10/26/7 11/27/7 12/28/7
f 13/29/8 14/30/8 15/31/8 16/32/8
f 14/33/9 10/34/9 9/35/9 15/36/9
f 12/37/10 11/38/10 13/39/10 16/40/10
f 11/41/11 10/42/11 14/43/11 13/44/11
f 15/45/12 9/46/12 12/47/12 16/48/12
f 17/49/13 18/50/13 19/51/13 20/52/13
f 21/53/14 22/54/14 23/55/14 24/56/14
f 22/57/15 18/58/15 17/59/15 23/60/15
f 20/61/16 19/62/16 21/63/16 24/64/16
f 19/65/17 18/66/17 22/67/17 21/68/17
f 23/69/18 17/70/18 20/71/18 24/72/18