# Made in Blockbench 4.8.3
mtllib oil_press_rod.mtl

o cuboid
v -0.025000000000000112 0.2625000000000006 0.02500000000000012
v -0.025000000000000112 0.2625000000000006 -0.02500000000000019
v -0.025000000000000112 -0.01874999999999956 -0.02500000000000019
v -0.025000000000000112 -0.01874999999999956 0.02500000000000012
v 0.031249999999999806 -0.01874999999999956 -0.02500000000000019
v 0.031249999999999806 0.2625000000000006 -0.02500000000000019
v 0.031249999999999806 0.2625000000000006 0.02500000000000012
v 0.031249999999999806 -0.01874999999999956 0.02500000000000012
vt 0.203125 0.78125
vt 0.1953125 0.78125
vt 0.1953125 0.7421875
vt 0.203125 0.7421875
vt 0.03125 0.7109375
vt 0.03125 0.75
vt 0.0234375 0.75
vt 0.0234375 0.7109375
vt 0.2109375 0.765625
vt 0.21875 0.765625
vt 0.21875 0.7734375
vt 0.2109375 0.7734375
vt 0.2421875 0.71875
vt 0.2421875 0.7265625
vt 0.234375 0.7265625
vt 0.234375 0.71875
vt 0.15625 0.578125
vt 0.15625 0.6171875
vt 0.1484375 0.6171875
vt 0.1484375 0.578125
vt 0.3984375 0.84375
vt 0.390625 0.84375
vt 0.390625 0.8046875
vt 0.3984375 0.8046875
vn -1 0 0
vn 1 0 0
vn 0 1 0
vn 0 -1 0
vn 0 0 -1
vn 0 0 1
usemtl m_0ff3fe8f-20ec-581f-e55d-d7f9aadde1b2
f 1/1/1 2/2/1 3/3/1 4/4/1
f 5/5/2 6/6/2 7/7/2 8/8/2
f 6/9/3 2/10/3 1/11/3 7/12/3
f 4/13/4 3/14/4 5/15/4 8/16/4
f 3/17/5 2/18/5 6/19/5 5/20/5
f 7/21/6 1/22/6 4/23/6 8/24/6