# Made in Blockbench 4.8.3
mtllib steam_valve_otherside.mtl

o 汽阀杆
v 0.031250000000000465 -0.03125000000000147 0.74066303755925
v -0.031249999999999535 -0.03125000000000147 0.74066303755925
v -0.031249999999999535 0.031249999999998758 0.74066303755925
v 0.031250000000000465 0.031249999999998758 0.74066303755925
v 0.031250000000000465 -0.03125000000000147 -0.7343369624407552
v 0.031250000000000465 0.031249999999998758 -0.7343369624407552
v -0.031249999999999535 -0.03125000000000147 -0.7343369624407552
v -0.031249999999999535 0.031249999999998758 -0.7343369624407552
vt 0.546875 0.90625
vt 0.546875 0.890625
vt 0.53125 0.890625
vt 0.53125 0.90625
vt 0.640625 0.96875
vt 0.640625 0.953125
vt 0.265625 0.953125
vt 0.265625 0.96875
vt 0.171875 0.46875
vt 0.171875 0.453125
vt 0.15625 0.453125
vt 0.15625 0.46875
vt 0.640625 0.9375
vt 0.640625 0.921875
vt 0.265625 0.921875
vt 0.265625 0.9375
vt 0.0625 0.359375
vt 0.0625 0.734375
vt 0.078125 0.734375
vt 0.078125 0.359375
vt 0.09375 0.734375
vt 0.09375 0.359375
vt 0.109375 0.359375
vt 0.109375 0.734375
vn 0 0 1
vn 1 0 0
vn 0 0 -1
vn -1 0 0
vn 0 1 0
vn 0 -1 0
usemtl m_c2cfd5f1-40f7-70f5-3678-d1d1a523a153
f 3/1/1 2/2/1 1/3/1 4/4/1
f 4/5/2 1/6/2 5/7/2 6/8/2
f 6/9/3 5/10/3 7/11/3 8/12/3
f 8/13/4 7/14/4 2/15/4 3/16/4
f 4/17/5 6/18/5 8/19/5 3/20/5
f 5/21/6 1/22/6 2/23/6 7/24/6