# Made in Blockbench 4.9.3
mtllib coupler_fairing_lh.mtl

o 车钩整流罩
v 6.7414939417099845e-15 0.7250000000000013 0.8499999999999993
v 6.507001846158666e-15 0.6625000000000013 0.9749999999999993
v 6.757053304992843e-15 0.13750000000000162 0.6937499999999993
v 6.5287849547546685e-15 0.13750000000000162 0.7562499999999994
v 0.8375000000000068 0.9812500000000008 0.3687499999999996
v 0.8875000000000068 0.9812500000000008 0.3687499999999996
v 0.8375000000000068 0.23750000000000127 0.3687499999999996
v 0.8875000000000068 0.2562500000000013 0.3687499999999996
v 0.29375000000000645 0.6750000000000013 0.9093749999999996
v 0.2625000000000067 0.7375000000000013 0.8156249999999995
v 0.26250000000000673 0.1375000000000015 0.6593749999999995
v 0.2937500000000065 0.1375000000000015 0.6906249999999996
v 0.5910782108758533 0.768750000000001 0.6985461522395807
v 0.5557967891241594 0.7375000000000012 0.5827038477604183
v 0.5557967891241594 0.16250000000000153 0.5077038477604183
v 0.5910782108758533 0.18125000000000147 0.5422961522395808
v -0.0021712877418350574 1.1749245225779443 0.5146712877418411
v 0.2904981987165315 1.162308711452735 0.48141995355420375
v 0.2592481987165315 1.162308711452735 0.45016995355420386
v -0.002171287741834829 1.1749245225779443 0.45217128774184134
v 0.5867458960507446 1.0934429003275261 0.42796477160614754
v 0.5514644742990507 1.0934429003275261 0.39337246712698537
v 6.788172031558561e-15 0.043750000000001066 0.3812499999999993
v 0.265522564926295 0.09404966749182098 0.40629222221049155
v 0.2967725649262948 0.044049667491821154 0.38129222221049186
v 6.565505052102215e-15 -0.0062499999999987566 0.3874999999999996
v 0.524341918976736 0.15059933498364175 0.39528829218140193
v 0.5596233407284299 0.1005993349836416 0.342380596660565
vt 0.5849609375 0.6984408022994812
vt 0.5771484375 0.7023470522994812
vt 0.5673828125 0.6656283022994813
vt 0.5712890625 0.6656283022994813
vt 0.32428170457136335 0.445703125
vt 0.32428170457136335 0.4921875
vt 0.32115670457136336 0.4921875
vt 0.32115670457136336 0.446875
vt 0.07216566585236185 0.6505926573999172
vt 0.06640625 0.6243683986062197
vt 0.07421875 0.621679649499924
vt 0.07421875 0.65234375
vt 0.2172471913199192 0.7460459537019761
vt 0.2046278086800808 0.7280570894250906
vt 0.20659559904859956 0.72540390625
vt 0.21696388978237446 0.7427205884833186
vt 0.32428170457136335 0.44600937500000004
vt 0.3439063139463634 0.44129062500000005
vt 0.3460945951963634 0.47746640625000003
vt 0.32428170457136335 0.4921875
vt 0.618309582104841 0.8399477757033179
vt 0.5887020994792734 0.8317082039594104
vt 0.5896008778797852 0.7937236559889453
vt 0.6180395160798313 0.792047753240389
vt 0.08198205223860998 0.79296875
vt 0.07051720848860998 0.778543359375
vt 0.07327931786360999 0.778543359375
vt 0.08474416161360998 0.790210546875
vt 0.38587454542863664 0.4754451692332998
vt 0.3694980660049104 0.47793707349418235
vt 0.36416625350666154 0.43955468295218536
vt 0.38061958880695074 0.4378155059740726
vt 0.03719149233533914 0.786812575121478
vt 0.020596961085339135 0.790327028246478
vt 0.018643054835339134 0.786833668871478
vt 0.03719149233533914 0.784191871996478
vt 0.545949609375 0.79296875
vt 0.56866796875 0.79296875
vt 0.565687109375 0.829115234375
vt 0.546875 0.8283890625
vt 0.07051720848860998 0.778543359375
vt 0.05978708838639002 0.7625007381049732
vt 0.0628748404026545 0.7625299955487703
vt 0.07327944185429507 0.778543359375
vt 0.3694980660049104 0.47793707349418235
vt 0.3460945951963634 0.47746640625000003
vt 0.343906305391283 0.44129048357086853
vt 0.3641919755636814 0.43973984963582324
vt 0.020596961085339135 0.790327028246478
vt 0.0042366687385001316 0.79296875
vt 0.0018710076646608655 0.7885003819263535
vt 0.018738881908225466 0.7870049966429339
vt 0.56866796875 0.79296875
vt 0.5896008778797852 0.7937236559889453
vt 0.5887020970934426 0.8317083047903894
vt 0.5657058525288143 0.8288879512223057
vt 0.4600953125 0.561444921875
vt 0.43779296875 0.5625
vt 0.4375 0.519653125
vt 0.456267578125 0.52109375
vt 0.5957583031581866 0.654705078125
vt 0.5794333031581866 0.653665234375
vt 0.5803524437831866 0.618653125
vt 0.5968442406581866 0.6171875
vt 0.5561913592423884 0.7304685937468751
vt 0.5522851092455134 0.73046875
vt 0.5771484375 0.7023470522994812
vt 0.5849607812562502 0.6984408804213562
vt 0.47917107608417653 0.5585078045777573
vt 0.4600953125 0.561444921875
vt 0.4562673261525126 0.5210910937589569
vt 0.47699861908489694 0.5321869823486918
vt 0.32421875 0.7726293791140458
vt 0.3228122206855286 0.7753783323329085
vt 0.2963945593285219 0.7753783323329085
vt 0.29955170030445183 0.76953125
vt 0.5794333031581866 0.653665234375
vt 0.5604017799676784 0.6520873529483838
vt 0.5594057593418134 0.6269076440849939
vt 0.580331909651976 0.6194353156989103
vt 0.10937500000000001 0.70703125
vt 0.12665778269421354 0.7253699667055751
vt 0.109375 0.7338804587874523
vt 0.29338653573858675 0.76953125
vt 0.265625 0.7522130879064537
vt 0.30026371763034804 0.7522130879064537
vt 0.15234375 0.73957074927259
vt 0.15070433420693155 0.7421875
vt 0.13030333802680344 0.7421875
vt 0.13318300230892097 0.741358190949376
vt 0.041678906249999995 0.657073046875
vt 0.050581796557914616 0.6426345292405719
vt 0.0662478446535497 0.6556875132353069
vt 0.054227391349061696 0.6668996550052791
vt 0.43060005210743296 0.39389789592458824
vt 0.44938582809562144 0.3949785192365266
vt 0.4486166381182502 0.41516108603490354
vt 0.4302090255695734 0.4185603386079918
vt 0.5478515625 0.6597689272994813
vt 0.5482421875 0.6566439272994813
vt 0.5712890625 0.6656283022994813
vt 0.5673828125 0.6656283022994813
vt 0.03125 0.669951953125
vt 0.041678906249999995 0.657073046875
vt 0.054315625 0.66696875
vt 0.035610546874999996 0.67578125
vt 0.19600570925434851 0.7247727959266644
vt 0.19921875 0.728676759768831
vt 0.19724252867275452 0.7357392805971062
vt 0.19600570925434851 0.73828125
vt 0.44938582809562144 0.3949785192365266
vt 0.46634530845780525 0.39416222485724484
vt 0.4681578141020539 0.40765687059354905
vt 0.4486175808599046 0.4151363496928119
vt 0.20659559904859956 0.72540390625
vt 0.21339481779859956 0.72265625
vt 0.21696395842359956 0.742720703125
vt 0.06961904554644147 0.9375
vt 0.051707812435316185 0.9502292315215171
vt 0.046875 0.9375
vt 0.15625 0.6881937044157237
vt 0.16128930352464765 0.687783120296755
vt 0.15662053006832605 0.7076207770168975
vt 0.15625 0.7109375
vn -1 4.169851735681341e-16 -1.6674441776264794e-15
vn 9.957992501029599e-17 0 -1
vn -0.6559810719036123 0.7547676722700103 -0.0038202356338461626
vn 0.3316947786260628 -0.9288197249533272 0.1651438535635912
vn -0.46383006172184843 0.11458471212985162 -0.8784827929955291
vn 0.7831613168335689 -0.1598214936365253 0.6009288160733353
vn 0.038650341169746846 0.9985050336652914 -0.03865034116974697
vn -0.13741041073588295 0.2496209883610345 -0.958544595306372
vn -0.0003241495271453623 0.44705148989917104 -0.894508166707278
vn 0.20263147109474458 -0.369134850443916 0.9070170610907646
vn 0.18903643897939237 0.9628564352864792 -0.1928022556024815
vn -0.6186778326916311 0.10161465637583467 -0.7790456988813989
vn -0.17436646865917008 0.6549765519823947 -0.7352564525120363
vn 0.4613054476534335 -0.2280411806997734 0.8574348394311481
vn 0.11258926818884787 0.6642947840134377 0.7389425529912592
vn -0.03725713791640802 -0.6518729950497555 -0.7574123738091022
vn -0.9999883555802901 -0.00482583711155932 -3.652251074971183e-15
vn 0.27768525320407683 0.6349601551479358 0.7209136574705026
vn 0.6041060896075873 -0.5053975140551721 -0.6161405564365017
vn -0.27197414046485374 -0.4544889734680788 -0.8482156800686582
vn -0.2525894949464937 -0.45677974453448833 -0.852965891478483
vn 0.363917375826136 0.5991537309997271 0.7131472149570001
vn 0.2839560208960754 0.9140533016216124 -0.2896127414177376
vn -0.15254035254648715 0.9466170771138029 -0.28398512313414254
vn 0.16591814969519358 -0.9435522477950778 0.28667110646624183
vn -1 4.234547617156156e-15 -1.750335775766091e-15
vn -0.21723208817871625 0.9616086159646716 -0.16768747588303498
vn 0.6412443809060493 0.7233722581843834 -0.2560043359899269
vn 0.24493792187485905 -0.9118888913238693 0.32933882903136436
vn 0.2693864251882834 -0.962666551831084 0.02653420264354039
vn 0.3911475674058571 -0.8732018627123833 0.29072682619274237
vn -0.23603356645093776 0.6227758134025523 -0.7459480154469481
usemtl m_294ab479-4b2f-923f-4690-6867d1e104f9
f 2/1/1 1/2/1 3/3/1 4/4/1
f 7/5/2 5/6/2 6/7/2 8/8/2
f 5/9/3 14/10/3 13/11/3 6/12/3
f 8/13/4 16/14/4 15/15/4 7/16/4
f 7/17/5 15/18/5 14/19/5 5/20/5
f 6/21/6 13/22/6 16/23/6 8/24/6
f 17/25/7 18/26/7 19/27/7 20/28/7
f 1/29/8 10/30/8 11/31/8 3/32/8
f 23/33/9 24/34/9 25/35/9 26/36/9
f 4/37/10 12/38/10 9/39/10 2/40/10
f 18/41/11 21/42/11 22/43/11 19/44/11
f 10/45/12 14/46/12 15/47/12 11/48/12
f 24/49/13 27/50/13 28/51/13 25/52/13
f 12/53/14 16/54/14 13/55/14 9/56/14
f 18/57/15 17/58/15 2/59/15 9/60/15
f 20/61/16 19/62/16 10/63/16 1/64/16
f 17/65/17 20/66/17 1/67/17 2/68/17
f 21/69/18 18/70/18 9/71/18 13/72/18
f 22/73/19 21/74/19 13/75/19 14/76/19
f 19/77/20 22/78/20 14/79/20 10/80/20
f 14/81/21 22/82/21 5/83/21
f 21/84/22 13/85/22 6/86/22
f 22/87/23 21/88/23 6/89/23 5/90/23
f 24/91/24 23/92/24 3/93/24 11/94/24
f 26/95/25 25/96/25 12/97/25 4/98/25
f 23/99/26 26/100/26 4/101/26 3/102/26
f 27/103/27 24/104/27 11/105/27 15/106/27
f 28/107/28 27/108/28 15/109/28 16/110/28
f 25/111/29 28/112/29 16/113/29 12/114/29
f 15/115/30 27/116/30 7/117/30
f 8/118/31 16/119/31 28/120/31
f 28/121/32 27/122/32 7/123/32 8/124/32