# Made in Blockbench 4.9.3
mtllib wind_shield_1.mtl

o cuboid
v 0.02496166373278388 0.030850552831318254 -0.01664823882217413
v -0.024289008367636252 0.030850552831318254 0.02183060338567952
v 0.02496166373278388 -0.031649447168681774 -0.01664823882217413
v -0.024289008367636252 -0.031649447168681774 0.02183060338567952
v 0.018826385273036872 0.030850552831318254 0.9399088273574779
v -0.030183769854469855 0.030850552831318254 0.9408884408854541
v 0.018826385273036872 -0.031649447168681774 0.9399088273574779
v -0.030183769854469855 -0.031649447168681774 0.9408884408854541
vt 0.0859375 0.984375
vt 0.08203125 0.984375
vt 0.08203125 0.98046875
vt 0.0859375 0.98046875
vt 0.1171875 0.99609375
vt 0.1171875 1
vt 0.11328125 1
vt 0.11328125 0.99609375
vt 0.0390625 0.41007524214040225
vt 0.0390625 0.35028919579269147
vt 0.04296875 0.3527138166691195
vt 0.04296875 0.41015625
vt 0.6212589062272262 0.609375
vt 0.6236835271036543 0.61328125
vt 0.5638974807559435 0.61328125
vt 0.5638164728963457 0.609375
vt 0.63671875 0.85546875
vt 0.63671875 0.859375
vt 0.578125 0.859375
vt 0.578125 0.85546875
vt 0.55859375 1
vt 0.5 1
vt 0.5 0.99609375
vt 0.55859375 0.99609375
vn -0.6156614753256583 -1.1197650788182234e-18 -0.788010753606722
vn 0.0199839787683922 1.4207185079731968e-18 0.9998003003563185
vn -9.629649721936175e-35 1 -1.4210022816225073e-18
vn 9.629649721936175e-35 -1 1.4210022816225073e-18
vn 0.9999794314633976 9.114004460783006e-21 0.00641378594436637
vn -0.9999794314633976 -9.114004460783391e-21 -0.006413785944366703
usemtl m_6a7314bc-a107-a238-4243-ee241e4f24e1
f 2/1/1 1/2/1 3/3/1 4/4/1
f 7/5/2 5/6/2 6/7/2 8/8/2
f 5/9/3 1/10/3 2/11/3 6/12/3
f 4/13/4 3/14/4 7/15/4 8/16/4
f 3/17/5 1/18/5 5/19/5 7/20/5
f 6/21/6 2/22/6 4/23/6 8/24/6