# Made in Blockbench 4.11.1
mtllib freight_nx70_floor_low.mtl

o cube
v -0.000031249999999705125 0.37393364102309656 1.0163497885852237
v 0.9999687500000001 0.37393364102309656 1.0163497885852233
v -0.000031249999999705125 0.2500030333513703 1.0000340145577176
v 0.9999687500000001 0.2500030333513703 1.0000340145577171
v -0.000031250000000149214 0.5044598332431481 0.024904927211413685
v 0.9999687499999996 0.5044598332431481 0.02490492721141324
v -0.000031250000000149214 0.3805292255714219 0.008589153183907239
v 0.9999687499999996 0.3805292255714219 0.008589153183906795
v -0.00003124999999992717 0.9375030333513703 1.0000340145577176
v 0.9999687500000001 0.9375030333513702 1.0000340145577171
v -0.00003124999999992717 0.3750030333513703 1.0000340145577176
v 0.9999687500000001 0.37500303335137025 1.0000340145577171
v -0.000031250000000149214 0.9375030333513703 -0.062465985442282546
v 0.9999687499999999 0.9375030333513703 -0.06246598544228277
v -0.000031250000000149214 0.3750030333513703 -0.06246598544228266
v 0.9999687499999999 0.3750030333513702 -0.06246598544228288
v -0.00003124999999981615 1.0000030333513703 1.0000340145577176
v 0.9999687500000001 1.0000030333513703 1.0000340145577171
v -0.00003124999999992717 0.9375030333513703 1.0000340145577176
v 0.9999687500000001 0.9375030333513702 1.0000340145577171
v -0.00003125000000003819 1.0000030333513703 0.00003401455771734341
v 0.9999687499999999 1.0000030333513703 0.00003401455771712136
v -0.000031250000000149214 0.9375030333513703 0.00003401455771734341
v 0.9999687499999999 0.9375030333513703 0.00003401455771712136
vt 0.765625 0.515625
vt 0.765625 0.546875
vt 0.515625 0.546875
vt 0.515625 0.515625
vt 0.75 0.296875
vt 0.75 0.328125
vt 0.5 0.328125
vt 0.5 0.296875
vt 0 0.5
vt 0 0.25
vt 0.25 0.25
vt 0.25 0.5
vt 0.25 0.25
vt 0.25 0.5
vt 0.5 0.5
vt 0.5 0.25
vt 0.75 0.328125
vt 0.75 0.359375
vt 0.5 0.359375
vt 0.5 0.328125
vt 0.765625 0.546875
vt 0.765625 0.578125
vt 0.515625 0.578125
vt 0.515625 0.546875
vt 0.765625 0.71875
vt 0.765625 0.859375
vt 0.515625 0.859375
vt 0.515625 0.71875
vt 0.765625 0.578125
vt 0.765625 0.71875
vt 0.515625 0.71875
vt 0.515625 0.578125
vt 0 1
vt 0 0.75
vt 0.265625 0.75
vt 0.265625 1
vt 0 0.5
vt 0 0.75
vt 0.265625 0.75
vt 0.265625 0.5
vt 0.78125 0.859375
vt 0.78125 1
vt 0.515625 1
vt 0.515625 0.859375
vt 0.765625 0.359375
vt 0.765625 0.5
vt 0.5 0.5
vt 0.5 0.359375
vt 0.75 0.28125
vt 0.75 0.296875
vt 0.5 0.296875
vt 0.5 0.28125
vt 0.75 0.25
vt 0.75 0.265625
vt 0.5 0.265625
vt 0.5 0.25
vt 0.265625 1
vt 0.265625 0.75
vt 0.515625 0.75
vt 0.515625 1
vt 0.265625 0.5
vt 0.265625 0.75
vt 0.515625 0.75
vt 0.515625 0.5
vt 0.75 0.265625
vt 0.75 0.28125
vt 0.5 0.28125
vt 0.5 0.265625
vt 0.765625 0.5
vt 0.765625 0.515625
vt 0.515625 0.515625
vt 0.515625 0.5
vn 4.421013798963923e-16 -0.13052619222005157 0.9914448613738104
vn -4.421013798963923e-16 0.13052619222005157 -0.9914448613738104
vn 4.4206212158446357e-17 0.9914448613738105 0.1305261922200516
vn -4.4206212158446357e-17 -0.9914448613738105 -0.1305261922200516
vn -1 -5.79652735677401e-17 4.402899650974004e-16
vn 1 5.79652735677401e-17 -4.402899650974004e-16
vn 2.3438041630975537e-16 2.7755575615628895e-17 1
vn -2.2204460492503146e-16 8.326672684688673e-17 -1
vn 1.2517734025040566e-16 1 2.7755575615628846e-17
vn -1.5104848976055575e-17 -1 2.775557561562892e-17
vn -1 -5.79652735677401e-17 2.3130680752090037e-16
vn 1 5.796527356774009e-17 -2.313068075209004e-16
vn 2.237793284010087e-16 -7.494005416219805e-16 1
vn -2.2377932840100836e-16 5.551115123125781e-16 -1
vn 1.510484897605557e-17 1 -8.326672684688673e-17
vn -1.251773402504056e-16 -1 8.326672684688678e-17
vn -1 1.7183915658325094e-15 2.1824536017236896e-16
vn 1 5.796527356773998e-17 -2.1824536017236916e-16
usemtl m_cf3e0c68-1ac5-5b58-9af2-440c9b800da6
f 4/1/1 2/2/1 1/3/1 3/4/1
usemtl none
f 7/5/2 5/6/2 6/7/2 8/8/2
usemtl m_cf3e0c68-1ac5-5b58-9af2-440c9b800da6
f 1/9/3 2/10/3 6/11/3 5/12/3
f 4/13/4 3/14/4 7/15/4 8/16/4
f 3/17/5 1/18/5 5/19/5 7/20/5
f 8/21/6 6/22/6 2/23/6 4/24/6
f 12/25/7 10/26/7 9/27/7 11/28/7
f 15/29/8 13/30/8 14/31/8 16/32/8
f 9/33/9 10/34/9 14/35/9 13/36/9
f 12/37/10 11/38/10 15/39/10 16/40/10
f 11/41/11 9/42/11 13/43/11 15/44/11
f 16/45/12 14/46/12 10/47/12 12/48/12
f 20/49/13 18/50/13 17/51/13 19/52/13
f 23/53/14 21/54/14 22/55/14 24/56/14
f 17/57/15 18/58/15 22/59/15 21/60/15
f 20/61/16 19/62/16 23/63/16 24/64/16
f 19/65/17 17/66/17 21/67/17 23/68/17
f 24/69/18 22/70/18 18/71/18 20/72/18