# Made in Blockbench 4.11.2
mtllib freight_nx70_floor_low_ladder.mtl

o cuboid
v 0.5625 0.9375 0
v 0.5625 0.9375 -0.125
v 0.5625 0.6875 0
v 0.5625 0.6875 -0.125
v 0.4375 0.9375 0
v 0.4375 0.9375 -0.125
v 0.4375 0.6875 0
v 0.4375 0.6875 -0.125
v 0.9999999999999998 1 4.862127145344175e-9
v 0.9999999999999998 1 -0.062499995137872855
v 0.9999999999999998 0.875 4.862127145344175e-9
v 0.9999999999999998 0.875 -0.062499995137872855
v -2.220446049250313e-16 1 4.862127145344175e-9
v -2.220446049250313e-16 1 -0.062499995137872855
v -2.220446049250313e-16 0.875 4.862127145344175e-9
v -2.220446049250313e-16 0.875 -0.062499995137872855
v 1 0.9375 1.000000004862127
v 1 1 1.000000004862127
v 5.551115123125783e-17 1 1.0000000048621271
v -2.220446049250313e-16 1 4.862127145344175e-9
v 0.9999999999999999 1 4.86212692329957e-9
v 1 0.25000000000000006 1.0000000048621267
v 0.9999999999999997 0.375 1.0000000048621267
v 3.3306690738754696e-16 0.25000000000000006 1.0000000048621271
v -1.1102230246251565e-16 0.3805261922200516 0.008555143488316874
v -1.1102230246251565e-16 0.5044567998917779 0.02487091751582332
v 0.9999999999999997 0.5044567998917779 0.024870917515822877
v 0.9999999999999997 0.38052619222005163 0.00855514348831643
v 0.21874999999999994 -0.125 4.862126812277268e-9
v 0.21874999999999994 -0.0625 4.862126812277268e-9
v 0.21874999999999994 -0.06249999999999989 -0.18749999513787324
v 0.21874999999999994 -0.125 -0.18749999513787324
v 0.78125 -0.125 -0.18749999513787324
v 0.78125 -0.0625 -0.18749999513787324
v 0.78125 -0.0625 4.862126812277268e-9
v 0.78125 -0.125 4.862126812277268e-9
v 0.78125 0.40625 4.862126701254965e-9
v 0.78125 0.40625 -0.062499995137873354
v 0.78125 -0.0625 -0.062499995137873354
v 0.21875 0.40625 4.862126812277268e-9
v 0.21875 0.40625 -0.062499995137873354
v 0.21874999999999994 -0.06249999999999989 -0.062499995137873354
v 0.28125 0.40625 4.862126812277268e-9
v 0.28124999999999994 -0.0625 4.862126701254965e-9
v 0.71875 0.40625 4.862126701254965e-9
v 0.71875 -0.0625 4.862126645743814e-9
v 1 0.375 1.000000004862127
v 1 0.9375 1.000000004862127
v 0 0.9375 1.0000000048621271
v 0 0.375 1.0000000048621271
v -2.220446049250313e-16 0.375 4.862127145344175e-9
v -2.220446049250313e-16 0.9375 4.862127145344175e-9
v 0.9999999999999997 0.9375 4.86212692329957e-9
v 0.9999999999999997 0.375 4.86212692329957e-9
v 1 0.9375 1.000000004862127
v 1 1 1.000000004862127
v 5.551115123125783e-17 1 1.0000000048621271
v -2.220446049250313e-16 1 4.862127145344175e-9
v 0.9999999999999999 1 4.86212692329957e-9
v 1 0.25000000000000006 1.0000000048621267
v 0.9999999999999997 0.375 1.0000000048621267
v 3.3306690738754696e-16 0.25000000000000006 1.0000000048621271
v -1.1102230246251565e-16 0.3805261922200516 0.008555143488316874
v -1.1102230246251565e-16 0.5044567998917779 0.02487091751582332
v 0.9999999999999997 0.5044567998917779 0.024870917515822877
v 0.9999999999999997 0.38052619222005163 0.00855514348831643
v 0.21874999999999994 -0.125 4.862126812277268e-9
v 0.21874999999999994 -0.0625 4.862126812277268e-9
v 0.21874999999999994 -0.06249999999999989 -0.18749999513787324
v 0.21874999999999994 -0.125 -0.18749999513787324
v 0.78125 -0.125 -0.18749999513787324
v 0.78125 -0.0625 -0.18749999513787324
v 0.78125 -0.0625 4.862126812277268e-9
v 0.78125 -0.125 4.862126812277268e-9
v 0.78125 0.5625 4.862126701254965e-9
v 0.78125 0.5625 -0.062499995137873354
v 0.78125 -0.0625 -0.062499995137873354
v 0.21875 0.5625 4.862126812277268e-9
v 0.21875 0.5625 -0.062499995137873354
v 0.21874999999999994 -0.06249999999999989 -0.062499995137873354
v 0.28125 0.5625 4.862126812277268e-9
v 0.28124999999999994 -0.0625 4.862126701254965e-9
v 0.71875 0.5625 4.862126701254965e-9
v 0.71875 -0.0625 4.862126645743814e-9
v 1 0.375 1.000000004862127
v 1 0.9375 1.000000004862127
v 0 0.9375 1.0000000048621271
v 0 0.375 1.0000000048621271
v -2.220446049250313e-16 0.375 4.862127145344175e-9
v -2.220446049250313e-16 0.9375 4.862127145344175e-9
v 0.9999999999999997 0.9375 4.86212692329957e-9
v 0.9999999999999997 0.375 4.86212692329957e-9
v 0.9999999999999998 0.421875 4.862127145344175e-9
v 0.9999999999999998 0.421875 -0.046874995137872855
v 0.9999999999999998 0.375 4.862127145344175e-9
v 0.9999999999999998 0.375 -0.046874995137872855
v -2.220446049250313e-16 0.421875 4.862127145344175e-9
v -2.220446049250313e-16 0.421875 -0.046874995137872855
v -2.220446049250313e-16 0.375 4.862127145344175e-9
v -2.220446049250313e-16 0.375 -0.046874995137872855
vt 0.4140625 0.6953125
vt 0.3984375 0.6953125
vt 0.3984375 0.6640625
vt 0.4140625 0.6640625
vt 0.265625 0.5546875
vt 0.265625 0.5859375
vt 0.25 0.5859375
vt 0.25 0.5546875
vt 0.3984375 0.640625
vt 0.4140625 0.640625
vt 0.4140625 0.65625
vt 0.3984375 0.65625
vt 0.3359375 0.5703125
vt 0.3359375 0.5859375
vt 0.3203125 0.5859375
vt 0.3203125 0.5703125
vt 0.2890625 0.5546875
vt 0.2890625 0.5859375
vt 0.2734375 0.5859375
vt 0.2734375 0.5546875
vt 0.3125 0.5859375
vt 0.296875 0.5859375
vt 0.296875 0.5546875
vt 0.3125 0.5546875
vt 0.3828125 0.5859375
vt 0.375 0.5859375
vt 0.375 0.5703125
vt 0.3828125 0.5703125
vt 0.3984375 0.5703125
vt 0.3984375 0.5859375
vt 0.390625 0.5859375
vt 0.390625 0.5703125
vt 0.3984375 0.9296875
vt 0.5234375 0.9296875
vt 0.5234375 0.9375
vt 0.3984375 0.9375
vt 0.5234375 0.9140625
vt 0.5234375 0.921875
vt 0.3984375 0.921875
vt 0.3984375 0.9140625
vt 0.28125 0.6171875
vt 0.28125 0.6328125
vt 0.15625 0.6328125
vt 0.15625 0.6171875
vt 0.4140625 0.6328125
vt 0.2890625 0.6328125
vt 0.2890625 0.6171875
vt 0.4140625 0.6171875
vt 0.5234375 0.8359375
vt 0.5234375 0.84375
vt 0.3984375 0.84375
vt 0.3984375 0.8359375
vt 0.5234375 0.8203125
vt 0.5234375 0.828125
vt 0.3984375 0.828125
vt 0.3984375 0.8203125
vt 0 0.875
vt 0.125 0.875
vt 0.125 1
vt 0 1
vt 0.125 0.8671875
vt 0 0.8671875
vt 0 0.7421875
vt 0.125 0.7421875
vt 0.2578125 0.7265625
vt 0.2578125 0.734375
vt 0.1328125 0.734375
vt 0.1328125 0.7265625
vt 0.5234375 0.8046875
vt 0.5234375 0.8125
vt 0.3984375 0.8125
vt 0.3984375 0.8046875
vt 0.4140625 0.59375
vt 0.4140625 0.609375
vt 0.2890625 0.609375
vt 0.2890625 0.59375
vt 0.125 0.5859375
vt 0.125 0.6015625
vt 0 0.6015625
vt 0 0.5859375
vt 0.265625 0.875
vt 0.390625 0.875
vt 0.390625 1
vt 0.265625 1
vt 0 0.609375
vt 0.125 0.609375
vt 0.125 0.734375
vt 0 0.734375
vt 0.13294841514457137 0.515625
vt 0.1484375 0.5176812985539221
vt 0.1484375 0.6406421583954933
vt 0.1328125 0.6406247689230218
vt 0.28125 0.59375
vt 0.28125 0.609375
vt 0.1582890590820301 0.6092381538622007
vt 0.15625 0.59375
vt 0.2578125 0.640625
vt 0.2578125 0.6484375
vt 0.234375 0.6484375
vt 0.234375 0.640625
vt 0.3671875 0.578125
vt 0.3671875 0.5859375
vt 0.34375 0.5859375
vt 0.34375 0.578125
vt 0.3984375 0.96875
vt 0.3984375 0.9453125
vt 0.46875 0.9453125
vt 0.46875 0.96875
vt 0.3984375 1
vt 0.3984375 0.9765625
vt 0.46875 0.9765625
vt 0.46875 1
vt 0.2265625 0.640625
vt 0.2265625 0.6484375
vt 0.15625 0.6484375
vt 0.15625 0.640625
vt 0.46875 0.703125
vt 0.46875 0.7109375
vt 0.3984375 0.7109375
vt 0.3984375 0.703125
vt 0.3984375 0.71484375
vt 0.3984375 0.7734375
vt 0.390625 0.7734375
vt 0.390625 0.71484375
vt 0.203125 0.50390625
vt 0.203125 0.5625
vt 0.1953125 0.5625
vt 0.1953125 0.50390625
vt 0.1875 0.50390625
vt 0.1875 0.5625
vt 0.1796875 0.5625
vt 0.1796875 0.50390625
vt 0.4140625 0.71484375
vt 0.4140625 0.7734375
vt 0.40625 0.7734375
vt 0.40625 0.71484375
vt 0.1875 0.50390625
vt 0.1875 0.5625
vt 0.1796875 0.5625
vt 0.1796875 0.50390625
vt 0.2421875 0.50390625
vt 0.2421875 0.5625
vt 0.234375 0.5625
vt 0.234375 0.50390625
vt 0.2265625 0.50390625
vt 0.2265625 0.5625
vt 0.21875 0.5625
vt 0.21875 0.50390625
vt 0.1796875 0.50390625
vt 0.1796875 0.5625
vt 0.171875 0.5625
vt 0.171875 0.50390625
vt 0.390625 0.71875
vt 0.390625 0.7890625
vt 0.265625 0.7890625
vt 0.265625 0.71875
vt 0.390625 0.640625
vt 0.390625 0.7109375
vt 0.265625 0.7109375
vt 0.265625 0.640625
vt 0.1328125 0.875
vt 0.2578125 0.875
vt 0.2578125 1
vt 0.1328125 1
vt 0.2578125 0.8671875
vt 0.1328125 0.8671875
vt 0.1328125 0.7421875
vt 0.2578125 0.7421875
vt 0.2578125 0.65625
vt 0.2578125 0.7265625
vt 0.1328125 0.7265625
vt 0.1328125 0.65625
vt 0.390625 0.796875
vt 0.390625 0.8671875
vt 0.265625 0.8671875
vt 0.265625 0.796875
vt 0.4140625 0.5859375
vt 0.40625 0.5859375
vt 0.40625 0.578125
vt 0.4140625 0.578125
vt 0.0078125 0.5703125
vt 0.0078125 0.578125
vt 0 0.578125
vt 0 0.5703125
vt 0.3984375 0.8984375
vt 0.5234375 0.8984375
vt 0.5234375 0.90625
vt 0.3984375 0.90625
vt 0.5234375 0.8828125
vt 0.5234375 0.890625
vt 0.3984375 0.890625
vt 0.3984375 0.8828125
vt 0.5234375 0.8671875
vt 0.5234375 0.875
vt 0.3984375 0.875
vt 0.3984375 0.8671875
vt 0.5234375 0.859375
vt 0.3984375 0.859375
vt 0.3984375 0.8515625
vt 0.5234375 0.8515625
vn 1 0 0
vn -1 0 0
vn 0 1 0
vn 0 -1 0
vn 0 0 1
vn 0 0 -1
vn 1 0 0
vn -1 0 0
vn 0 1 0
vn 0 -1 0
vn 0 0 1
vn 0 0 -1
vn 2.220446049250313e-16 0 1
vn -2.220446049250313e-16 0 -1
vn 0 1 0
vn 0 -1 0
vn -1 8.881784197001252e-16 2.7755575615628914e-16
vn 1 -3.552713678800501e-15 -1.1102230246251565e-16
vn 4.440892098500628e-16 1.1832913578315186e-30 1
vn -4.406197628981089e-16 0.13052619222005152 -0.9914448613738105
vn 5.844389132531606e-17 0.9913023766891793 0.13160394359738753
vn -5.79652735677401e-17 -0.9914448613738105 -0.13052619222005155
vn -1 -2.664535259100377e-15 -2.3988609140561406e-16
vn 1 0 0
vn -1 0 0
vn 1 0 0
vn 0 1 5.9211894646675e-16
vn 0 -1 0
vn 0 0 -1
vn 0 0 1
vn -1 0 0
vn 1 0 0
vn -1 1.1842378929335003e-16 0
vn 1 -1.1842378929335005e-16 0
vn 0 0 -1
vn 0 -2.3684757858670006e-16 1
vn 0 1.1842378929335003e-16 -1
vn 0 2.3684757858670006e-16 1
vn 2.220446049250313e-16 0 1
vn -2.2204460492503136e-16 0 -1
vn 0 1 0
vn 0 -1 0
vn -1 0 2.220446049250313e-16
vn 1 0 -3.3306690738754696e-16
vn 1 0 0
vn -1 0 0
vn 0 1 0
vn 0 -1 0
vn 0 0 1
vn 0 0 -1
usemtl m_99c57e96-b598-7a9c-b28b-0439f64b304c
f 2/1/1 1/2/1 3/3/1 4/4/1
f 7/5/2 5/6/2 6/7/2 8/8/2
f 5/9/3 1/10/3 2/11/3 6/12/3
f 4/13/4 3/14/4 7/15/4 8/16/4
f 3/17/5 1/18/5 5/19/5 7/20/5
f 6/21/6 2/22/6 4/23/6 8/24/6
f 10/25/7 9/26/7 11/27/7 12/28/7
f 15/29/8 13/30/8 14/31/8 16/32/8
f 13/33/9 9/34/9 10/35/9 14/36/9
f 12/37/10 11/38/10 15/39/10 16/40/10
f 11/41/11 9/42/11 13/43/11 15/44/11
f 14/45/12 10/46/12 12/47/12 16/48/12
f 17/49/13 18/50/13 19/51/13 49/52/13
f 52/53/14 20/54/14 21/55/14 53/56/14
f 19/57/15 18/58/15 21/59/15 20/60/15
f 17/61/16 49/62/16 52/63/16 53/64/16
f 49/65/17 19/66/17 20/67/17 52/68/17
f 53/69/18 21/70/18 18/71/18 17/72/18
f 22/73/19 23/74/19 50/75/19 24/76/19
f 25/77/20 26/78/20 27/79/20 28/80/20
f 50/81/21 23/82/21 27/83/21 26/84/21
f 22/85/22 24/86/22 25/87/22 28/88/22
f 24/89/23 50/90/23 26/91/23 25/92/23
f 28/93/24 27/94/24 23/95/24 22/96/24
f 29/97/25 30/98/25 31/99/25 32/100/25
f 33/101/26 34/102/26 35/103/26 36/104/26
f 31/105/27 30/106/27 35/107/27 34/108/27
f 29/109/28 32/110/28 33/111/28 36/112/28
f 32/113/29 31/114/29 34/115/29 33/116/29
f 36/117/30 35/118/30 30/119/30 29/120/30
f 35/121/31 37/122/31 38/123/31 39/124/31
f 39/125/32 38/126/32 37/127/32 35/128/32
f 30/129/33 40/130/33 41/131/33 42/132/33
f 42/133/34 41/134/34 40/135/34 30/136/34
f 30/137/35 40/138/35 43/139/35 44/140/35
f 44/141/36 43/142/36 40/143/36 30/144/36
f 46/145/37 45/146/37 37/147/37 35/148/37
f 35/149/38 37/150/38 45/151/38 46/152/38
f 47/153/39 48/154/39 49/155/39 50/156/39
f 51/157/40 52/158/40 53/159/40 54/160/40
f 49/161/41 48/162/41 53/163/41 52/164/41
f 47/165/42 50/166/42 51/167/42 54/168/42
f 50/169/43 49/170/43 52/171/43 51/172/43
f 54/173/44 53/174/44 48/175/44 47/176/44
f 94/177/45 93/178/45 95/179/45 96/180/45
f 99/181/46 97/182/46 98/183/46 100/184/46
f 97/185/47 93/186/47 94/187/47 98/188/47
f 96/189/48 95/190/48 99/191/48 100/192/48
f 95/193/49 93/194/49 97/195/49 99/196/49
f 98/197/50 94/198/50 96/199/50 100/200/50