# Made in Blockbench 4.11.2
mtllib freight_nx70_floor_connection_lh.mtl

o cube
v -0.000048412477076986704 0.6406255883030683 0.00020596654530258274
v -0.000048412477076986704 0.20312558830306826 0.00020596654530258274
v -0.00004841247707743079 0.6406255883030683 1.0000788633818787
v 0.5155765875229226 0.6406255883030683 1.0000788633818787
v 0.5155765875229226 0.20312558830306826 1.0000788633818787
v -0.00004841247707743079 0.20312558830306826 1.0000788633818787
v 1.999951587522923 0.9375005883030683 0.00007886338187901298
v 0.999951587522923 0.37500058830306826 0.00007886338187879094
v 1.999951587522923 0.37500058830306826 0.00007886338187901298
v 0.9999515875229226 0.9375005883030683 1.0000788633818787
v 1.9999515875229226 0.9375005883030683 1.0000788633818791
v 1.9999515875229226 0.37500058830306826 1.0000788633818791
v 0.9999515875229226 0.37500058830306826 1.0000788633818787
v 0.999951587522923 0.9375005883030683 0.00007886338187879094
v -0.000048412477076986704 0.9375005883030683 0.0000788633818785689
v -0.000048412477076986704 0.31250058830306826 0.0000788633818785689
v 0.999951587522923 0.31250058830306826 0.00007886338187879094
v -0.00004841247707743079 0.9375005883030683 1.0000788633818787
v 0.9999515875229226 0.31250058830306826 1.0000788633818787
v -0.00004841247707743079 0.31250058830306826 1.0000788633818787
v 1.999951587522923 0.5044573881948461 0.02494977603557519
v -0.000048412477076542615 0.5044573881948461 0.0249497760355743
v -0.000048412477076542615 0.3805267805231198 0.008634002008067854
v 1.999951587522923 0.3805267805231198 0.008634002008068742
v -0.000048412477076986704 0.3739311959747945 1.0007696374093844
v 1.9999515875229221 0.3739311959747945 1.0007696374093853
v 1.9999515875229221 0.2500005883030682 1.0000788633818791
v -0.000048412477076986704 0.2500005883030682 1.0000788633818782
v 0.999951587522923 1.0000005883030683 0.00007886338187873543
v -0.00004841247707720875 1.0000005883030683 0.00007886338187851338
v -0.00004841247707743079 1.0000005883030683 1.0000788633818787
v 0.9999515875229226 1.0000005883030683 1.0000788633818787
v 1.999951587522923 1.0000005883030683 0.00007886338187895747
v 1.9999515875229226 1.0000005883030683 1.0000788633818791
v 1.997641862202003 0.5120230521683357 -0.0014836366181204541
v -0.000739186504583822 0.24893119597479463 -0.0014836366181206762
v -0.00004841247707743079 0.12500058830306826 -0.0014836366181206762
v 1.998332636229509 0.38809244449660935 -0.0014836366181204541
v -0.000739186504583822 0.24893119597479452 1.0000788633818787
v 1.997641862202003 0.5120230521683355 1.0000788633818787
v 1.998332636229509 0.38809244449660923 1.0000788633818787
v -0.00004841247707743079 0.12500058830306826 1.0000788633818787
v -0.00004841247707720875 1.0000005883030683 -0.06242113661812099
v -0.00004841247707720875 0.8750005883030683 0.00007886338187901298
v -0.00004841247707720875 0.8750005883030683 -0.06242113661812099
v 1.999951587522923 1.0000005883030683 -0.06242113661812099
v 1.999951587522923 0.8750005883030683 0.00007886338187901298
v 1.999951587522923 0.8750005883030683 -0.06242113661812099
v 1.0624515875229228 0.9375005883030683 0.00007886338187890196
v 0.937451587522923 0.9375005883030681 0.00007886338187890196
v 0.937451587522923 0.9375005883030681 -0.12492113661812101
v 1.0624515875229228 0.9375005883030681 -0.1249211366181211
v 0.937451587522923 0.6875005883030681 0.00007886338187890196
v 0.937451587522923 0.6875005883030681 -0.12492113661812101
v 1.0624515875229228 0.6875005883030681 0.00007886338187890196
v 1.0624515875229228 0.6875005883030681 -0.12492113661812101
v 1.9992608134954164 0.42187558830306826 -0.04679613661812093
v -0.000739186504583822 0.17187558830306826 -0.048358636618120676
v -0.00004841247707743079 0.12500058830306826 -0.048358636618120676
v 1.999951587522923 0.3750005883030683 -0.04679613661812093
v -0.000739186504583822 0.17187558830306818 -0.0014836366181206762
v 1.9992608134954164 0.42187558830306815 0.00007886338187901298
v 0.515576587522923 0.6406255883030683 0.00020596654530269376
v 0.515576587522923 0.20312558830306826 0.00020596654530269376
vt 0.1328125 0.4140625
vt 0.1328125 0.46875
vt 0.1953125 0.46875
vt 0.1953125 0.4140625
vt 0.3984375 0.4453125
vt 0.3984375 0.515625
vt 0.5234375 0.515625
vt 0.5234375 0.4453125
vt 0 0.40625
vt 0 0.4765625
vt 0.125 0.4765625
vt 0.125 0.40625
vt 0.1328125 0.8671875
vt 0.2578125 0.8671875
vt 0.2578125 0.7421875
vt 0.1328125 0.7421875
vt 0.3828125 0.875
vt 0.2578125 0.875
vt 0.2578125 1
vt 0.3828125 1
vt 0.265625 0.4453125
vt 0.265625 0.515625
vt 0.390625 0.515625
vt 0.390625 0.4453125
vt 0.265625 0.5234375
vt 0.265625 0.59375
vt 0.390625 0.59375
vt 0.390625 0.5234375
vt 0.3984375 0.5234375
vt 0.3984375 0.6015625
vt 0.5234375 0.6015625
vt 0.5234375 0.5234375
vt 0.3984375 0.6953125
vt 0.3984375 0.7734375
vt 0.5234375 0.7734375
vt 0.5234375 0.6953125
vt 0.1328125 0.734375
vt 0.2578125 0.734375
vt 0.2578125 0.609375
vt 0.1328125 0.609375
vt 0.390625 0.7421875
vt 0.265625 0.7421875
vt 0.265625 0.8671875
vt 0.390625 0.8671875
vt 0.3984375 0.609375
vt 0.3984375 0.6875
vt 0.5234375 0.6875
vt 0.5234375 0.609375
vt 0.3984375 0.78125
vt 0.3984375 0.859375
vt 0.5234375 0.859375
vt 0.5234375 0.78125
vt 0.53125 0.5625
vt 0.53125 0.578125
vt 0.78125 0.578125
vt 0.78125 0.5625
vt 0.53125 0.5859375
vt 0.53125 0.6015625
vt 0.78125 0.6015625
vt 0.78125 0.5859375
vt 0 1
vt 0.25 1
vt 0.25 0.875
vt 0 0.875
vt 0.21875 0.46093784896225054
vt 0.234375 0.4609698425810035
vt 0.234375 0.33790615172360117
vt 0.21900904636402546 0.3359375
vt 0.5546875 0.7734375
vt 0.5546875 0.78125
vt 0.6796875 0.78125
vt 0.6796875 0.7734375
vt 0.5546875 0.8359375
vt 0.5546875 0.84375
vt 0.6796875 0.84375
vt 0.6796875 0.8359375
vt 0.265625 0.734375
vt 0.390625 0.734375
vt 0.390625 0.609375
vt 0.265625 0.609375
vt 0.125 0.484375
vt 0 0.484375
vt 0 0.609375
vt 0.125 0.609375
vt 0.5546875 0.8203125
vt 0.5546875 0.828125
vt 0.6796875 0.828125
vt 0.6796875 0.8203125
vt 0.3984375 0.859375
vt 0.3984375 0.8671875
vt 0.5234375 0.8671875
vt 0.5234375 0.859375
vt 0.5546875 0.7578125
vt 0.5546875 0.765625
vt 0.6796875 0.765625
vt 0.6796875 0.7578125
vt 0.5546875 0.7890625
vt 0.5546875 0.796875
vt 0.6796875 0.796875
vt 0.6796875 0.7890625
vt 0.390625 1
vt 0.515625 1
vt 0.515625 0.875
vt 0.390625 0.875
vt 0.2578125 0.4765625
vt 0.1328125 0.4765625
vt 0.1328125 0.6015625
vt 0.2578125 0.6015625
vt 0.5546875 0.8046875
vt 0.5546875 0.8125
vt 0.6796875 0.8125
vt 0.6796875 0.8046875
vt 0.265625 0.59375
vt 0.265625 0.6015625
vt 0.390625 0.6015625
vt 0.390625 0.59375
vt 0.5332112365300612 0.65625
vt 0.5351480826244993 0.671875
vt 0.7871012634699388 0.671875
vt 0.7851644173755007 0.65625
vt 0.53125 0.9355631539055619
vt 0.546875 0.9375
vt 0.546875 0.6855468191545604
vt 0.53125 0.6836099730601223
vt 0 0.6171875
vt 0 0.8671875
vt 0.125 0.8671875
vt 0.125 0.6171875
vt 0.5546875 0.890625
vt 0.5546875 0.90625
vt 0.6796875 0.90625
vt 0.6796875 0.890625
vt 0.5546875 0.8671875
vt 0.5546875 0.8828125
vt 0.6796875 0.8828125
vt 0.6796875 0.8671875
vt 0.3359375 0.421875
vt 0.3359375 0.4375
vt 0.34375 0.4375
vt 0.34375 0.421875
vt 0.3515625 0.4375
vt 0.359375 0.4375
vt 0.359375 0.421875
vt 0.3515625 0.421875
vt 0.8046875 0.9375
vt 0.8046875 0.9296875
vt 0.5546875 0.9296875
vt 0.5546875 0.9375
vt 0.5546875 0.921875
vt 0.8046875 0.921875
vt 0.8046875 0.9140625
vt 0.5546875 0.9140625
vt 0.53125 0.6484375
vt 0.78125 0.6484375
vt 0.78125 0.6328125
vt 0.53125 0.6328125
vt 0.53125 0.609375
vt 0.53125 0.625
vt 0.78125 0.625
vt 0.78125 0.609375
vt 0.5546875000000001 0.71875
vt 0.5546875000000001 0.75
vt 0.5703125000000001 0.75
vt 0.5703125000000001 0.71875
vt 0.5390624999999999 0.453125
vt 0.5546874999999999 0.453125
vt 0.5546874999999999 0.421875
vt 0.5390624999999999 0.421875
vt 0.3203125000000001 0.4218750000000002
vt 0.3046875000000001 0.4218750000000002
vt 0.3046875000000001 0.4375000000000002
vt 0.3203125000000001 0.4375000000000002
vt 0.2812499999999998 0.4374999999999999
vt 0.2968749999999998 0.4374999999999999
vt 0.2968749999999998 0.4218749999999999
vt 0.2812499999999998 0.4218749999999999
vt 0.5546874999999998 0.7109375
vt 0.5703124999999998 0.7109375
vt 0.5703124999999998 0.6796875
vt 0.5546874999999998 0.6796875
vt 0.2578125000000002 0.40625
vt 0.2578125000000002 0.4375
vt 0.2734375000000002 0.4375
vt 0.2734375000000002 0.40625
vt 0.5338627266113584 0.484375
vt 0.534504218754312 0.4921875
vt 0.7864497733886416 0.4921875
vt 0.785808281245688 0.484375
vt 0.203125 0.46288305463432966
vt 0.2109375 0.4635245467772833
vt 0.2109375 0.21157899214295361
vt 0.203125 0.2109375
vt 0.5546875 0.859375
vt 0.8046875 0.859375
vt 0.8046875 0.8515625
vt 0.5546875 0.8515625
vt 0.3671875 0.4296875
vt 0.3671875 0.4375
vt 0.375 0.4375
vt 0.375 0.4296875
vt 0.3828125 0.4296875
vt 0.3828125 0.4375
vt 0.390625 0.4375
vt 0.390625 0.4296875
vt 0.24892578125 0.46875
vt 0.24912109375 0.21875
vt 0.24326171875 0.21875
vt 0.24306640625 0.46875
vt 0.53125 0.5
vt 0.53125 0.5546875
vt 0.59375 0.5546875
vt 0.59375 0.5
vt 0.5234375 0.9453125
vt 0.5234375 1
vt 0.6484375 1
vt 0.6484375 0.9453125
vn 0 0 1
vn 2.220446049250313e-16 0 -1
vn -4.440892098500626e-16 0 1
vn 0 1 0
vn 0 -1 0
vn 1 0 4.440892098500626e-16
vn -1 0 -4.440892098500627e-16
vn 2.220446049250313e-16 0 -1
vn 0 0 1
vn 0 1 0
vn 0 -1 0
vn 1 0 4.440892098500627e-16
vn -1 0 -4.440892098500626e-16
vn 4.4061976289810905e-16 0.13052619222005157 -0.9914448613738104
vn -4.44086887733224e-16 -0.005573790931970561 0.9999844663066756
vn 5.79652735677401e-17 -0.9914448613738104 -0.13052619222005157
vn 1 -1.1775472394735676e-16 8.944359287159501e-16
vn 2.2204460492503126e-16 -8.881784197001244e-16 -1
vn 0 0 1
vn 0 1 0
vn 0 -1 0
vn 1 3.944304526105059e-31 4.440892098500626e-16
vn -1 0 -2.2204460492503126e-16
vn 2.220446049250313e-16 -8.881784197001252e-16 -1
vn -4.440892098500626e-16 0 1
vn 0 1 0
vn 0 -1 0
vn 1 3.944304526105059e-31 4.440892098500626e-16
vn -1 0 -4.440892098500626e-16
vn 1.1103076908671136e-16 6.188719072718424e-19 -1
vn 0 0 1
vn 0.1305261922200514 -0.9914448613738106 -1.099898053880116e-16
vn 0.9999844663066756 0.005573790931970561 6.55100838920803e-19
vn -0.9999844663066756 -0.0055737909319723555 -6.55100838920803e-19
vn -1 0 0
vn 1 0 0
vn 0 1 0
vn 0 -1 0
vn -2.220446049250313e-16 3.9968028886505635e-15 1
vn 0 0 -1
vn -1 0 0
vn 1 0 0
vn -8.881784197001268e-16 1 0
vn 0 -1 0
vn 0 0 1
vn -6.661338147750951e-16 0 -1
vn 0.0007798132963486346 0.000011491728456998003 -0.9999996958795354
vn -0.0007798132963486063 -0.000011491728457001306 0.9999996958795353
vn 0.12403473458920847 -0.9922778767136677 -1.1750930619239225e-15
vn 0.9998914352803966 0.014734912721450846 3.39197984147548e-17
vn -0.9998914352803966 -0.01473491272144612 -2.466894430163984e-17
vn -0.12403473458920847 0.9922778767136677 2.350186123847843e-15
vn 2.153159805333637e-16 0 -1
vn -1 0 -4.441456621687453e-16
usemtl m_c3113e9c-2bf3-8aa6-9ac9-811045b28dc4
f 5/1/1 4/2/1 3/3/1 6/4/1
f 8/5/2 14/6/2 7/7/2 9/8/2
f 12/9/3 11/10/3 10/11/3 13/12/3
f 7/13/4 14/14/4 10/15/4 11/16/4
f 8/17/5 9/18/5 12/19/5 13/20/5
f 9/21/6 7/22/6 11/23/6 12/24/6
f 13/25/7 10/26/7 14/27/7 8/28/7
f 16/29/8 15/30/8 14/31/8 17/32/8
f 19/33/9 10/34/9 18/35/9 20/36/9
f 14/37/10 15/38/10 18/39/10 10/40/10
f 16/41/11 17/42/11 19/43/11 20/44/11
f 17/45/12 14/46/12 10/47/12 19/48/12
f 20/49/13 18/50/13 15/51/13 16/52/13
f 23/53/14 22/54/14 21/55/14 24/56/14
f 27/57/15 26/58/15 25/59/15 28/60/15
f 23/61/16 24/62/16 27/63/16 28/64/16
f 24/65/17 21/66/17 26/67/17 27/68/17
f 15/69/18 30/70/18 29/71/18 14/72/18
f 10/73/19 32/74/19 31/75/19 18/76/19
f 29/77/20 30/78/20 31/79/20 32/80/20
f 15/81/21 14/82/21 10/83/21 18/84/21
f 14/85/22 29/86/22 32/87/22 10/88/22
f 18/89/23 31/90/23 30/91/23 15/92/23
f 14/93/24 29/94/24 33/95/24 7/96/24
f 11/97/25 34/98/25 32/99/25 10/100/25
f 33/101/26 29/102/26 32/103/26 34/104/26
f 14/105/27 7/106/27 11/107/27 10/108/27
f 7/109/28 33/110/28 34/111/28 11/112/28
f 10/113/29 32/114/29 29/115/29 14/116/29
f 37/117/30 36/118/30 35/119/30 38/120/30
f 41/121/31 40/122/31 39/123/31 42/124/31
f 37/125/32 38/126/32 41/127/32 42/128/32
f 38/129/33 35/130/33 40/131/33 41/132/33
f 42/133/34 39/134/34 36/135/34 37/136/34
f 44/137/35 30/138/35 43/139/35 45/140/35
f 46/141/36 33/142/36 47/143/36 48/144/36
f 43/145/37 30/146/37 33/147/37 46/148/37
f 47/149/38 44/150/38 45/151/38 48/152/38
f 33/153/39 30/154/39 44/155/39 47/156/39
f 45/157/40 43/158/40 46/159/40 48/160/40
f 53/161/41 50/162/41 51/163/41 54/164/41
f 52/165/42 49/166/42 55/167/42 56/168/42
f 51/169/43 50/170/43 49/171/43 52/172/43
f 55/173/44 53/174/44 54/175/44 56/176/44
f 49/177/45 50/178/45 53/179/45 55/180/45
f 54/181/46 51/182/46 52/183/46 56/184/46
f 59/185/47 58/186/47 57/187/47 60/188/47
f 9/189/48 62/190/48 61/191/48 37/192/48
f 59/193/49 60/194/49 9/195/49 37/196/49
f 60/197/50 57/198/50 62/199/50 9/200/50
f 37/201/51 61/202/51 58/203/51 59/204/51
f 57/205/52 58/206/52 61/207/52 62/208/52
f 2/209/53 1/210/53 63/211/53 64/212/53
f 6/213/54 3/214/54 1/215/54 2/216/54