# Made in Blockbench 4.10.4
mtllib mkz_top.mtl

o top
v 0.25000000000000006 0.03125 0.75
v 0.24999999999999994 0.03125 0.25000000000000006
v 0.75 0.03125 0.75
v 0.75 0.03125 0.24999999999999994
v 1.1102230246251565e-16 0.5 1
v 1 0.5 0.9999999999999999
v 1.1102230246251565e-16 0.25 1
v 1 0.25 0.9999999999999999
v -1.1102230246251565e-16 0.5 1.1102230246251565e-16
v 0.9999999999999999 0.5 -1.1102230246251565e-16
v -1.1102230246251565e-16 0.25 1.1102230246251565e-16
v 0.9999999999999999 0.25 -1.1102230246251565e-16
v 0.25000000000000006 0.03125 0.75
v 0.24999999999999994 0.03125 0.25000000000000006
v 0.75 0.03125 0.75
v 0.75 0.03125 0.24999999999999994
v 1.1102230246251565e-16 1 1
v 1 1 0.9999999999999999
v -1.1102230246251565e-16 1 1.1102230246251565e-16
v 0.9999999999999999 1 -1.1102230246251565e-16
vt 0.59375 0.296875
vt 0.71875 0.296875
vt 0.78125 0.375
vt 0.53125 0.375
vt 0.59375 0.484375
vt 0.71875 0.484375
vt 0.78125 0.5625
vt 0.53125 0.5625
vt 0.0625 0.265625
vt 0.1875 0.265625
vt 0.25 0.34375
vt 0 0.34375
vt 0.59375 0.390625
vt 0.71875 0.390625
vt 0.78125 0.46875
vt 0.53125 0.46875
vt 0.84375 0.65625
vt 0.84375 0.71875
vt 0.59375 0.71875
vt 0.59375 0.65625
vt 0.84375 0.578125
vt 0.84375 0.640625
vt 0.59375 0.640625
vt 0.59375 0.578125
vt 0.25 0.625
vt 0.25 1
vt 0 1
vt 0 0.625
vt 0.515625 0.265625
vt 0.515625 0.328125
vt 0.265625 0.328125
vt 0.265625 0.265625
vt 0.78125 0.21875
vt 0.78125 0.28125
vt 0.53125 0.28125
vt 0.53125 0.21875
vt 0.265625 1
vt 0.265625 0.625
vt 0.515625 0.625
vt 0.515625 1
vt 0.125 0.125
vt 0.125 0.25
vt 0 0.25
vt 0 0.125
vt 0.515625 0.484375
vt 0.515625 0.609375
vt 0.265625 0.609375
vt 0.265625 0.484375
vt 0.78125 0.875
vt 0.78125 1
vt 0.53125 1
vt 0.53125 0.875
vt 0.25 0.359375
vt 0.25 0.609375
vt 0 0.609375
vt 0 0.359375
vt 0.78125 0.734375
vt 0.78125 0.859375
vt 0.53125 0.859375
vt 0.53125 0.734375
vt 0.515625 0.34375
vt 0.515625 0.46875
vt 0.265625 0.46875
vt 0.265625 0.34375
vn 1.4621739549547775e-16 -0.7525766947068778 0.658504607868518
vn -0.658504607868518 -0.7525766947068778 1.4621739549547775e-16
vn -1.4621739549547775e-16 -0.7525766947068778 -0.658504607868518
vn 0.658504607868518 -0.7525766947068778 -1.4621739549547775e-16
vn 2.220446049250313e-16 0 1
vn -2.220446049250313e-16 0 -1
vn 0 1 0
vn -1 0 2.220446049250313e-16
vn 1 0 -2.220446049250313e-16
vn 0 -1 0
vn 0 -1 0
vn 2.220446049250313e-16 0 1
vn -2.220446049250313e-16 0 -1
vn 0 1 0
vn -1 0 2.220446049250313e-16
vn 1 0 -2.220446049250313e-16
usemtl m_be3eeaa7-2699-e8ea-e5e5-bda12264882f
f 1/1/1 3/2/1 8/3/1 7/4/1
f 2/5/2 1/6/2 7/7/2 11/8/2
f 4/9/3 2/10/3 11/11/3 12/12/3
f 3/13/4 4/14/4 12/15/4 8/16/4
f 8/17/5 6/18/5 5/19/5 7/20/5
f 11/21/6 9/22/6 10/23/6 12/24/6
f 5/25/7 6/26/7 10/27/7 9/28/7
f 7/29/8 5/30/8 9/31/8 11/32/8
f 12/33/9 10/34/9 6/35/9 8/36/9
f 11/37/10 12/38/10 8/39/10 7/40/10
f 15/41/11 13/42/11 14/43/11 16/44/11
f 6/45/12 18/46/12 17/47/12 5/48/12
f 9/49/13 19/50/13 20/51/13 10/52/13
f 17/53/14 18/54/14 20/55/14 19/56/14
f 5/57/15 17/58/15 19/59/15 9/60/15
f 10/61/16 20/62/16 18/63/16 6/64/16