# Made in Blockbench 4.10.4
mtllib end_face_original_25b_3.mtl

o cube
v 1.15625 1.25 1.446875
v 1.15625 1.25 1.55625
v -0.15625 1.25 1.55625
v -0.15625 1.25 1.446875
v 1.75 -0.375 1.125
v 1.75 0.875 1.125
v 1.75 0.875 1.3125
v 1.75 -0.375 1.3125
v 1.3125 -0.375 1.3125
v 1.3125 0.875 1.3125
v 1.3125 0.875 1.125
v 1.3125 -0.375 1.125
v -0.75 0.625 1.125
v -0.75 1.125 1.125
v -0.75 1.125 1.3125
v -0.75 0.625 1.3125
v -0.984375 0.625 1.3125
v -0.984375 1.125 1.3125
v -0.984375 1.125 1.125
v -0.984375 0.625 1.125
v -0.828125 0.375 1.125
v -0.828125 0.4375 1.125
v -0.828125 0.4375 1.3125
v -0.890625 0.375 1.3125
v -0.890625 0.4375 1.3125
v -0.890625 0.4375 1.125
v -0.890625 0.375 1.125
v -0.75 0.375 1.25
v -0.75 0.4375 1.25
v -0.75 0.4375 1.3125
v -0.75 0.375 1.3125
v -0.828125 0.375 1.3125
v -0.828125 0.4375 1.3125
v -0.828125 0.4375 1.25
v -0.828125 0.375 1.25
v -0.75 -0.09375 1.25
v -0.75 -0.03125 1.25
v -0.75 -0.03125 1.3125
v -0.75 -0.09375 1.3125
v -0.828125 -0.03125 1.25
v -0.828125 -0.09375 1.25
v -0.828125 -0.09375 1.125
v -0.828125 -0.03125 1.125
v -0.828125 -0.03125 1.3125
v -0.890625 -0.09375 1.3125
v -0.890625 -0.03125 1.3125
v -0.890625 -0.03125 1.125
v -0.890625 -0.09375 1.125
v -0.828125 -0.515625 1.125
v -0.828125 -0.453125 1.125
v -0.828125 -0.453125 1.3125
v -0.828125 -0.515625 1.3125
v -0.890625 -0.515625 1.3125
v -0.890625 -0.453125 1.3125
v -0.890625 -0.453125 1.125
v -0.890625 -0.515625 1.125
v -0.75 -0.515625 1.25
v -0.75 -0.453125 1.25
v -0.75 -0.453125 1.3125
v -0.75 -0.515625 1.3125
v -0.828125 -0.453125 1.3125
v -0.828125 -0.453125 1.25
v -0.828125 -0.515625 1.25
v -0.3125 -0.625 1.125
v -0.3125 1.125 1.125
v -0.3125 1.125 1.3125
v -0.3125 -0.625 1.3125
v -0.75 -0.625 1.3125
v -0.75 1.125 1.3125
v -0.75 1.125 1.125
v -0.75 -0.625 1.125
v 1.125 -1 1.446875
v 1.125 -0.875 1.446875
v 1.125 -0.875 1.546875
v 1.125 -1 1.546875
v -0.125 -1 1.546875
v -0.125 -0.875 1.546875
v -0.125 -0.875 1.446875
v -0.125 -1 1.446875
v 1.125 1.125 1.446875
v 1.125 1.25 1.446875
v 1.125 1.25 1.55625
v 1.125 1.125 1.55625
v -0.125 1.125 1.55625
v -0.125 1.25 1.446875
v -0.125 1.125 1.446875
v 0 -0.875 1.446875
v 0 1.125 1.446875
v 0 1.125 1.55625
v 0 -0.875 1.55625
v -0.125 -0.875 1.55625
v -0.125 1.125 1.55625
v -0.125 1.125 1.446875
v -0.125 -0.875 1.446875
v 1.125 -0.875 1.446875
v 1.125 1.125 1.446875
v 1.125 1.125 1.55625
v 1.125 -0.875 1.55625
v 1 -0.875 1.55625
v 1 1.125 1.55625
v 1 1.125 1.446875
v 1 -0.875 1.446875
v 1.0625 1.125 1.125
v 1.0625 1.1875 1.125
v 1.0625 1.1875 1.446875
v 1.0625 1.125 1.446875
v -0.0625 1.1875 1.446875
v -0.0625 1.1875 1.125
v 0 -0.875 1.125
v 0 1.125 1.125
v 0 1.125 1.446875
v 0 -0.875 1.446875
v -0.0625 -0.875 1.446875
v -0.0625 1.125 1.446875
v -0.0625 1.125 1.125
v -0.0625 -0.875 1.125
v 1.0625 -0.875 1.125
v 1.0625 1.125 1.125
v 1.0625 1.125 1.446875
v 1.0625 -0.875 1.446875
v 1 -0.875 1.446875
v 1 1.125 1.446875
v 1 1.125 1.125
v 1 -0.875 1.125
v 1.0625 -1 1.125
v 1.0625 -0.875 1.125
v 1.0625 -0.875 1.446875
v 1.0625 -1 1.446875
v -0.0625 -1 1.446875
v -0.0625 -1 1.125
v 1.9953124999999998 -1 1
v 1.9953124999999998 1.25 1
v 1.9953124999999998 1.25 1.125
v 1.9953124999999998 -1 1.125
v 0.9999999999999999 -1 1.125
v 0.9999999999999999 1.25 1.125
v 0.9999999999999999 1.25 1
v 0.9999999999999999 -1 1
v 0 -1 1
v 0 1.25 1
v 0 1.25 1.125
v 0 -1 1.125
v -0.9953125 -1 1.125
v -0.9953125 1.25 1.125
v -0.9953125 1.25 1
v -0.9953125 -1 1
v 1 -1 1
v 1 -0.875 1
v 1 -0.875 1.125
v 1 -1 1.125
v 0 -1 1.125
v 0 -0.875 1.125
v 0 -0.875 1
v 0 -1 1
v 1 1.125 1
v 1 1.25 1
v 1 1.25 1.125
v 1 1.125 1.125
v 0 1.125 1.125
v 0 1.25 1.125
v 0 1.25 1
v 0 1.125 1
v -0.828125 -0.09375 1.3125
v -0.828125 -0.03125 1.3125
v -0.125 1.25 1.55625
vt 0.779296875 0.1640625
vt 0.779296875 0.1796875
vt 0.619140625 0.1796875
vt 0.619140625 0.1640625
vt 0.3828125 0.296875
vt 0.3828125 0.453125
vt 0.359375 0.453125
vt 0.359375 0.296875
vt 0.40625 0.296875
vt 0.40625 0.453125
vt 0.3828125 0.453125
vt 0.3828125 0.296875
vt 0.7265625 0.4921875
vt 0.7265625 0.515625
vt 0.671875 0.515625
vt 0.671875 0.4921875
vt 0.7265625 0.46875
vt 0.7265625 0.4921875
vt 0.671875 0.4921875
vt 0.671875 0.46875
vt 0.1328125 0.34375
vt 0.1328125 0.5
vt 0.078125 0.5
vt 0.078125 0.34375
vt 0.1875 0.34375
vt 0.1875 0.5
vt 0.1328125 0.5
vt 0.1328125 0.34375
vt 0.6875 0.53125
vt 0.6875 0.59375
vt 0.6640625 0.59375
vt 0.6640625 0.53125
vt 0.6015625 0.265625
vt 0.6015625 0.328125
vt 0.578125 0.328125
vt 0.578125 0.265625
vt 0.6484375 0.28125
vt 0.6484375 0.3046875
vt 0.6171875 0.3046875
vt 0.6171875 0.28125
vt 0.109375 0.2734375
vt 0.109375 0.296875
vt 0.078125 0.296875
vt 0.078125 0.2734375
vt 0.4375 0.359375
vt 0.4375 0.421875
vt 0.40625 0.421875
vt 0.40625 0.359375
vt 0.46875 0.359375
vt 0.46875 0.421875
vt 0.4375 0.421875
vt 0.4375 0.359375
vt 0.7421875 0.609375
vt 0.7421875 0.6171875
vt 0.71875 0.6171875
vt 0.71875 0.609375
vt 0.765625 0.609375
vt 0.765625 0.6171875
vt 0.7421875 0.6171875
vt 0.7421875 0.609375
vt 0.0546875 0.2265625
vt 0.0546875 0.25
vt 0.046875 0.25
vt 0.046875 0.2265625
vt 0.7578125 0.9296875
vt 0.7578125 0.953125
vt 0.75 0.953125
vt 0.75 0.9296875
vt 0.375 0.4921875
vt 0.375 0.5
vt 0.3671875 0.5
vt 0.3671875 0.4921875
vt 0.5234375 0.3046875
vt 0.5234375 0.3125
vt 0.515625 0.3125
vt 0.515625 0.3046875
vt 0.7421875 0.96875
vt 0.7421875 0.9765625
vt 0.734375 0.9765625
vt 0.734375 0.96875
vt 0.140625 0.2578125
vt 0.140625 0.265625
vt 0.1328125 0.265625
vt 0.1328125 0.2578125
vt 0.7421875 0.7734375
vt 0.7421875 0.78125
vt 0.734375 0.78125
vt 0.734375 0.7734375
vt 0.7421875 0.4375
vt 0.7421875 0.4453125
vt 0.734375 0.4453125
vt 0.734375 0.4375
vt 0.6015625 0.2578125
vt 0.6015625 0.265625
vt 0.59375 0.265625
vt 0.59375 0.2578125
vt 0.65625 0.2578125
vt 0.65625 0.265625
vt 0.6484375 0.265625
vt 0.6484375 0.2578125
vt 0.75 0.96875
vt 0.75 0.9765625
vt 0.7421875 0.9765625
vt 0.7421875 0.96875
vt 0.7578125 0.6640625
vt 0.7578125 0.671875
vt 0.75 0.671875
vt 0.75 0.6640625
vt 0.3984375 0.2421875
vt 0.3984375 0.25
vt 0.390625 0.25
vt 0.390625 0.2421875
vt 0.7578125 0.5859375
vt 0.7578125 0.59375
vt 0.75 0.59375
vt 0.75 0.5859375
vt 0.7578125 0.578125
vt 0.7578125 0.5859375
vt 0.75 0.5859375
vt 0.75 0.578125
vt 0.7578125 0.5703125
vt 0.7578125 0.578125
vt 0.75 0.578125
vt 0.75 0.5703125
vt 0.765625 0.3125
vt 0.765625 0.3203125
vt 0.7421875 0.3203125
vt 0.7421875 0.3125
vt 0.078125 0.2421875
vt 0.078125 0.25
vt 0.0546875 0.25
vt 0.0546875 0.2421875
vt 0.7578125 0.90625
vt 0.7578125 0.9296875
vt 0.75 0.9296875
vt 0.75 0.90625
vt 0.0859375 0.2265625
vt 0.0859375 0.25
vt 0.078125 0.25
vt 0.078125 0.2265625
vt 0.7578125 0.5625
vt 0.7578125 0.5703125
vt 0.75 0.5703125
vt 0.75 0.5625
vt 0.7578125 0.5546875
vt 0.7578125 0.5625
vt 0.75 0.5625
vt 0.75 0.5546875
vt 0.109375 0.2421875
vt 0.109375 0.25
vt 0.0859375 0.25
vt 0.0859375 0.2421875
vt 0.1328125 0.2421875
vt 0.1328125 0.25
vt 0.109375 0.25
vt 0.109375 0.2421875
vt 0.7578125 0.8515625
vt 0.7578125 0.875
vt 0.75 0.875
vt 0.75 0.8515625
vt 0.7578125 0.828125
vt 0.7578125 0.8515625
vt 0.75 0.8515625
vt 0.75 0.828125
vt 0.453125 0.2421875
vt 0.453125 0.25
vt 0.4453125 0.25
vt 0.4453125 0.2421875
vt 0.7578125 0.546875
vt 0.7578125 0.5546875
vt 0.75 0.5546875
vt 0.75 0.546875
vt 0.4609375 0.2421875
vt 0.4609375 0.25
vt 0.453125 0.25
vt 0.453125 0.2421875
vt 0.7578125 0.5390625
vt 0.7578125 0.546875
vt 0.75 0.546875
vt 0.75 0.5390625
vt 0.46875 0.2421875
vt 0.46875 0.25
vt 0.4609375 0.25
vt 0.4609375 0.2421875
vt 0.7578125 0.53125
vt 0.7578125 0.5390625
vt 0.75 0.5390625
vt 0.75 0.53125
vt 0.7578125 0.5234375
vt 0.7578125 0.53125
vt 0.75 0.53125
vt 0.75 0.5234375
vt 0.7578125 0.515625
vt 0.7578125 0.5234375
vt 0.75 0.5234375
vt 0.75 0.515625
vt 0.546875 0.3125
vt 0.546875 0.53125
vt 0.5234375 0.53125
vt 0.5234375 0.3125
vt 0.5625 0.78125
vt 0.5625 1
vt 0.5390625 1
vt 0.5390625 0.78125
vt 0.7265625 0.4140625
vt 0.7265625 0.4375
vt 0.671875 0.4375
vt 0.671875 0.4140625
vt 0.65625 0.3046875
vt 0.65625 0.328125
vt 0.6015625 0.328125
vt 0.6015625 0.3046875
vt 0.4296875 0.5
vt 0.4296875 0.71875
vt 0.375 0.71875
vt 0.375 0.5
vt 0.484375 0.4921875
vt 0.484375 0.71875
vt 0.4296875 0.71875
vt 0.4296875 0.4921875
vt 0.7578125 0.6875
vt 0.7578125 0.703125
vt 0.7421875 0.703125
vt 0.7421875 0.6875
vt 0.7578125 0.5
vt 0.7578125 0.515625
vt 0.7421875 0.515625
vt 0.7421875 0.5
vt 0.703125 0.453125
vt 0.703125 0.46875
vt 0.546875 0.46875
vt 0.546875 0.453125
vt 0.703125 0.4375
vt 0.703125 0.453125
vt 0.546875 0.453125
vt 0.546875 0.4375
vt 0.71875 0.984375
vt 0.71875 1
vt 0.5625 1
vt 0.5625 0.984375
vt 0.71875 0.96875
vt 0.71875 0.984375
vt 0.5625 0.984375
vt 0.5625 0.96875
vt 0.7578125 0.484375
vt 0.7578125 0.5
vt 0.7421875 0.5
vt 0.7421875 0.484375
vt 0.53125 0.2421875
vt 0.53125 0.2578125
vt 0.515625 0.2578125
vt 0.515625 0.2421875
vt 0.71875 0.9375
vt 0.71875 0.953125
vt 0.5625 0.953125
vt 0.5625 0.9375
vt 0.71875 0.921875
vt 0.71875 0.9375
vt 0.5625 0.9375
vt 0.5625 0.921875
vt 0.71875 0.90625
vt 0.71875 0.921875
vt 0.5625 0.921875
vt 0.5625 0.90625
vt 0.25 0.2109375
vt 0.25 0.4609375
vt 0.234375 0.4609375
vt 0.234375 0.2109375
vt 0.265625 0.2109375
vt 0.265625 0.4609375
vt 0.25 0.4609375
vt 0.25 0.2109375
vt 0.7578125 0.46875
vt 0.7578125 0.484375
vt 0.7421875 0.484375
vt 0.7421875 0.46875
vt 0.546875 0.2421875
vt 0.546875 0.2578125
vt 0.53125 0.2578125
vt 0.53125 0.2421875
vt 0.28125 0.2109375
vt 0.28125 0.4609375
vt 0.265625 0.4609375
vt 0.265625 0.2109375
vt 0.296875 0.2109375
vt 0.296875 0.4609375
vt 0.28125 0.4609375
vt 0.28125 0.2109375
vt 0.3125 0.2109375
vt 0.3125 0.4609375
vt 0.296875 0.4609375
vt 0.296875 0.2109375
vt 0.328125 0.2109375
vt 0.328125 0.4609375
vt 0.3125 0.4609375
vt 0.3125 0.2109375
vt 0.7578125 0.4296875
vt 0.7578125 0.4453125
vt 0.7421875 0.4453125
vt 0.7421875 0.4296875
vt 0.7578125 0.4140625
vt 0.7578125 0.4296875
vt 0.7421875 0.4296875
vt 0.7421875 0.4140625
vt 0.34375 0.203125
vt 0.34375 0.453125
vt 0.328125 0.453125
vt 0.328125 0.203125
vt 0.359375 0.203125
vt 0.359375 0.453125
vt 0.34375 0.453125
vt 0.34375 0.203125
vt 0.3671875 0.4921875
vt 0.3671875 0.5
vt 0.328125 0.5
vt 0.328125 0.4921875
vt 0.71875 0.75
vt 0.71875 0.7578125
vt 0.6796875 0.7578125
vt 0.6796875 0.75
vt 0.328125 0.4609375
vt 0.328125 0.5
vt 0.1875 0.5
vt 0.1875 0.4609375
vt 0.46875 0.453125
vt 0.46875 0.4921875
vt 0.328125 0.4921875
vt 0.328125 0.453125
vt 0.6796875 0.75
vt 0.6796875 0.7578125
vt 0.5390625 0.7578125
vt 0.5390625 0.75
vt 0.703125 0.7734375
vt 0.703125 0.78125
vt 0.5625 0.78125
vt 0.5625 0.7734375
vt 0.5234375 0.359375
vt 0.5234375 0.609375
vt 0.484375 0.609375
vt 0.484375 0.359375
vt 0.0390625 0.25
vt 0.0390625 0.5
vt 0 0.5
vt 0 0.25
vt 0.46875 0.3203125
vt 0.46875 0.359375
vt 0.4609375 0.359375
vt 0.4609375 0.3203125
vt 0.46875 0.28125
vt 0.46875 0.3203125
vt 0.4609375 0.3203125
vt 0.4609375 0.28125
vt 0.5546875 0.15625
vt 0.5546875 0.40625
vt 0.546875 0.40625
vt 0.546875 0.15625
vt 0.5625 0.15625
vt 0.5625 0.40625
vt 0.5546875 0.40625
vt 0.5546875 0.15625
vt 0.5390625 0.75
vt 0.5390625 1
vt 0.5 1
vt 0.5 0.75
vt 0.078125 0.25
vt 0.078125 0.5
vt 0.0390625 0.5
vt 0.0390625 0.25
vt 0.4453125 0.2734375
vt 0.4453125 0.3125
vt 0.4375 0.3125
vt 0.4375 0.2734375
vt 0.65625 0.265625
vt 0.65625 0.3046875
vt 0.6484375 0.3046875
vt 0.6484375 0.265625
vt 0.5703125 0.15625
vt 0.5703125 0.40625
vt 0.5625 0.40625
vt 0.5625 0.15625
vt 0.578125 0.15625
vt 0.578125 0.40625
vt 0.5703125 0.40625
vt 0.5703125 0.15625
vt 0.7421875 0.703125
vt 0.7421875 0.71875
vt 0.703125 0.71875
vt 0.703125 0.703125
vt 0.7421875 0.6875
vt 0.7421875 0.703125
vt 0.703125 0.703125
vt 0.703125 0.6875
vt 0.6640625 0.5703125
vt 0.6640625 0.609375
vt 0.5234375 0.609375
vt 0.5234375 0.5703125
vt 0.6640625 0.53125
vt 0.6640625 0.5703125
vt 0.5234375 0.5703125
vt 0.5234375 0.53125
vt 0.703125 0.890625
vt 0.703125 0.90625
vt 0.5625 0.90625
vt 0.5625 0.890625
vt 0.703125 0.875
vt 0.703125 0.890625
vt 0.5625 0.890625
vt 0.5625 0.875
vt 0.484375 0.2109375
vt 0.484375 0.4921875
vt 0.46875 0.4921875
vt 0.46875 0.2109375
vt 0.203125 0.1796875
vt 0.203125 0.4609375
vt 0.1875 0.4609375
vt 0.1875 0.1796875
vt 0.703125 0.390625
vt 0.703125 0.40625
vt 0.578125 0.40625
vt 0.578125 0.390625
vt 0.703125 0.375
vt 0.703125 0.390625
vt 0.578125 0.390625
vt 0.578125 0.375
vt 0.125 0.5
vt 0.125 0.78125
vt 0 0.78125
vt 0 0.5
vt 0.25 0.5
vt 0.25 0.78125
vt 0.125 0.78125
vt 0.125 0.5
vt 0.21875 0.1796875
vt 0.21875 0.4609375
vt 0.203125 0.4609375
vt 0.203125 0.1796875
vt 0.234375 0.1796875
vt 0.234375 0.4609375
vt 0.21875 0.4609375
vt 0.21875 0.1796875
vt 0.75 0.859375
vt 0.75 0.875
vt 0.625 0.875
vt 0.625 0.859375
vt 0.75 0.84375
vt 0.75 0.859375
vt 0.625 0.859375
vt 0.625 0.84375
vt 0.375 0.5
vt 0.375 0.78125
vt 0.25 0.78125
vt 0.25 0.5
vt 0.5 0.71875
vt 0.5 1
vt 0.375 1
vt 0.375 0.71875
vt 0.7578125 0.3984375
vt 0.7578125 0.4140625
vt 0.7421875 0.4140625
vt 0.7421875 0.3984375
vt 0.609375 0.2421875
vt 0.609375 0.2578125
vt 0.59375 0.2578125
vt 0.59375 0.2421875
vt 0.75 0.828125
vt 0.75 0.84375
vt 0.625 0.84375
vt 0.625 0.828125
vt 0.75 0.8125
vt 0.75 0.828125
vt 0.625 0.828125
vt 0.625 0.8125
vt 0.75 0.796875
vt 0.75 0.8125
vt 0.625 0.8125
vt 0.625 0.796875
vt 0.75 0.78125
vt 0.75 0.796875
vt 0.625 0.796875
vt 0.625 0.78125
vt 0.7578125 0.3828125
vt 0.7578125 0.3984375
vt 0.7421875 0.3984375
vt 0.7421875 0.3828125
vt 0.625 0.2421875
vt 0.625 0.2578125
vt 0.609375 0.2578125
vt 0.609375 0.2421875
vt 0.703125 0.359375
vt 0.703125 0.375
vt 0.578125 0.375
vt 0.578125 0.359375
vt 0.703125 0.34375
vt 0.703125 0.359375
vt 0.578125 0.359375
vt 0.578125 0.34375
vt 0.703125 0.328125
vt 0.703125 0.34375
vt 0.578125 0.34375
vt 0.578125 0.328125
vt 0.7890625 0.59375
vt 0.7890625 0.609375
vt 0.6640625 0.609375
vt 0.6640625 0.59375
vn 0 -1 0
vn 1 0 0
vn -1 0 0
vn 0 1 0
vn 0 -1 0
vn 0 0 1
vn 0 0 -1
vn 1 0 0
vn -1 0 0
vn 0 1 0
vn 0 -1 0
vn 0 0 1
vn 0 0 -1
vn 1 0 0
vn -1 0 0
vn 0 1 0
vn 0 -1 0
vn 0 0 1
vn 0 0 -1
vn 1 0 0
vn -1 0 0
vn 0 1 0
vn 0 -1 0
vn 0 0 1
vn 0 0 -1
vn 1 0 0
vn -1 0 0
vn 0 1 0
vn 0 -1 0
vn 0 0 1
vn 0 0 -1
vn 1 0 0
vn -1 0 0
vn 0 1 0
vn 0 -1 0
vn 0 0 1
vn 0 0 -1
vn 1 0 0
vn -1 0 0
vn 0 1 0
vn 0 -1 0
vn 0 0 1
vn 0 0 -1
vn 1 0 0
vn -1 0 0
vn 0 1 0
vn 0 -1 0
vn 0 0 1
vn 0 0 -1
vn 1 0 0
vn -1 0 0
vn 0 1 0
vn 0 -1 0
vn 0 0 1
vn 0 0 -1
vn 1 0 0
vn -1 0 0
vn 0 1 0
vn 0 -1 0
vn 0 0 1
vn 0 0 -1
vn 1 0 0
vn -1 0 0
vn 0 -1 0
vn 0 0 1
vn 0 0 -1
vn 1 0 0
vn -1 0 0
vn 0 1 0
vn 0 -1 0
vn 0 0 1
vn 0 0 -1
vn 1 0 0
vn -1 0 0
vn 0 1 0
vn 0 -1 0
vn 0 0 1
vn 0 0 -1
vn 1 0 0
vn -1 0 0
vn 0 1 0
vn 0 -1 0
vn 0 0 1
vn 0 0 -1
vn 1 0 0
vn -1 0 0
vn 0 1 0
vn 0 -1 0
vn 0 0 1
vn 0 0 -1
vn 1 0 0
vn -1 0 0
vn 0 1 0
vn 0 -1 0
vn 0 0 1
vn 0 0 -1
vn 1 0 0
vn -1 0 0
vn 0 1 0
vn 0 -1 0
vn 0 0 1
vn 0 0 -1
vn 1 0 0
vn -1 0 0
vn 0 1 0
vn 0 -1 0
vn 0 0 1
vn 0 0 -1
vn 1 0 0
vn -1 0 0
vn 0 1 0
vn 0 -1 0
vn 0 0 1
vn 0 0 -1
vn 1 0 0
vn -1 0 0
vn 0 1 0
vn 0 -1 0
vn 0 0 1
vn 0 0 -1
vn 1 0 0
vn -1 0 0
vn 0 1 0
vn 0 -1 0
vn 0 0 1
vn 0 0 -1
usemtl m_a7a9dea8-118e-049a-e697-202f13258461
f 1/1/1 2/2/1 3/3/1 4/4/1
f 5/5/2 6/6/2 7/7/2 8/8/2
f 9/9/3 10/10/3 11/11/3 12/12/3
f 7/13/4 6/14/4 11/15/4 10/16/4
f 5/17/5 8/18/5 9/19/5 12/20/5
f 8/21/6 7/22/6 10/23/6 9/24/6
f 12/25/7 11/26/7 6/27/7 5/28/7
f 13/29/8 14/30/8 15/31/8 16/32/8
f 17/33/9 18/34/9 19/35/9 20/36/9
f 15/37/10 14/38/10 19/39/10 18/40/10
f 13/41/11 16/42/11 17/43/11 20/44/11
f 16/45/12 15/46/12 18/47/12 17/48/12
f 20/49/13 19/50/13 14/51/13 13/52/13
f 21/53/14 22/54/14 23/55/14 32/56/14
f 24/57/15 25/58/15 26/59/15 27/60/15
f 23/61/16 22/62/16 26/63/16 25/64/16
f 21/65/17 32/66/17 24/67/17 27/68/17
f 32/69/18 23/70/18 25/71/18 24/72/18
f 27/73/19 26/74/19 22/75/19 21/76/19
f 28/77/20 29/78/20 30/79/20 31/80/20
f 32/81/21 33/82/21 34/83/21 35/84/21
f 30/85/22 29/86/22 34/87/22 33/88/22
f 28/89/23 31/90/23 32/91/23 35/92/23
f 31/93/24 30/94/24 33/95/24 32/96/24
f 35/97/25 34/98/25 29/99/25 28/100/25
f 36/101/26 37/102/26 38/103/26 39/104/26
f 163/105/27 164/106/27 40/107/27 41/108/27
f 38/109/28 37/110/28 40/111/28 164/112/28
f 36/113/29 39/114/29 163/115/29 41/116/29
f 39/117/30 38/118/30 164/119/30 163/120/30
f 41/121/31 40/122/31 37/123/31 36/124/31
f 42/125/32 43/126/32 44/127/32 163/128/32
f 45/129/33 46/130/33 47/131/33 48/132/33
f 44/133/34 43/134/34 47/135/34 46/136/34
f 42/137/35 163/138/35 45/139/35 48/140/35
f 163/141/36 44/142/36 46/143/36 45/144/36
f 48/145/37 47/146/37 43/147/37 42/148/37
f 49/149/38 50/150/38 51/151/38 52/152/38
f 53/153/39 54/154/39 55/155/39 56/156/39
f 51/157/40 50/158/40 55/159/40 54/160/40
f 49/161/41 52/162/41 53/163/41 56/164/41
f 52/165/42 51/166/42 54/167/42 53/168/42
f 56/169/43 55/170/43 50/171/43 49/172/43
f 57/173/44 58/174/44 59/175/44 60/176/44
f 52/177/45 61/178/45 62/179/45 63/180/45
f 59/181/46 58/182/46 62/183/46 61/184/46
f 57/185/47 60/186/47 52/187/47 63/188/47
f 60/189/48 59/190/48 61/191/48 52/192/48
f 63/193/49 62/194/49 58/195/49 57/196/49
f 64/197/50 65/198/50 66/199/50 67/200/50
f 68/201/51 69/202/51 70/203/51 71/204/51
f 66/205/52 65/206/52 70/207/52 69/208/52
f 64/209/53 67/210/53 68/211/53 71/212/53
f 67/213/54 66/214/54 69/215/54 68/216/54
f 71/217/55 70/218/55 65/219/55 64/220/55
f 72/221/56 73/222/56 74/223/56 75/224/56
f 76/225/57 77/226/57 78/227/57 79/228/57
f 74/229/58 73/230/58 78/231/58 77/232/58
f 72/233/59 75/234/59 76/235/59 79/236/59
f 75/237/60 74/238/60 77/239/60 76/240/60
f 79/241/61 78/242/61 73/243/61 72/244/61
f 80/245/62 81/246/62 82/247/62 83/248/62
f 84/249/63 165/250/63 85/251/63 86/252/63
f 80/253/64 83/254/64 84/255/64 86/256/64
f 83/257/65 82/258/65 165/259/65 84/260/65
f 86/261/66 85/262/66 81/263/66 80/264/66
f 87/265/67 88/266/67 89/267/67 90/268/67
f 91/269/68 92/270/68 93/271/68 94/272/68
f 89/273/69 88/274/69 93/275/69 92/276/69
f 87/277/70 90/278/70 91/279/70 94/280/70
f 90/281/71 89/282/71 92/283/71 91/284/71
f 94/285/72 93/286/72 88/287/72 87/288/72
f 95/289/73 96/290/73 97/291/73 98/292/73
f 99/293/74 100/294/74 101/295/74 102/296/74
f 97/297/75 96/298/75 101/299/75 100/300/75
f 95/301/76 98/302/76 99/303/76 102/304/76
f 98/305/77 97/306/77 100/307/77 99/308/77
f 102/309/78 101/310/78 96/311/78 95/312/78
f 103/313/79 104/314/79 105/315/79 106/316/79
f 114/317/80 107/318/80 108/319/80 115/320/80
f 105/321/81 104/322/81 108/323/81 107/324/81
f 103/325/82 106/326/82 114/327/82 115/328/82
f 106/329/83 105/330/83 107/331/83 114/332/83
f 115/333/84 108/334/84 104/335/84 103/336/84
f 109/337/85 110/338/85 111/339/85 112/340/85
f 113/341/86 114/342/86 115/343/86 116/344/86
f 111/345/87 110/346/87 115/347/87 114/348/87
f 109/349/88 112/350/88 113/351/88 116/352/88
f 112/353/89 111/354/89 114/355/89 113/356/89
f 116/357/90 115/358/90 110/359/90 109/360/90
f 117/361/91 118/362/91 119/363/91 120/364/91
f 121/365/92 122/366/92 123/367/92 124/368/92
f 119/369/93 118/370/93 123/371/93 122/372/93
f 117/373/94 120/374/94 121/375/94 124/376/94
f 120/377/95 119/378/95 122/379/95 121/380/95
f 124/381/96 123/382/96 118/383/96 117/384/96
f 125/385/97 126/386/97 127/387/97 128/388/97
f 129/389/98 113/390/98 116/391/98 130/392/98
f 127/393/99 126/394/99 116/395/99 113/396/99
f 125/397/100 128/398/100 129/399/100 130/400/100
f 128/401/101 127/402/101 113/403/101 129/404/101
f 130/405/102 116/406/102 126/407/102 125/408/102
f 131/409/103 132/410/103 133/411/103 134/412/103
f 135/413/104 136/414/104 137/415/104 138/416/104
f 133/417/105 132/418/105 137/419/105 136/420/105
f 131/421/106 134/422/106 135/423/106 138/424/106
f 134/425/107 133/426/107 136/427/107 135/428/107
f 138/429/108 137/430/108 132/431/108 131/432/108
f 139/433/109 140/434/109 141/435/109 142/436/109
f 143/437/110 144/438/110 145/439/110 146/440/110
f 141/441/111 140/442/111 145/443/111 144/444/111
f 139/445/112 142/446/112 143/447/112 146/448/112
f 142/449/113 141/450/113 144/451/113 143/452/113
f 146/453/114 145/454/114 140/455/114 139/456/114
f 147/457/115 148/458/115 149/459/115 150/460/115
f 151/461/116 152/462/116 153/463/116 154/464/116
f 149/465/117 148/466/117 153/467/117 152/468/117
f 147/469/118 150/470/118 151/471/118 154/472/118
f 150/473/119 149/474/119 152/475/119 151/476/119
f 154/477/120 153/478/120 148/479/120 147/480/120
f 155/481/121 156/482/121 157/483/121 158/484/121
f 159/485/122 160/486/122 161/487/122 162/488/122
f 157/489/123 156/490/123 161/491/123 160/492/123
f 155/493/124 158/494/124 159/495/124 162/496/124
f 158/497/125 157/498/125 160/499/125 159/500/125
f 162/501/126 161/502/126 156/503/126 155/504/126