# Made in Blockbench 4.11.2
mtllib df11g_carport_eh_ad.mtl

o cube
v 0.10242352612720368 0.08021361941639249 0.050894397683111825
v 0.10242352612720368 0.08021361941639249 0.04545302940700863
v 0.10242352612720368 0.08021361941639249 0.04545302940700863
v 0.10242352612720368 0.08021361941639249 0.050894397683111825
v 0.10242352612720368 0.08021361941639249 0.04545302940700863
v 0.10242352612720368 0.08021361941639249 0.04545302940700863
v 0.9969486971425777 0.04081036567157259 -0.043137447877220736
v 0.9969486971425777 -0.021630148177293584 -0.045863659587554007
v 0.9961686659413292 0.04350512109294158 -0.1048574942586219
v 0.9961686659413292 -0.018935392755924596 -0.10758370596895561
v 0.9961674471425768 0.7535819889040134 0.29759726195663705
v 0.9961674471425767 0.5020873962908157 0.04823823683342121
v 0.9961056386010348 0.1520864989020536 -0.08729622992281783
v 0.9961371522711812 0.30788435161596706 -0.05209347805559983
v -0.003832552857423288 0.5020873962908148 0.04823823683342188
v -0.0038325528574214562 0.7535819889040134 0.2975972619566377
v -0.0038022616569225454 0.3078843516159666 -0.05209347805559916
v -0.0038943613989651515 0.1520864989020536 -0.08729622992281805
v 0.996243831278164 -1.3542176047209864e-8 -0.08742100968430455
v -0.003756168721837816 -1.3542176047209864e-8 -0.087421009684305
v -0.003051302857422278 0.04081036567157259 -0.043137447877220514
v -0.002271271656173801 0.04350512109294158 -0.10485749425862168
v -0.002271271656173801 -0.018935392755924596 -0.10758370596895539
v -0.003051302857422278 -0.021630148177293584 -0.045863659587553784
v 0.9961662283438261 1.0624999864578237 0.9999999999999992
v 0.996167447142577 1.0624999864578242 1.4999999999999993
v 0.9961286516971573 0.7499999864578242 1.4999999999999993
v -0.0038325528574231216 1.0624999864578242 0.9999999999999997
v -0.0038325528574230106 1.0624999864578242 1.4999999999999996
v -0.0037937513902548403 0.7499999864578242 1.4999999999999996
v -0.00383377165617399 0.9124999864578225 0.5187499999999994
v 0.996166228343826 0.9124999864578225 0.5187499999999992
v -0.0038337716561740454 0.789640688290733 0.3008644993410017
v 0.996166228343826 0.789640688290733 0.30086449934100146
vt 0.296875 0.703125
vt 0.3125 0.703125
vt 0.3125 0.6875
vt 0.296875 0.6875
vt 0.9296859374999997 0.6317734375
vt 0.6796859374999997 0.6317734375
vt 0.6796859374999997 0.7203125
vt 0.9296859374999997 0.7203125
vt 0.9296781249999999 0.5771265625
vt 0.67969375 0.5771265625
vt 0.6796859374999997 0.6317734375
vt 0.9296859374999997 0.6317734375
vt 0.9296703125000001 0.5371953125
vt 0.6796703125000001 0.5371953125
vt 0.67969375 0.5771265625
vt 0.9296781249999999 0.5771265625
vt 0.24980468750000018 0.671875
vt 0.25 0.65625
vt 0 0.65625
vt 0.00019531250000026645 0.671875
vt 0 0.6875
vt 0 0.703125
vt 0.25 0.703125
vt 0.25 0.6875
vt 0.296875 0.953125
vt 0.2970703124999998 0.96875
vt 0.5466796874999997 0.96875
vt 0.546875 0.953125
vt 0.453125 1
vt 0.453125 0.984375
vt 0.203125 0.984375
vt 0.203125 1
vt 0.28125 0.6875
vt 0.265625 0.6875
vt 0.265625 0.703125
vt 0.28125 0.703125
vt 0.9297046874999999 0.4991734375
vt 0.6797046874999999 0.4991734375
vt 0.6796703125000001 0.5371953125
vt 0.9296703125000001 0.5371953125
vt 0.40625 0.45546875
vt 0.65625 0.45546875
vt 0.65625 0.33046875
vt 0.40625 0.33046875
vt 0.671875 1
vt 0.921875 1
vt 0.921875 0.734375
vt 0.671875 0.734375
vt 0.390625 0.203125
vt 0 0.203125
vt 0 0.453125
vt 0.390625 0.4531062500000047
vt 0.65625 0.20444843749999997
vt 0.40625 0.20444843749999997
vt 0.40625 0.33046875
vt 0.65625 0.33046875
vt 0.65625 0.14191406249999994
vt 0.40625 0.14191406249999994
vt 0.40625 0.20444843749999997
vt 0.65625 0.20444843749999997
vt 0.578125 0.921875
vt 0.328125 0.921875
vt 0.328125 0.9375
vt 0.578125 0.9375
vt 0.25001122715660684 0.9468752901157033
vt 0.3044829410605722 0.9161609419110925
vt 0.3052985187817951 0.9071468751332626
vt 0.35176938290152826 0.6661609376216386
vt 0.40623969540152827 0.6968765626216387
vt 0.3509521954015282 0.6571468751216387
vt 0.6515523437484896 0.46875154840827005
vt 0.25469765625151036 0.46875
vt 0.25472875790152827 0.5067718751216387
vt 0.25472875790152827 0.5067718751216387
vt 0.2635287579015283 0.5457218751216387
vt 0.6515521954015282 0.46875156262163875
vt 0.2635287579015283 0.5457218751216387
vt 0.2886115704015283 0.5942734376216388
vt 0.6515521954015282 0.46875156262163875
vt 0.6515521954015282 0.46875156262163875
vt 0.2886115704015283 0.5942734376216388
vt 0.3509521954015282 0.6571468751216387
vt 0.3509521954015282 0.6571468751216387
vt 0.40623969540152827 0.6968765626216387
vt 0.6515521954015282 0.46875156262163875
vt 0.40623969540152827 0.6968765626216387
vt 0.5265521954015282 0.7343765626216388
vt 0.6515521954015282 0.46875156262163875
vt 0.5265521954015282 0.7343765626216388
vt 0.6515521954015282 0.7343765626216388
vt 0.6515521954015282 0.46875156262163875
vt 0.004696956281795117 0.9843765626332627
vt 0.12969695628179512 0.9843765626332627
vt 0.004696956281795117 0.7187515626332627
vt 0.12969695628179512 0.9843765626332627
vt 0.2500094562817951 0.9468765626332627
vt 0.004696956281795117 0.7187515626332627
vt 0.2500094562817951 0.9468765626332627
vt 0.3052985187817951 0.9071468751332626
vt 0.004696956281795089 0.7187515626332626
vt 0.004696956281795062 0.7187515626332627
vt 0.3052985187817951 0.9071468751332626
vt 0.3676375812817951 0.8442734376332627
vt 0.3676375812817951 0.8442734376332628
vt 0.3927203937817951 0.7957218751332626
vt 0.004696956281795062 0.7187515626332627
vt 0.3927203937817951 0.7957218751332626
vt 0.40152195628179504 0.7567718751332627
vt 0.004696956281795062 0.7187515626332627
vt 0.40152195628179504 0.7567718751332627
vt 0.40155304371820494 0.71875
vt 0.004698356221832206 0.7187516967633143
vn -0.9999202992431115 0.000550702602352187 -0.012613163291184216
vn -1.0983852717986391e-15 0.7040853797253479 -0.7101153272934002
vn -7.956902919353653e-16 0.4589964912024285 -0.8884380794764818
vn 2.1658466224232187e-16 0.22039544749218443 -0.9754106041686855
vn 9.685449634607632e-18 0.9990482215818578 0.04361938736533464
vn -2.2183326766219873e-16 0.043619387365339386 -0.9990482215818577
vn -9.685449634607563e-18 -0.9990482215818578 -0.04361938736533433
vn 2.2183326766219878e-16 -0.04361938736533229 0.9990482215818579
vn 0.9999202992431115 0.0005507026023520931 -0.012613163291184573
vn 4.440890603825146e-16 0.0008204522379027989 -0.999999663429006
vn -1.9721341907931085e-31 1 -8.880618604607973e-16
vn 2.220446049250313e-16 -1.1655923932754256e-19 1
vn -1.580903480863946e-16 -0.9041640622266087 0.4271853796396567
vn -6.60735767043243e-17 0.9547003344873469 -0.2975689354246308
vn -1.0906122937466649e-16 0.8710647999899608 -0.4911681119723162
vn -6.63416070423753e-16 0.09023917976718247 -0.9959201225173363
vn -0.9999999991638882 -0.00003562031011427235 0.00002008525710956361
vn 0.9999999991638882 0.00003562031006235726 -0.0000200852570802902
vn 0.9999995232333921 0.0009089375566765607 -0.00035688304360238804
vn 0.9999999740710214 -0.0002175097917874049 0.00006743476147777675
vn 0.9999999809462339 -0.00018623192578154027 0.00005852522495645728
vn 0.9999999989738473 -0.000031896741787582545 0.000032169912749447194
vn 0.9999999987956811 -0.000037077313780152575 0.00003215447962718712
vn 0.9999999964686427 -0.00008023297839277713 0.00002500768157674766
vn 0.9999999922909858 -0.00012414542438611957 -0.0000024375974830559923
vn -0.9999999922915644 -0.0001241646939810292 2.220445887408725e-16
vn -0.999999996409961 -0.00008014444537977436 0.00002751265569560597
vn -0.999999998113581 -0.000052359640197990335 0.000032113961081816604
vn -0.9999999989735288 -0.00003190169272505819 0.00003217490609544701
vn -0.9999999809495979 -0.00018621354471979996 0.00005852623397357361
vn -0.9999997860836249 0.0006304898708030677 -0.00017411268616550904
vn -0.9999995045492158 -0.0009089776608838925 0.00040578434576368707
usemtl m_80015b87-fb65-e46e-3ab9-125288b1afeb
f 21/1/1 22/2/1 23/3/1 24/4/1
f 12/5/2 15/6/2 16/7/2 11/8/2
f 14/9/3 17/10/3 15/11/3 12/12/3
f 13/13/4 18/14/4 17/15/4 14/16/4
f 22/17/5 21/18/5 7/19/5 9/20/5
f 23/21/6 22/22/6 9/23/6 10/24/6
f 24/25/7 23/26/7 10/27/7 8/28/7
f 21/29/8 24/30/8 8/31/8 7/32/8
f 7/33/9 8/34/9 10/35/9 9/36/9
f 19/37/10 20/38/10 18/39/10 13/40/10
f 29/41/11 26/42/11 25/43/11 28/44/11
f 26/45/12 29/46/12 30/47/12 27/48/12
f 30/49/13 20/50/13 19/51/13 27/52/13
f 32/53/14 31/54/14 28/55/14 25/56/14
f 34/57/15 33/58/15 31/59/15 32/60/15
f 11/61/16 16/62/16 33/63/16 34/64/16
f 31/65/17 33/66/17 16/67/17
f 34/68/18 32/69/18 11/70/18
f 27/71/19 19/72/19 13/73/19
f 13/74/20 14/75/20 27/76/20
f 14/77/21 12/78/21 27/79/21
f 27/80/22 12/81/22 11/82/22
f 11/83/23 32/84/23 27/85/23
f 32/86/24 25/87/24 27/88/24
f 25/89/25 26/90/25 27/91/25
f 29/92/26 28/93/26 30/94/26
f 28/95/27 31/96/27 30/97/27
f 31/98/28 16/99/28 30/100/28
f 30/101/29 16/102/29 15/103/29
f 15/104/30 17/105/30 30/106/30
f 17/107/31 18/108/31 30/109/31
f 18/110/32 20/111/32 30/112/32