# Made in Blockbench 4.11.2
mtllib df11g_carport_kua.mtl

o cube
v 0.9999999999999999 1.0625 0.6875000000000004
v 2 1.0625 0.6875000000000007
v 0.9961674471425769 0.8749999864578246 0.6874999999999998
v 2 0.875 0.6875000000000007
v 0.9999999999999998 1.1875 1.5625000000000004
v 1.9999999999999998 1.1875 1.5625000000000007
v 0.9999999999999998 0.875 1.5625000000000004
v 1.9999999999999998 0.875 1.5625000000000007
v 1.102423526127204 0.08021361941639249 0.11339439768311207
v 1.102423526127204 0.08021361941639249 0.10795302940700888
v 1.102423526127204 0.08021361941639249 0.10795302940700888
v 1.102423526127204 0.08021361941639249 0.11339439768311207
v 1.102423526127204 0.08021361941639249 0.10795302940700888
v 1.102423526127204 0.08021361941639249 0.10795302940700888
v 1.9969486971425772 0.04081036567157259 0.019362552122779875
v 1.9969486971425772 -0.021630148177293584 0.016636340412446604
v 1.9961686659413296 0.04350512109294158 -0.04235749425862129
v 1.9961686659413296 -0.018935392755924596 -0.045083705968955
v 1.996167447142577 0.7535819889040134 0.36009726195663766
v 1.996167447142577 0.5020873962908157 0.11073823683342182
v 1.9961056386010352 0.1520864989020536 -0.024796229922817214
v 1.9961371522711815 0.30788435161596706 0.010406521944400782
v 0.9961674471425788 0.7535819889040134 0.3600972619566379
v 1.9962438312781634 -1.3542176269254469e-8 -0.02492100968430394
v 0.9962438312781626 -1.3542176269254469e-8 -0.02492100968430483
v 0.9969486971425772 0.04081036567157259 0.019362552122779653
v 0.9977287283438258 0.04350512109294158 -0.04235749425862151
v 0.9977287283438258 -0.018935392755924596 -0.04508370596895522
v 0.9969486971425772 -0.021630148177293584 0.016636340412446382
v 1.996166228343826 0.9999999864578237 1.0624999999999998
v 1.9961674471425768 0.9999999864578246 1.5625
v 1.996128651697157 0.7499999864578246 1.5625
v 0.9961674471425768 0.9999999864578246 1.0624999999999998
v 0.9961674471425768 0.9999999864578246 1.5624999999999998
v 0.9962062486097449 0.7499999864578246 1.5624999999999998
v 0.9961662283438262 0.9124999864578225 0.5812499999999996
v 1.9961662283438262 0.9124999864578225 0.5812499999999998
v 0.9961662283438262 0.7896406882907332 0.36336449934100173
v 1.9961662283438262 0.7896406882907332 0.36336449934100196
v 0.9999999999999999 1.03125 0.6875000000000004
v 0.9961674471425769 0.8749999864578246 0.6874999999999998
v 0.9999999999999998 1.15625 1.5625000000000004
v 0.9961674471425768 0.8749999864578246 1.5624999999999998
v 0.10242352612720396 0.08021361941639249 0.11339439768311185
v 0.10242352612720396 0.08021361941639249 0.10795302940700865
v 0.10242352612720396 0.08021361941639249 0.10795302940700865
v 0.10242352612720396 0.08021361941639249 0.11339439768311185
v 0.10242352612720396 0.08021361941639249 0.10795302940700865
v 0.10242352612720396 0.08021361941639249 0.10795302940700865
v 0.9969486971425772 0.04081036567157348 0.019362552122779653
v 0.9969486971425772 -0.021630148177292696 0.016636340412446382
v 0.9961686659413297 0.04350512109294158 -0.04235749425862151
v 0.9961686659413297 -0.018935392755924596 -0.04508370596895522
v 0.996167447142577 0.7535819889040134 0.36009726195663744
v 0.996166228343826 0.9999999864578246 1.0624999999999996
v 0.9961674471425768 0.9999999864578246 1.5624999999999998
v 0.996128651697157 0.7499999864578246 1.5624999999999998
v 0.9961662283438262 0.9124999864578225 0.5812499999999996
v 0.9961662283438262 0.7896406882907332 0.36336449934100173
v 1.996167447142577 0.7535819889040134 0.36009726195663766
v 1.996167447142577 0.5020873962908157 0.11073823683342182
v 1.9961056386010352 0.1520864989020536 -0.024796229922817214
v 1.9961371522711815 0.30788435161596706 0.010406521944400782
v 0.996167447142577 0.5020873962908148 0.11073823683342204
v 0.9961674471425788 0.7535819889040134 0.3600972619566379
v 0.9961977383430778 0.3078843516159666 0.010406521944401004
v 0.9961056386010353 0.1520864989020536 -0.02479622992281788
v 1.9962438312781634 -1.3542176269254469e-8 -0.02492100968430394
v 0.9962438312781626 -1.3542176269254469e-8 -0.02492100968430483
v 0.996167447142577 0.7535819889040134 0.36009726195663744
v 0.996167447142577 0.5020873962908166 0.1107382368334216
v 0.9961056386010353 0.1520864989020545 -0.024796229922817437
v 0.9961371522711815 0.30788435161596794 0.01040652194440056
v -0.0038325528574231216 0.5020873962908148 0.11073823683342182
v -0.003832552857421234 0.7535819889040134 0.36009726195663766
v -0.0038022616569221013 0.30788435161596706 0.010406521944400782
v -0.0038943613989647075 0.1520864989020545 -0.024796229922818103
v 0.9962438312781635 -1.354217538107605e-8 -0.024921009684304163
v -0.003756168721837372 -1.354217538107605e-8 -0.02492100968430505
v 0.18366744714257677 1.0312499864578246 0.6874999999999998
v 0.9999999999999998 1.03125 0.6875000000000004
v 0.18366744714257677 0.8749999864578246 0.6874999999999998
v 0.9961674471425768 0.8749999864578246 0.6874999999999998
v 0.18366744714257655 1.1562499864578246 1.5624999999999996
v 0.9999999999999998 1.15625 1.5625000000000004
v 0.18366744714257655 0.8749999864578246 1.5624999999999996
v 0.9961674471425768 0.8749999864578246 1.5624999999999998
v 0.9969486971425772 0.04081036567157348 0.019362552122779653
v 0.9969486971425772 -0.021630148177292696 0.016636340412446382
v 0.9961686659413297 0.04350512109294158 -0.04235749425862151
v 0.9961686659413297 -0.018935392755924596 -0.04508370596895522
v 0.996167447142577 0.7535819889040134 0.36009726195663744
v -0.0038325528574231216 0.5020873962908148 0.11073823683342182
v -0.003832552857421234 0.7535819889040134 0.36009726195663766
v -0.0038022616569221013 0.30788435161596706 0.010406521944400782
v -0.0038943613989647075 0.1520864989020545 -0.024796229922818103
v 0.9962438312781635 -1.354217538107605e-8 -0.024921009684304163
v -0.003756168721837372 -1.354217538107605e-8 -0.02492100968430505
v -0.003051302857422722 0.04081036567157348 0.01936255212277943
v -0.002271271656174245 0.04350512109294158 -0.04235749425862173
v -0.002271271656174245 -0.018935392755924596 -0.045083705968955445
v -0.003051302857422722 -0.021630148177292696 0.01663634041244616
v 0.996166228343826 0.9999999864578246 1.0624999999999996
v 0.9961674471425768 0.9999999864578246 1.5624999999999998
v 0.996128651697157 0.7499999864578246 1.5624999999999998
v -0.0038325528574233436 0.9999999864578246 1.0624999999999996
v -0.0038325528574234546 0.9999999864578246 1.5624999999999996
v -0.0037937513902552844 0.7499999864578246 1.5624999999999996
v -0.0038337716561740454 0.9124999864578225 0.5812499999999994
v 0.9961662283438262 0.9124999864578225 0.5812499999999996
v -0.0038337716561738233 0.7896406882907332 0.3633644993410015
v 0.9961662283438262 0.7896406882907332 0.36336449934100173
vt 0.328125 0.765625
vt 0.453125 0.765625
vt 0.453125 0.7421875
vt 0.328125 0.7421875
vt 0 0.859375
vt 0.125 0.859375
vt 0.125 0.8203125
vt 0 0.8203125
vt 0.2734375 0.7429687499999997
vt 0.2734375 0.6324828124999997
vt 0.3984375 0.6324828124999997
vt 0.3984375 0.7429687499999997
vt 0.3515625 0.609375
vt 0.4609375 0.625
vt 0.4609375 0.5859375
vt 0.3515625 0.5859375
vt 0.1328125 1
vt 0.140625 1
vt 0.140625 0.9921875
vt 0.1328125 0.9921875
vt 0.53115234375 0.734375
vt 0.53125 0.7265625
vt 0.40625 0.7265625
vt 0.40634765625 0.734375
vt 0 0.59375
vt 0 0.6015625
vt 0.125 0.6015625
vt 0.125 0.59375
vt 0.1328125 0.5859375
vt 0.13291015625 0.59375
vt 0.25771484375 0.59375
vt 0.2578125 0.5859375
vt 0.2578125 0.609375
vt 0.2578125 0.6015625
vt 0.1328125 0.6015625
vt 0.1328125 0.609375
vt 0.125 0.9921875
vt 0.1171875 0.9921875
vt 0.1171875 1
vt 0.125 1
vt 0 0.734375
vt 0.125 0.734375
vt 0.125 0.609375
vt 0 0.609375
vt 0.40625 0.875
vt 0.2109375 0.875
vt 0.2109375 1
vt 0.40625 0.9999906250000028
vt 0.19531250000000033 0.5021390625000003
vt 0.32031250000000033 0.5021390625000003
vt 0.32031250000000033 0.5632812500000003
vt 0.19531250000000033 0.5632812500000003
vt 0.32812500000000033 0.7820140624999999
vt 0.45312500000000033 0.7820140624999999
vt 0.45312500000000033 0.81328125
vt 0.32812500000000033 0.81328125
vt 0.53125 0.7109375
vt 0.40625 0.7109375
vt 0.40625 0.71875
vt 0.53125 0.71875
vt 0.125006167603286 0.981250002823174
vt 0.15224231077040376 0.9658933363327651
vt 0.1526501836413985 0.961385529294812
vt 0.1680721345001595 0.8408925522491283
vt 0.19530749642774026 0.85625
vt 0.16766348038962772 0.836385526471638
vt 0.3179635973207705 0.7421875295782212
vt 0.11953625357225975 0.7421882983580285
vt 0.1195519522275563 0.7611992357973489
vt 0.1195519522275563 0.7611992357973489
vt 0.12395202767774025 0.7806734375
vt 0.3179635973207705 0.7421875295782212
vt 0.12395202767774025 0.7806734375
vt 0.13649343392774024 0.8049484375
vt 0.3179637464277403 0.7421875
vt 0.3179637464277403 0.7421875
vt 0.13649343392774024 0.8049484375
vt 0.16766296517774026 0.83638515625
vt 0.16766296517774026 0.83638515625
vt 0.19530749642774026 0.85625
vt 0.3179637464277403 0.7421875
vt 0.19530749642774026 0.85625
vt 0.2554637464277403 0.8671875
vt 0.3179637464277403 0.7421875
vt 0.2554637464277403 0.8671875
vt 0.3179637464277403 0.8671875
vt 0.3179637464277403 0.7421875
vt 0.002349402391398525 0.992187873044812
vt 0.06484940239139853 0.992187873044812
vt 0.002349402391398525 0.867187873044812
vt 0 0.8125
vt 0.109375 0.796875
vt 0.109375 0.7734375
vt 0 0.7734375
vt 0.12500565239139855 0.9812503730448121
vt 0.1526501836413985 0.961385529294812
vt 0.002349402391398539 0.867187873044812
vt 0.125 0.9921875
vt 0.1171875 0.9921875
vt 0.1171875 1
vt 0.125 1
vt 0.1680721345001595 0.8408925522491283
vt 0.19530749642774026 0.85625
vt 0.16766348038962775 0.836385526471638
vt 0.2554637464277403 0.8671875
vt 0.3179637464277403 0.8671875
vt 0.3179637464277403 0.7421875
vt 0.328125 0.8046875
vt 0.4375 0.8203125
vt 0.4375 0.78125
vt 0.328125 0.78125
vt 0.16766296517774026 0.83638515625
vt 0.19530749642774026 0.85625
vt 0.3179637464277403 0.7421875
vt 0.19530749642774026 0.85625
vt 0.2554637464277403 0.8671875
vt 0.3179637464277403 0.7421875
vt 0 0.81041875
vt 0.5 0.81041875
vt 0.5 0.9875
vt 0 0.9875
vt 0.000015625000000019096 0.701125
vt 0.4999843750000001 0.701125
vt 0.5 0.81041875
vt 0 0.81041875
vt 0.00003125000000003819 0.6212625
vt 0.50003125 0.6212625
vt 0.4999843750000001 0.701125
vt 0.000015625000000074607 0.701125
vt 0.007778124999999969 0.5452187500000001
vt 0.507778125 0.5452187500000001
vt 0.507846875 0.6212625
vt 0.007846874999999968 0.6212625
vt 0 0.32604687500000007
vt 0.5000000000000001 0.32604687500000007
vt 0.5000000000000001 0.503125
vt 0 0.503125
vt 0.000015625000000019096 0.2167531250000001
vt 0.499984375 0.2167531250000001
vt 0.5000000000000001 0.32604687500000007
vt 0 0.32604687500000007
vt 0.00003124999999998268 0.13689062499999993
vt 0.50003125 0.13689062499999993
vt 0.499984375 0.2167531250000001
vt 0.000015625000000019096 0.2167531250000001
vt 0.007778125000000025 0.060846874999999745
vt 0.507778125 0.060846874999999745
vt 0.507846875 0.13689062499999993
vt 0.007846875000000027 0.13689062499999993
vt 0.328125 0.7703125
vt 0.4296875 0.7703125
vt 0.4296875 0.746875
vt 0.328125 0.746875
vt 0.265625 0.609375
vt 0.3671875 0.609375
vt 0.3671875 0.5703125
vt 0.265625 0.5703125
vt 0 0.8601562499999996
vt 0 0.7496710937499996
vt 0.1015625 0.7496710937499996
vt 0.1015625 0.8601562499999996
vt 0.328125 0.8640625
vt 0.4375 0.8484375
vt 0.4375 0.825
vt 0.328125 0.825
vt 0.1328125 1
vt 0.140625 1
vt 0.140625 0.9921875
vt 0.1328125 0.9921875
vt 0.53115234375 0.7265625
vt 0.53125 0.71875
vt 0.40625 0.71875
vt 0.40634765625 0.7265625
vt 0.1328125 0.59375
vt 0.1328125 0.6015625
vt 0.2578125 0.6015625
vt 0.2578125 0.59375
vt 0.40625 0.734375
vt 0.40634765625 0.7421875
vt 0.53115234375 0.7421875
vt 0.53125 0.734375
vt 0.5 0.609375
vt 0.5 0.6015625
vt 0.375 0.6015625
vt 0.375 0.609375
vt 0 0.7359375
vt 0.125 0.7359375
vt 0.125 0.6734375
vt 0 0.6734375
vt 0.1328125 0.734375
vt 0.2578125 0.734375
vt 0.2578125 0.609375
vt 0.1328125 0.609375
vt 0.40625 0.875
vt 0.2109375 0.875
vt 0.2109375 1
vt 0.40625 0.9999906250000028
vt 0 0.5021390625000002
vt 0.125 0.5021390625000002
vt 0.125 0.5632812500000002
vt 0 0.5632812500000002
vt 0 0.5867015625
vt 0.125 0.5867015625
vt 0.125 0.61796875
vt 0 0.61796875
vt 0.53125 0.703125
vt 0.40625 0.703125
vt 0.40625 0.7109375
vt 0.53125 0.7109375
vt 0.12500631671245932 0.9812508011802199
vt 0.15224245987957707 0.965894134689811
vt 0.15265033275057183 0.9613863276518579
vt 0.0023495515005718254 0.992188671401858
vt 0.06484955150057183 0.992188671401858
vt 0.0023495515005718254 0.867188671401858
vt 0.06484955150057183 0.992188671401858
vt 0.12500580150057183 0.9812511714018579
vt 0.0023495515005718254 0.867188671401858
vt 0.12500580150057183 0.9812511714018579
vt 0.15265033275057183 0.9613863276518579
vt 0.0023495515005718254 0.867188671401858
vt 0.002350112425621012 0.867189022949099
vt 0.15265033275057183 0.9613863276518579
vt 0.18382057172098792 0.9299495359955612
vt 0.18381987393299232 0.9299492946696023
vt 0.19636119111943234 0.9056734674076016
vt 0.002350112425621012 0.867189022949099
vt 0.19636119111943234 0.9056734674076016
vt 0.20076105918317555 0.886198437599623
vt 0.0023492116454302964 0.8671888442684512
vt 0.20076105918317555 0.886198437599623
vt 0.20077656249796755 0.8671875
vt 0.0023484375020324383 0.8671887700987312
vn 2.220446049250313e-16 0 -1
vn -2.220446049250313e-16 0 1
vn 3.140184917367551e-17 0.9899494936611667 -0.14142135623730953
vn 1 0 2.220446049250313e-16
vn -0.9999202992431115 0.000550702602352187 -0.01261316329118466
vn -9.685449634607632e-18 0.9990482215818578 0.04361938736533464
vn 2.2183326766219873e-16 0.043619387365339386 -0.9990482215818577
vn 9.685449634607563e-18 -0.9990482215818578 -0.04361938736533433
vn -2.2183326766219878e-16 -0.04361938736533229 0.9990482215818579
vn 0.9999202992431119 0.0005507026023514663 -0.012613163291169772
vn -2.220446049250313e-16 0 1
vn -4.742710442591849e-16 -0.9041640622266084 0.4271853796396569
vn 3.972054645195729e-17 0.9838699100999068 -0.17888543819998734
vn 1.0906122937466627e-16 0.8710647999899613 -0.4911681119723152
vn -2.211386901412516e-16 0.09023917976717889 -0.9959201225173367
vn -0.999999999163888 -0.000035620310114272045 0.0000200852571091193
vn 0.9999999991638882 0.000035620310062356955 -0.000020085257079845887
vn 0.9999995232333921 0.0009089375566707173 -0.00035688304359974307
vn 0.9999999740710214 -0.00021750979178740494 0.00006743476147822091
vn 0.9999999809462339 -0.0001862319257815403 0.000058525224956901434
vn 0.9999999989738473 -0.00003189674178758256 0.0000321699127498913
vn 0.9999999987956811 -0.0000370773137801526 0.00003215447962763122
vn 0.999999993724425 -0.0001102248295371201 0.000020040878097880532
vn 0.9999999879563367 -0.0001551817798099909 -0.000002437597472045608
vn -0.9999999879555695 -0.00015520586680331465 -2.220446022506305e-16
vn -0.9997869022863045 0.020435924652931214 -0.002919417807561824
vn -0.999999998113581 -0.000052359640197990376 0.000032113961081372535
vn 0.9999202992431119 0.0005507026023514666 -0.012613163291169781
vn 0.9999999991638882 0.000035620310062356955 -0.000020085257079845887
vn 0.9999999879563367 -0.0001551817798099909 -0.0000024375974720458832
vn 0.9999052730795859 -0.013625563118128849 0.0019465090168757717
vn 0.9999999987956811 -0.0000370773137801526 0.00003215447962763122
vn 0.999999993724425 -0.00011022482953711952 0.000020040878097880627
vn -7.830307171984943e-16 0.7040853797253479 -0.7101153272934002
vn -4.011445272199472e-16 0.45899649120242847 -0.8884380794764817
vn 6.497539867269655e-16 0.22039544749218443 -0.9754106041686855
vn 8.881781207650311e-16 0.0008204522379027976 -0.999999663429006
vn -1.4083841570969164e-15 0.7040853797253479 -0.7101153272934002
vn -6.04992266655783e-16 0.45899649120242936 -0.8884380794764812
vn 6.497539867269654e-16 0.22039544749218498 -0.9754106041686853
vn 8.881781207650311e-16 0.0008204522379027976 -0.999999663429006
vn 9.020511204824799e-16 4.246576616658833e-15 -1
vn -1.0380525081299371e-15 0 1
vn -1.6422314037093767e-8 0.9899494936611665 -0.1414213562373095
vn -1 0 -2.220446049250313e-16
vn -0.9999202992431115 0.0005507026023521873 -0.012613163291184669
vn -9.685449634604446e-18 0.9990482215818586 0.04361938736532029
vn 2.2183326766219873e-16 0.043619387365339386 -0.9990482215818577
vn 9.685449634604378e-18 -0.9990482215818585 -0.043619387365319985
vn -2.218332676621988e-16 -0.043619387365332295 0.999048221581858
vn 0 1 0
vn -2.220446049250313e-16 0 1
vn -3.477987657900689e-16 -0.9041640622266086 0.4271853796396564
vn 3.9720546451957286e-17 0.9838699100999068 -0.1788854381999873
vn 1.0906122937466629e-16 0.8710647999899612 -0.4911681119723153
vn -2.211386901412516e-16 0.09023917976717889 -0.9959201225173367
vn -0.9999999991638882 -0.00003562031011422341 0.000020085257108582337
vn -0.9999999879555695 -0.00015520586680331465 -2.220446022506305e-16
vn -0.9999999936843613 -0.00011010320204306866 0.000022551332824472
vn -0.999999998113581 -0.000052359640198558125 0.00003211396108127851
vn -0.9999999989735288 -0.00003190169272452679 0.00003217490609491218
vn -0.9999999809495979 -0.0001862135447204275 0.000058526233973236735
vn -0.9999997860836248 0.0006304898708030869 -0.00017411268616603014
vn -0.9999995045492158 -0.0009089776608838911 0.0004057843457631722
usemtl m_e676da9a-a1ba-464c-94f0-5dbd97b92bd5
f 1/1/1 2/2/1 4/3/1 3/4/1
f 6/5/2 5/6/2 7/7/2 8/8/2
f 6/9/3 2/10/3 1/11/3 5/12/3
f 2/13/4 6/14/4 8/15/4 4/16/4
f 26/17/5 27/18/5 28/19/5 29/20/5
f 27/21/6 26/22/6 15/23/6 17/24/6
f 28/25/7 27/26/7 17/27/7 18/28/7
f 29/29/8 28/30/8 18/31/8 16/32/8
f 26/33/9 29/34/9 16/35/9 15/36/9
f 15/37/10 16/38/10 18/39/10 17/40/10
f 31/41/11 34/42/11 35/43/11 32/44/11
f 35/45/12 25/46/12 24/47/12 32/48/12
f 37/49/13 36/50/13 33/51/13 30/52/13
f 39/53/14 38/54/14 36/55/14 37/56/14
f 19/57/15 23/58/15 38/59/15 39/60/15
f 36/61/16 38/62/16 23/63/16
f 39/64/17 37/65/17 19/66/17
f 32/67/18 24/68/18 21/69/18
f 21/70/19 22/71/19 32/72/19
f 22/73/20 20/74/20 32/75/20
f 32/76/21 20/77/21 19/78/21
f 19/79/22 37/80/22 32/81/22
f 37/82/23 30/83/23 32/84/23
f 30/85/24 31/86/24 32/87/24
f 34/88/25 33/89/25 35/90/25
f 5/91/26 1/92/26 3/93/26 7/94/26
f 36/95/27 23/96/27 35/97/27
f 50/98/28 51/99/28 53/100/28 52/101/28
f 59/102/29 58/103/29 54/104/29
f 55/105/30 56/106/30 57/107/30
f 40/108/31 42/109/31 43/110/31 41/111/31
f 54/112/32 58/113/32 57/114/32
f 58/115/33 55/116/33 57/117/33
usemtl m_8ec7ae52-4728-42af-0266-784f4dd78d19
f 61/118/34 64/119/34 65/120/34 60/121/34
f 63/122/35 66/123/35 64/124/35 61/125/35
f 62/126/36 67/127/36 66/128/36 63/129/36
f 68/130/37 69/131/37 67/132/37 62/133/37
f 71/134/38 74/135/38 75/136/38 70/137/38
f 73/138/39 76/139/39 74/140/39 71/141/39
f 72/142/40 77/143/40 76/144/40 73/145/40
f 78/146/41 79/147/41 77/148/41 72/149/41
usemtl m_c76cc4bd-3df2-33e6-1e40-b17b7d68c016
f 80/150/42 81/151/42 83/152/42 82/153/42
f 85/154/43 84/155/43 86/156/43 87/157/43
f 85/158/44 81/159/44 80/160/44 84/161/44
f 84/162/45 80/163/45 82/164/45 86/165/45
f 99/166/46 100/167/46 101/168/46 102/169/46
f 100/170/47 99/171/47 88/172/47 90/173/47
f 101/174/48 100/175/48 90/176/48 91/177/48
f 102/178/49 101/179/49 91/180/49 89/181/49
f 99/182/50 102/183/50 89/184/50 88/185/50
f 107/186/51 104/187/51 103/188/51 106/189/51
f 104/190/52 107/191/52 108/192/52 105/193/52
f 108/194/53 98/195/53 97/196/53 105/197/53
f 110/198/54 109/199/54 106/200/54 103/201/54
f 112/202/55 111/203/55 109/204/55 110/205/55
f 92/206/56 94/207/56 111/208/56 112/209/56
f 109/210/57 111/211/57 94/212/57
f 107/213/58 106/214/58 108/215/58
f 106/216/59 109/217/59 108/218/59
f 109/219/60 94/220/60 108/221/60
f 108/222/61 94/223/61 93/224/61
f 93/225/62 95/226/62 108/227/62
f 95/228/63 96/229/63 108/230/63
f 96/231/64 98/232/64 108/233/64