# Made in Blockbench 4.11.2
mtllib df11g_carport_eh.mtl

o cube_selection
v 0.9352287283438264 0.04081036567157259 -0.04313744787722107
v 0.9352287283438264 -0.021630148177293584 -0.04586365958755456
v 0.9352287283438264 0.04350512109294158 -0.10485749425862245
v 0.9352287283438264 -0.018935392755924596 -0.10758370596895594
v 0.933666228343828 0.7535819889040134 0.2975972619566366
v 0.933666228343828 0.5020873962908157 0.04823823683342077
v 0.9336056386010333 0.15208649890205406 -0.08729622992281849
v 0.9336662283438243 0.30788435161596706 -0.05209347805560027
v -0.0038337716561721025 0.5020873962908148 0.04823823683342143
v -0.003833771656172047 0.7535819889040134 0.29759726195663727
v -0.003833771656172158 0.3078843516159666 -0.05209347805559961
v -0.003894361398966706 0.15208649890205383 -0.08729622992281783
v 0.9337438312781606 -1.3542175825165259e-8 -0.08742100968430533
v -0.0037561687218358175 -1.3542175825165259e-8 -0.08742100968430455
v -0.003833771656172158 0.04081036567157259 -0.04313744787722085
v -0.003833771656172158 0.04350512109294158 -0.10485749425862223
v -0.003833771656172158 -0.018935392755924596 -0.10758370596895572
v -0.003833771656172158 -0.021630148177293584 -0.04586365958755434
v 0.9336662283438281 1.0624999864578242 0.999999999999999
v 0.9336662283438282 1.0624999864578242 1.4999999999999991
v 0.9336662283438282 0.7499999864578242 1.4999999999999991
v -0.003833771656171936 1.0624999864578242 0.9999999999999992
v -0.003833771656171825 1.0624999864578242 1.4999999999999991
v -0.003833771656171825 0.7499999864578242 1.4999999999999991
v -0.003833771656172047 0.9124999864578229 0.5187499999999992
v 0.933666228343828 0.9124999864578229 0.5187499999999989
v -0.003833771656172047 0.789640688290733 0.30086449934100157
v 0.933666228343828 0.789640688290733 0.30086449934100135
vt 0.007814062500000052 0.6161484375
vt 0.24218906250000005 0.6161484375
vt 0.24218906250000005 0.7046875
vt 0.007814062500000052 0.7046875
vt 0.007814062500000052 0.5615015625
vt 0.24218906250000005 0.5615015625
vt 0.24218906250000005 0.6161484375
vt 0.007814062500000052 0.6161484375
vt 0.007835368801699397 0.5215703125
vt 0.24220468749999968 0.5215703125
vt 0.24218338119830035 0.5615015625
vt 0.007814062500000052 0.5615015625
vt 0.53125 0.4375
vt 0.53125 0.421875
vt 0.703125 0.421875
vt 0.703125 0.4375
vt 0.59375 0.796875
vt 0.59375 0.8125
vt 0.421875 0.8125
vt 0.421875 0.796875
vt 0.703125 0.390625
vt 0.703125 0.40625
vt 0.53125 0.40625
vt 0.53125 0.390625
vt 0.421875 0.78125
vt 0.421875 0.765625
vt 0.59375 0.765625
vt 0.59375 0.78125
vt 0.007795312500000318 0.4835484375
vt 0.2421578149995007 0.4835484375
vt 0.24220468749999977 0.5215703125
vt 0.007842185000499352 0.5215703125
vt 0.3208398437499995 0.203125
vt 0.3208398437499995 0.4375
vt 0.19583984374999955 0.4375
vt 0.19583984374999955 0.203125
vt 0.515625 0.4375
vt 0.34375 0.4375
vt 0.34375 0.171875
vt 0.515625 0.171875
vt 0.8125 1
vt 0.421875 1
vt 0.421875 0.828125
vt 0.8125 0.828125
vt 0.06981953125000018 0.4375
vt 0.06981953124999984 0.203125
vt 0.19583984374999952 0.203125
vt 0.19583984374999985 0.4375
vt 0.007285156250000813 0.4374999999999991
vt 0.00728515625000048 0.2031249999999991
vt 0.06981953124999984 0.2031249999999991
vt 0.06981953125000018 0.4374999999999991
vt 0.78125 0.8125
vt 0.609375 0.8125
vt 0.609375 0.796875
vt 0.78125 0.796875
vt 0.3044827982858046 0.9317859374999999
vt 0.25001092328580465 0.9624999999999999
vt 0.30529998578580464 0.9227703125
vt 0.40623984375 0.6968749999999999
vt 0.35176796875 0.6661609374999999
vt 0.35095078125 0.6571453125
vt 0.25472890625 0.506771875
vt 0.25469765624999996 0.46875
vt 0.6515523437499999 0.46875
vt 0.26352890625 0.5457218749999999
vt 0.25472890625 0.506771875
vt 0.6515523437499999 0.46875
vt 0.28861171875 0.594271875
vt 0.26352890625 0.5457218749999999
vt 0.65155234375 0.46875
vt 0.35095078125 0.6571453125
vt 0.28861171875 0.594271875
vt 0.65155234375 0.46875
vt 0.40623984375 0.6968749999999999
vt 0.35095078125 0.6571453125
vt 0.6515523437499999 0.46875
vt 0.5265523437499999 0.734375
vt 0.40623984375 0.6968749999999999
vt 0.6515523437499999 0.46875
vt 0.6515523437499999 0.734375
vt 0.5265523437499999 0.734375
vt 0.6515523437499999 0.46875
vt 0.12969842328580464 1
vt 0.004698423285804637 1
vt 0.004698423285804637 0.734375
vt 0.12969842328580464 1
vt 0.004698423285804637 0.734375
vt 0.25001092328580465 0.9624999999999999
vt 0.25001092328580465 0.9624999999999999
vt 0.004698423285804637 0.734375
vt 0.30529998578580464 0.9227703125
vt 0.30529998578580464 0.9227703125
vt 0.004698423285804637 0.734375
vt 0.3676390482858046 0.859896875
vt 0.3676390482858046 0.859896875
vt 0.004698423285804637 0.734375
vt 0.3927218607858046 0.8113468749999999
vt 0.40152186078580465 0.772396875
vt 0.3927218607858046 0.8113468749999999
vt 0.004698423285804637 0.734375
vt 0.4015531249999862 0.7343750000116852
vt 0.40152186078580465 0.772396875
vt 0.004696875000013839 0.7343748516500709
vt 0.046695937803430065 0.14062572751688973
vt 0.046695937803430065 0.15624996156061566
vt 0.03125 0.15625
vt 0.03125156101402282 0.14062569782793433
vt 0.000001513348830806116 0.9845540622775002
vt 0.015625815598876436 0.9845540622775002
vt 0.015624233965746998 1
vt 6.661338147750939e-16 0.9999984389927916
vn -1.1610991380985435e-15 0.7040853797253478 -0.7101153272934002
vn -8.355461130963306e-16 0.45899649120242847 -0.8884380794764816
vn -7.308320697626642e-16 0.22039544749218073 -0.9754106041686862
vn 9.685449634607597e-18 0.9990482215818578 0.04361938736533448
vn -2.2183326766219878e-16 0.04361938736533584 -0.9990482215818579
vn -9.685449634607597e-18 -0.9990482215818578 -0.04361938736533448
vn 2.2183326766219878e-16 -0.04361938736533584 0.9990482215818579
vn -8.141632773679478e-16 0.0008204522379013377 -0.999999663429006
vn 0 1 0
vn 2.220446049250313e-16 0 1
vn 4.995654999530102e-16 -0.9041640622266087 0.4271853796396567
vn -6.607357670432414e-17 0.954700334487347 -0.2975689354246301
vn -1.0906122937466687e-16 0.8710647999899599 -0.4911681119723179
vn -2.2113869014125032e-16 0.09023917976720378 -0.9959201225173345
vn 1 0 -2.220446049250313e-16
vn -1 0 2.220446049250313e-16
vn -0.9999995144841182 -0.0009089569776045493 0.0003805637148931422
vn -0.9999999066074939 0.00041565211757535757 -0.00011839898977287252
vn -1 0 2.220446049250313e-16
vn -1 0 2.220446049250313e-16
vn -1 0 2.220446049250313e-16
vn -1 0 2.220446049250313e-16
vn -1 0 2.220446049250313e-16
vn 1 0 -2.220446049250313e-16
vn 1 0 -2.220446049250313e-16
vn 1 0 -2.220446049250313e-16
vn 1 0 -2.220446049250313e-16
vn 1 -2.0063924741662577e-14 3.2042059534117623e-15
vn 0.9999999066074939 -0.0004156521175504321 0.00011839898976348336
vn 0.9999995144841181 0.0009089569775811812 -0.0003805637148843394
vn 1 0 -2.220446049250313e-16
vn -1 0 2.220446049250313e-16
usemtl m_a985e23f-49a1-caec-adfe-867839ce1dcc
f 6/1/1 9/2/1 10/3/1 5/4/1
f 8/5/2 11/6/2 9/7/2 6/8/2
f 7/9/3 12/10/3 11/11/3 8/12/3
f 16/13/4 15/14/4 1/15/4 3/16/4
f 17/17/5 16/18/5 3/19/5 4/20/5
f 18/21/6 17/22/6 4/23/6 2/24/6
f 15/25/7 18/26/7 2/27/7 1/28/7
f 13/29/8 14/30/8 12/31/8 7/32/8
f 23/33/9 20/34/9 19/35/9 22/36/9
f 20/37/10 23/38/10 24/39/10 21/40/10
f 24/41/11 14/42/11 13/43/11 21/44/11
f 26/45/12 25/46/12 22/47/12 19/48/12
f 28/49/13 27/50/13 25/51/13 26/52/13
f 27/53/14 28/54/14 5/55/14 10/56/14
f 28/57/15 26/58/15 5/59/15
f 25/60/16 27/61/16 10/62/16
f 12/63/17 14/64/17 24/65/17
f 11/66/18 12/67/18 24/68/18
f 9/69/19 11/70/19 24/71/19
f 10/72/20 9/73/20 24/74/20
f 25/75/21 10/76/21 24/77/21
f 22/78/22 25/79/22 24/80/22
f 23/81/23 22/82/23 24/83/23
f 19/84/24 20/85/24 21/86/24
f 19/87/25 21/88/25 26/89/25
f 26/90/26 21/91/26 5/92/26
f 5/93/27 21/94/27 6/95/27
f 6/96/28 21/97/28 8/98/28
f 7/99/29 8/100/29 21/101/29
f 13/102/30 7/103/30 21/104/30
f 4/105/31 3/106/31 1/107/31 2/108/31
f 18/109/32 15/110/32 16/111/32 17/112/32