# Made in Blockbench 4.11.2
mtllib df11g_carport_centre_cooling_blind.mtl

o cube
v -2.220446049250313e-16 0.828125 1.0000000000000009
v 0.9999999999999998 0.828125 1.0000000000000009
v -2.220446049250313e-16 0.5 1.0000000000000009
v 0.9999999999999998 0.5 1.0000000000000009
v 0 0.828125 7.771561172376096e-16
v 1 0.828125 9.992007221626409e-16
v 0 0.5 7.771561172376096e-16
v 1 0.5 9.992007221626409e-16
v 1 1.015625 -0.374999999999999
v 1.003832552857423 0.8281249864578246 -0.37499999999999967
v 0.9999999999999999 1.140625 0.500000000000001
v 0.9999999999999999 0.828125 0.500000000000001
v 1 0.984375 -0.374999999999999
v 1.003832552857423 0.8281249864578246 -0.37499999999999967
v 0.9999999999999999 1.109375 0.500000000000001
v 1.003832552857423 0.8281249864578246 0.5000000000000003
v 1 1.015625 -0.374999999999999
v 1.1102230246251565e-16 1.015625 -0.3749999999999992
v 1.003832552857423 0.8281249864578246 -0.37499999999999967
v 1.1102230246251565e-16 0.828125 -0.3749999999999992
v 0.9999999999999999 1.140625 0.500000000000001
v -1.1102230246251565e-16 1.140625 0.5000000000000008
v -1.1102230246251565e-16 0.828125 0.5000000000000008
v 1.816332552857423 0.9843749864578246 -0.37499999999999944
v 1 0.984375 -0.374999999999999
v 1.816332552857423 0.8281249864578246 -0.37499999999999944
v 1.003832552857423 0.8281249864578246 -0.37499999999999967
v 1.816332552857423 1.1093749864578246 0.5000000000000006
v 0.9999999999999999 1.109375 0.500000000000001
v 1.816332552857423 0.8281249864578246 0.5000000000000006
v 0.9999999999999997 1.015625 1.3750000000000009
v 1.0038325528574226 0.8281249864578246 1.3750000000000018
v 0.9999999999999999 1.140625 0.500000000000001
v 0.9999999999999999 0.828125 0.500000000000001
v 0.9999999999999997 0.984375 1.3750000000000009
v 1.0038325528574226 0.8281249864578246 1.3750000000000018
v 0.9999999999999999 1.109375 0.500000000000001
v 1.003832552857423 0.8281249864578246 0.5000000000000017
v 0.9999999999999997 1.015625 1.3750000000000009
v -3.3306690738754696e-16 1.015625 1.3750000000000009
v 1.0038325528574226 0.8281249864578246 1.3750000000000018
v -3.3306690738754696e-16 0.828125 1.3750000000000009
v 0.9999999999999999 1.140625 0.500000000000001
v -1.1102230246251565e-16 1.140625 0.5000000000000008
v -1.1102230246251565e-16 0.828125 0.5000000000000008
v 1.8163325528574226 0.9843749864578246 1.3750000000000018
v 0.9999999999999997 0.984375 1.3750000000000009
v 1.8163325528574226 0.8281249864578246 1.3750000000000018
v 1.0038325528574226 0.8281249864578246 1.3750000000000018
v 1.816332552857423 1.1093749864578246 0.5000000000000019
v 0.9999999999999999 1.109375 0.500000000000001
v 1.816332552857423 0.8281249864578246 0.5000000000000019
vt 0.46875 0.390625
vt 0.46875 0.5
vt 0.21875 0.5
vt 0.21875 0.390625
vt 0.734375 0.390625
vt 0.734375 0.5
vt 0.484375 0.5
vt 0.484375 0.390625
vt 0.703125 0.75
vt 0.703125 1
vt 0.453125 1
vt 0.453125 0.75
vt 0.46875 0.265625
vt 0.46875 0.375
vt 0.21875 0.375
vt 0.21875 0.265625
vt 0.734375 0.265625
vt 0.734375 0.375
vt 0.484375 0.375
vt 0.484375 0.265625
vt 0.0078119776912511305 0.078125
vt 0.05469635279539698 0.078125
vt 0.08593802230874886 0.296875
vt 0.007830209982252388 0.296875
vt 0.9375 0.734375
vt 0.9375 0.8125
vt 0.71875 0.781251735686765
vt 0.71875 0.734375
vt 0.96875 0.671875
vt 0.96875 0.71875
vt 0.7197078125 0.71875
vt 0.71875 0.671875
vt 0.453125 0.515625
vt 0.703125 0.515625
vt 0.703125 0.734375
vt 0.453125 0.734375
vt 0.9375 0.921875
vt 0.9375 1
vt 0.71875 0.96875
vt 0.71875 0.921875
vt 0.92920859375 0.609375
vt 0.93016640625 0.65625
vt 0.72608359375 0.65625
vt 0.72608359375 0.609375
vt 0 0.3125
vt 0.203125 0.3125
vt 0.203125 0.53125
vt 0 0.53125
vt 0.9375 0.828125
vt 0.9375 0.875
vt 0.71875 0.90625
vt 0.71875 0.828125
vt 0.08593802230874886 0.296875
vt 0.05469635279539698 0.078125
vt 0.0078119776912511305 0.078125
vt 0.007830209982252388 0.296875
vt 0.71875 0.781251735686765
vt 0.9375 0.8125
vt 0.9375 0.734375
vt 0.71875 0.734375
vt 0.7197078125 0.71875
vt 0.96875 0.71875
vt 0.96875 0.671875
vt 0.71875 0.671875
vt 0.703125 0.734375
vt 0.703125 0.515625
vt 0.453125 0.515625
vt 0.453125 0.734375
vt 0.71875 0.96875
vt 0.9375 1
vt 0.9375 0.921875
vt 0.71875 0.921875
vt 0.72608359375 0.65625
vt 0.93016640625 0.65625
vt 0.92920859375 0.609375
vt 0.72608359375 0.609375
vt 0.203125 0.53125
vt 0.203125 0.3125
vt 0 0.3125
vt 0 0.53125
vt 0.71875 0.90625
vt 0.9375 0.875
vt 0.9375 0.828125
vt 0.71875 0.828125
vt 0 1
vt 0 1
vt 0 1
vt 0 1
vt 0 1
vt 0 1
vt 0 1
vt 0 1
vt 0 1
vt 0 1
vt 0 1
vt 0 1
vt 0 1
vt 0 1
vt 0 1
vt 0 1
vt 0.4375 0.546875
vt 0.4375 1
vt 0 1
vt 0 0.546875
vn -2.220446049250313e-16 0 1
vn 2.220446049250313e-16 0 -1
vn 0 -1 0
vn -1 0 -2.220446049250313e-16
vn 1 0 2.220446049250313e-16
vn 0.9997869022863045 0.020435924652931214 -0.00291941780756138
vn -0.9999052730795859 -0.013625563118128849 0.0019465090168753277
vn 2.220446049250313e-16 0 -1
vn 3.140184917367551e-17 0.9899494936611667 -0.14142135623730953
vn -1 0 -2.220446049250313e-16
vn -5.939632278885741e-16 4.2432407306307485e-15 -1
vn 1.6422314099897468e-8 0.9899494936611665 -0.1414213562373095
vn 1 0 2.220446049250313e-16
vn 0.9997869022863045 0.020435924652931214 0.002919417807561824
vn -0.9999052730795859 -0.013625563118128849 -0.0019465090168757717
vn -2.220446049250313e-16 0 1
vn -3.140184917367551e-17 0.9899494936611667 0.14142135623730953
vn -1 0 -2.220446049250313e-16
vn -1.0380524377386367e-15 4.2432407306307485e-15 1
vn 1.6422314037093767e-8 0.9899494936611665 0.1414213562373095
vn 1 0 2.220446049250313e-16
vn 0 0 0
vn 0 0 0
vn 0 0 0
vn 0 0 0
vn 7.455779702770691e-9 1 1.6555156585097855e-24
usemtl m_12934a1a-91e0-8fa0-709b-3bdbd7a839dc
f 4/1/1 2/2/1 1/3/1 3/4/1
f 7/5/2 5/6/2 6/7/2 8/8/2
f 4/9/3 3/10/3 7/11/3 8/12/3
f 3/13/4 1/14/4 5/15/4 7/16/4
f 8/17/5 6/18/5 2/19/5 4/20/5
f 10/21/6 9/22/6 11/23/6 12/24/6
f 16/25/7 15/26/7 13/27/7 14/28/7
f 20/29/8 18/30/8 17/31/8 19/32/8
f 17/33/9 18/34/9 22/35/9 21/36/9
f 23/37/10 22/38/10 18/39/10 20/40/10
f 27/41/11 25/42/11 24/43/11 26/44/11
f 24/45/12 25/46/12 29/47/12 28/48/12
f 26/49/13 24/50/13 28/51/13 30/52/13
f 33/53/14 31/54/14 32/55/14 34/56/14
f 35/57/15 37/58/15 38/59/15 36/60/15
f 39/61/16 40/62/16 42/63/16 41/64/16
f 44/65/17 40/66/17 39/67/17 43/68/17
f 40/69/18 44/70/18 45/71/18 42/72/18
f 46/73/19 47/74/19 49/75/19 48/76/19
f 51/77/20 47/78/20 46/79/20 50/80/20
f 50/81/21 46/82/21 48/83/21 52/84/21
f 26/85/22 19/86/22 27/87/22 20/88/22
f 20/89/23 23/90/23 45/91/23 42/92/23
f 42/93/24 41/94/24 49/95/24 48/96/24
f 48/97/25 52/98/25 30/99/25 26/100/25
f 26/101/26 20/102/26 42/103/26 48/104/26