# Made in Blockbench 4.11.2
mtllib df11g_carport_kua.mtl

o cube
v 0.9989297825363469 0.04081036567157259 -0.04313744787722029
v 0.9997094850701549 0.04350512109294158 -0.10485749425862145
v 0.9997094850701549 -0.018935392755924596 -0.10758370596895517
v 0.9989297825363469 -0.021630148177293584 -0.04586365958755356
v 1.9985084308776333 0.04081036567157259 -0.043137447877220514
v 1.997728728343826 0.04350512109294158 -0.10485749425862168
v 1.997728728343826 -0.018935392755924596 -0.10758370596895539
v 1.9985084308776333 -0.021630148177293584 -0.045863659587553784
v 1.997727510058617 1.0156249864578246 1.4999999999999998
v 0.9981488617173304 1.0156249864578246 1.4999999999999998
v 0.998187646835436 0.7499999864578246 1.4999999999999998
v 1.9976887309597222 0.7499999864578246 1.4999999999999998
v 0.9982252136683334 -1.3542176269254469e-8 -0.08742100968430477
v 1.9978038620096208 -1.3542176269254469e-8 -0.08742100968430433
v 1.9977262917734087 0.9124999864578225 0.5187499999999994
v 0.9981476434321223 0.9124999864578225 0.5187499999999996
v 0.9981476434321224 1.0156249864578246 0.9999999999999996
v 1.9977262917734087 1.0156249864578237 0.9999999999999993
v 1.9977262917734087 0.7896406882907332 0.3008644993410015
v 0.9981476434321221 0.7896406882907332 0.30086449934100173
v 1.9977275100586165 0.7535819889040134 0.2975972619566372
v 0.998148861717332 0.7535819889040134 0.2975972619566379
v 1.9976657275602059 0.1520864989020536 -0.0872962299228176
v 1.997697227952015 0.30788435161596706 -0.05209347805559961
v 1.9977275100586165 0.5020873962908157 0.04823823683342138
v -0.0006488658049395024 0.04081036567157348 -0.04313744787722007
v 0.0001308367288683776 0.04350512109294158 -0.10485749425862134
v 0.0001308367288683776 -0.018935392755924596 -0.10758370596895506
v -0.0006488658049395024 -0.021630148177292696 -0.04586365958755334
v 0.9989297825363469 0.04081036567157348 -0.04313744787722029
v 0.9981500800025398 0.04350512109294158 -0.10485749425862145
v 0.9981500800025398 -0.018935392755924596 -0.10758370596895517
v 0.9989297825363469 -0.021630148177292696 -0.04586365958755356
v -0.0014297866239559864 1.0156249864578246 1.5000000000000002
v -0.0014297866239560975 1.0156249864578246 1
v -0.0013910015058503644 0.7499999864578246 1.5000000000000002
v 0.9981100826184359 0.7499999864578246 1.4999999999999998
v -0.0013534346729531244 -1.354217538107605e-8 -0.08742100968430455
v 0.9982252136683343 -1.354217538107605e-8 -0.08742100968430411
v 0.9981476434321223 0.9124999864578225 0.5187499999999996
v -0.0014310049091642574 0.9124999864578225 0.5187499999999998
v 0.9981476434321221 0.7896406882907332 0.30086449934100173
v -0.0014310049091642574 0.7896406882907332 0.30086449934100196
v 0.9981488617173302 0.7535819889040134 0.29759726195663744
v -0.0014297866239544321 0.7535819889040134 0.2975972619566381
v -0.0014297866239563195 0.5020873962908148 0.048238236833422266
v -0.0013995081867030912 0.30788435161596706 -0.05209347805559872
v -0.0014915691223666983 0.1520864989020545 -0.0872962299228176
v 1.9981487101484041 0.5020873962908157 0.04823823683342138
v 0.9981487101484041 0.5020873962908148 0.048238236833422043
v 0.9981487101484059 0.7535819889040134 0.2975972619566379
v 1.9981487101484041 0.7535819889040134 0.2975972619566372
v 1.9981184152770086 0.30788435161596706 -0.05209347805559961
v 0.9981790013489049 0.3078843516159666 -0.05209347805559894
v 1.9980869016068623 0.1520864989020536 -0.0872962299228176
v 0.9980869016068623 0.1520864989020536 -0.08729622992281783
v 1.9982250942839905 -1.3542176269254469e-8 -0.08742100968430433
v 0.9982250942839896 -1.3542176269254469e-8 -0.08742100968430477
v 0.9981487101484041 0.5020873962908166 0.0482382368334216
v -0.001851289851595883 0.5020873962908148 0.048238236833422266
v -0.0018512898515939957 0.7535819889040134 0.2975972619566381
v 0.9981487101484041 0.7535819889040134 0.29759726195663744
v 0.9981184152770086 0.30788435161596794 -0.052093478055599385
v -0.0018209986510950849 0.30788435161596706 -0.05209347805559872
v 0.9980869016068623 0.1520864989020545 -0.08729622992281738
v -0.001913098393137691 0.1520864989020545 -0.0872962299228176
v 0.9982250942839905 -1.354217538107605e-8 -0.08742100968430411
v -0.0017749057160103554 -1.354217538107605e-8 -0.08742100968430455
vt 0.1796875 0.765625
vt 0.1796875 0.7734375
vt 0.171875 0.7734375
vt 0.171875 0.765625
vt 0.42197265625 0.7734375
vt 0.421875 0.765625
vt 0.546875 0.765625
vt 0.54677734375 0.7734375
vt 0.53125 0.859375
vt 0.53125 0.8671875
vt 0.40625 0.8671875
vt 0.40625 0.859375
vt 0.53125 0.734375
vt 0.53125 0.7420982736775819
vt 0.40644529688598324 0.7436763554952764
vt 0.40625 0.7359555514293029
vt 0.265625 0.8203125
vt 0.265625 0.8125
vt 0.390625 0.8125
vt 0.390625 0.8203125
vt 0.140625 0.7734375
vt 0.140625 0.765625
vt 0.1484375 0.765625
vt 0.1484375 0.7734375
vt 0.125 0.6640625
vt 0 0.6640625
vt 0 0.6328125
vt 0.125 0.6328125
vt 0.13281250001425676 1
vt 0.13281250001425676 0.78125
vt 0.25781249998574324 0.78125
vt 0.2578031249857455 1
vt 0.2890625 0.571290625
vt 0.4140625 0.571290625
vt 0.4140625 0.6328125
vt 0.2890625 0.6328125
vt 0.2890625 0.5400234374999999
vt 0.4140625 0.5400234374999999
vt 0.4140625 0.571290625
vt 0.2890625 0.571290625
vt 0.421875 0.6875
vt 0.546875 0.6875
vt 0.546875 0.6953125
vt 0.421875 0.6953125
vt 0.37436875000000003 0.7234375
vt 0.3471328125 0.70808046875
vt 0.346725 0.70357265625
vt 0.15224117237560025 0.7451874198231805
vt 0.12500601612560025 0.7605452323231805
vt 0.15264976612560024 0.7406803885731805
vt 0.002349699938090713 0.7402343163667492
vt 0.20077550589924303 0.646481061616059
vt 0.20076019273178058 0.6654919993697953
vt 0.20076019273178058 0.6654919993697953
vt 0.19636051217683065 0.6849670715394791
vt 0.002349699938090713 0.7402343163667492
vt 0.19636051217683065 0.6849670715394791
vt 0.1838186324508692 0.7092430117997971
vt 0.002349494100756966 0.7402343750029776
vt 0.002349494100756966 0.7402343750029776
vt 0.1838193915624154 0.7092428821584605
vt 0.15265028133252947 0.7406800183446425
vt 0.15265028133252947 0.7406800183446425
vt 0.12500601612560025 0.7605452323231805
vt 0.002349494100756966 0.7402343750029776
vt 0.12500601612560025 0.7605452323231805
vt 0.06484993876912623 0.7734366629666367
vt 0.002349494100756966 0.7402343750029776
vt 0.06484993876912623 0.7734366629666367
vt 0.0023499387747312334 0.7734375
vt 0.002349494100756973 0.7402343750029776
vt 0.0625 0.619140625
vt 0 0.619140625
vt 0.0625 0.5859375
vt 0.37436875000000003 0.7234375
vt 0.346725 0.70357265625
vt 0.497025 0.703125
vt 0.1953125 0.765625
vt 0.1953125 0.7734375
vt 0.1875 0.7734375
vt 0.1875 0.765625
vt 0.42197265625 0.7890625
vt 0.421875 0.78125
vt 0.546875 0.78125
vt 0.54677734375 0.7890625
vt 0.546875 0.796875
vt 0.546875 0.8046875
vt 0.421875 0.8046875
vt 0.421875 0.796875
vt 0.1953125 0.578125
vt 0.1953125 0.5858482736775819
vt 0.07050779688598324 0.5874263554952764
vt 0.0703125 0.5797055514293028
vt 0.3984375 0.8203125
vt 0.3984375 0.8125
vt 0.5234375 0.8125
vt 0.5234375 0.8203125
vt 0.15625 0.7734375
vt 0.15625 0.765625
vt 0.1640625 0.765625
vt 0.1640625 0.7734375
vt 0.26610546874999996 1
vt 0.26610546874999996 0.875
vt 0.32860546874999996 0.875
vt 0.32860546874999996 1
vt 0.2578125 0.6328125
vt 0.1328125 0.6328125
vt 0.1328125 0.6015625
vt 0.2578125 0.6015625
vt 1.4256769376164158e-11 1
vt 1.4256769376164158e-11 0.78125
vt 0.12499999998574324 0.78125
vt 0.12499062498574548 1
vt 0.39012734375 0.875
vt 0.39012734375 1
vt 0.32860546874999996 1
vt 0.32860546874999996 0.875
vt 0.42139453125000004 0.875
vt 0.42139453125000004 1
vt 0.39012734375 1
vt 0.39012734375 0.875
vt 0.421875 0.671875
vt 0.546875 0.671875
vt 0.546875 0.6796875
vt 0.421875 0.6796875
vt 0.28905802768387456 0.7859372829209417
vt 0.26182209018387453 0.7705802516709417
vt 0.26141349643387457 0.7660724391709417
vt 0.41849244027628163 0.8389359150891265
vt 0.39125650277628166 0.8542929463391264
vt 0.4189002527762816 0.8344281025891265
vt 0.41171445031100595 0.7988262652418101
vt 0.3492144503166109 0.7988271022751734
vt 0.41171400563703164 0.7656231402447877
vt 0.3492144503166109 0.7988271022751734
vt 0.28905802768387456 0.7859372829209417
vt 0.41171400563703164 0.7656231402447877
vt 0.28905802768387456 0.7859372829209417
vt 0.26141401164576206 0.7660728093925797
vt 0.41171400563703164 0.7656231402447877
vt 0.41171400563703164 0.7656231402447877
vt 0.26141401164576206 0.7660728093925797
vt 0.23024327813123854 0.7346365080948631
vt 0.23024327813123852 0.7346365080948631
vt 0.21770154676814202 0.7103608948082474
vt 0.41171400563703164 0.7656231402447877
vt 0.21770154676814202 0.7103608948082474
vt 0.21330135848540857 0.6908859373480501
vt 0.41171379979816936 0.7656230816139256
vt 0.21330135848540857 0.6908859373480501
vt 0.21328554968899407 0.671875
vt 0.41171379979816936 0.7656230816139256
vt 0.3311006656925756 0.8671854981312174
vt 0.2686006657246354 0.8671875
vt 0.26859960223184465 0.8339843750170317
vt 0.41890039776815535 0.83442799839773
vt 0.39125650277628166 0.8542929463391264
vt 0.2685996022318447 0.8339843750170317
vt 0.39125650277628166 0.8542929463391264
vt 0.3311006656925756 0.8671854981312174
vt 0.2685996022318447 0.8339843750170317
vt 0.4140625 0.6953125
vt 0.2890625 0.6953125
vt 0.2890625 0.6328125
vt 0.4140625 0.6328125
vt 0 0.81041875
vt 0.5 0.81041875
vt 0.5 0.9875
vt 0 0.9875
vt 0.000015625000000019096 0.701125
vt 0.4999843750000001 0.701125
vt 0.5 0.81041875
vt 0 0.81041875
vt 0.00003125000000003819 0.6212625
vt 0.50003125 0.6212625
vt 0.4999843750000001 0.701125
vt 0.000015625000000074607 0.701125
vt 0.007778124999999969 0.5452187500000001
vt 0.507778125 0.5452187500000001
vt 0.507846875 0.6212625
vt 0.007846874999999968 0.6212625
vt 0 0.32604687500000007
vt 0.5000000000000001 0.32604687500000007
vt 0.5000000000000001 0.503125
vt 0 0.503125
vt 0.000015625000000019096 0.2167531250000001
vt 0.499984375 0.2167531250000001
vt 0.5000000000000001 0.32604687500000007
vt 0 0.32604687500000007
vt 0.00003124999999998268 0.13689062499999993
vt 0.50003125 0.13689062499999993
vt 0.499984375 0.2167531250000001
vt 0.000015625000000019096 0.2167531250000001
vt 0.007778125000000025 0.060846874999999745
vt 0.507778125 0.060846874999999745
vt 0.507846875 0.13689062499999993
vt 0.007846875000000027 0.13689062499999993
vn -0.999920366385033 0.0005504705998598303 -0.012607849560492875
vn 9.656421164039496e-18 0.9990482215818579 0.04361938736533463
vn -2.2248529416796346e-16 0.043619387365339386 -0.9990482215818576
vn -9.67150932210824e-18 -0.9990482215818578 -0.04361938736533433
vn 2.2170433954724915e-16 -0.04361938736533229 0.9990482215818579
vn 0.9999203663850332 0.0005504705998591891 -0.012607849560480224
vn 0 0 1
vn -2.530511804728635e-16 -0.9041640622266086 0.42718537963965697
vn -4.6544415294137605e-17 0.9778024140774088 -0.20952908873087767
vn -1.09107201875154e-16 0.8710647999899614 -0.49116811197231536
vn -6.636957197161371e-16 0.09023917976717888 -0.9959201225173366
vn -0.9999999991645926 -0.00003560530144087359 0.000020076794155342323
vn 0.9999999991645926 0.000035605301382420406 -0.00002007679412187273
vn 0.9999995236350798 0.0009085545746912143 -0.0003567326704821982
vn 0.9999999740928673 -0.0002174181436811674 0.00006740634773077793
vn 0.9999999809622871 -0.00018615345665476464 0.000058500565257059264
vn 0.9999999989747119 -0.000031883302042395455 0.00003215635790344306
vn 0.999999998796696 -0.00003706169119300433 0.00003214093128395758
vn 0.9999999946904116 -0.00010076194276755069 0.00002159184487876112
vn 0.9999999893402142 -0.00014599190016503585 -0.0000024365703905683033
vn -0.9999999893369056 -0.00014601456072302173 0.0000024365703901164124
vn -0.9999999981151702 -0.0000523375783770929 0.00003210042981106225
vn -0.999920366385033 0.0005504705998597524 -0.012607849560491064
vn 9.656421164039485e-18 0.9990482215818585 0.043619387365320214
vn -1.112426470839817e-16 0.04361938736533938 -0.9990482215818576
vn -4.8357546610541136e-18 -0.9990482215818585 -0.043619387365319895
vn 2.2170433954724915e-16 -0.04361938736533229 0.9990482215818579
vn 0.9999203663850332 0.000550470599859111 -0.012607849560478437
vn 0 1 0
vn 4.44276406450848e-16 6.487082501924695e-20 1
vn -1.2652559023643176e-16 -0.9041640622266088 0.42718537963965647
vn -4.654441529413756e-17 0.9778024140774086 -0.20952908873087753
vn -1.09107201875154e-16 0.8710647999899612 -0.4911681119723153
vn -6.636957197161371e-16 0.09023917976717889 -0.9959201225173366
vn -0.9999999991645926 -0.000035605301440824933 0.000020076794154805345
vn 0.9999999991645926 0.000035605301388958484 -0.000020076794126068902
vn -0.999999989339874 -0.00014601456072345516 2.2204460255800774e-16
vn -0.9999999946443191 -0.0001006507570871157 0.00002409952109349442
vn -0.9999999981151702 -0.000052337578377788626 0.00003210042981106018
vn -0.9999999989743936 -0.00003188825089368212 0.00003216134914538843
vn -0.9999999809656481 -0.00018613508333700782 0.00005850157384878739
vn -0.999999786263855 0.0006302242129642712 -0.00017403932352790338
vn -0.9999995049666455 -0.000908594662017808 0.00040561336802579
vn 0.9999999893402142 -0.0001459919001641999 -0.000002436570390124474
vn 0.999999998796696 -0.00003706169119230861 0.00003214093128395966
vn 0.9999999946904117 -0.00010076194276785965 0.00002159184487859682
vn 0 1 -1.7763568394002489e-15
vn -1.0983852717986391e-15 0.7040853797253479 -0.7101153272934002
vn -7.957022446485669e-16 0.4589964912024283 -0.8884380794764819
vn 2.1658466224232187e-16 0.22039544749218443 -0.9754106041686855
vn 4.440890603825154e-16 0.0008204522379027974 -0.999999663429006
vn -1.7237387116970612e-15 0.7040853797253479 -0.7101153272934002
vn -9.995499840844021e-16 0.4589964912024291 -0.8884380794764813
vn 2.1658466224232182e-16 0.22039544749218498 -0.9754106041686853
vn 4.440890603825154e-16 0.0008204522379027974 -0.999999663429006
usemtl m_a7ad2f4c-b4d4-2b25-2839-8ef91c314a59
f 1/1/1 2/2/1 3/3/1 4/4/1
f 2/5/2 1/6/2 5/7/2 6/8/2
f 3/9/3 2/10/3 6/11/3 7/12/3
f 4/13/4 3/14/4 7/15/4 8/16/4
f 1/17/5 4/18/5 8/19/5 5/20/5
f 5/21/6 8/22/6 7/23/6 6/24/6
f 9/25/7 10/26/7 11/27/7 12/28/7
f 11/29/8 13/30/8 14/31/8 12/32/8
f 15/33/9 16/34/9 17/35/9 18/36/9
f 19/37/10 20/38/10 16/39/10 15/40/10
f 21/41/11 22/42/11 20/43/11 19/44/11
f 16/45/12 20/46/12 22/47/12
f 19/48/13 15/49/13 21/50/13
f 12/51/14 14/52/14 23/53/14
f 23/54/15 24/55/15 12/56/15
f 24/57/16 25/58/16 12/59/16
f 12/60/17 25/61/17 21/62/17
f 21/63/18 15/64/18 12/65/18
f 15/66/19 18/67/19 12/68/19
f 18/69/20 9/70/20 12/71/20
f 10/72/21 17/73/21 11/74/21
f 16/75/22 22/76/22 11/77/22
f 26/78/23 27/79/23 28/80/23 29/81/23
f 27/82/24 26/83/24 30/84/24 31/85/24
f 28/86/25 27/87/25 31/88/25 32/89/25
f 29/90/26 28/91/26 32/92/26 33/93/26
f 26/94/27 29/95/27 33/96/27 30/97/27
f 30/98/28 33/99/28 32/100/28 31/101/28
f 34/102/29 10/103/29 17/104/29 35/105/29
f 10/106/30 34/107/30 36/108/30 37/109/30
f 36/110/31 38/111/31 39/112/31 37/113/31
f 40/114/32 41/115/32 35/116/32 17/117/32
f 42/118/33 43/119/33 41/120/33 40/121/33
f 44/122/34 45/123/34 43/124/34 42/125/34
f 41/126/35 43/127/35 45/128/35
f 42/129/36 40/130/36 44/131/36
f 34/132/37 35/133/37 36/134/37
f 35/135/38 41/136/38 36/137/38
f 41/138/39 45/139/39 36/140/39
f 36/141/40 45/142/40 46/143/40
f 46/144/41 47/145/41 36/146/41
f 47/147/42 48/148/42 36/149/42
f 48/150/43 38/151/43 36/152/43
f 17/153/44 10/154/44 37/155/44
f 44/156/45 40/157/45 37/158/45
f 40/159/46 17/160/46 37/161/46
f 10/162/47 9/163/47 18/164/47 17/165/47
usemtl m_873d1433-8273-f65b-03d3-d6be1be5ee91
f 49/166/48 50/167/48 51/168/48 52/169/48
f 53/170/49 54/171/49 50/172/49 49/173/49
f 55/174/50 56/175/50 54/176/50 53/177/50
f 57/178/51 58/179/51 56/180/51 55/181/51
f 59/182/52 60/183/52 61/184/52 62/185/52
f 63/186/53 64/187/53 60/188/53 59/189/53
f 65/190/54 66/191/54 64/192/54 63/193/54
f 67/194/55 68/195/55 66/196/55 65/197/55