# Made in Blockbench 4.11.1
mtllib freight_c70_end_face.mtl

o cube
v -0.9860000000000004 1.4952499999999997 0.06225000000000076
v 1.9885 1.4952499999999997 0.0622500000000001
v -0.9860000000000004 -0.5002500000000001 0.06225000000000076
v 1.9885 -0.5002500000000001 0.0622500000000001
v -0.9860000000000004 1.4952499999999997 -0.06274999999999924
v 1.9885 1.4952499999999997 -0.0627499999999999
v -0.9860000000000004 -0.5002500000000001 -0.06274999999999924
v 1.9885 -0.5002500000000001 -0.0627499999999999
v 1.9271249999999995 1.3702499999999997 -0.0002499999999998892
v 2.089125 1.3702499999999997 -0.00024999999999993083
v 1.9271249999999995 -0.5002500000000001 -0.0002499999999998892
v 2.089125 -0.5002500000000001 -0.00024999999999993083
v 1.9271249999999995 1.3702499999999997 -0.18774999999999986
v 2.089125 1.3702499999999997 -0.1877499999999999
v 1.9271249999999995 -0.5002500000000001 -0.18774999999999986
v 2.089125 -0.5002500000000001 -0.1877499999999999
v -1.0891250000000003 1.3702499999999997 -0.00024999999999922307
v -0.927125 1.3702499999999997 -0.0002499999999992508
v -1.0891250000000003 -0.5002500000000001 -0.00024999999999922307
v -0.927125 -0.5002500000000001 -0.0002499999999992508
v -1.0891250000000003 1.3702499999999997 -0.1877499999999992
v -0.927125 1.3702499999999997 -0.18774999999999922
v -1.0891250000000003 -0.5002500000000001 -0.1877499999999992
v -0.927125 -0.5002500000000001 -0.18774999999999922
v -0.9322500000000005 0.9997499999999998 -0.06274999999999925
v 1.92975 0.9997499999999998 -0.06274999999999989
v -0.9322500000000005 0.87475 -0.06274999999999925
v 1.92975 0.87475 -0.06274999999999989
v -0.9322500000000005 0.9997499999999998 -0.18774999999999922
v 1.92975 0.9997499999999998 -0.18774999999999986
v -0.9322500000000005 0.87475 -0.18774999999999922
v 1.92975 0.87475 -0.18774999999999986
v -0.9322500000000005 0.49975 -0.06274999999999925
v 1.92975 0.49975 -0.06274999999999989
v -0.9322500000000005 0.37475000000000014 -0.06274999999999925
v 1.92975 0.37475000000000014 -0.06274999999999989
v -0.9322500000000005 0.49975 -0.18774999999999922
v 1.92975 0.49975 -0.18774999999999986
v -0.9322500000000005 0.37475000000000014 -0.18774999999999922
v 1.92975 0.37475000000000014 -0.18774999999999986
v -0.9322500000000005 -0.00025000000000011124 -0.06274999999999925
v 1.92975 -0.00025000000000011124 -0.06274999999999989
v -0.9322500000000005 -0.1252500000000001 -0.06274999999999925
v 1.92975 -0.1252500000000001 -0.06274999999999989
v -0.9322500000000005 -0.00025000000000011124 -0.18774999999999922
v 1.92975 -0.00025000000000011124 -0.18774999999999986
v -0.9322500000000005 -0.1252500000000001 -0.18774999999999922
v 1.92975 -0.1252500000000001 -0.18774999999999986
v -1.1703750000000006 1.49975 -0.0002499999999991953
v 2.1728750000000003 1.49975 -0.0002499999999999447
v -1.1703750000000006 1.37475 -0.0002499999999991953
v 2.1728750000000003 1.37475 -0.0002499999999999447
v -1.1703750000000006 1.49975 -0.1924999999999992
v 2.1728750000000003 1.49975 -0.1925
v -1.1703750000000006 1.37475 -0.1924999999999992
v 2.1728750000000003 1.37475 -0.1925
v -0.980249881744385 -0.5002499999999999 0.06225000000000079
v 1.988500118255615 -0.5002499999999999 0.0622500000000001
v -0.980249881744385 -0.62525 0.06225000000000079
v 1.988500118255615 -0.62525 0.0622500000000001
v -0.980249881744385 -0.5002499999999999 -0.01587499999999923
v 1.988500118255615 -0.5002499999999999 -0.01587499999999989
v -0.980249881744385 -0.62525 -0.01587499999999923
v 1.988500118255615 -0.62525 -0.01587499999999989
v -1.0888749980926515 -0.4229798036295437 -0.026067289877668993
v -0.9273749980926513 -0.4229798036295437 -0.026067289877669042
v -1.0888749980926515 -0.6579916597121024 0.0712778082302007
v -0.9273749980926513 -0.6579916597121024 0.07127780823020065
v -1.0888749980926515 -0.45287694678306634 -0.09824537835511327
v -0.9273749980926513 -0.45287694678306634 -0.09824537835511332
v -1.0888749980926515 -0.687888802865625 -0.0009002802472435623
v -0.9273749980926513 -0.687888802865625 -0.0009002802472436039
v 1.927374998092651 -0.4229798036295437 -0.02606728987766968
v 2.088874998092651 -0.4229798036295437 -0.026067289877669715
v 1.927374998092651 -0.6579916597121024 0.07127780823020004
v 2.088874998092651 -0.6579916597121024 0.07127780823019998
v 1.927374998092651 -0.45287694678306634 -0.09824537835511393
v 2.088874998092651 -0.45287694678306634 -0.09824537835511399
v 1.927374998092651 -0.687888802865625 -0.0009002802472442423
v 2.088874998092651 -0.687888802865625 -0.0009002802472442839
v 0.31666666666666615 -0.5124999999999998 -0.36157521944408455
v 0.6916666666666662 -0.5124999999999998 -0.36157521944408466
v 0.31666666666666615 -0.9531250000000001 -0.36157521944408455
v 0.6916666666666662 -0.9531250000000001 -0.36157521944408466
v 0.3166666666666661 -0.5124999999999998 -0.6053252194440845
v 0.6916666666666661 -0.5124999999999998 -0.6053252194440845
v 0.3166666666666661 -0.9531250000000001 -0.6053252194440845
v 0.6916666666666661 -0.9531250000000001 -0.6053252194440845
v 0.4104166666666662 -0.6250000000000001 -0.1740752194440846
v 0.5979166666666662 -0.6250000000000001 -0.17407521944408466
v 0.4104166666666662 -0.9062500000000001 -0.1740752194440846
v 0.5979166666666662 -0.9062500000000001 -0.17407521944408466
v 0.41041666666666615 -0.6250000000000001 -0.3615752194440846
v 0.5979166666666661 -0.6250000000000001 -0.3615752194440846
v 0.41041666666666615 -0.9062500000000001 -0.3615752194440846
v 0.5979166666666661 -0.9062500000000001 -0.3615752194440846
v 0.2854166666666662 -0.5937500000000001 -0.14282521944408458
v 0.7229166666666662 -0.5937500000000001 -0.14282521944408466
v 0.2854166666666662 -0.9375000000000001 -0.14282521944408458
v 0.7229166666666662 -0.9375000000000001 -0.14282521944408466
v 0.2854166666666662 -0.5937500000000001 -0.17407521944408458
v 0.7229166666666662 -0.5937500000000001 -0.17407521944408466
v 0.2854166666666662 -0.9375000000000001 -0.17407521944408458
v 0.7229166666666662 -0.9375000000000001 -0.17407521944408466
v 0.20729166666666626 -0.5624999999999999 0.10717478055591546
v 0.8010416666666662 -0.5624999999999999 0.10717478055591535
v 0.20729166666666626 -0.9531250000000001 0.10717478055591546
v 0.8010416666666662 -0.9531250000000001 0.10717478055591535
v 0.2072916666666662 -0.5624999999999999 -0.14282521944408452
v 0.8010416666666662 -0.5624999999999999 -0.14282521944408466
v 0.2072916666666662 -0.9531250000000001 -0.14282521944408452
v 0.8010416666666662 -0.9531250000000001 -0.14282521944408466
v 0.20729166666666643 -0.5624999999999999 0.9821747805559153
v 0.8010416666666664 -0.5624999999999999 0.9821747805559153
v 0.20729166666666643 -0.8281250000000001 0.9821747805559153
v 0.8010416666666664 -0.8281250000000001 0.9821747805559153
v 0.20729166666666626 -0.5624999999999999 0.10717478055591546
v 0.8010416666666662 -0.5624999999999999 0.10717478055591535
v 0.20729166666666626 -0.8281250000000001 0.10717478055591546
v 0.8010416666666662 -0.8281250000000001 0.10717478055591535
vt 0.375 0.75
vt 0.375 1
vt 0 1
vt 0 0.75
vt 0.375 0.5
vt 0.375 0.75
vt 0 0.75
vt 0 0.5
vt 0.484375 0.890625
vt 0.484375 0.515625
vt 0.5 0.515625
vt 0.5 0.890625
vt 0.484375 0.140625
vt 0.484375 0.515625
vt 0.5 0.515625
vt 0.5 0.140625
vt 0.484375 0.2578125
vt 0.484375 0.5078125
vt 0.46875 0.5078125
vt 0.46875 0.2578125
vt 0.484375 0.640625
vt 0.484375 0.890625
vt 0.46875 0.890625
vt 0.46875 0.640625
vt 0.46875 0.65625
vt 0.46875 0.890625
vt 0.4453125 0.890625
vt 0.4453125 0.65625
vt 0.5234375 0.3125
vt 0.5234375 0.546875
vt 0.5 0.546875
vt 0.5 0.3125
vt 0.5703125 0.75
vt 0.5703125 0.7265625
vt 0.59375 0.7265625
vt 0.59375 0.75
vt 0.5703125 0.703125
vt 0.5703125 0.7265625
vt 0.59375 0.7265625
vt 0.59375 0.703125
vt 0.5234375 0.546875
vt 0.5234375 0.78125
vt 0.5 0.78125
vt 0.5 0.546875
vt 0.4453125 0.65625
vt 0.4453125 0.890625
vt 0.421875 0.890625
vt 0.421875 0.65625
vt 0.046875 0.25
vt 0.046875 0.484375
vt 0.0234375 0.484375
vt 0.0234375 0.25
vt 0.09375 0.25
vt 0.09375 0.484375
vt 0.0703125 0.484375
vt 0.0703125 0.25
vt 0.578125 0.703125
vt 0.578125 0.6796875
vt 0.6015625 0.6796875
vt 0.6015625 0.703125
vt 0.578125 0.65625
vt 0.578125 0.6796875
vt 0.6015625 0.6796875
vt 0.6015625 0.65625
vt 0.0703125 0.25
vt 0.0703125 0.484375
vt 0.046875 0.484375
vt 0.046875 0.25
vt 0.0234375 0.25
vt 0.0234375 0.484375
vt 0 0.484375
vt 0 0.25
vt 0.859375 0.859375
vt 0.859375 0.875
vt 0.5 0.875
vt 0.5 0.859375
vt 0.859375 0.84375
vt 0.859375 0.859375
vt 0.5 0.859375
vt 0.5 0.84375
vt 0.375 0.5078125
vt 0.375 0.1484375
vt 0.390625 0.1484375
vt 0.390625 0.5078125
vt 0.390625 0.1484375
vt 0.390625 0.5078125
vt 0.40625 0.5078125
vt 0.40625 0.1484375
vt 0.5625 0.921875
vt 0.5625 0.9375
vt 0.546875 0.9375
vt 0.546875 0.921875
vt 0.546875 0.921875
vt 0.546875 0.9375
vt 0.53125 0.9375
vt 0.53125 0.921875
vt 0.859375 0.828125
vt 0.859375 0.84375
vt 0.5 0.84375
vt 0.5 0.828125
vt 0.859375 0.8125
vt 0.859375 0.828125
vt 0.5 0.828125
vt 0.5 0.8125
vt 0.40625 0.5078125
vt 0.40625 0.1484375
vt 0.421875 0.1484375
vt 0.421875 0.5078125
vt 0.421875 0.1484375
vt 0.421875 0.5078125
vt 0.4375 0.5078125
vt 0.4375 0.1484375
vt 0.25 0.421875
vt 0.25 0.4375
vt 0.234375 0.4375
vt 0.234375 0.421875
vt 0.578125 0.921875
vt 0.578125 0.9375
vt 0.5625 0.9375
vt 0.5625 0.921875
vt 0.859375 0.796875
vt 0.859375 0.8125
vt 0.5 0.8125
vt 0.5 0.796875
vt 0.859375 0.78125
vt 0.859375 0.796875
vt 0.5 0.796875
vt 0.5 0.78125
vt 0.4375 0.5078125
vt 0.4375 0.1484375
vt 0.453125 0.1484375
vt 0.453125 0.5078125
vt 0.453125 0.1484375
vt 0.453125 0.5078125
vt 0.46875 0.5078125
vt 0.46875 0.1484375
vt 0.25 0.40625
vt 0.25 0.421875
vt 0.234375 0.421875
vt 0.234375 0.40625
vt 0.59375 0.921875
vt 0.59375 0.9375
vt 0.578125 0.9375
vt 0.578125 0.921875
vt 0.8359375 0.90625
vt 0.8359375 0.921875
vt 0.421875 0.921875
vt 0.421875 0.90625
vt 0.8359375 0.890625
vt 0.8359375 0.90625
vt 0.421875 0.90625
vt 0.421875 0.890625
vt 0.375 1
vt 0.375 0.5859375
vt 0.3984375 0.5859375
vt 0.3984375 1
vt 0.3984375 0.5859375
vt 0.3984375 1
vt 0.421875 1
vt 0.421875 0.5859375
vt 0.46875 0.5859375
vt 0.46875 0.6015625
vt 0.4453125 0.6015625
vt 0.4453125 0.5859375
vt 0.4453125 0.5859375
vt 0.4453125 0.6015625
vt 0.421875 0.6015625
vt 0.421875 0.5859375
vt 0.375 0.484375
vt 0.375 0.5
vt 0 0.5
vt 0 0.484375
vt 0.875 0.875
vt 0.875 0.890625
vt 0.5 0.890625
vt 0.5 0.875
vt 0.359375 0.484375
vt 0.359375 0.109375
vt 0.3671875 0.109375
vt 0.3671875 0.484375
vt 0.3671875 0.109375
vt 0.3671875 0.484375
vt 0.375 0.484375
vt 0.375 0.109375
vt 0.59375 0.53125
vt 0.59375 0.546875
vt 0.5859375 0.546875
vt 0.5859375 0.53125
vt 0.59375 0.546875
vt 0.59375 0.5625
vt 0.5859375 0.5625
vt 0.5859375 0.546875
vt 0.1640625 0.40625
vt 0.1640625 0.4375
vt 0.140625 0.4375
vt 0.140625 0.40625
vt 0.1875 0.40625
vt 0.1875 0.4375
vt 0.1640625 0.4375
vt 0.1640625 0.40625
vt 0.5703125 0.421875
vt 0.5703125 0.3984375
vt 0.578125 0.3984375
vt 0.578125 0.421875
vt 0.578125 0.40625
vt 0.578125 0.4296875
vt 0.5859375 0.4296875
vt 0.5859375 0.40625
vt 0.5859375 0.4296875
vt 0.5859375 0.4609375
vt 0.578125 0.4609375
vt 0.578125 0.4296875
vt 0.5546875 0.4140625
vt 0.5546875 0.4453125
vt 0.546875 0.4453125
vt 0.546875 0.4140625
vt 0.2109375 0.40625
vt 0.2109375 0.4375
vt 0.1875 0.4375
vt 0.1875 0.40625
vt 0.234375 0.40625
vt 0.234375 0.4375
vt 0.2109375 0.4375
vt 0.2109375 0.40625
vt 0.5859375 0.609375
vt 0.5859375 0.5859375
vt 0.59375 0.5859375
vt 0.59375 0.609375
vt 0.5859375 0.5625
vt 0.5859375 0.5859375
vt 0.59375 0.5859375
vt 0.59375 0.5625
vt 0.5703125 0.390625
vt 0.5703125 0.421875
vt 0.5625 0.421875
vt 0.5625 0.390625
vt 0.5625 0.390625
vt 0.5625 0.421875
vt 0.5546875 0.421875
vt 0.5546875 0.390625
vt 0.46875 0.6015625
vt 0.46875 0.65625
vt 0.421875 0.65625
vt 0.421875 0.6015625
vt 0.5703125 0.6953125
vt 0.5703125 0.75
vt 0.5234375 0.75
vt 0.5234375 0.6953125
vt 0.5546875 0.5546875
vt 0.5546875 0.5078125
vt 0.5859375 0.5078125
vt 0.5859375 0.5546875
vt 0.5546875 0.4609375
vt 0.5546875 0.5078125
vt 0.5859375 0.5078125
vt 0.5859375 0.4609375
vt 0.3125 0.3984375
vt 0.3125 0.453125
vt 0.28125 0.453125
vt 0.28125 0.3984375
vt 0.28125 0.3984375
vt 0.28125 0.453125
vt 0.25 0.453125
vt 0.25 0.3984375
vt 0.578125 0.421875
vt 0.578125 0.4609375
vt 0.5546875 0.4609375
vt 0.5546875 0.421875
vt 0.140625 0.3984375
vt 0.140625 0.4375
vt 0.1171875 0.4375
vt 0.1171875 0.3984375
vt 0.578125 0.65625
vt 0.578125 0.6328125
vt 0.6015625 0.6328125
vt 0.6015625 0.65625
vt 0.578125 0.609375
vt 0.578125 0.6328125
vt 0.6015625 0.6328125
vt 0.6015625 0.609375
vt 0.1171875 0.3984375
vt 0.1171875 0.4375
vt 0.09375 0.4375
vt 0.09375 0.3984375
vt 0.546875 0.40625
vt 0.546875 0.4453125
vt 0.5234375 0.4453125
vt 0.5234375 0.40625
vt 0.578125 0.6484375
vt 0.578125 0.6953125
vt 0.5234375 0.6953125
vt 0.5234375 0.6484375
vt 0.578125 0.6015625
vt 0.578125 0.6484375
vt 0.5234375 0.6484375
vt 0.5234375 0.6015625
vt 0.46875 0.640625
vt 0.46875 0.5859375
vt 0.4765625 0.5859375
vt 0.4765625 0.640625
vt 0.4765625 0.5859375
vt 0.4765625 0.640625
vt 0.484375 0.640625
vt 0.484375 0.5859375
vt 0.359375 0.40625
vt 0.359375 0.453125
vt 0.3515625 0.453125
vt 0.3515625 0.40625
vt 0.3515625 0.40625
vt 0.3515625 0.453125
vt 0.34375 0.453125
vt 0.34375 0.40625
vt 0.171875 0.4375
vt 0.171875 0.484375
vt 0.09375 0.484375
vt 0.09375 0.4375
vt 0.25 0.4375
vt 0.25 0.484375
vt 0.171875 0.484375
vt 0.171875 0.4375
vt 0.5234375 0.6015625
vt 0.5234375 0.5234375
vt 0.5546875 0.5234375
vt 0.5546875 0.6015625
vt 0.5234375 0.4453125
vt 0.5234375 0.5234375
vt 0.5546875 0.5234375
vt 0.5546875 0.4453125
vt 0.5859375 0.5546875
vt 0.5859375 0.6015625
vt 0.5546875 0.6015625
vt 0.5546875 0.5546875
vt 0.34375 0.40625
vt 0.34375 0.453125
vt 0.3125 0.453125
vt 0.3125 0.40625
vt 0.609375 0.96875
vt 0.609375 1
vt 0.53125 1
vt 0.53125 0.96875
vt 0.609375 0.9375
vt 0.609375 0.96875
vt 0.53125 0.96875
vt 0.53125 0.9375
vt 0.375 0.5859375
vt 0.375 0.5078125
vt 0.484375 0.5078125
vt 0.484375 0.5859375
vt 0.421875 0.921875
vt 0.421875 1
vt 0.53125 1
vt 0.53125 0.921875
vt 0.6328125 0.75
vt 0.6328125 0.78125
vt 0.5234375 0.78125
vt 0.5234375 0.75
vt 0.359375 0.453125
vt 0.359375 0.484375
vt 0.25 0.484375
vt 0.25 0.453125
vn 2.220446049250313e-16 0 1
vn -2.220446049250313e-16 0 -1
vn 0 1 0
vn 0 -1 0
vn -1 0 2.220446049250313e-16
vn 1 0 -2.220446049250313e-16
vn 3.07709961763392e-16 0 1
vn -2.220446049250313e-16 0 -1
vn 0 1 0
vn 0 -1 0
vn -1 0 2.220446049250313e-16
vn 1 0 -2.220446049250313e-16
vn 2.220446049250313e-16 0 1
vn -2.220446049250313e-16 0 -1
vn 0 1 0
vn 0 -1 0
vn -1 0 2.220446049250313e-16
vn 1 0 -2.220446049250313e-16
vn 2.220446049250313e-16 0 1
vn -2.220446049250313e-16 0 -1
vn 0 1 0
vn 0 -1 0
vn -1 0 2.220446049250313e-16
vn 1 0 -2.220446049250313e-16
vn 2.220446049250313e-16 0 1
vn -2.220446049250313e-16 0 -1
vn 0 1 0
vn 0 -1 0
vn -1 0 2.220446049250313e-16
vn 1 0 -2.220446049250313e-16
vn 2.220446049250313e-16 0 1
vn -2.220446049250313e-16 0 -1
vn 0 1 0
vn 0 -1 0
vn -1 0 2.220446049250313e-16
vn 1 0 -2.220446049250313e-16
vn 2.220446049250313e-16 0 1
vn -2.3864855354725753e-16 0 -1
vn 0 1 0
vn 0 -1 0
vn -1 0 2.220446049250313e-16
vn 1 0 -2.220446049250313e-16
vn 2.313938514481905e-16 0 1
vn -2.220446049250313e-16 0 -1
vn 0 1 0
vn 0 -1 0
vn -1 0 2.220446049250313e-16
vn 1 0 -2.220446049250313e-16
vn 2.895951190246583e-16 0.3826834323650895 0.9238795325112868
vn -3.740477722545253e-16 -0.3826834323650895 -0.9238795325112868
vn -1.1785699880738655e-16 0.9238795325112866 -0.38268343236508984
vn 8.497279155086136e-17 -0.9238795325112866 0.38268343236509006
vn -1 0 2.220446049250313e-16
vn 1 0 -2.220446049250313e-16
vn 2.051424657947913e-16 0.3826834323650895 0.9238795325112868
vn -3.740477722545253e-16 -0.3826834323650895 -0.9238795325112868
vn -8.497279155086131e-17 0.9238795325112866 -0.38268343236508984
vn 8.497279155086136e-17 -0.9238795325112868 0.38268343236509006
vn -1 0 2.220446049250313e-16
vn 1 0 -2.220446049250313e-16
vn 2.220446049250313e-16 0 1
vn -2.220446049250313e-16 0 -1
vn 0 1 0
vn 0 -1 0
vn -1 0 2.220446049250313e-16
vn 1 0 -2.220446049250313e-16
vn 2.220446049250313e-16 0 1
vn -2.220446049250313e-16 0 -1
vn 0 1 0
vn 0 -1 0
vn -1 0 2.220446049250313e-16
vn 1 0 -2.220446049250313e-16
vn 2.220446049250313e-16 0 1
vn -2.220446049250313e-16 0 -1
vn 0 1 0
vn 0 -1 0
vn -1 0 2.220446049250313e-16
vn 1 0 -2.220446049250313e-16
vn 2.220446049250313e-16 0 1
vn -2.220446049250313e-16 0 -1
vn 0 1 0
vn 0 -1 0
vn -1 0 2.220446049250313e-16
vn 1 0 -2.220446049250313e-16
vn 2.220446049250313e-16 0 1
vn -2.220446049250313e-16 0 -1
vn 0 1 0
vn 0 -1 0
vn -1 0 2.220446049250313e-16
vn 1 0 -2.220446049250313e-16
usemtl m_bbdcd4eb-53f3-d5de-a9b4-84a815d561b1
f 4/1/1 2/2/1 1/3/1 3/4/1
f 7/5/2 5/6/2 6/7/2 8/8/2
f 1/9/3 2/10/3 6/11/3 5/12/3
f 4/13/4 3/14/4 7/15/4 8/16/4
f 3/17/5 1/18/5 5/19/5 7/20/5
f 8/21/6 6/22/6 2/23/6 4/24/6
f 12/25/7 10/26/7 9/27/7 11/28/7
f 15/29/8 13/30/8 14/31/8 16/32/8
f 9/33/9 10/34/9 14/35/9 13/36/9
f 12/37/10 11/38/10 15/39/10 16/40/10
f 11/41/11 9/42/11 13/43/11 15/44/11
f 16/45/12 14/46/12 10/47/12 12/48/12
f 20/49/13 18/50/13 17/51/13 19/52/13
f 23/53/14 21/54/14 22/55/14 24/56/14
f 17/57/15 18/58/15 22/59/15 21/60/15
f 20/61/16 19/62/16 23/63/16 24/64/16
f 19/65/17 17/66/17 21/67/17 23/68/17
f 24/69/18 22/70/18 18/71/18 20/72/18
f 28/73/19 26/74/19 25/75/19 27/76/19
f 31/77/20 29/78/20 30/79/20 32/80/20
f 25/81/21 26/82/21 30/83/21 29/84/21
f 28/85/22 27/86/22 31/87/22 32/88/22
f 27/89/23 25/90/23 29/91/23 31/92/23
f 32/93/24 30/94/24 26/95/24 28/96/24
f 36/97/25 34/98/25 33/99/25 35/100/25
f 39/101/26 37/102/26 38/103/26 40/104/26
f 33/105/27 34/106/27 38/107/27 37/108/27
f 36/109/28 35/110/28 39/111/28 40/112/28
f 35/113/29 33/114/29 37/115/29 39/116/29
f 40/117/30 38/118/30 34/119/30 36/120/30
f 44/121/31 42/122/31 41/123/31 43/124/31
f 47/125/32 45/126/32 46/127/32 48/128/32
f 41/129/33 42/130/33 46/131/33 45/132/33
f 44/133/34 43/134/34 47/135/34 48/136/34
f 43/137/35 41/138/35 45/139/35 47/140/35
f 48/141/36 46/142/36 42/143/36 44/144/36
f 52/145/37 50/146/37 49/147/37 51/148/37
f 55/149/38 53/150/38 54/151/38 56/152/38
f 49/153/39 50/154/39 54/155/39 53/156/39
f 52/157/40 51/158/40 55/159/40 56/160/40
f 51/161/41 49/162/41 53/163/41 55/164/41
f 56/165/42 54/166/42 50/167/42 52/168/42
f 60/169/43 58/170/43 57/171/43 59/172/43
f 63/173/44 61/174/44 62/175/44 64/176/44
f 57/177/45 58/178/45 62/179/45 61/180/45
f 60/181/46 59/182/46 63/183/46 64/184/46
f 59/185/47 57/186/47 61/187/47 63/188/47
f 64/189/48 62/190/48 58/191/48 60/192/48
f 68/193/49 66/194/49 65/195/49 67/196/49
f 71/197/50 69/198/50 70/199/50 72/200/50
f 65/201/51 66/202/51 70/203/51 69/204/51
f 68/205/52 67/206/52 71/207/52 72/208/52
f 67/209/53 65/210/53 69/211/53 71/212/53
f 72/213/54 70/214/54 66/215/54 68/216/54
f 76/217/55 74/218/55 73/219/55 75/220/55
f 79/221/56 77/222/56 78/223/56 80/224/56
f 73/225/57 74/226/57 78/227/57 77/228/57
f 76/229/58 75/230/58 79/231/58 80/232/58
f 75/233/59 73/234/59 77/235/59 79/236/59
f 80/237/60 78/238/60 74/239/60 76/240/60
f 84/241/61 82/242/61 81/243/61 83/244/61
f 87/245/62 85/246/62 86/247/62 88/248/62
f 81/249/63 82/250/63 86/251/63 85/252/63
f 84/253/64 83/254/64 87/255/64 88/256/64
f 83/257/65 81/258/65 85/259/65 87/260/65
f 88/261/66 86/262/66 82/263/66 84/264/66
f 92/265/67 90/266/67 89/267/67 91/268/67
f 95/269/68 93/270/68 94/271/68 96/272/68
f 89/273/69 90/274/69 94/275/69 93/276/69
f 92/277/70 91/278/70 95/279/70 96/280/70
f 91/281/71 89/282/71 93/283/71 95/284/71
f 96/285/72 94/286/72 90/287/72 92/288/72
f 100/289/73 98/290/73 97/291/73 99/292/73
f 103/293/74 101/294/74 102/295/74 104/296/74
f 97/297/75 98/298/75 102/299/75 101/300/75
f 100/301/76 99/302/76 103/303/76 104/304/76
f 99/305/77 97/306/77 101/307/77 103/308/77
f 104/309/78 102/310/78 98/311/78 100/312/78
f 108/313/79 106/314/79 105/315/79 107/316/79
f 111/317/80 109/318/80 110/319/80 112/320/80
f 105/321/81 106/322/81 110/323/81 109/324/81
f 108/325/82 107/326/82 111/327/82 112/328/82
f 107/329/83 105/330/83 109/331/83 111/332/83
f 112/333/84 110/334/84 106/335/84 108/336/84
f 116/337/85 114/338/85 113/339/85 115/340/85
f 119/341/86 117/342/86 118/343/86 120/344/86
f 113/345/87 114/346/87 118/347/87 117/348/87
f 116/349/88 115/350/88 119/351/88 120/352/88
f 115/353/89 113/354/89 117/355/89 119/356/89
f 120/357/90 118/358/90 114/359/90 116/360/90