# Made in Blockbench 4.10.4
mtllib df21_cabin_door_upper_right.mtl

o jss
v 0.6250000000000009 0.6875 0.040624999999999245
v 0.5625000000000009 0.6875 0.040624999999999245
v 0.6250000000000009 0.1875 0.040624999999999245
v 0.5625000000000009 0.1875 0.040624999999999245
v 0.6250000000000009 0.6875 0.040624999999999245
v 0.5625000000000009 0.6875 0.040624999999999245
v 0.6250000000000009 0.1875 0.040624999999999245
v 0.5625000000000009 0.1875 0.040624999999999245
v 0.8750000000000009 0.75 0.009374999999999245
v 0.6250000000000009 0.75 0.009374999999999245
v 0.8750000000000009 0.125 0.009374999999999245
v 0.6250000000000009 0.125 0.009374999999999245
v 0.8750000000000009 0.75 0.07187499999999925
v 0.6250000000000009 0.75 0.07187499999999925
v 0.8750000000000009 0.125 0.07187499999999925
v 0.6250000000000009 0.125 0.07187499999999925
v 0.1875000000000009 0.75 0.009374999999999467
v 8.881784197001252e-16 0.75 0.009374999999999467
v 0.1875000000000009 0.125 0.009374999999999467
v 8.881784197001252e-16 0.125 0.009374999999999467
v 0.1875000000000009 0.75 0.07187499999999947
v 8.881784197001252e-16 0.75 0.07187499999999947
v 0.1875000000000009 0.125 0.07187499999999947
v 8.881784197001252e-16 0.125 0.07187499999999947
v 0.8750000000000009 1 0.009374999999999245
v 8.881784197001252e-16 1 0.009374999999999467
v 0.8750000000000009 0.75 0.009374999999999245
v 8.881784197001252e-16 0.75 0.009374999999999467
v 0.8750000000000009 1 0.07187499999999925
v 8.881784197001252e-16 1 0.07187499999999947
v 0.8750000000000009 0.75 0.07187499999999925
v 8.881784197001252e-16 0.75 0.07187499999999947
v 0.6250000000000009 0.75 0.040624999999999245
v 0.1875000000000009 0.75 0.04062499999999947
v 0.6250000000000009 0.6875 0.040624999999999245
v 0.1875000000000009 0.6875 0.04062499999999947
v 0.6250000000000009 0.75 0.040624999999999245
v 0.1875000000000009 0.75 0.04062499999999947
v 0.6250000000000009 0.6875 0.040624999999999245
v 0.1875000000000009 0.6875 0.04062499999999947
v 0.6250000000000009 0.1875 0.040624999999999245
v 0.1875000000000009 0.1875 0.04062499999999947
v 0.6250000000000009 0.125 0.040624999999999245
v 0.1875000000000009 0.125 0.04062499999999947
v 0.6250000000000009 0.1875 0.040624999999999245
v 0.1875000000000009 0.1875 0.04062499999999947
v 0.6250000000000009 0.125 0.040624999999999245
v 0.1875000000000009 0.125 0.04062499999999947
v 0.2500000000000009 0.6875 0.04062499999999947
v 0.1875000000000009 0.6875 0.04062499999999947
v 0.2500000000000009 0.1875 0.04062499999999947
v 0.1875000000000009 0.1875 0.04062499999999947
v 0.2500000000000009 0.6875 0.04062499999999947
v 0.1875000000000009 0.6875 0.04062499999999947
v 0.2500000000000009 0.1875 0.04062499999999947
v 0.1875000000000009 0.1875 0.04062499999999947
v 0.8750000000000009 0.125 0.07187499999999836
v 0.8750000000000009 0.125 0.009374999999998357
v 0.8750000000000009 0 0.07187499999999836
v 0.8750000000000009 0 0.009374999999998357
v 8.881784197001252e-16 0.125 0.07187499999999836
v 8.881784197001252e-16 0.125 0.009374999999998357
v 8.881784197001252e-16 0 0.07187499999999836
v 8.881784197001252e-16 0 0.009374999999998357
vt 0.421875 0.53125
vt 0.421875 0.65625
vt 0.40625 0.65625
vt 0.40625 0.53125
vt 0.4375 0.53125
vt 0.4375 0.65625
vt 0.421875 0.65625
vt 0.421875 0.53125
vt 0 0.984375
vt 0 0.984375
vt 0 1
vt 0 1
vt 0 1
vt 0 1
vt 0 0.984375
vt 0 0.984375
vt 0 1
vt 0 1
vt 0 0.875
vt 0 0.875
vt 0 1
vt 0 1
vt 0 0.875
vt 0 0.875
vt 0.0625 0.5
vt 0.0625 0.65625
vt 0 0.65625
vt 0 0.5
vt 0.125 0.5
vt 0.125 0.65625
vt 0.0625 0.65625
vt 0.0625 0.5
vt 0.4375 0.6875
vt 0.4375 0.625
vt 0.453125 0.625
vt 0.453125 0.6875
vt 0.4375 0.5625
vt 0.4375 0.625
vt 0.453125 0.625
vt 0.453125 0.5625
vt 0.375 0.5
vt 0.375 0.65625
vt 0.359375 0.65625
vt 0.359375 0.5
vt 0.359375 0.5
vt 0.359375 0.65625
vt 0.34375 0.65625
vt 0.34375 0.5
vt 0.171875 0.5
vt 0.171875 0.65625
vt 0.125 0.65625
vt 0.125 0.5
vt 0.25 0.5
vt 0.25 0.65625
vt 0.1875 0.65625
vt 0.1875 0.5
vt 0.4375 0.5625
vt 0.4375 0.5
vt 0.453125 0.5
vt 0.453125 0.5625
vt 0.453125 0.9375
vt 0.453125 1
vt 0.46875 1
vt 0.46875 0.9375
vt 0.40625 0.5
vt 0.40625 0.65625
vt 0.390625 0.65625
vt 0.390625 0.5
vt 0.390625 0.5
vt 0.390625 0.65625
vt 0.375 0.65625
vt 0.375 0.5
vt 0.21875 0.65625
vt 0.21875 0.71875
vt 0 0.71875
vt 0 0.65625
vt 0.4375 0.65625
vt 0.4375 0.71875
vt 0.21875 0.71875
vt 0.21875 0.65625
vt 0.3125 0.65625
vt 0.3125 0.4375
vt 0.328125 0.4375
vt 0.328125 0.65625
vt 0.328125 0.4375
vt 0.328125 0.65625
vt 0.34375 0.65625
vt 0.34375 0.4375
vt 0.46875 0.8125
vt 0.46875 0.875
vt 0.453125 0.875
vt 0.453125 0.8125
vt 0.46875 0.875
vt 0.46875 0.9375
vt 0.453125 0.9375
vt 0.453125 0.875
vt 0.546875 0.734375
vt 0.546875 0.75
vt 0.4375 0.75
vt 0.4375 0.734375
vt 0.546875 0.71875
vt 0.546875 0.734375
vt 0.4375 0.734375
vt 0.4375 0.71875
vt 0 0.90625
vt 0 0.90625
vt 0 1
vt 0 1
vt 0 1
vt 0 1
vt 0 0.90625
vt 0 0.90625
vt 0 1
vt 0 1
vt 0 0.984375
vt 0 0.984375
vt 0 1
vt 0 1
vt 0 0.984375
vt 0 0.984375
vt 0.546875 0.703125
vt 0.546875 0.71875
vt 0.4375 0.71875
vt 0.4375 0.703125
vt 0.546875 0.6875
vt 0.546875 0.703125
vt 0.4375 0.703125
vt 0.4375 0.6875
vt 0 0.90625
vt 0 0.90625
vt 0 1
vt 0 1
vt 0 1
vt 0 1
vt 0 0.90625
vt 0 0.90625
vt 0 1
vt 0 1
vt 0 0.984375
vt 0 0.984375
vt 0 1
vt 0 1
vt 0 0.984375
vt 0 0.984375
vt 0.453125 0.875
vt 0.453125 1
vt 0.4375 1
vt 0.4375 0.875
vt 0.453125 0.75
vt 0.453125 0.875
vt 0.4375 0.875
vt 0.4375 0.75
vt 0 0.984375
vt 0 0.984375
vt 0 1
vt 0 1
vt 0 1
vt 0 1
vt 0 0.984375
vt 0 0.984375
vt 0 1
vt 0 1
vt 0 0.875
vt 0 0.875
vt 0 1
vt 0 1
vt 0 0.875
vt 0 0.875
vt 0.015625 0.96875
vt 0.015625 1
vt 0 1
vt 0 0.96875
vt 0.015625 0.96875
vt 0.015625 1
vt 0 1
vt 0 0.96875
vt 0.28125 0.390625
vt 0.28125 0.65625
vt 0.25 0.65625
vt 0.25 0.390625
vt 0.4375 0.984375
vt 0.4375 1
vt 0.21875 1
vt 0.21875 0.984375
vt 0.4375 0.96875
vt 0.4375 1
vt 0.21875 1
vt 0.21875 0.96875
vt 0.21875 0.96875
vt 0.21875 1
vt 0 1
vt 0 0.96875
vn 2.220446049250313e-16 0 -1
vn -2.220446049250313e-16 0 1
vn 0 0 0
vn 0 0 0
vn 0 0 0
vn 0 0 0
vn 2.220446049250313e-16 0 -1
vn -2.220446049250313e-16 0 1
vn 0 1 0
vn 0 -1 0
vn 1 0 2.220446049250313e-16
vn -1 0 -2.220446049250313e-16
vn 2.220446049250313e-16 0 -1
vn -2.220446049250313e-16 0 1
vn 0 1 0
vn 0 -1 0
vn 1 0 2.220446049250313e-16
vn -1 0 -2.220446049250313e-16
vn -3.172065784643303e-17 0 -1
vn 3.172065784643303e-17 0 1
vn 0 1 0
vn 0 -1 0
vn 1 0 2.220446049250313e-16
vn -1 0 -2.220446049250313e-16
vn -2.8548592061789737e-16 0 -1
vn 2.8548592061789737e-16 0 1
vn 0 0 0
vn 0 0 0
vn 0 0 0
vn 0 0 0
vn -2.8548592061789737e-16 0 -1
vn 2.8548592061789737e-16 0 1
vn 0 0 0
vn 0 0 0
vn 0 0 0
vn 0 0 0
vn 2.220446049250313e-16 0 -1
vn -2.220446049250313e-16 0 1
vn 0 0 0
vn 0 0 0
vn 0 0 0
vn 0 0 0
vn 1 0 2.220446049250313e-16
vn -1 0 -2.220446049250313e-16
vn 0 1 0
vn 0 -1 0
vn -2.220446049250313e-16 0 1
vn 2.220446049250313e-16 0 -1
usemtl m_ce0b4f33-d72f-8896-e10b-ec834f1dc4d5
f 4/1/1 2/2/1 1/3/1 3/4/1
f 7/5/2 5/6/2 6/7/2 8/8/2
f 2/9/3 6/10/3 1/11/3 5/12/3
f 3/13/4 7/14/4 4/15/4 8/16/4
f 1/17/5 5/18/5 3/19/5 7/20/5
f 6/21/6 2/22/6 8/23/6 4/24/6
f 12/25/7 10/26/7 9/27/7 11/28/7
f 15/29/8 13/30/8 14/31/8 16/32/8
f 9/33/9 10/34/9 14/35/9 13/36/9
f 12/37/10 11/38/10 15/39/10 16/40/10
f 11/41/11 9/42/11 13/43/11 15/44/11
f 16/45/12 14/46/12 10/47/12 12/48/12
f 20/49/13 18/50/13 17/51/13 19/52/13
f 23/53/14 21/54/14 22/55/14 24/56/14
f 17/57/15 18/58/15 22/59/15 21/60/15
f 20/61/16 19/62/16 23/63/16 24/64/16
f 19/65/17 17/66/17 21/67/17 23/68/17
f 24/69/18 22/70/18 18/71/18 20/72/18
f 28/73/19 26/74/19 25/75/19 27/76/19
f 31/77/20 29/78/20 30/79/20 32/80/20
f 25/81/21 26/82/21 30/83/21 29/84/21
f 28/85/22 27/86/22 31/87/22 32/88/22
f 27/89/23 25/90/23 29/91/23 31/92/23
f 32/93/24 30/94/24 26/95/24 28/96/24
f 36/97/25 34/98/25 33/99/25 35/100/25
f 39/101/26 37/102/26 38/103/26 40/104/26
f 34/105/27 38/106/27 33/107/27 37/108/27
f 35/109/28 39/110/28 36/111/28 40/112/28
f 33/113/29 37/114/29 35/115/29 39/116/29
f 38/117/30 34/118/30 40/119/30 36/120/30
f 44/121/31 42/122/31 41/123/31 43/124/31
f 47/125/32 45/126/32 46/127/32 48/128/32
f 42/129/33 46/130/33 41/131/33 45/132/33
f 43/133/34 47/134/34 44/135/34 48/136/34
f 41/137/35 45/138/35 43/139/35 47/140/35
f 46/141/36 42/142/36 48/143/36 44/144/36
f 52/145/37 50/146/37 49/147/37 51/148/37
f 55/149/38 53/150/38 54/151/38 56/152/38
f 50/153/39 54/154/39 49/155/39 53/156/39
f 51/157/40 55/158/40 52/159/40 56/160/40
f 49/161/41 53/162/41 51/163/41 55/164/41
f 54/165/42 50/166/42 56/167/42 52/168/42
f 60/169/43 58/170/43 57/171/43 59/172/43
f 63/173/44 61/174/44 62/175/44 64/176/44
f 57/177/45 58/178/45 62/179/45 61/180/45
f 60/181/46 59/182/46 63/183/46 64/184/46
f 59/185/47 57/186/47 61/187/47 63/188/47
f 64/189/48 62/190/48 58/191/48 60/192/48