# Made in Blockbench 4.10.4
mtllib df21_cabin_door_bottom_left.mtl

o jss
v -0.8750000000000013 1 0.06875000000000231
v -1.27675647831893e-15 1 0.06875000000000209
v -0.8750000000000013 0 0.06875000000000231
v -1.27675647831893e-15 0 0.06875000000000209
v -1.27675647831893e-15 1 0.006250000000002087
v -0.8750000000000013 1 0.006250000000002309
v -1.27675647831893e-15 0 0.006250000000002087
v -0.8750000000000013 0 0.006250000000002309
vt 0.265625 0.65625
vt 0.25 0.65625
vt 0.25 0.375
vt 0.265625 0.375
vt 0.4375 0.96875
vt 0.21875 0.96875
vt 0.21875 0.71875
vt 0.4375 0.71875
vt 0.28125 0.65625
vt 0.265625 0.65625
vt 0.265625 0.375
vt 0.28125 0.375
vt 0.21875 0.96875
vt 0 0.96875
vt 0 0.71875
vt 0.21875 0.71875
vt 0.28125 0.4375
vt 0.296875 0.4375
vt 0.296875 0.65625
vt 0.28125 0.65625
vt 0.296875 0.65625
vt 0.3125 0.65625
vt 0.3125 0.4375
vt 0.296875 0.4375
vn 1 0 -2.220446049250313e-16
vn 2.220446049250313e-16 0 1
vn -1 0 2.220446049250313e-16
vn -2.220446049250313e-16 0 -1
vn 0 1 0
vn 0 -1 0
usemtl m_ce0b4f33-d72f-8896-e10b-ec834f1dc4d5
f 4/4/1 7/3/1 5/2/1 2/1/1
f 3/8/2 4/7/2 2/6/2 1/5/2
f 8/12/3 3/11/3 1/10/3 6/9/3
f 7/16/4 8/15/4 6/14/4 5/13/4
f 6/20/5 1/19/5 2/18/5 5/17/5
f 7/24/6 4/23/6 3/22/6 8/21/6