# Made in Blockbench 4.10.4
mtllib df21_dynamic_carport.mtl

o cuboid_selection_selection_selection_selection_selection_selection_selection_selection
v -4.440892098500626e-16 0.40548124999999957 0.4214748412276992
v 0 0.40548124999999957 0.999999841227699
v -8.881784197001252e-16 0.4999999999999998 0.9999999999999999
v 4.440892098500626e-16 -2.220446049250313e-16 0.12500000000000044
v 4.440892098500626e-16 0.15174374999999984 0.12120000000000042
v 8.881784197001252e-16 0.15174374999999984 1.0000000000000004
v 4.440892098500626e-16 0.35791874999999984 0.4214750000000005
v 4.440892098500626e-16 0.35791874999999984 0.9992174920391064
v 4.440892098500626e-16 0.40548124999999957 0.4214750000000005
v 8.881784197001252e-16 0.40548124999999957 1.0000000000000004
v 4.440892098500626e-16 -2.220446049250313e-16 -0.012370879575576144
v 4.440892098500626e-16 -0.09375000000000022 -0.01829624162416854
v 8.881784197001252e-16 -2.220446049250313e-16 1.0000000000000004
v 4.440892098500626e-16 -0.09362558919249242 0.12500000000000044
v 4.440892098500626e-16 -2.220446049250313e-16 0.12500000000000044
v 4.440892098500626e-16 0.15174374999999984 0.12120000000000042
v -8.881784197001252e-16 -2.220446049250313e-16 0.9999999999999998
v -8.881784197001252e-16 -2.220446049250313e-16 1.5
v -8.881784197001252e-16 0.4999999999999998 0.9999999999999998
v -8.881784197001252e-16 0.4999999999999998 1.5
v 0.9999999999999973 0.15174345194498673 0.12120283114958452
v 0.9999999999999973 0.3579192238902926 0.4214748412276985
v -2.6645352591003757e-15 0.4999999999999998 0.9999999999999998
v 0.9999999999999973 0.15174345194498673 0.12120283114958452
v 0.9999999999999973 0.40548124999999957 0.4214748412276985
v 0.9999999999999973 0.4999999999999998 0.9999999999999996
v -2.6645352591003757e-15 -2.220446049250313e-16 -0.01237087957557681
v 0.9999999999999973 -2.220446049250313e-16 -0.012370879575577032
v -2.6645352591003757e-15 -0.09375000000000022 -0.018296241624169207
v 0.9999999999999973 -0.09375000000000022 -0.018293773841858485
v -2.6645352591003757e-15 -2.220446049250313e-16 0.9999999999999998
v 0.9999999999999973 -2.220446049250313e-16 0.9999999999999996
v -2.6645352591003757e-15 -0.09362558919249242 0.12499999999999978
v 0.9999999999999973 -0.09362558919249242 0.12499999999999956
v -2.6645352591003757e-15 -2.220446049250313e-16 0.12499999999999978
v 0.9999999999999973 -2.220446049250313e-16 0.12499999999999956
v -2.6645352591003757e-15 0.15174374999999984 0.12119999999999975
v -2.6645352591003757e-15 0.35791874999999984 0.4214749999999998
v -2.6645352591003757e-15 0.40548124999999957 0.4214749999999998
v -2.6645352591003757e-15 0.4999999999999998 1.5
v 0.9999999999999973 0.4999999999999998 1.4999999999999996
v 0.9999999999999973 -2.220446049250313e-16 1.4999999999999996
v -2.6645352591003757e-15 -2.220446049250313e-16 1.5
v 1.0000000000000004 0.40548124999999957 0.4214748412276992
v 1 0.40548124999999957 0.9999998412276989
v 1.0000000000000009 0.4999999999999998 0.9999999999999998
v 0.9999999999999996 -2.220446049250313e-16 0.12500000000000044
v 0.9999999999999996 0.15174374999999984 0.12120000000000042
v 0.9999999999999991 0.15174374999999984 1.0000000000000004
v 0.9999999999999996 0.35791874999999984 0.4214750000000005
v 0.9999999999999991 0.35791874999999984 0.9992174920391063
v 0.9999999999999996 0.40548124999999957 0.4214750000000005
v 0.9999999999999991 0.40548124999999957 1.0000000000000004
v 0.9999999999999996 -2.220446049250313e-16 -0.012370879575576144
v 0.9999999999999996 -0.09375000000000022 -0.01829624162416854
v 0.9999999999999991 -2.220446049250313e-16 1.0000000000000004
v 0.9999999999999996 -0.09362558919249242 0.12500000000000044
v 0.9999999999999996 -2.220446049250313e-16 0.12500000000000044
v 0.9999999999999996 0.15174374999999984 0.12120000000000042
v 1.0000000000000009 -2.220446049250313e-16 0.9999999999999997
v 1.0000000000000009 -2.220446049250313e-16 1.5
v 1.0000000000000009 0.4999999999999998 0.9999999999999997
v 1.0000000000000009 0.4999999999999998 1.5
vt 0.6635875 0.875
vt 0.80821875 0.8201203125000001
vt 0.6635875 0.8201203125000001
vt 0.6635875 0.7566859375000001
vt 0.8832875 0.7566859375000001
vt 0.8823375 0.71875
vt 0.6635875 0.71875
vt 0.6637828125 0.8082296875000001
vt 0.80821875 0.8082296875000001
vt 0.8832875 0.7566859375000001
vt 0.6635875 0.7566859375000001
vt 0.6635875 0.8201203125000001
vt 0.80821875 0.8201203125000001
vt 0.80821875 0.8082296875000001
vt 0.6637828125 0.8082296875000001
vt 0.73990078125 0.7355328125
vt 0.73990078125 0.7589390625
vt 0.77424296875 0.7589390625
vt 0.77572421875 0.7355015625
vt 0.74085078125 0.796875
vt 0.77424296875 0.7589390625
vt 0.73990078125 0.7589390625
vt 0.421875 0.609375
vt 0.421875 0.734375
vt 0.296875 0.734375
vt 0.296875 0.609375
vt 0.609375 0.859375
vt 0.609375 0.765625
vt 0.359375 0.765625
vt 0.359375 0.859375
vt 0.28125 0.421875
vt 0.28125 0.453125
vt 0.53125 0.453125
vt 0.53125 0.421875
vt 0.765625 0.546875
vt 0.515625 0.546875
vt 0.515625 0.59375
vt 0.765625 0.59375
vt 0.296875 0.609375
vt 0.296875 0.734375
vt 0.546875 0.734375
vt 0.546875 0.609375
vt 0.546875 1
vt 0.796875 1
vt 0.796875 0.96875
vt 0.546875 0.96875
vt 0.546875 0.484375
vt 0.796875 0.484375
vt 0.796875 0.46875
vt 0.546875 0.46875
vt 0.125 0.75
vt 0.125 1
vt 0.34375 1
vt 0.34375 0.75
vt 0.546875 0.453125
vt 0.796875 0.453125
vt 0.796875 0.4375
vt 0.546875 0.4375
vt 0.125 0.75
vt 0 0.75
vt 0 1
vt 0.125 1
vt 0.13610078125000008 0.484375
vt 0.13610078125000008 0.734375
vt 0.2826492187499998 0.734375
vt 0.2826492187499998 0.484375
vt 0.004850781250000047 0.484375
vt 0.004850781250000047 0.734375
vt 0.12985078125000005 0.734375
vt 0.12985078125000005 0.484375
vt 0.80821875 0.8201203125000001
vt 0.6635875 0.875
vt 0.6635875 0.8201203125000001
vt 0.8823375 0.71875
vt 0.8832875 0.7566859375000001
vt 0.6635875 0.7566859375000001
vt 0.6635875 0.71875
vt 0.8832875 0.7566859375000001
vt 0.80821875 0.8082296875000001
vt 0.6637828125 0.8082296875000001
vt 0.6635875 0.7566859375000001
vt 0.80821875 0.8082296875000001
vt 0.80821875 0.8201203125000001
vt 0.6635875 0.8201203125000001
vt 0.6637828125 0.8082296875000001
vt 0.77424296875 0.7589390625
vt 0.73990078125 0.7589390625
vt 0.73990078125 0.7355328125
vt 0.77572421875 0.7355015625
vt 0.77424296875 0.7589390625
vt 0.74085078125 0.796875
vt 0.73990078125 0.7589390625
vt 0.296875 0.734375
vt 0.421875 0.734375
vt 0.421875 0.609375
vt 0.296875 0.609375
vn -1 -9.396851560719176e-15 1.313201788403045e-15
vn -1 2.530946428440369e-17 7.886272427082471e-16
vn -1 -1.1194870733228706e-15 5.466182785729048e-16
vn -1 0 1.3132017884030448e-15
vn -1 0 -2.220446049250313e-16
vn -1 0 -2.220446049250313e-16
vn -1 0 -2.220446049250313e-16
vn 0.0000018482583331561968 0.8243766018772717 -0.5660417107191538
vn -2.216024253580152e-16 0.06307799769802083 -0.9980086002667554
vn -1.666720676247677e-16 0.6607293075272461 -0.7506242616479739
vn 2.220446049250313e-16 0 1
vn 1.9278061920418834e-19 -0.9999996231084706 0.0008682067248122361
vn 2.220446049250313e-16 0 1
vn 0 -1 0
vn -1.5877230130634047e-7 0 -0.9999999999999875
vn 0 -1 0
vn -3.580269522906261e-17 0.9869150613610413 -0.16124100489246582
vn 0 1 0
vn 1 -9.396848981817082e-15 2.220446049250313e-16
vn 1 0 2.220446049250313e-16
vn 1 0 2.220446049250313e-16
vn 1 0 2.220446049250313e-16
vn 1 0 2.220446049250313e-16
vn 1 0 2.220446049250313e-16
vn 1 0 2.220446049250313e-16
usemtl m_ded11dea-fc5e-a810-0037-0396c18dd485
f 3/1/1 1/2/1 2/3/1
f 6/4/2 5/5/2 4/6/2 13/7/2
f 8/8/3 7/9/3 5/10/3 6/11/3
f 10/12/4 9/13/4 7/14/4 8/15/4
f 14/16/5 15/17/5 11/18/5 12/19/5
f 16/20/6 11/21/6 15/22/6
f 18/23/7 20/24/7 19/25/7 17/26/7
f 22/27/8 21/28/8 37/29/8 38/30/8
f 29/31/9 27/32/9 28/33/9 30/34/9
f 28/35/10 27/36/10 37/37/10 24/38/10
f 42/39/11 41/40/11 40/41/11 43/42/11
f 34/43/12 33/44/12 29/45/12 30/46/12
f 36/47/13 35/48/13 33/49/13 34/50/13
f 32/51/14 31/52/14 35/53/14 36/54/14
f 39/55/15 25/56/15 22/57/15 38/58/15
f 32/59/16 42/60/16 43/61/16 31/62/16
f 23/63/17 26/64/17 25/65/17 39/66/17
f 40/67/18 41/68/18 26/69/18 23/70/18
f 44/71/19 46/72/19 45/73/19
f 47/74/20 48/75/20 49/76/20 56/77/20
f 48/78/21 50/79/21 51/80/21 49/81/21
f 50/82/22 52/83/22 53/84/22 51/85/22
f 54/86/23 58/87/23 57/88/23 55/89/23
f 54/90/24 59/91/24 58/92/24
f 62/93/25 63/94/25 61/95/25 60/96/25