# Made in Blockbench 4.10.4
mtllib df21_fuel_tank.mtl

o youxiang_selection_selection
v 1.3750000000000004 -0.4375000000000002 -0.1875000000000009
v 1.3750000000000009 -0.4375000000000002 1.1874999999999991
v 1.3750000000000004 0.6249999999999998 -0.8750000000000011
v 1.3750000000000004 -2.220446049250313e-16 -0.8750000000000011
v 1.3750000000000009 0.6249999999999998 1.8749999999999991
v 1.3750000000000009 -2.220446049250313e-16 1.8749999999999991
v 1.375 0.6249999999999998 -0.8749999999999998
v -0.37499999999999956 0.6249999999999998 -0.8750000000000011
v 1.375 -2.220446049250313e-16 -0.8749999999999998
v -0.37499999999999956 -2.220446049250313e-16 -0.8750000000000011
v 1.3750000000000004 0.6249999999999998 1.8750000000000009
v -0.3749999999999991 0.6249999999999998 1.8749999999999982
v 1.3750000000000004 -2.220446049250313e-16 1.8750000000000009
v -0.3749999999999991 -2.220446049250313e-16 1.8749999999999982
v 1.3750000000000009 -0.4375000000000002 -0.18749999999999956
v -0.37500000000000044 -0.4375000000000002 -0.1875000000000009
v 1.375 -0.4375000000000002 1.1875000000000004
v -0.3749999999999991 -0.4375000000000002 1.1874999999999991
v 1.0000000000000009 0.9999999999999998 -8.881784197001252e-16
v -4.440892098500626e-16 0.9999999999999998 -8.881784197001252e-16
v 1.0000000000000009 0.6249999999999998 -8.881784197001252e-16
v -4.440892098500626e-16 0.6249999999999998 -8.881784197001252e-16
v 1.0000000000000007 0.9999999999999998 0.9999999999999991
v 8.881784197001252e-16 0.9999999999999998 0.9999999999999991
v 1.0000000000000007 0.6249999999999998 0.9999999999999991
v 8.881784197001252e-16 0.6249999999999998 0.9999999999999991
v 1.3750000000000004 0.6249999999999998 -0.8749999999999998
v -0.37499999999999956 0.6249999999999998 -0.8750000000000011
v 1.3750000000000004 -2.220446049250313e-16 -0.8749999999999998
v -0.37499999999999956 -2.220446049250313e-16 -0.8750000000000011
v 1.3750000000000004 0.6249999999999998 1.8750000000000009
v -0.3749999999999991 0.6249999999999998 1.8749999999999982
v 1.3750000000000004 -2.220446049250313e-16 1.8750000000000009
v -0.3749999999999991 -2.220446049250313e-16 1.8749999999999982
v -0.37500000000000044 -0.4375000000000002 -0.1875000000000009
v -0.3749999999999991 -0.4375000000000002 1.1874999999999991
v -0.37499999999999956 0.6249999999999998 -0.8750000000000011
v -0.37499999999999956 -2.220446049250313e-16 -0.8750000000000011
v -0.3749999999999991 0.6249999999999998 1.8749999999999982
v -0.3749999999999991 -2.220446049250313e-16 1.8749999999999982
vt 0.6953125 0.625
vt 0.3515625 0.625
vt 0.3515625 0.546875
vt 0.6953125 0.546875
vt 0.4375 0.4921875
vt 0.609375 0.4921875
vt 0.6953125 0.546875
vt 0.3515625 0.546875
vt 0.609375 0.8359375
vt 0.609375 0.9140625
vt 0.390625 0.9140625
vt 0.390625 0.8359375
vt 0.609375 0.8359375
vt 0.609375 0.9140625
vt 0.390625 0.9140625
vt 0.390625 0.8359375
vt 0.27734375 0.7734375
vt 0.27734375 0.9921875
vt 0.10546875 0.9921875
vt 0.10546875 0.7734375
vt 0.515625 0.828125
vt 0.390625 0.828125
vt 0.390625 0.78125
vt 0.515625 0.78125
vt 0.2578125 0.4921875
vt 0.2578125 0.5390625
vt 0.1328125 0.5390625
vt 0.1328125 0.4921875
vt 0 0.4140625
vt 0.125 0.4140625
vt 0.125 0.5390625
vt 0 0.5390625
vt 0.390625 0.4609375
vt 0.390625 0.5078125
vt 0.265625 0.5078125
vt 0.265625 0.4609375
vt 0.2578125 0.484375
vt 0.1328125 0.484375
vt 0.1328125 0.4375
vt 0.2578125 0.4375
vt 0 0.546875
vt 0.34375 0.546875
vt 0.34375 0.765625
vt 0 0.765625
vt 0.27734374999999994 0.7734375
vt 0.37920624999999997 0.7734375
vt 0.37920625 0.9921875
vt 0.27734375 0.9921875
vt 0.10546875 0.9921875
vt 0.0036062499999999775 0.9921875
vt 0.0036062499999999775 0.7734375
vt 0.10546874999999999 0.7734375
vt 0.6953125 0.625
vt 0.3515625 0.625
vt 0.3515625 0.546875
vt 0.6953125 0.546875
vt 0.4375 0.4921875
vt 0.609375 0.4921875
vt 0.6953125 0.546875
vt 0.3515625 0.546875
vn -1 0 1.0092936587501424e-16
vn -1 -1.0150610510858574e-15 4.239033366750598e-16
vn -7.295751304679601e-16 0 1
vn -1.2371056560108889e-15 0 1
vn 0 -1 0
vn 2.220446049250313e-16 0 -1
vn -2.220446049250313e-16 0 1
vn 0 1 0
vn 1 0 2.220446049250313e-16
vn -1 0 1.5543122344752192e-15
vn 0 1 0
vn 3.9169100726187447e-16 -0.8436614877321076 -0.5368754921931593
vn -6.64171707965787e-16 -0.8436614877321078 0.5368754921931591
vn -1 0 1.0092936587501429e-16
vn -1 -2.0301221021717135e-15 1.0698512782751509e-15
usemtl m_069dde98-1c0f-6d2d-ee98-71d2c82f12d6
f 5/1/1 3/2/1 4/3/1 6/4/1
f 1/5/2 2/6/2 6/7/2 4/8/2
f 9/9/3 7/10/3 8/11/3 10/12/3
f 13/13/4 11/14/4 12/15/4 14/16/4
f 16/17/5 15/18/5 17/19/5 18/20/5
f 20/21/6 19/22/6 21/23/6 22/24/6
f 25/25/7 23/26/7 24/27/7 26/28/7
f 23/29/8 19/30/8 20/31/8 24/32/8
f 21/33/9 19/34/9 23/35/9 25/36/9
f 24/37/10 20/38/10 22/39/10 26/40/10
f 31/41/11 27/42/11 28/43/11 32/44/11
f 16/45/12 30/46/12 29/47/12 15/48/12
f 17/49/13 33/50/13 34/51/13 18/52/13
f 39/53/14 37/54/14 38/55/14 40/56/14
f 35/57/15 36/58/15 40/59/15 38/60/15