# Made in Blockbench 4.10.4
mtllib df21_general_carport.mtl

o cuboid_selection_selection_selection_selection_selection_selection_selection_selection
v 4.440892098500626e-16 -2.220446049250313e-16 0.12500000000000044
v 4.440892098500626e-16 0.15174374999999984 0.12120000000000042
v 8.881784197001252e-16 0.15174374999999984 1.0000000000000004
v 4.440892098500626e-16 0.35791874999999984 0.4214750000000005
v 8.881784197001252e-16 0.35791874999999984 0.9992174920391063
v 4.440892098500626e-16 0.40548124999999957 0.4214750000000005
v 8.881784197001252e-16 0.40548124999999957 1.0000000000000004
v 8.881784197001252e-16 0.625 1.0000000000000004
v 4.440892098500626e-16 -2.220446049250313e-16 -0.012370879575576144
v 4.440892098500626e-16 -0.09375000000000022 -0.01829624162416854
v 8.881784197001252e-16 -2.220446049250313e-16 1.0000000000000004
v 4.440892098500626e-16 -0.09362558919249242 0.12500000000000044
v 4.440892098500626e-16 -2.220446049250313e-16 0.12500000000000044
v 4.440892098500626e-16 0.15174374999999984 0.12120000000000042
v 8.881784197001252e-16 0.625 1.5000000000000004
v 8.881784197001252e-16 -2.220446049250313e-16 1.5000000000000004
v 0 0.15174345194498673 0.12120283114958541
v 0 0.3579192238902926 0.4214748412276994
v 1.0000000000000009 0.625 1.0000000000000004
v 0 0.15174345194498673 0.12120283114958541
v 0 0.40548124999999957 0.4214748412276994
v 0 0.625 1.0000000000000004
v 1 -2.220446049250313e-16 -0.012370879575576144
v 0 -2.220446049250313e-16 -0.012370879575576144
v 1 -0.09375000000000022 -0.01829624162416854
v 0 -0.09375000000000022 -0.018293773841857597
v 1.0000000000000009 -2.220446049250313e-16 1.0000000000000004
v 8.881784197001252e-16 -2.220446049250313e-16 1.0000000000000004
v 1 -0.09362558919249242 0.12500000000000044
v 0 -0.09362558919249242 0.12500000000000044
v 1 -2.220446049250313e-16 0.12500000000000044
v 0 -2.220446049250313e-16 0.12500000000000044
v 1 0.15174374999999984 0.12120000000000042
v 1 0.35791874999999984 0.4214750000000005
v 1 0.40548124999999957 0.4214750000000005
v 1.0000000000000009 0.625 1.5000000000000004
v 0 0.625 1.5000000000000004
v 8.881784197001252e-16 -2.220446049250313e-16 1.5000000000000004
v 1.0000000000000009 -2.220446049250313e-16 1.5000000000000004
v 0.9999999999999996 -2.220446049250313e-16 0.12500000000000044
v 0.9999999999999996 0.15174374999999984 0.12120000000000042
v 0.9999999999999991 0.15174374999999984 1.0000000000000004
v 0.9999999999999996 0.35791874999999984 0.4214750000000005
v 0.9999999999999991 0.35791874999999984 0.9992174920391061
v 0.9999999999999996 0.40548124999999957 0.4214750000000005
v 0.9999999999999991 0.40548124999999957 1.0000000000000004
v 0.9999999999999991 0.625 1.0000000000000004
v 0.9999999999999996 -2.220446049250313e-16 -0.012370879575576144
v 0.9999999999999996 -0.09375000000000022 -0.01829624162416854
v 0.9999999999999991 -2.220446049250313e-16 1.0000000000000004
v 0.9999999999999996 -0.09362558919249242 0.12500000000000044
v 0.9999999999999996 -2.220446049250313e-16 0.12500000000000044
v 0.9999999999999996 0.15174374999999984 0.12120000000000042
v 0.9999999999999991 0.625 1.5000000000000004
v 0.9999999999999991 -2.220446049250313e-16 1.5000000000000004
vt 0.1323375 0.20981093750000013
vt 0.3520375 0.20981093750000013
vt 0.3510875 0.171875
vt 0.1323375 0.171875
vt 0.13253281249999999 0.2613546875000001
vt 0.27696875 0.2613546875000001
vt 0.3520375 0.20981093750000013
vt 0.1323375 0.20981093750000013
vt 0.1323375 0.27324531250000006
vt 0.27696875 0.27324531250000006
vt 0.27696875 0.2613546875000001
vt 0.13253281249999999 0.2613546875000001
vt 0.31802578125000003 0.2667828125
vt 0.31802578125000003 0.2901890625
vt 0.35236796875 0.2901890625
vt 0.35384921874999997 0.2667515625
vt 0.31897578125000003 0.328125
vt 0.35236796875 0.2901890625
vt 0.31802578125000003 0.2901890625
vt 0.75 0.03125
vt 0.625 0.03125
vt 0.625 0.1875
vt 0.75 0.1875
vt 0.1323375 0.328125
vt 0.27696875 0.27324531250000006
vt 0.1323375 0.27324531250000006
vt 0 0.375
vt 0.25 0.375
vt 0.25 0.46875
vt 0 0.46875
vt 0.28047187500000004 0.484375
vt 0.28047187500000004 0.734375
vt 0.125778125 0.734375
vt 0.12577812499999996 0.484375
vt 0.8125 0.609375
vt 0.5625 0.609375
vt 0.5625 0.578125
vt 0.8125 0.578125
vt 0.53125 1
vt 0.53125 0.953125
vt 0.78125 0.953125
vt 0.78125 1
vt 0.546875 0.734375
vt 0.296875 0.734375
vt 0.296875 0.578125
vt 0.546875 0.578125
vt 0.8125 0.625
vt 0.8125 0.65625
vt 0.5625 0.65625
vt 0.5625 0.625
vt 0.859375 0.875
vt 0.859375 0.890625
vt 0.609375 0.890625
vt 0.609375 0.875
vt 0.34375 1
vt 0.125 1
vt 0.125 0.75
vt 0.34375 0.75
vt 0.859375 0.84375
vt 0.859375 0.859375
vt 0.609375 0.859375
vt 0.609375 0.84375
vt 0.0007781249999999629 0.734375
vt 0.0007781249999999629 0.484375
vt 0.12577812499999996 0.484375
vt 0.12577812499999996 0.734375
vt 0 1
vt 0 0.75
vt 0.125 0.75
vt 0.125 1
vt 0.3510875 0.171875
vt 0.3520375 0.20981093750000013
vt 0.1323375 0.20981093750000013
vt 0.1323375 0.171875
vt 0.3520375 0.20981093750000013
vt 0.27696875 0.2613546875000001
vt 0.13253281249999999 0.2613546875000001
vt 0.1323375 0.20981093750000013
vt 0.27696875 0.2613546875000001
vt 0.27696875 0.27324531250000006
vt 0.1323375 0.27324531250000006
vt 0.13253281249999999 0.2613546875000001
vt 0.35236796875 0.2901890625
vt 0.31802578125000003 0.2901890625
vt 0.31802578125000003 0.2667828125
vt 0.35384921874999997 0.2667515625
vt 0.35236796875 0.2901890625
vt 0.31897578125000003 0.328125
vt 0.31802578125000003 0.2901890625
vt 0.625 0.1875
vt 0.625 0.03125
vt 0.75 0.03125
vt 0.75 0.1875
vt 0.27696875 0.27324531250000006
vt 0.1323375 0.328125
vt 0.1323375 0.27324531250000006
vn -1 0 2.220446049250313e-16
vn -1 0 2.220446049250313e-16
vn -1 0 2.220446049250313e-16
vn -1 0 2.220446049250313e-16
vn -1 0 2.220446049250313e-16
vn -1 0 2.220446049250313e-16
vn -1 0 2.220446049250313e-16
vn -0.0000018482583332747958 0.8243766018772717 -0.5660417107191538
vn 5.6326803966030064e-8 0.9349556270752476 -0.35476467608871
vn 0 0.06307799769802083 -0.9980086002667554
vn 4.949567970569449e-18 0.6607293075272461 -0.7506242616479739
vn -2.2204460492503091e-16 -6.310887241768087e-31 1
vn 3.626711263168225e-21 -0.9999996231084706 0.0008682067248122361
vn 0 0 1
vn 0 -1 0
vn 1.5877230108429587e-7 0 -0.9999999999999875
vn 0 1 0
vn 0 -1 0
vn 1 2.530946428440369e-17 7.886272427082471e-16
vn 1 -2.2389741466457416e-15 1.3152811620708413e-15
vn 1 0 1.3132017884030448e-15
vn 1 0 -2.220446049250313e-16
vn 1 0 -2.220446049250313e-16
vn 1 0 -2.220446049250313e-16
vn 1 0 1.3132017884030448e-15
usemtl m_9b9ed657-0d6f-2e5e-c4e3-0036142d343f
f 3/1/1 2/2/1 1/3/1 11/4/1
f 5/5/2 4/6/2 2/7/2 3/8/2
f 7/9/3 6/10/3 4/11/3 5/12/3
f 12/13/4 13/14/4 9/15/4 10/16/4
f 14/17/5 9/18/5 13/19/5
f 11/20/6 16/21/6 15/22/6 8/23/6
f 8/24/7 6/25/7 7/26/7
f 33/27/8 17/28/8 18/29/8 34/30/8
f 35/31/9 21/32/9 22/33/9 19/34/9
f 24/35/10 23/36/10 25/37/10 26/38/10
f 33/39/11 23/40/11 24/41/11 20/42/11
f 36/43/12 37/44/12 38/45/12 39/46/12
f 25/47/13 29/48/13 30/49/13 26/50/13
f 29/51/14 31/52/14 32/53/14 30/54/14
f 31/55/15 27/56/15 28/57/15 32/58/15
f 18/59/16 21/60/16 35/61/16 34/62/16
f 37/63/17 36/64/17 19/65/17 22/66/17
f 39/67/18 38/68/18 28/69/18 27/70/18
f 40/71/19 41/72/19 42/73/19 50/74/19
f 41/75/20 43/76/20 44/77/20 42/78/20
f 43/79/21 45/80/21 46/81/21 44/82/21
f 48/83/22 52/84/22 51/85/22 49/86/22
f 48/87/23 53/88/23 52/89/23
f 54/90/24 55/91/24 50/92/24 47/93/24
f 45/94/25 47/95/25 46/96/25