# Made in Blockbench 4.10.4
mtllib df21_general_bottom_slab.mtl

o xia
v 1 1 -0.062499999999998335
v 0 1 -0.06249999999999856
v 1 0 -0.062499999999998335
v 0 0 -0.06249999999999856
v 1 1 0.06250000000000167
v 0 1 0.06250000000000144
v 1 0 0.06250000000000167
v 0 0 0.06250000000000144
vt 0 0
vt 0 0.5
vt 0.5 0.5
vt 0.5 0
vt 0 0.5
vt 0 1
vt 0.5 1
vt 0.5 0.5
vt 0.625 1
vt 0.625 0.5
vt 0.5625 0.5
vt 0.5625 1
vt 0.625 0
vt 0.625 0.5
vt 0.5625 0.5
vt 0.5625 0
vt 0.5 0
vt 0.5 0.5
vt 0.5625 0.5
vt 0.5625 0
vt 0.5 0.5
vt 0.5 1
vt 0.5625 1
vt 0.5625 0.5
vn 2.220446049250313e-16 0 -1
vn -2.220446049250313e-16 0 1
vn 0 1 0
vn 0 -1 0
vn 1 0 2.220446049250313e-16
vn -1 0 -2.220446049250313e-16
usemtl m_d7279016-19e2-a230-d446-c6569fc87ddc
f 4/1/1 2/2/1 1/3/1 3/4/1
f 7/5/2 5/6/2 6/7/2 8/8/2
f 1/9/3 2/10/3 6/11/3 5/12/3
f 4/13/4 3/14/4 7/15/4 8/16/4
f 3/17/5 1/18/5 5/19/5 7/20/5
f 8/21/6 6/22/6 2/23/6 4/24/6