# Made in Blockbench 4.10.4
mtllib df21_dynamic_radiator.mtl

o cuboid_selection_selection_selection_selection_selection_selection_selection_selection_selection
v 1.0000000000000004 0.40548124999999957 0.4214748412276992
v 1 0.40548124999999957 0.999999841227699
v 1.0000000000000009 0.4999999999999998 0.9999999999999999
v 0.9999999999999996 -2.220446049250313e-16 0.12500000000000044
v 0.9999999999999996 0.15174374999999984 0.12120000000000042
v 0.9999999999999991 0.15174374999999984 1.0000000000000004
v 0.9999999999999996 0.35791874999999984 0.4214750000000005
v 0.9999999999999996 0.35791874999999984 0.9992174920391064
v 0.9999999999999996 0.40548124999999957 0.4214750000000005
v 0.9999999999999991 0.40548124999999957 1.0000000000000004
v 0.9999999999999996 -2.220446049250313e-16 -0.012370879575576144
v 0.9999999999999996 -0.09375000000000022 -0.01829624162416854
v 0.9999999999999991 -2.220446049250313e-16 1.0000000000000004
v 0.9999999999999996 -0.09362558919249242 0.12500000000000044
v 0.9999999999999996 -2.220446049250313e-16 0.12500000000000044
v 0.9999999999999996 0.15174374999999984 0.12120000000000042
v 1.0000000000000009 -2.220446049250313e-16 0.9999999999999998
v 1.0000000000000009 -2.220446049250313e-16 1.5
v 1.0000000000000009 0.4999999999999998 0.9999999999999998
v 1.0000000000000009 0.4999999999999998 1.5
v -4.440892098500626e-16 0.40548124999999957 0.4214748412276992
v 0 0.40548124999999957 0.9999998412276989
v -8.881784197001252e-16 0.4999999999999998 0.9999999999999998
v 4.440892098500626e-16 -2.220446049250313e-16 0.12500000000000044
v 4.440892098500626e-16 0.15174374999999984 0.12120000000000042
v 8.881784197001252e-16 0.15174374999999984 1.0000000000000004
v 4.440892098500626e-16 0.35791874999999984 0.4214750000000005
v 8.881784197001252e-16 0.35791874999999984 0.9992174920391063
v 4.440892098500626e-16 0.40548124999999957 0.4214750000000005
v 8.881784197001252e-16 0.40548124999999957 1.0000000000000004
v 4.440892098500626e-16 -2.220446049250313e-16 -0.012370879575576144
v 4.440892098500626e-16 -0.09375000000000022 -0.01829624162416854
v 8.881784197001252e-16 -2.220446049250313e-16 1.0000000000000004
v 4.440892098500626e-16 -0.09362558919249242 0.12500000000000044
v 4.440892098500626e-16 -2.220446049250313e-16 0.12500000000000044
v 4.440892098500626e-16 0.15174374999999984 0.12120000000000042
v -8.881784197001252e-16 -2.220446049250313e-16 0.9999999999999997
v -8.881784197001252e-16 -2.220446049250313e-16 1.5
v -8.881784197001252e-16 0.4999999999999998 0.9999999999999997
v -8.881784197001252e-16 0.4999999999999998 1.5
v 8.881784197001252e-16 0.3749999999999998 1.5
v 1.0000000000000009 0.3749999999999998 1.5
v 1.0000000000000009 -2.220446049250313e-16 1.5
v 8.881784197001252e-16 -2.220446049250313e-16 1.5
v 1.0000000000000018 0.15174345194498695 0.12120283114958497
v 1.0000000000000018 0.35791922389029285 0.42147484122769896
v 8.881784197001252e-16 0.5 0.9999999999999999
v 1.0000000000000018 0.15174345194498695 0.12120283114958497
v 1.0000000000000018 0.40548124999999935 0.42147484122769896
v 1.0000000000000018 0.5 0.9999999999999999
v -4.440892098500626e-16 0 -0.012370879575576366
v 1.0000000000000018 0 -0.012370879575576588
v -4.440892098500626e-16 -0.09375 -0.018296241624168763
v 1.0000000000000018 -0.09375 -0.01829377384185804
v 8.881784197001252e-16 0 0.9999999999999999
v 1.0000000000000018 0 0.9999999999999999
v -4.440892098500626e-16 -0.09362558919249242 0.12500000000000022
v 1.0000000000000018 -0.09362558919249242 0.125
v -4.440892098500626e-16 0 0.12500000000000022
v 1.0000000000000018 0 0.125
v -4.440892098500626e-16 0.15174374999999962 0.1212000000000002
v -4.440892098500626e-16 0.3579187499999996 0.42147500000000027
v -4.440892098500626e-16 0.40548124999999935 0.42147500000000027
v 1.0000000000000018 0 1.5
v 8.881784197001252e-16 0 1.5
v -0.6249999999999991 0.5625 0.7500000000000001
v -0.6249999999999991 0.5625 1.5
v -0.6249999999999991 0.375 1.5
v -0.6249999999999991 0.375 0.7500000000000001
v 1.1875000000000018 0.5625 1.4999999999999996
v 1.1875000000000018 0.5625 0.7499999999999998
v 1.1875000000000018 0.375 0.7499999999999998
v 1.1875000000000018 0.375 1.4999999999999996
vt 0.16759374999999999 0.46074531250000006
vt 0.022962499999999997 0.515625
vt 0.022962499999999997 0.46074531250000006
vt 0.2417125 0.359375
vt 0.2426625 0.3973109375000001
vt 0.022962499999999997 0.3973109375000001
vt 0.022962499999999997 0.359375
vt 0.2426625 0.3973109375000001
vt 0.16759374999999999 0.4488546875000001
vt 0.02315781250000004 0.4488546875000001
vt 0.022962499999999997 0.3973109375000001
vt 0.16759374999999999 0.4488546875000001
vt 0.16759374999999999 0.46074531250000006
vt 0.022962499999999997 0.46074531250000006
vt 0.02315781250000004 0.4488546875000001
vt 0.13361796874999998 0.3995640625
vt 0.09927578125000003 0.3995640625
vt 0.09927578125000003 0.3761578125
vt 0.13509921874999997 0.3761265625
vt 0.13361796874999998 0.3995640625
vt 0.10022578125000003 0.4375
vt 0.09927578125000003 0.3995640625
vt 0.03125 0.515625
vt 0.15625 0.515625
vt 0.15625 0.390625
vt 0.03125 0.390625
vt 0.022962499999999997 0.515625
vt 0.16759374999999999 0.46074531250000006
vt 0.022962499999999997 0.46074531250000006
vt 0.022962499999999997 0.3973109375000001
vt 0.2426625 0.3973109375000001
vt 0.2417125 0.359375
vt 0.022962499999999997 0.359375
vt 0.02315781250000004 0.4488546875000001
vt 0.16759374999999999 0.4488546875000001
vt 0.2426625 0.3973109375000001
vt 0.022962499999999997 0.3973109375000001
vt 0.022962499999999997 0.46074531250000006
vt 0.16759374999999999 0.46074531250000006
vt 0.16759374999999999 0.4488546875000001
vt 0.02315781250000004 0.4488546875000001
vt 0.09927578125000003 0.3761578125
vt 0.09927578125000003 0.3995640625
vt 0.13361796874999998 0.3995640625
vt 0.13509921874999997 0.3761265625
vt 0.10022578125000003 0.4375
vt 0.13361796874999998 0.3995640625
vt 0.09927578125000003 0.3995640625
vt 0.15625 0.390625
vt 0.15625 0.515625
vt 0.03125 0.515625
vt 0.03125 0.390625
vt 0.046875 0.609375
vt 0.046875 0.703125
vt 0.296875 0.703125
vt 0.296875 0.609375
vt 0.71875 0.109375
vt 0.71875 0.015625
vt 0.46875 0.015625
vt 0.46875 0.109375
vt 0.609375 1
vt 0.609375 0.859375
vt 0.359375 0.859375
vt 0.359375 1
vt 0.609375 0.453125
vt 0.609375 0.484375
vt 0.859375 0.484375
vt 0.859375 0.453125
vt 0.859375 0.546875
vt 0.609375 0.546875
vt 0.609375 0.59375
vt 0.859375 0.59375
vt 0.609375 0.53125
vt 0.859375 0.53125
vt 0.859375 0.5
vt 0.609375 0.5
vt 0.625 0.890625
vt 0.875 0.890625
vt 0.875 0.875
vt 0.625 0.875
vt 0.125 0.75
vt 0.125 1
vt 0.34375 1
vt 0.34375 0.75
vt 0.625 0.859375
vt 0.875 0.859375
vt 0.875 0.84375
vt 0.625 0.84375
vt 0.125 0.75
vt 0 0.75
vt 0 1
vt 0.125 1
vt 0.328125 0.6875
vt 0.515625 0.6875
vt 0.515625 0.234375
vt 0.328125 0.234375
vt 1 0
vt 1 0.453125
vt 0.75 0.453125
vt 0.75 0
vt 0.453125 0.078125
vt 0 0.078125
vt 0 0.015625
vt 0.453125 0.015625
vt 0.453125 0.078125
vt 0 0.078125
vt 0 0.015625
vt 0.453125 0.015625
vt 0.1875 0.171875
vt 0 0.171875
vt 0 0.125
vt 0.1875 0.125
vt 0.1875 0.171875
vt 0 0.171875
vt 0 0.125
vt 0.1875 0.125
vn 1 -9.396851560719176e-15 1.313201788403045e-15
vn 1 2.530946428440369e-17 7.886272427082471e-16
vn 1 -1.1194870733228706e-15 5.466182785729048e-16
vn 1 0 1.3132017884030448e-15
vn 1 0 -2.220446049250313e-16
vn 1 0 -2.220446049250313e-16
vn 1 0 -2.220446049250313e-16
vn -1 -9.396848981817082e-15 2.220446049250313e-16
vn -1 0 2.220446049250313e-16
vn -1 0 2.220446049250313e-16
vn -1 0 2.220446049250313e-16
vn -1 0 2.220446049250313e-16
vn -1 0 2.220446049250313e-16
vn -1 0 2.220446049250313e-16
vn 2.220446049250313e-16 0 1
vn 0.0000018482583327714679 0.8243766018772718 -0.5660417107191538
vn -2.560060542179022e-8 0.9869150613610408 -0.16124100489246646
vn -2.216024253580152e-16 0.06307799769802083 -0.9980086002667554
vn -1.666720676247675e-16 0.6607293075272472 -0.750624261647973
vn 1.9278061920384428e-19 -0.9999996231084706 0.0008682067248106866
vn 2.220446049250313e-16 0 1
vn 0 -1 0
vn -1.587723013063401e-7 0 -0.9999999999999875
vn 0 -1 0
vn 0 1 0
vn 0 -1 0
vn 2.220446049250313e-16 0 1
vn -2.220446049250313e-16 0 -1
vn -1 0 -7.401486830834385e-17
vn 1 0 -2.220446049250313e-16
usemtl m_a2850d8f-774c-44fa-2845-1e3239eaa6c8
f 1/1/1 3/2/1 2/3/1
f 4/4/2 5/5/2 6/6/2 13/7/2
f 5/8/3 7/9/3 8/10/3 6/11/3
f 7/12/4 9/13/4 10/14/4 8/15/4
f 11/16/5 15/17/5 14/18/5 12/19/5
f 11/20/6 16/21/6 15/22/6
f 19/23/7 20/24/7 18/25/7 17/26/7
f 23/27/8 21/28/8 22/29/8
f 26/30/9 25/31/9 24/32/9 33/33/9
f 28/34/10 27/35/10 25/36/10 26/37/10
f 30/38/11 29/39/11 27/40/11 28/41/11
f 34/42/12 35/43/12 31/44/12 32/45/12
f 36/46/13 31/47/13 35/48/13
f 38/49/14 40/50/14 39/51/14 37/52/14
f 43/53/15 42/54/15 41/55/15 44/56/15
f 46/57/16 45/58/16 61/59/16 62/60/16
f 50/61/17 49/62/17 63/63/17 47/64/17
f 53/65/18 51/66/18 52/67/18 54/68/18
f 52/69/19 51/70/19 61/71/19 48/72/19
f 58/73/20 57/74/20 53/75/20 54/76/20
f 60/77/21 59/78/21 57/79/21 58/80/21
f 56/81/22 55/82/22 59/83/22 60/84/22
f 63/85/23 49/86/23 46/87/23 62/88/23
f 56/89/24 64/90/24 65/91/24 55/92/24
f 70/93/25 71/94/25 66/95/25 67/96/25
f 69/97/26 72/98/26 73/99/26 68/100/26
f 70/101/27 67/102/27 68/103/27 73/104/27
f 66/105/28 71/106/28 72/107/28 69/108/28
f 67/109/29 66/110/29 69/111/29 68/112/29
f 71/113/30 70/114/30 73/115/30 72/116/30