# Made in Blockbench 4.10.4
mtllib df21_general_slab.mtl

o cube
v 1.0000000000000009 0.5624999999999998 1.0000000000000004
v 8.881784197001252e-16 0.5624999999999998 1.0000000000000004
v 1.0000000000000009 0.9999999999999998 1.1102230246251565e-15
v 8.881784197001252e-16 0.9999999999999998 8.881784197001252e-16
v 1.0000000000000009 0.5624999999999998 0.750000000000001
v 8.881784197001252e-16 0.5624999999999998 0.7500000000000008
v 8.881784197001252e-16 0.6874999999999998 8.881784197001252e-16
v 1.0000000000000009 0.6874999999999998 1.1102230246251565e-15
v 1.0000000000000009 0.9999999999999998 1.0000000000000009
v 1.0000000000000009 0.6874999999999998 1.0000000000000009
v 8.881784197001252e-16 0.6874999999999998 1.0000000000000009
v 8.881784197001252e-16 0.9999999999999998 1.0000000000000009
vt 0.53125 0.875
vt 0.28125 0.875
vt 0.28125 0.765625
vt 0.53125 0.765625
vt 0.25 0.734375
vt 0 0.734375
vt 0 0.484375
vt 0.25 0.484375
vt 0.06901953125000004 1
vt 0.0065195312500000435 1
vt 0.0065195312500000435 0.75
vt 0.06901953125000004 0.75
vt 0.265625 0.53125
vt 0.515625 0.53125
vt 0.515625 0.609375
vt 0.265625 0.609375
vt 0.2591054687499999 0.75
vt 0.25910546874999996 1
vt 0.06901953125000004 1
vt 0.06901953124999999 0.75
vt 0.515625 0.734375
vt 0.265625 0.734375
vt 0.265625 0.65625
vt 0.515625 0.65625
vt 0.328125 0.625
vt 0.515625 0.65625
vt 0.265625 0.65625
vt 0.265625 0.625
vt 0.28125 0.921875
vt 0.53125 0.921875
vt 0.53125 1
vt 0.28125 1
vt 0.53125 0.921875
vt 0.28125 0.921875
vt 0.46875 0.890625
vt 0.53125 0.890625
vn -2.220446049250313e-16 -1.0150610510858574e-15 1
vn 0 1 0
vn 0 -1 0
vn 2.220446049250313e-16 0 -1
vn 3.65039081862933e-17 -0.9863939238321437 -0.1643989873053573
vn 1 0 2.220446049250313e-16
vn 1 0 2.220446049250313e-16
vn -1 0 -2.220446049250313e-16
vn -1 0 -2.220446049250313e-16
usemtl m_c95920ce-82ef-297f-b773-5f27e6152b2a
f 9/1/1 12/2/1 2/3/1 1/4/1
f 4/5/2 12/6/2 9/7/2 3/8/2
f 5/9/3 1/10/3 2/11/3 6/12/3
f 8/13/4 7/14/4 4/15/4 3/16/4
f 7/17/5 8/18/5 5/19/5 6/20/5
f 3/21/6 9/22/6 10/23/6 8/24/6
f 5/25/7 8/26/7 10/27/7 1/28/7
f 7/29/8 11/30/8 12/31/8 4/32/8
f 11/33/9 7/34/9 6/35/9 2/36/9