# Made in Blockbench 4.10.4
mtllib df21_dynamic_carport.mtl

o cuboid_selection_selection_selection_selection
v 0.9999999999999973 0.15174374999999984 0.12119999999999975
v 0.9999999999999973 0.15174374999999984 0.9999999999999997
v 0.9999999999999973 0.35791874999999984 0.4214749999999998
v 0.9999999999999973 0.35791874999999984 0.9992174920391058
v 0.9999999999999973 0.40548124999999957 0.4214749999999998
v 0.9999999999999973 0.40548124999999957 0.9999999999999997
v -2.6645352591003757e-15 -2.220446049250313e-16 0.125
v -2.6645352591003757e-15 0.15174374999999984 0.12119999999999997
v -2.6645352591003757e-15 0.15174374999999984 0.9999999999999999
v -2.6645352591003757e-15 0.35791874999999984 0.42147500000000004
v -2.6645352591003757e-15 0.35791874999999984 0.999217492039106
v -2.6645352591003757e-15 0.40548124999999957 0.42147500000000004
v -2.6645352591003757e-15 0.40548124999999957 0.9999999999999999
v 0.9999999999999973 -2.220446049250313e-16 0.12499999999999978
v 0.9999999999999973 0.15174374999999984 0.12119999999999975
v 0.9999999999999973 0.15174374999999984 0.9999999999999997
v 0.9999999999999973 0.15174345194498673 0.12120283114958474
v 0.9999999999999973 0.3579192238902926 0.42147484122769874
v -2.6645352591003757e-15 0.4999999999999998 0.9999999999999999
v 0.9999999999999973 0.15174345194498673 0.12120283114958474
v 0.9999999999999973 0.40548124999999957 0.42147484122769874
v 0.9999999999999973 0.4999999999999998 0.9999999999999997
v -2.6645352591003757e-15 -2.220446049250313e-16 -0.012370879575576588
v 0.9999999999999973 -2.220446049250313e-16 -0.01237087957557681
v -2.6645352591003757e-15 -0.09375000000000022 -0.018296241624168985
v 0.9999999999999973 -0.09375000000000022 -0.018293773841858263
v -2.6645352591003757e-15 -2.220446049250313e-16 0.9999999999999999
v 0.9999999999999973 -2.220446049250313e-16 0.9999999999999997
v -2.6645352591003757e-15 -0.09362558919249242 0.125
v 0.9999999999999973 -0.09362558919249242 0.12499999999999978
v -2.6645352591003757e-15 -2.220446049250313e-16 0.125
v 0.9999999999999973 -2.220446049250313e-16 0.12499999999999978
v -2.6645352591003757e-15 0.15174374999999984 0.12119999999999997
v -2.6645352591003757e-15 0.35791874999999984 0.42147500000000004
v -2.6645352591003757e-15 0.40548124999999957 0.42147500000000004
v -2.6645352591003757e-15 0.4999999999999998 1.5
v 0.9999999999999973 0.4999999999999998 1.4999999999999998
v 0.9999999999999973 -2.220446049250313e-16 1.4999999999999998
v -2.6645352591003757e-15 -2.220446049250313e-16 1.5
vt 0.3669078125 0.9644796875
vt 0.51134375 0.9644796875
vt 0.5864125 0.9129359375
vt 0.3667125 0.9129359375
vt 0.3667125 0.9763703125000001
vt 0.51134375 0.9763703125000001
vt 0.51134375 0.9644796875
vt 0.3669078125 0.9644796875
vt 0.3667125 1
vt 0.51134375 0.9763703125000001
vt 0.3667125 0.9763703125000001
vt 0.3042125 0.5066859375
vt 0.5239125 0.5066859375
vt 0.5229625 0.46875
vt 0.3042125 0.46875
vt 0.3044078125 0.5582296875
vt 0.44884375 0.5582296875
vt 0.5239125 0.5066859375
vt 0.3042125 0.5066859375
vt 0.3042125 0.5701203125000001
vt 0.44884375 0.5701203125000001
vt 0.44884375 0.5582296875
vt 0.3044078125 0.5582296875
vt 0.3042125 0.59375
vt 0.44884375 0.5701203125000001
vt 0.3042125 0.5701203125000001
vt 0.5542125 0.53125
vt 0.7739125 0.53125
vt 0.7729625 0.5
vt 0.5542125 0.5
vt 0.609375 0.859375
vt 0.609375 0.765625
vt 0.359375 0.765625
vt 0.359375 0.859375
vt 0.28125 0.421875
vt 0.28125 0.453125
vt 0.53125 0.453125
vt 0.53125 0.421875
vt 0.765625 0.546875
vt 0.515625 0.546875
vt 0.515625 0.59375
vt 0.765625 0.59375
vt 0.296875 0.609375
vt 0.296875 0.734375
vt 0.546875 0.734375
vt 0.546875 0.609375
vt 0.546875 1
vt 0.796875 1
vt 0.796875 0.96875
vt 0.546875 0.96875
vt 0.546875 0.484375
vt 0.796875 0.484375
vt 0.796875 0.46875
vt 0.546875 0.46875
vt 0.125 0.75
vt 0.125 1
vt 0.34375 1
vt 0.34375 0.75
vt 0.56802578125 0.6886578125
vt 0.56802578125 0.7120640625
vt 0.60236796875 0.7120640625
vt 0.60384921875 0.6886265625
vt 0.56802578125 0.6105015625
vt 0.56950703125 0.6339390625
vt 0.60384921875 0.6339390625
vt 0.60384921875 0.6105328125
vt 0.56950703125 0.6339390625
vt 0.60289921875 0.671875
vt 0.60384921875 0.6339390625
vt 0.56897578125 0.75
vt 0.60236796875 0.7120640625
vt 0.56802578125 0.7120640625
vt 0.546875 0.453125
vt 0.796875 0.453125
vt 0.796875 0.4375
vt 0.546875 0.4375
vt 0 0.46875
vt 0.125 0.46875
vt 0.125 0.34375
vt 0 0.34375
vt 0.125 0.75
vt 0 0.75
vt 0 1
vt 0.125 1
vt 0.265625 0.34375
vt 0.140625 0.34375
vt 0.140625 0.46875
vt 0.265625 0.46875
vt 0.13610078125000008 0.484375
vt 0.13610078125000008 0.734375
vt 0.2826492187499998 0.734375
vt 0.2826492187499998 0.484375
vt 0.004850781250000047 0.484375
vt 0.004850781250000047 0.734375
vt 0.12985078125000005 0.734375
vt 0.12985078125000005 0.484375
vn -1 0 2.220446049250313e-16
vn -1 0 2.220446049250313e-16
vn -1 0 2.220446049250313e-16
vn -1 0 2.220446049250313e-16
vn -1 0 2.220446049250313e-16
vn -1 0 2.220446049250313e-16
vn -1 0 2.220446049250313e-16
vn -1 0 2.220446049250313e-16
vn 0.0000018482583331524773 0.8243766018772717 -0.5660417107191538
vn -2.216024253580152e-16 0.06307799769802083 -0.9980086002667554
vn -1.666720676247677e-16 0.6607293075272461 -0.7506242616479739
vn 2.220446049250313e-16 0 1
vn 1.9278061920418834e-19 -0.9999996231084706 0.0008682067248122361
vn 2.220446049250313e-16 0 1
vn 0 -1 0
vn -1 0 2.220446049250313e-16
vn 1 0 -2.220446049250313e-16
vn 1 0 -2.220446049250313e-16
vn -1 0 2.220446049250313e-16
vn -1.5877230130634047e-7 0 -0.9999999999999875
vn 1 0 -2.220446049250313e-16
vn 0 -1 0
vn -1 0 2.220446049250313e-16
vn -3.58026952290626e-17 0.9869150613610413 -0.16124100489246576
vn 0 1 0
usemtl m_ded11dea-fc5e-a810-0037-0396c18dd485
f 4/1/1 3/2/1 1/3/1 2/4/1
f 6/5/2 5/6/2 3/7/2 4/8/2
f 22/9/3 5/10/3 6/11/3
f 9/12/4 8/13/4 7/14/4 27/15/4
f 11/16/5 10/17/5 8/18/5 9/19/5
f 13/20/6 12/21/6 10/22/6 11/23/6
f 19/24/7 12/25/7 13/26/7
f 16/27/8 15/28/8 14/29/8 28/30/8
f 18/31/9 17/32/9 33/33/9 34/34/9
f 25/35/10 23/36/10 24/37/10 26/38/10
f 24/39/11 23/40/11 33/41/11 20/42/11
f 38/43/12 37/44/12 36/45/12 39/46/12
f 30/47/13 29/48/13 25/49/13 26/50/13
f 32/51/14 31/52/14 29/53/14 30/54/14
f 28/55/15 27/56/15 31/57/15 32/58/15
f 29/59/16 31/60/16 23/61/16 25/62/16
f 26/63/17 24/64/17 32/65/17 30/66/17
f 24/67/18 20/68/18 32/69/18
f 33/70/19 23/71/19 31/72/19
f 35/73/20 21/74/20 18/75/20 34/76/20
f 22/77/21 37/78/21 38/79/21 28/80/21
f 28/81/22 38/82/22 39/83/22 27/84/22
f 27/85/23 39/86/23 36/87/23 19/88/23
f 19/89/24 22/90/24 21/91/24 35/92/24
f 36/93/25 37/94/25 22/95/25 19/96/25