# Made in Blockbench 4.11.1
mtllib m1_air_vent_carport_2.mtl

o cuboid_selection
v 1 0.4375 1
v 1 0.4375 0.5
v 0 0.4375 1
v 0 0.4375 0.5
v 1 0.375 0.3125
v 0 0.375 0.3125
v 1 0.1875 0.125
v 0 0.1875 0.125
v 0 0 1
v 1 0 1
v 1 0 0
v 0 0 0
v 0.48050882699392267 0.4921875 0.45610643266869255
v 0.42084669233130767 0.4921875 0.3964442980060776
v 0.36118455766869273 0.4921875 0.5754307019939225
v 0.30152242300607773 0.4921875 0.5157685673313075
v 0.38589742300607766 0.49201874999999995 0.6845185673313078
v 0.38589742300607766 0.49201874999999995 0.5157685673313075
v 0.3015224230060777 0.49201874999999995 0.6845185673313078
v 0.3015224230060777 0.49201874999999995 0.5157685673313075
v 0.4208466923313076 0.4921875 0.8038428366565376
v 0.48050882699392267 0.4921875 0.7441807019939226
v 0.3015224230060777 0.4921875 0.6845185673313076
v 0.36118455766869273 0.4921875 0.6248564326686925
v 0.5895966923313076 0.49201874999999995 0.8038428366565373
v 0.5895966923313076 0.49201874999999995 0.7194678366565376
v 0.4208466923313076 0.49201874999999995 0.8038428366565373
v 0.4208466923313076 0.49201874999999995 0.7194678366565376
v 0.5895966923313076 0.49201874999999995 0.4808192980060775
v 0.5895966923313076 0.49201874999999995 0.3964442980060776
v 0.4208466923313076 0.49201874999999995 0.4808192980060775
v 0.4208466923313076 0.49201874999999995 0.3964442980060776
v 0.7089209616565376 0.4921875 0.6845185673313076
v 0.6492588269939226 0.4921875 0.6248564326686925
v 0.5895966923313077 0.4921875 0.8038428366565376
v 0.5299345576686927 0.4921875 0.7441807019939225
v 0.7089209616565374 0.49201874999999995 0.6845185673313078
v 0.7089209616565374 0.49201874999999995 0.5157685673313075
v 0.6245459616565375 0.49201874999999995 0.6845185673313078
v 0.6245459616565375 0.49201874999999995 0.5157685673313075
v 0.6492588269939226 0.4921875 0.5754307019939225
v 0.7089209616565376 0.4921875 0.5157685673313075
v 0.5299345576686927 0.4921875 0.45610643266869255
v 0.5895966923313076 0.4921875 0.3964442980060776
v 0.5685029423313076 0.5484374999999999 0.7194678366565374
v 0.5685029423313076 0.33749999999999997 0.7194678366565374
v 0.44194044233130775 0.5484374999999999 0.7194678366565374
v 0.44194044233130775 0.33749999999999997 0.7194678366565374
v 0.5685029423313076 0.5484374999999999 0.4808192980060775
v 0.5685029423313076 0.33749999999999997 0.4808192980060775
v 0.44194044233130775 0.5484374999999999 0.4808192980060775
v 0.44194044233130775 0.33749999999999997 0.4808192980060775
v 0.38589742300607766 0.5484374999999999 0.6634248173313075
v 0.38589742300607766 0.5484374999999999 0.5368623173313075
v 0.38589742300607766 0.33749999999999997 0.6634248173313075
v 0.38589742300607766 0.33749999999999997 0.5368623173313075
v 0.6245459616565375 0.5484374999999999 0.6634248173313075
v 0.6245459616565375 0.5484374999999999 0.5368623173313075
v 0.6245459616565375 0.33749999999999997 0.6634248173313075
v 0.6245459616565375 0.33749999999999997 0.5368623173313075
v 0.5685029423313077 0.5484374999999999 0.7194678366565372
v 0.6245853489141658 0.5484374999999999 0.6633854300736792
v 0.5685029423313077 0.33749999999999997 0.7194678366565372
v 0.6245853489141658 0.33749999999999997 0.6633854300736792
v 0.44194044247355346 0.5484374999999999 0.719467836798783
v 0.44194044247355346 0.33749999999999997 0.719467836798783
v 0.38585803589069534 0.5484374999999999 0.6633854302159249
v 0.38585803589069534 0.33749999999999997 0.6633854302159249
v 0.44190105535817054 0.5484374999999999 0.48077991074844917
v 0.44190105535817054 0.33749999999999997 0.48077991074844917
v 0.38581864877531247 0.5484374999999999 0.5368623173313074
v 0.38581864877531247 0.33749999999999997 0.5368623173313074
v 0.6245459617987832 0.5484374999999999 0.5368623174735532
v 0.5684635552159252 0.5484374999999999 0.48077991089069494
v 0.6245459617987832 0.33749999999999997 0.5368623174735532
v 0.5684635552159252 0.33749999999999997 0.48077991089069494
v 0.3138788556747705 0.84358125 0.6774873173313077
v 0.36359730122694955 0.72405 0.7272057628834869
v 0.3138788556747705 0.72405 0.6774873173313077
v 0.36359730122694955 0.84358125 0.7272057628834869
v 0.36359730122694955 0.72405 0.7272057628834869
v 0.3138788556747705 0.72405 0.6774873173313077
v 0.696475243558257 0.84358125 0.6717659294478209
v 0.6467567980060779 0.72405 0.7214843750000001
v 0.6467567980060779 0.84358125 0.7214843750000001
v 0.696475243558257 0.72405 0.6717659294478209
v 0.5588661730060778 0.84358125 0.42084669233130767
v 0.5588661730060778 0.72405 0.42084669233130767
v 0.4885536730060777 0.84358125 0.42084669233130767
v 0.4885536730060777 0.72405 0.42084669233130767
v 0.42084669233130767 0.4921875 0.3964442980060776
v 0.30152242300607773 0.4921875 0.5157685673313075
v 0.3015224230060777 0.6928 0.6845185673313078
v 0.3015224230060777 0.6928 0.5157685673313075
v 0.3015224230060777 0.49201874999999995 0.6845185673313078
v 0.3015224230060777 0.49201874999999995 0.5157685673313075
v 0.4208466923313076 0.4921875 0.8038428366565376
v 0.3015224230060777 0.4921875 0.6845185673313076
v 0.5895966923313076 0.6928 0.8038428366565373
v 0.5895966923313076 0.49201874999999995 0.8038428366565373
v 0.4208466923313076 0.6928 0.8038428366565373
v 0.4208466923313076 0.49201874999999995 0.8038428366565373
v 0.5895966923313076 0.6928 0.3964442980060776
v 0.5895966923313076 0.49201874999999995 0.3964442980060776
v 0.4208466923313076 0.6928 0.3964442980060776
v 0.4208466923313076 0.49201874999999995 0.3964442980060776
v 0.7089209616565376 0.4921875 0.6845185673313076
v 0.5895966923313077 0.4921875 0.8038428366565376
v 0.7089209616565374 0.6928 0.6845185673313078
v 0.7089209616565374 0.6928 0.5157685673313075
v 0.7089209616565374 0.49201874999999995 0.6845185673313078
v 0.7089209616565374 0.49201874999999995 0.5157685673313075
v 0.7089209616565376 0.4921875 0.5157685673313075
v 0.5895966923313076 0.4921875 0.3964442980060776
vt 0 0.734375
vt 0.25 0.734375
vt 0.25 0.609375
vt 0 0.609375
vt 0.25 0.609375
vt 0.25 0.5599640625
vt 0 0.5599640625
vt 0 0.609375
vt 0.265625 0.578125
vt 0.515625 0.578125
vt 0.515625 0.5217875
vt 0.265625 0.5217875
vt 0 0.49367343750000003
vt 0 0.5599640625
vt 0.25 0.5599640625
vt 0.25 0.49367343750000003
vt 0.25 1
vt 0.25 0.75
vt 0 0.75
vt 0 1
vt 0.265625 0.890625
vt 0.265625 1
vt 0.515625 1
vt 0.515625 0.890625
vt 0.390625 0.859375
vt 0.515625 0.859375
vt 0.515625 0.75
vt 0.34375 0.84375
vt 0.390625 0.859375
vt 0.515625 0.75
vt 0.296875 0.796875
vt 0.34375 0.84375
vt 0.515625 0.75
vt 0.265625 0.75
vt 0.296875 0.796875
vt 0.515625 0.75
vt 0.265625 0.71875
vt 0.390625 0.71875
vt 0.265625 0.609375
vt 0.390625 0.71875
vt 0.4375 0.703125
vt 0.265625 0.609375
vt 0.4375 0.703125
vt 0.484375 0.65625
vt 0.265625 0.609375
vt 0.484375 0.65625
vt 0.515625 0.609375
vt 0.265625 0.609375
vt 0.78125 0.6875
vt 0.78125 0.75
vt 0.875 0.75
vt 0.875 0.6875
vt 0 0.09375
vt 0 0.1875
vt 0.0625 0.1875
vt 0.0625 0.09375
vt 0.8125 0.9375
vt 0.8125 1
vt 0.90625 1
vt 0.90625 0.9375
vt 0.875 0.65625
vt 0.875 0.6875
vt 0.96875 0.6875
vt 0.96875 0.65625
vt 0.4375 0.09375
vt 0.4375 0.125
vt 0.53125 0.125
vt 0.53125 0.09375
vt 0.8125 0.875
vt 0.8125 0.9375
vt 0.90625 0.9375
vt 0.90625 0.875
vt 0.53125 0.03125
vt 0.53125 0.125
vt 0.5625 0.125
vt 0.5625 0.03125
vt 0.8125 0.5
vt 0.8125 0.5625
vt 0.90625 0.5625
vt 0.90625 0.5
vt 0.1875 0.1875
vt 0.1875 0.3125
vt 0.125 0.3125
vt 0.125 0.1875
vt 0.75 0.34375
vt 0.75 0.46875
vt 0.6875 0.46875
vt 0.6875 0.34375
vt 0.25 0.125
vt 0.25 0.25
vt 0.1875 0.25
vt 0.1875 0.125
vt 0.375 0.125
vt 0.375 0.25
vt 0.3125 0.25
vt 0.3125 0.125
vt 0.21875 0
vt 0.21875 0.125
vt 0.1875 0.125
vt 0.1875 0
vt 0.3125 0
vt 0.3125 0.125
vt 0.28125 0.125
vt 0.28125 0
vt 0.34375 0
vt 0.34375 0.125
vt 0.3125 0.125
vt 0.3125 0
vt 0.40625 0
vt 0.40625 0.125
vt 0.375 0.125
vt 0.375 0
vt 0 1
vt 0 1
vt 0 0.96875
vt 0 0.96875
vt 0.21875 0.5625
vt 0.21875 0.6875
vt 0.125 0.6875
vt 0.125 0.5625
vt 0.3125 0.5
vt 0.3125 0.625
vt 0.21875 0.625
vt 0.21875 0.5
vt 0.40625 0.5
vt 0.40625 0.625
vt 0.3125 0.625
vt 0.3125 0.5
vt 0.09375 0.4375
vt 0.09375 0.5625
vt 0 0.5625
vt 0 0.4375
vt 0.1875 0.4375
vt 0.1875 0.5625
vt 0.09375 0.5625
vt 0.09375 0.4375
vt 0.5625 0.625
vt 0.5625 0.75
vt 0.46875 0.75
vt 0.46875 0.625
vt 0.28125 0.375
vt 0.28125 0.5
vt 0.1875 0.5
vt 0.1875 0.375
vt 0.46875 0.375
vt 0.46875 0.5
vt 0.375 0.5
vt 0.375 0.375
vt 0 1
vt 0 0.7963
vt 0.084375 0.7963
vt 0.084375 1
vt 0.05966250000000001 0.9403375
vt 0 1
vt 0 0.7963
vt 0.05966250000000001 0.8559625
vt 0 0.8559625
vt 0.059659375000000014 0.7963
vt 0.059659375000000014 1
vt 0 0.9403375
vn 0 1 0
vn 0 0.948683298050514 -0.316227766016838
vn 0 0.5547001962252291 -0.8320502943378437
vn 0 0.7071067811865476 -0.7071067811865476
vn 0 -1 0
vn 0 0 1
vn 1 0 0
vn 1 0 0
vn 1 0 0
vn 1 0 0
vn -1 0 0
vn -1 0 0
vn -1 0 0
vn -1 0 0
vn 0 -1 0
vn 0 -1 0
vn 0 -1 0
vn 0 -1 0
vn 0 -1 0
vn 0 -1 0
vn 0 -1 0
vn 0 -1 0
vn 0 0 1
vn 0 0 -1
vn -1 0 0
vn 1 0 0
vn 0.7071067811865468 0 0.7071067811865483
vn -0.7071067811865476 0 0.7071067811865476
vn -0.7071067811865486 0 -0.7071067811865466
vn 0.7071067811865489 0 -0.7071067811865461
vn 0 0 0
vn -0.7071067811865474 -1.9566234141488875e-16 -0.7071067811865477
vn -1 0 0
vn -0.7071067811865465 7.826493656595567e-16 0.7071067811865488
vn 0 0 1
vn 0 0 -1
vn 0.7071067811865469 -1.4563933236334347e-30 0.7071067811865482
vn 1 0 0
vn 0.7071067811865479 0 -0.7071067811865472
vn 0 1 0
vn 0 1 0
vn 0 1 0
usemtl m_6e2f96b1-2427-e96a-06fb-73d0480d2386
f 3/1/1 1/2/1 2/3/1 4/4/1
f 2/5/2 5/6/2 6/7/2 4/8/2
f 8/9/3 7/10/3 11/11/3 12/12/3
f 8/13/4 6/14/4 5/15/4 7/16/4
f 11/17/5 10/18/5 9/19/5 12/20/5
f 10/21/6 1/22/6 3/23/6 9/24/6
f 2/25/7 1/26/7 10/27/7
f 5/28/8 2/29/8 10/30/8
f 7/31/9 5/32/9 10/33/9
f 11/34/10 7/35/10 10/36/10
f 3/37/11 4/38/11 9/39/11
f 4/40/12 6/41/12 9/42/12
f 6/43/13 8/44/13 9/45/13
f 8/46/14 12/47/14 9/48/14
usemtl m_077040de-2272-4f4d-2387-8c0d0c3cdd48
f 14/49/15 13/50/15 15/51/15 16/52/15
f 18/53/16 17/54/16 19/55/16 20/56/16
f 22/57/17 21/58/17 23/59/17 24/60/17
f 26/61/18 25/62/18 27/63/18 28/64/18
f 30/65/19 29/66/19 31/67/19 32/68/19
f 34/69/20 33/70/20 35/71/20 36/72/20
f 38/73/21 37/74/21 39/75/21 40/76/21
f 42/77/22 41/78/22 43/79/22 44/80/22
f 46/81/23 45/82/23 47/83/23 48/84/23
f 52/85/24 51/86/24 49/87/24 50/88/24
f 55/89/25 53/90/25 54/91/25 56/92/25
f 60/93/26 58/94/26 57/95/26 59/96/26
f 64/97/27 62/98/27 61/99/27 63/100/27
f 66/101/28 65/102/28 67/103/28 68/104/28
f 72/105/29 71/106/29 69/107/29 70/108/29
f 76/109/30 74/110/30 73/111/30 75/112/30
f 78/113/31 81/114/31 79/115/31 82/116/31
f 92/117/32 94/118/32 105/119/32 91/120/32
f 95/121/33 93/122/33 94/123/33 96/124/33
f 97/125/34 101/126/34 93/127/34 98/128/34
f 100/129/35 99/130/35 101/131/35 102/132/35
f 106/133/36 105/134/36 103/135/36 104/136/36
f 107/137/37 109/138/37 99/139/37 108/140/37
f 112/141/38 110/142/38 109/143/38 111/144/38
f 114/145/39 103/146/39 110/147/39 113/148/39
f 105/149/40 101/150/40 99/151/40 103/152/40
f 110/153/41 103/154/41 99/155/41 109/156/41
f 93/157/42 101/158/42 105/159/42 94/160/42