# Made in Blockbench 4.11.1
mtllib m1_general_carport.mtl

o cuboid_selection
v 1 0.4375 1
v 1 0.4375 0.5
v 0 0.4375 1
v 0 0.4375 0.5
v 1 0.375 0.3125
v 0 0.375 0.3125
v 1 0.1875 0.125
v 0 0.1875 0.125
v 0 0 1
v 1 0 1
v 1 0 0
v 0 0 0
vt 0 0.734375
vt 0.25 0.734375
vt 0.25 0.609375
vt 0 0.609375
vt 0.25 0.609375
vt 0.25 0.5599640625
vt 0 0.5599640625
vt 0 0.609375
vt 0.265625 0.578125
vt 0.515625 0.578125
vt 0.515625 0.5217875
vt 0.265625 0.5217875
vt 0 0.49367343750000003
vt 0 0.5599640625
vt 0.25 0.5599640625
vt 0.25 0.49367343750000003
vt 0.25 1
vt 0.25 0.75
vt 0 0.75
vt 0 1
vt 0.265625 0.890625
vt 0.265625 1
vt 0.515625 1
vt 0.515625 0.890625
vt 0.390625 0.859375
vt 0.515625 0.859375
vt 0.515625 0.75
vt 0.34375 0.84375
vt 0.390625 0.859375
vt 0.515625 0.75
vt 0.296875 0.796875
vt 0.34375 0.84375
vt 0.515625 0.75
vt 0.265625 0.75
vt 0.296875 0.796875
vt 0.515625 0.75
vt 0.265625 0.71875
vt 0.390625 0.71875
vt 0.265625 0.609375
vt 0.390625 0.71875
vt 0.4375 0.703125
vt 0.265625 0.609375
vt 0.4375 0.703125
vt 0.484375 0.65625
vt 0.265625 0.609375
vt 0.484375 0.65625
vt 0.515625 0.609375
vt 0.265625 0.609375
vn 0 1 0
vn 0 0.948683298050514 -0.316227766016838
vn 0 0.5547001962252291 -0.8320502943378437
vn 0 0.7071067811865476 -0.7071067811865476
vn 0 -1 0
vn 0 0 1
vn 1 0 0
vn 1 0 0
vn 1 0 0
vn 1 0 0
vn -1 0 0
vn -1 0 0
vn -1 0 0
vn -1 0 0
usemtl m_03f13e63-2cfb-170b-f637-d8b8e70e7a35
f 3/1/1 1/2/1 2/3/1 4/4/1
f 2/5/2 5/6/2 6/7/2 4/8/2
f 8/9/3 7/10/3 11/11/3 12/12/3
f 8/13/4 6/14/4 5/15/4 7/16/4
f 11/17/5 10/18/5 9/19/5 12/20/5
f 10/21/6 1/22/6 3/23/6 9/24/6
f 2/25/7 1/26/7 10/27/7
f 5/28/8 2/29/8 10/30/8
f 7/31/9 5/32/9 10/33/9
f 11/34/10 7/35/10 10/36/10
f 3/37/11 4/38/11 9/39/11
f 4/40/12 6/41/12 9/42/12
f 6/43/13 8/44/13 9/45/13
f 8/46/14 12/47/14 9/48/14