# Made in Blockbench 4.10.4
mtllib tkz2_motor_pony_wheel.mtl

o 电机轮
v -1.215199999999999 -2.2204460492502983e-16 -2.6982857806294933e-16
v -1.2152000024454213 -0.019201917342805106 -0.071662497765247
v -1.2152000028299412 0.019201900662385297 -0.07166250223475229
v -1.215199999999999 -4.440892292315209e-16 -4.3636200591477315e-16
v -1.2151999991774154 -0.052460597102861405 -0.05246058489194733
v -1.2152000015264657 -0.0192019173428051 -0.0716624977652474
v -1.215199999999999 -4.4408919046859815e-16 -1.0329509852722853e-16
v -1.2151999995741143 -0.07166250223475201 -0.019201900662385588
v -1.2152000019274414 -0.0524605971028623 -0.052460584891947167
v -1.215199999999999 1.110222766205664e-16 -4.918732217509019e-16
v -1.2151999999999992 0.019201909002595424 -0.07166250000000021
v -1.2151999999999994 0.05246059099740467 -0.052460590997404924
v -1.215199999999999 2.2204460492502983e-16 -2.698286297468463e-16
v -1.2151999958198147 0.05246059099740457 0.052460590997404626
v -1.2151999968432154 0.01920190900259529 0.0716624999999996
v -1.215199999999999 2.220445790830813e-16 -4.918732346718761e-16
v -1.2151999984418294 0.07166249999999985 0.019201909002595167
v -1.2151999985698405 0.052460590997404556 0.05246059099740485
v -1.215199999999999 4.4408918400811113e-16 -4.918732605138246e-16
v -1.2151999965030915 0.0716625000000001 -0.01920190900259509
v -1.2151999975228738 0.07166250000000007 0.01920190900259539
v -1.215199999999999 2.220445532411328e-16 -7.139178395969059e-16
v -1.2151999989456412 0.052460590997404896 -0.0524605909974047
v -1.2151999992531175 0.07166250000000053 -0.01920190900259598
v -1.215199999999999 0 -2.698286039048978e-16
v -1.2151999966658287 -0.07166250134207189 0.019201903993913458
v -1.2151999976381527 -0.07166249865792751 -0.01920191401127711
v -1.215199999999999 2.2204463076697836e-16 -4.778402482181646e-17
v -1.2151999991122313 -0.05246059466401366 0.05246058733079468
v -1.2151999994158544 -0.0716625013420719 0.019201903993913236
v -1.215199999999999 2.220446566089269e-16 1.7426058010321337e-16
v -1.2151999968182479 -0.019201914011277035 0.07166249865792693
v -1.2151999981932757 -0.05246059466401399 0.0524605873307949
v -1.215199999999999 4.440892356920081e-16 -4.778405066376494e-17
v -1.215199998821106 0.01920190399391375 0.07166250134207175
v -1.2151999995682738 -0.019201914011276605 0.07166249865792781
v -1.2151999999999992 0.019201909002595424 -0.07166250000000066
v -1.0204249999999992 0.019201909002596648 -0.07166250000000053
v -1.2151999999999994 0.05246059099740467 -0.052460590997405146
v -1.0204249999999995 0.052460590997405895 -0.05246059099740503
v -1.2151999999999996 0.07166250000000009 -0.01920190900259598
v -1.0204249999999997 0.07166250000000131 -0.019201909002595864
v -1.2151999999999996 0.07166250000000006 0.019201909002594723
v -1.0204249999999997 0.07166250000000128 0.019201909002594837
v -1.2151999999999994 0.05246059099740477 0.05246059099740418
v -1.0204249999999995 0.05246059099740589 0.0524605909974043
v -1.2151999999999992 0.01920190900259539 0.07166249999999938
v -1.0204249999999992 0.019201909002596614 0.0716624999999995
v -1.215199999999999 -0.01920190900259509 0.07166249999999946
v -1.020424999999999 -0.019201909002593977 0.07166249999999957
v -1.2151999999999987 -0.052460590997404556 0.05246059099740416
v -1.0204249999999988 -0.052460590997403335 0.05246059099740427
v -1.2151999999999987 -0.07166249999999987 0.01920190900259477
v -1.0204249999999986 -0.07166249999999864 0.01920190900259489
v -1.2151999999999987 -0.07166249999999984 -0.01920190900259593
v -1.0204249999999986 -0.07166249999999862 -0.019201909002595812
v -1.2151999999999987 -0.05246059099740455 -0.05246059099740517
v -1.0204249999999988 -0.05246059099740333 -0.05246059099740505
v -1.215199999999999 -0.019201909002595167 -0.0716625000000008
v -1.020424999999999 -0.019201909002593942 -0.07166250000000068
vt 0.8543497756170951 0.5290146196160475
vt 0.7910363638505156 0.5290146196160475
vt 0.7995588368547626 0.4276924362650262
vt 0.8543497756170951 0.5290146196160475
vt 0.7910363638505156 0.5290146196160475
vt 0.7995588368547626 0.4276924362650262
vt 0.8543497756170951 0.5290146196160475
vt 0.7910363638505156 0.5290146196160475
vt 0.7995588368547626 0.4276924362650262
vt 0.8543497756170951 0.5290146196160475
vt 0.7910363638505156 0.5290146196160475
vt 0.7995588368547626 0.4276924362650262
vt 0.8543497756170951 0.5290146196160475
vt 0.7910363638505156 0.5290146196160475
vt 0.7995588368547626 0.4276924362650262
vt 0.8543497756170951 0.5290146196160475
vt 0.7910363638505156 0.5290146196160475
vt 0.7995588368547626 0.4276924362650262
vt 0.8543497756170951 0.5290146196160475
vt 0.7910363638505156 0.5290146196160475
vt 0.7995588368547626 0.4276924362650262
vt 0.8543497756170951 0.5290146196160475
vt 0.7910363638505156 0.5290146196160475
vt 0.7995588368547626 0.4276924362650262
vt 0.8543497756170951 0.5290146196160475
vt 0.7910363638505156 0.5290146196160475
vt 0.7995588368547626 0.4276924362650262
vt 0.8543497756170951 0.5290146196160475
vt 0.7910363638505156 0.5290146196160475
vt 0.7995588368547626 0.4276924362650262
vt 0.8543497756170951 0.5290146196160475
vt 0.7910363638505156 0.5290146196160475
vt 0.7995588368547626 0.4276924362650262
vt 0.8543497756170951 0.5290146196160475
vt 0.7910363638505156 0.5290146196160475
vt 0.7995588368547626 0.4276924362650262
vt 0.457925 0.33685312500000053
vt 0.4675265625 0.33685312500000053
vt 0.4675265625 0.43320312500000047
vt 0.457925 0.43320312500000047
vt 0.07934843750000001 0.6962281250000005
vt 0.08895 0.6962281250000005
vt 0.08895 0.7925781249999999
vt 0.07934843750000001 0.7925781249999999
vt 0.08895 0.6962281250000005
vt 0.09855 0.6962281250000005
vt 0.09855 0.7925781249999999
vt 0.08895 0.7925781249999999
vt 0.09855 0.6962281250000005
vt 0.10815156249999999 0.6962281250000005
vt 0.10815156249999999 0.7925781249999999
vt 0.09855 0.7925781249999999
vt 0.6105984375 0.47747812500000053
vt 0.6202 0.47747812500000053
vt 0.6202 0.5738281250000005
vt 0.6105984375 0.5738281250000005
vt 0.6202 0.47747812500000053
vt 0.6298 0.47747812500000053
vt 0.6298 0.5738281250000005
vt 0.6202 0.5738281250000005
vt 0.6298 0.47747812500000053
vt 0.6394015625 0.47747812500000053
vt 0.6394015625 0.5738281250000005
vt 0.6298 0.5738281250000005
vt 0.5949734375 0.6181031250000005
vt 0.604575 0.6181031250000005
vt 0.604575 0.7144531250000005
vt 0.5949734375 0.7144531250000005
vt 0.604575 0.6181031250000005
vt 0.614175 0.6181031250000005
vt 0.614175 0.7144531250000005
vt 0.604575 0.7144531250000005
vt 0.614175 0.6181031250000005
vt 0.6237765625 0.6181031250000005
vt 0.6237765625 0.7144531250000005
vt 0.614175 0.7144531250000005
vt 0.4387234375 0.33685312500000053
vt 0.448325 0.33685312500000053
vt 0.44832500000000003 0.43320312500000047
vt 0.4387234375 0.43320312500000047
vt 0.44832500000000003 0.33685312500000053
vt 0.457925 0.33685312500000053
vt 0.457925 0.43320312500000047
vt 0.44832500000000003 0.43320312500000047
vn -0.9999999999999993 -1.0012540681926563e-8 3.68070097823799e-8
vn -0.9999999999999982 -5.051671210818338e-8 3.483669293693098e-8
vn -0.9999999999999982 -2.1566230437442112e-8 5.8307007505167564e-8
vn -1 -7.692899037736399e-15 8.492690202174867e-16
vn -0.9999999999999983 4.867376137487663e-8 3.1008607958972904e-8
vn -0.9999999999999998 1.9723286720673524e-8 7.538289969005514e-9
vn -0.9999999999999988 4.1681720587715444e-8 -2.6554189513571685e-8
vn -0.9999999999999999 6.880588549238236e-9 -1.3217502001499897e-8
vn -0.9999999999999989 -3.9741962669798986e-8 2.5318417578768924e-8
vn -1 -4.940833456040321e-9 1.1981730041941789e-8
vn -0.9999999999999989 1.3604899719180159e-8 4.8044531954973946e-8
vn -0.9999999999999998 1.9455562195590543e-8 1.1237525273280361e-8
vn -2.6271925619417483e-15 0.5000000000000047 -0.8660254037844359
vn -5.14651690015386e-15 0.8660254037844367 -0.5000000000000038
vn -6.290237825505085e-15 1 7.39332655071357e-16
vn -5.257539235071005e-15 0.86602540378444 0.4999999999999977
vn -3.660168670191292e-15 0.4999999999999969 0.8660254037844406
vn -5.953901718532316e-16 1.985051569801844e-15 1
vn 2.6271925379535086e-15 -0.49999999999999795 0.86602540378444
vn 5.146516928278003e-15 -0.8660254037844394 0.49999999999999906
vn 6.2902378296409884e-15 -1 -7.39332655071357e-16
vn 5.735857070721445e-15 -0.8660254037844386 -0.5000000000000002
vn 3.660168718167765e-15 -0.5000000000000056 -0.8660254037844356
vn 5.953901063208052e-16 3.79678480641862e-15 -1
usemtl m_1b75573a-ee73-5246-37a7-23010d3a3f5d
f 3/1/1 2/2/1 1/3/1
f 6/4/2 5/5/2 4/6/2
f 9/7/3 8/8/3 7/9/3
f 12/10/4 11/11/4 10/12/4
f 15/13/5 14/14/5 13/15/5
f 18/16/6 17/17/6 16/18/6
f 21/19/7 20/20/7 19/21/7
f 24/22/8 23/23/8 22/24/8
f 27/25/9 26/26/9 25/27/9
f 30/28/10 29/29/10 28/30/10
f 33/31/11 32/32/11 31/33/11
f 36/34/12 35/35/12 34/36/12
f 37/37/13 39/38/13 40/39/13 38/40/13
f 39/41/14 41/42/14 42/43/14 40/44/14
f 41/45/15 43/46/15 44/47/15 42/48/15
f 43/49/16 45/50/16 46/51/16 44/52/16
f 45/53/17 47/54/17 48/55/17 46/56/17
f 47/57/18 49/58/18 50/59/18 48/60/18
f 49/61/19 51/62/19 52/63/19 50/64/19
f 51/65/20 53/66/20 54/67/20 52/68/20
f 53/69/21 55/70/21 56/71/21 54/72/21
f 55/73/22 57/74/22 58/75/22 56/76/22
f 57/77/23 59/78/23 60/79/23 58/80/23
f 59/81/24 37/82/24 38/83/24 60/84/24