# Made in Blockbench 4.10.4
mtllib tkz2_top.mtl

o 顶
v 1 0.5 2.220446049250313e-16
v 0 0.5 0
v 1 0.25 2.220446049250313e-16
v 0 0.25 0
v 0.9999999999999998 0.5 1.0000000000000002
v -2.220446049250313e-16 0.5 1
v 0.9999999999999998 0.25 1.0000000000000002
v -2.220446049250313e-16 0.25 1
v 0.6249999999999999 0.3125 0.3750000000000001
v 0.3749999999999999 0.3125 0.3750000000000001
v 0.6249999999999999 0.0625 0.3750000000000001
v 0.3749999999999999 0.0625 0.3750000000000001
v 0.6249999999999999 0.3125 0.6250000000000001
v 0.3749999999999999 0.3125 0.6250000000000001
v 0.6249999999999999 0.0625 0.6250000000000001
v 0.3749999999999999 0.0625 0.6250000000000001
vt 0.515625 1
vt 0.265625 1
vt 0.265625 0.9375
vt 0.515625 0.9375
vt 0.515625 0.734375
vt 0.515625 0.796875
vt 0.265625 0.796875
vt 0.265625 0.734375
vt 0 0.75
vt 0.25 0.75
vt 0.25 1
vt 0 1
vt 0.25 0.484375
vt 0.25 0.734375
vt 0 0.734375
vt 0 0.484375
vt 0.515625 0.53125
vt 0.515625 0.59375
vt 0.265625 0.59375
vt 0.265625 0.53125
vt 0.25 0.46875
vt 0 0.46875
vt 0 0.40625
vt 0.25 0.40625
vt 0.59375 0.84375
vt 0.53125 0.84375
vt 0.53125 0.828125
vt 0.59375 0.828125
vt 0.59375 0.796875
vt 0.59375 0.8125
vt 0.53125 0.8125
vt 0.53125 0.796875
vt 0.53125 0.9375
vt 0.59375 0.9375
vt 0.59375 1
vt 0.53125 1
vt 0.59375 0.859375
vt 0.59375 0.921875
vt 0.53125 0.921875
vt 0.53125 0.859375
vt 0.59375 0.765625
vt 0.59375 0.78125
vt 0.53125 0.78125
vt 0.53125 0.765625
vt 0.59375 0.75
vt 0.53125 0.75
vt 0.53125 0.734375
vt 0.59375 0.734375
vn 2.220446049250313e-16 0 -1
vn -2.220446049250313e-16 0 1
vn 0 1 0
vn 0 -1 0
vn 1 0 2.220446049250313e-16
vn -1 0 -2.220446049250313e-16
vn 2.220446049250313e-16 0 -1
vn -2.220446049250313e-16 0 1
vn 0 1 0
vn 0 -1 0
vn 1 0 2.220446049250313e-16
vn -1 0 -2.220446049250313e-16
usemtl m_b4682007-e81a-b910-7179-4ab17ca87b24
f 2/1/1 1/2/1 3/3/1 4/4/1
f 7/5/2 5/6/2 6/7/2 8/8/2
f 5/9/3 1/10/3 2/11/3 6/12/3
f 4/13/4 3/14/4 7/15/4 8/16/4
f 3/17/5 1/18/5 5/19/5 7/20/5
f 6/21/6 2/22/6 4/23/6 8/24/6
f 10/25/7 9/26/7 11/27/7 12/28/7
f 15/29/8 13/30/8 14/31/8 16/32/8
f 13/33/9 9/34/9 10/35/9 14/36/9
f 12/37/10 11/38/10 15/39/10 16/40/10
f 11/41/11 9/42/11 13/43/11 15/44/11
f 14/45/12 10/46/12 12/47/12 16/48/12