# Made in Blockbench 4.10.4
mtllib tkz2_top.mtl

o cuboid
v 1 0.25 1
v 1 0.25 0
v 1 0 1
v 1 0 0
v 0 0.25 1
v 0 0.25 0
v 0 0 1
v 0 0 0
vt 0.515625 1
vt 0.265625 1
vt 0.265625 0.9375
vt 0.515625 0.9375
vt 0.515625 0.734375
vt 0.515625 0.796875
vt 0.265625 0.796875
vt 0.265625 0.734375
vt 0 0.75
vt 0.25 0.75
vt 0.25 1
vt 0 1
vt 0.25 0.484375
vt 0.25 0.734375
vt 0 0.734375
vt 0 0.484375
vt 0.515625 0.53125
vt 0.515625 0.59375
vt 0.265625 0.59375
vt 0.265625 0.53125
vt 0.25 0.46875
vt 0 0.46875
vt 0 0.40625
vt 0.25 0.40625
vn 1 0 0
vn -1 0 0
vn 0 1 0
vn 0 -1 0
vn 0 0 1
vn 0 0 -1
usemtl m_b4682007-e81a-b910-7179-4ab17ca87b24
f 2/1/1 1/2/1 3/3/1 4/4/1
f 7/5/2 5/6/2 6/7/2 8/8/2
f 5/9/3 1/10/3 2/11/3 6/12/3
f 4/13/4 3/14/4 7/15/4 8/16/4
f 3/17/5 1/18/5 5/19/5 7/20/5
f 6/21/6 2/22/6 4/23/6 8/24/6