# Made in Blockbench 4.8.1
mtllib electric_fence_wall_center.mtl

o wall_c
v 1 0.4375 0.09375
v 1 0.4375 0
v 1 0 0.09375
v 1 0 0
v 0 0.4375 0.09375
v 0 0.4375 0
v 0 0 0.09375
v 0 0 0
v 1 1.125 0.09375
v 1 1.125 0
v 1 0.4375 0.09375
v 1 0.4375 0
v 0.96875 1.125 0.09375
v 0.96875 1.125 0
v 0.96875 0.4375 0.09375
v 0.96875 0.4375 0
v 0.9984375000000001 1.4772129775053537 -0.25958130368119414
v 0.9984375000000001 1.4330188036811946 -0.3037754775053534
v 0.9984375000000001 1.12365958691208 0.09397208691207959
v 0.9984375000000001 1.0794654130879209 0.049777913087920345
v 0.9703124999999999 1.4772129775053537 -0.25958130368119414
v 0.9703124999999999 1.4330188036811946 -0.3037754775053534
v 0.9703124999999999 1.12365958691208 0.09397208691207959
v 0.9703124999999999 1.0794654130879209 0.049777913087920345
v 0.03125 1.125 0.09375
v 0.03125 1.125 0
v 0.03125 0.4375 0.09375
v 0.03125 0.4375 0
v 0 1.125 0.09375
v 0 1.125 0
v 0 0.4375 0.09375
v 0 0.4375 0
v 0.02968750000000009 1.4772129775053537 -0.25958130368119414
v 0.02968750000000009 1.4330188036811946 -0.3037754775053534
v 0.02968750000000009 1.12365958691208 0.09397208691207959
v 0.02968750000000009 1.0794654130879209 0.049777913087920345
v 0.0015624999999999112 1.4772129775053537 -0.25958130368119414
v 0.0015624999999999112 1.4330188036811946 -0.3037754775053534
v 0.0015624999999999112 1.12365958691208 0.09397208691207959
v 0.0015624999999999112 1.0794654130879209 0.049777913087920345
v 0.96875 1.4343749999999993 -0.2578125000000001
v 0.03125 1.4343749999999995 -0.2578125000000001
v 0.96875 1.452417195912175 -0.2265625000000001
v 0.03125 1.4524171959121752 -0.2265625000000001
v 0.96875 1.470459391824351 -0.2578125000000001
v 0.03125 1.4704593918243511 -0.2578125000000001
v 0.96875 1.452417195912175 -0.2890625000000001
v 0.03125 1.4524171959121752 -0.2890625000000001
v 0.96875 1.4163328040878236 -0.2890625000000001
v 0.03125 1.4163328040878236 -0.2890625000000001
v 0.96875 1.3982906081756477 -0.2578125000000001
v 0.03125 1.3982906081756479 -0.2578125000000001
v 0.96875 1.4163328040878234 -0.2265625000000001
v 0.03125 1.4163328040878236 -0.2265625000000001
v 0.953125 1.109375 0.0625
v 0.953125 1.109375 0.03125
v 0.953125 0.453125 0.0625
v 0.953125 0.453125 0.03125
v 0.046875 1.109375 0.0625
v 0.046875 1.109375 0.03125
v 0.046875 0.453125 0.0625
v 0.046875 0.453125 0.03125
v 0.10904186963187978 0.505464804192279 0.09375
v 0.10904186963187978 0.505464804192279 0
v 0.13113895654395957 0.48336771728019934 0.09375
v 0.13113895654395957 0.48336771728019934 0
v 0.08694478271980044 0.48336771728019934 0.09375
v 0.08694478271980044 0.48336771728019934 0
v 0.10904186963187978 0.46127063036811977 0.09375
v 0.10904186963187978 0.46127063036811977 0
v 0.13124999999999964 0.49999999999999994 0.08125000000000004
v 0.13124999999999964 0.49999999999999994 0.07499999999999996
v 0.1312500000000001 0.46874999999999994 0.08125000000000004
v 0.1312500000000001 0.46874999999999994 0.07499999999999996
v 0.03125 0.5 0.08125000000000004
v 0.03125 0.5 0.07499999999999996
v 0.03125 0.4687499999999999 0.08125000000000004
v 0.03125 0.4687499999999999 0.07499999999999996
v 0.13124999999999964 0.49999999999999994 0.018750000000000044
v 0.13124999999999964 0.49999999999999994 0.012499999999999956
v 0.1312500000000001 0.46874999999999994 0.018750000000000044
v 0.1312500000000001 0.46874999999999994 0.012499999999999956
v 0.03125 0.5 0.018750000000000044
v 0.03125 0.5 0.012499999999999956
v 0.03125 0.4687499999999999 0.018750000000000044
v 0.03125 0.4687499999999999 0.012499999999999956
v 0.89408313036812 0.46328519580772076 0.09375
v 0.89408313036812 0.46328519580772076 0
v 0.8719860434560402 0.4853822827198003 0.09375
v 0.8719860434560402 0.4853822827198003 0
v 0.9161802172801994 0.48538228271980033 0.09375
v 0.9161802172801994 0.48538228271980033 0
v 0.89408313036812 0.5074793696318799 0.09375
v 0.89408313036812 0.5074793696318799 0
v 0.8718750000000002 0.4687499999999997 0.08125000000000004
v 0.8718750000000002 0.4687499999999997 0.07499999999999996
v 0.8718749999999997 0.49999999999999983 0.08125000000000004
v 0.8718749999999997 0.49999999999999983 0.07499999999999996
v 0.9718749999999998 0.46874999999999956 0.08125000000000004
v 0.9718749999999998 0.46874999999999956 0.07499999999999996
v 0.9718749999999998 0.49999999999999994 0.08125000000000004
v 0.9718749999999998 0.49999999999999994 0.07499999999999996
v 0.8718750000000002 0.4687499999999997 0.018750000000000044
v 0.8718750000000002 0.4687499999999997 0.012499999999999956
v 0.8718749999999997 0.49999999999999983 0.018750000000000044
v 0.8718749999999997 0.49999999999999983 0.012499999999999956
v 0.9718749999999998 0.46874999999999956 0.018750000000000044
v 0.9718749999999998 0.46874999999999956 0.012499999999999956
v 0.9718749999999998 0.49999999999999994 0.018750000000000044
v 0.9718749999999998 0.49999999999999994 0.012499999999999956
v 0.8940831303681196 1.0570351958077207 0.09375
v 0.8940831303681196 1.0570351958077207 0
v 0.8719860434560402 1.0791322827198 0.09375
v 0.8719860434560402 1.0791322827198 0
v 0.9161802172801994 1.0791322827198002 0.09375
v 0.9161802172801994 1.0791322827198002 0
v 0.8940831303681196 1.1012293696318798 0.09375
v 0.8940831303681196 1.1012293696318798 0
v 0.8718749999999997 1.0624999999999996 0.08125000000000004
v 0.8718749999999997 1.0624999999999996 0.07499999999999996
v 0.8718749999999997 1.0937499999999998 0.08125000000000004
v 0.8718749999999997 1.0937499999999998 0.07499999999999996
v 0.9718749999999998 1.0624999999999996 0.08125000000000004
v 0.9718749999999998 1.0624999999999996 0.07499999999999996
v 0.9718749999999998 1.0937499999999998 0.08125000000000004
v 0.9718749999999998 1.0937499999999998 0.07499999999999996
v 0.8718749999999997 1.0624999999999996 0.018750000000000044
v 0.8718749999999997 1.0624999999999996 0.012499999999999956
v 0.8718749999999997 1.0937499999999998 0.018750000000000044
v 0.8718749999999997 1.0937499999999998 0.012499999999999956
v 0.9718749999999998 1.0624999999999996 0.018750000000000044
v 0.9718749999999998 1.0624999999999996 0.012499999999999956
v 0.9718749999999998 1.0937499999999998 0.018750000000000044
v 0.9718749999999998 1.0937499999999998 0.012499999999999956
v 0.10904186963187978 1.099214804192279 0.09375
v 0.10904186963187978 1.099214804192279 0
v 0.13113895654395957 1.0771177172801993 0.09375
v 0.13113895654395957 1.0771177172801993 0
v 0.08694478271980044 1.0771177172801993 0.09375
v 0.08694478271980044 1.0771177172801993 0
v 0.10904186963188023 1.05502063036812 0.09375
v 0.10904186963188023 1.05502063036812 0
v 0.1312500000000001 1.09375 0.08125000000000004
v 0.1312500000000001 1.09375 0.07499999999999996
v 0.1312500000000001 1.0625 0.08125000000000004
v 0.1312500000000001 1.0625 0.07499999999999996
v 0.03125 1.09375 0.08125000000000004
v 0.03125 1.09375 0.07499999999999996
v 0.03125 1.0624999999999998 0.08125000000000004
v 0.03125 1.0624999999999998 0.07499999999999996
v 0.1312500000000001 1.09375 0.018750000000000044
v 0.1312500000000001 1.09375 0.012499999999999956
v 0.1312500000000001 1.0625 0.018750000000000044
v 0.1312500000000001 1.0625 0.012499999999999956
v 0.03125 1.09375 0.018750000000000044
v 0.03125 1.09375 0.012499999999999956
v 0.03125 1.0624999999999998 0.018750000000000044
v 0.03125 1.0624999999999998 0.012499999999999956
vt 0.078125 0.515625
vt 0.078125 0.625
vt 0.046875 0.625
vt 0.046875 0.515625
vt 0.125 0.515625
vt 0.125 0.625
vt 0.09375 0.625
vt 0.09375 0.515625
vt 0.5 0.71875
vt 0.5 0.75
vt 0.25 0.75
vt 0.25 0.71875
vt 0.5 0.671875
vt 0.5 0.703125
vt 0.25 0.703125
vt 0.25 0.671875
vt 0.5 0.890625
vt 0.5 1
vt 0.25 1
vt 0.25 0.890625
vt 0.5 0.765625
vt 0.5 0.875
vt 0.25 0.875
vt 0.25 0.765625
vt 0.28125 0.484375
vt 0.28125 0.65625
vt 0.25 0.65625
vt 0.25 0.484375
vt 0.328125 0.484375
vt 0.328125 0.65625
vt 0.296875 0.65625
vt 0.296875 0.484375
vt 0.53125 0.703125
vt 0.53125 0.734375
vt 0.515625 0.734375
vt 0.515625 0.703125
vt 0.40625 0.4375
vt 0.40625 0.46875
vt 0.390625 0.46875
vt 0.390625 0.4375
vt 0.15625 0.453125
vt 0.15625 0.625
vt 0.140625 0.625
vt 0.140625 0.453125
vt 0.1875 0.453125
vt 0.1875 0.625
vt 0.171875 0.625
vt 0.171875 0.453125
vt 0.515625 0.921875
vt 0.640625 0.921875
vt 0.640625 0.9375
vt 0.515625 0.9375
vt 0.53125 0.78125
vt 0.53125 0.90625
vt 0.515625 0.90625
vt 0.515625 0.78125
vt 0.359375 0.328125
vt 0.359375 0.3125
vt 0.375 0.3125
vt 0.375 0.328125
vt 0.6875 0.578125
vt 0.6875 0.59375
vt 0.671875 0.59375
vt 0.671875 0.578125
vt 0.28125 0.34375
vt 0.28125 0.46875
vt 0.265625 0.46875
vt 0.265625 0.34375
vt 0.3125 0.34375
vt 0.3125 0.46875
vt 0.296875 0.46875
vt 0.296875 0.34375
vt 0.375 0.484375
vt 0.375 0.65625
vt 0.34375 0.65625
vt 0.34375 0.484375
vt 0.03125 0.453125
vt 0.03125 0.625
vt 0 0.625
vt 0 0.453125
vt 0.4375 0.4375
vt 0.4375 0.46875
vt 0.421875 0.46875
vt 0.421875 0.4375
vt 0.46875 0.4375
vt 0.46875 0.46875
vt 0.453125 0.46875
vt 0.453125 0.4375
vt 0.21875 0.453125
vt 0.21875 0.625
vt 0.203125 0.625
vt 0.203125 0.453125
vt 0.0625 0.328125
vt 0.0625 0.5
vt 0.046875 0.5
vt 0.046875 0.328125
vt 0.515625 0.75
vt 0.640625 0.75
vt 0.640625 0.765625
vt 0.515625 0.765625
vt 0.25 0.34375
vt 0.25 0.46875
vt 0.234375 0.46875
vt 0.234375 0.34375
vt 0.671875 0.5625
vt 0.671875 0.546875
vt 0.6875 0.546875
vt 0.6875 0.5625
vt 0.6875 0.515625
vt 0.6875 0.53125
vt 0.671875 0.53125
vt 0.671875 0.515625
vt 0.34375 0.34375
vt 0.34375 0.46875
vt 0.328125 0.46875
vt 0.328125 0.34375
vt 0.375 0.34375
vt 0.375 0.46875
vt 0.359375 0.46875
vt 0.359375 0.34375
vt 0.6484375 0.59375
vt 0.640625 0.5892390625
vt 0.6484375 0.584728125
vt 0.625 0.484375
vt 0.625 0.5
vt 0.390625 0.5
vt 0.390625 0.484375
vt 0.65625 0.5423640625
vt 0.6484375 0.546875
vt 0.6484375 0.537853125
vt 0.65625 0.5892390625
vt 0.6484375 0.59375
vt 0.6484375 0.584728125
vt 0.515625 1
vt 0.515625 0.984375
vt 0.75 0.984375
vt 0.75 1
vt 0.6484375 0.546875
vt 0.640625 0.5423640625
vt 0.6484375 0.537853125
vt 0.65625 0.5802171875
vt 0.65625 0.5892390625
vt 0.6484375 0.584728125
vt 0.390625 0.65625
vt 0.390625 0.640625
vt 0.625 0.640625
vt 0.625 0.65625
vt 0.640625 0.5423640625
vt 0.640625 0.5333421875
vt 0.6484375 0.537853125
vt 0.6484375 0.57570625
vt 0.65625 0.5802171875
vt 0.6484375 0.584728125
vt 0.515625 0.96875
vt 0.515625 0.953125
vt 0.75 0.953125
vt 0.75 0.96875
vt 0.640625 0.5333421875
vt 0.6484375 0.52883125
vt 0.6484375 0.537853125
vt 0.640625 0.5802171875
vt 0.6484375 0.57570625
vt 0.6484375 0.584728125
vt 0.625 0.515625
vt 0.625 0.53125
vt 0.390625 0.53125
vt 0.390625 0.515625
vt 0.6484375 0.52883125
vt 0.65625 0.5333421875
vt 0.6484375 0.537853125
vt 0.640625 0.5892390625
vt 0.640625 0.5802171875
vt 0.6484375 0.584728125
vt 0.625 0.609375
vt 0.625 0.625
vt 0.390625 0.625
vt 0.390625 0.609375
vt 0.65625 0.5333421875
vt 0.65625 0.5423640625
vt 0.6484375 0.537853125
vt 0.09375 0.328125
vt 0.09375 0.5
vt 0.078125 0.5
vt 0.078125 0.328125
vt 0.125 0.328125
vt 0.125 0.5
vt 0.109375 0.5
vt 0.109375 0.328125
vt 0.625 0.578125
vt 0.625 0.59375
vt 0.390625 0.59375
vt 0.390625 0.578125
vt 0.625 0.546875
vt 0.625 0.5625
vt 0.390625 0.5625
vt 0.390625 0.546875
vt 0.234375 0.828125
vt 0.234375 1
vt 0 1
vt 0 0.828125
vt 0.234375 0.640625
vt 0.234375 0.8125
vt 0 0.8125
vt 0 0.640625
vt 0.640625 0.671875
vt 0.640625 0.6875
vt 0.609375 0.6875
vt 0.609375 0.671875
vt 0.171875 0.359375
vt 0.171875 0.375
vt 0.140625 0.375
vt 0.140625 0.359375
vt 0.640625 0.40625
vt 0.609375 0.40625
vt 0.609375 0.390625
vt 0.640625 0.390625
vt 0.65625 0.84375
vt 0.625 0.84375
vt 0.625 0.828125
vt 0.65625 0.828125
vt 0.5 0.34375
vt 0.5 0.359375
vt 0.484375 0.359375
vt 0.484375 0.34375
vt 0.640625 0.484375
vt 0.65625 0.484375
vt 0.65625 0.5
vt 0.640625 0.5
vt 0.25 0.3125
vt 0.25 0.328125
vt 0.234375 0.328125
vt 0.234375 0.3125
vt 0.53125 0.34375
vt 0.53125 0.359375
vt 0.515625 0.359375
vt 0.515625 0.34375
vt 0.484375 0.375
vt 0.5 0.375
vt 0.5 0.40625
vt 0.484375 0.40625
vt 0.609375 0.84375
vt 0.59375 0.84375
vt 0.59375 0.8125
vt 0.609375 0.8125
vt 0.546875 0.671875
vt 0.546875 0.6875
vt 0.515625 0.6875
vt 0.515625 0.671875
vt 0.515625 0.453125
vt 0.515625 0.46875
vt 0.484375 0.46875
vt 0.484375 0.453125
vt 0.28125 0.3125
vt 0.28125 0.328125
vt 0.265625 0.328125
vt 0.265625 0.3125
vt 0.5625 0.34375
vt 0.5625 0.359375
vt 0.546875 0.359375
vt 0.546875 0.34375
vt 0.515625 0.375
vt 0.53125 0.375
vt 0.53125 0.40625
vt 0.515625 0.40625
vt 0.203125 0.40625
vt 0.1875 0.40625
vt 0.1875 0.375
vt 0.203125 0.375
vt 0.5625 0.453125
vt 0.5625 0.46875
vt 0.53125 0.46875
vt 0.53125 0.453125
vt 0.578125 0.890625
vt 0.578125 0.90625
vt 0.546875 0.90625
vt 0.546875 0.890625
vt 0.640625 0.8125
vt 0.640625 0.796875
vt 0.671875 0.796875
vt 0.671875 0.8125
vt 0.625 0.46875
vt 0.625 0.453125
vt 0.65625 0.453125
vt 0.65625 0.46875
vt 0.625 0.421875
vt 0.65625 0.421875
vt 0.65625 0.4375
vt 0.625 0.4375
vt 0 0.359375
vt 0.03125 0.359375
vt 0.03125 0.375
vt 0 0.375
vt 0.578125 0.359375
vt 0.578125 0.34375
vt 0.59375 0.34375
vt 0.59375 0.359375
vt 0.015625 0.34375
vt 0 0.34375
vt 0 0.328125
vt 0.015625 0.328125
vt 0.171875 0.328125
vt 0.171875 0.3125
vt 0.1875 0.3125
vt 0.1875 0.328125
vt 0.65625 0.9375
vt 0.65625 0.921875
vt 0.671875 0.921875
vt 0.671875 0.9375
vt 0.625 0.734375
vt 0.609375 0.734375
vt 0.609375 0.703125
vt 0.625 0.703125
vt 0.546875 0.375
vt 0.5625 0.375
vt 0.5625 0.40625
vt 0.546875 0.40625
vt 0.546875 0.875
vt 0.546875 0.859375
vt 0.578125 0.859375
vt 0.578125 0.875
vt 0.546875 0.84375
vt 0.546875 0.828125
vt 0.578125 0.828125
vt 0.578125 0.84375
vt 0.203125 0.328125
vt 0.203125 0.3125
vt 0.21875 0.3125
vt 0.21875 0.328125
vt 0.140625 0.34375
vt 0.140625 0.328125
vt 0.15625 0.328125
vt 0.15625 0.34375
vt 0.40625 0.390625
vt 0.390625 0.390625
vt 0.390625 0.359375
vt 0.40625 0.359375
vt 0.578125 0.375
vt 0.59375 0.375
vt 0.59375 0.40625
vt 0.578125 0.40625
vt 0.546875 0.8125
vt 0.546875 0.796875
vt 0.578125 0.796875
vt 0.578125 0.8125
vt 0.546875 0.734375
vt 0.546875 0.71875
vt 0.578125 0.71875
vt 0.578125 0.734375
vt 0.609375 0.375
vt 0.609375 0.359375
vt 0.640625 0.359375
vt 0.640625 0.375
vt 0.640625 0.734375
vt 0.640625 0.71875
vt 0.671875 0.71875
vt 0.671875 0.734375
vt 0.640625 0.640625
vt 0.671875 0.640625
vt 0.671875 0.65625
vt 0.640625 0.65625
vt 0.59375 0.78125
vt 0.625 0.78125
vt 0.625 0.796875
vt 0.59375 0.796875
vt 0.65625 0.78125
vt 0.65625 0.765625
vt 0.671875 0.765625
vt 0.671875 0.78125
vt 0.671875 0.703125
vt 0.65625 0.703125
vt 0.65625 0.6875
vt 0.671875 0.6875
vt 0.390625 0.34375
vt 0.390625 0.328125
vt 0.40625 0.328125
vt 0.40625 0.34375
vt 0.640625 0.34375
vt 0.640625 0.328125
vt 0.65625 0.328125
vt 0.65625 0.34375
vt 0 0.4375
vt 0 0.421875
vt 0.03125 0.421875
vt 0.03125 0.4375
vt 0.140625 0.4375
vt 0.140625 0.421875
vt 0.171875 0.421875
vt 0.171875 0.4375
vt 0.1875 0.4375
vt 0.1875 0.421875
vt 0.21875 0.421875
vt 0.21875 0.4375
vt 0.5625 0.703125
vt 0.5625 0.6875
vt 0.59375 0.6875
vt 0.59375 0.703125
vt 0.421875 0.34375
vt 0.421875 0.328125
vt 0.4375 0.328125
vt 0.4375 0.34375
vt 0.671875 0.84375
vt 0.671875 0.828125
vt 0.6875 0.828125
vt 0.6875 0.84375
vt 0.484375 0.4375
vt 0.484375 0.421875
vt 0.515625 0.421875
vt 0.515625 0.4375
vt 0.53125 0.4375
vt 0.53125 0.421875
vt 0.5625 0.421875
vt 0.5625 0.4375
vt 0.390625 0.421875
vt 0.390625 0.40625
vt 0.421875 0.40625
vt 0.421875 0.421875
vt 0.4375 0.421875
vt 0.4375 0.40625
vt 0.46875 0.40625
vt 0.46875 0.421875
vt 0.671875 0.890625
vt 0.671875 0.90625
vt 0.640625 0.90625
vt 0.640625 0.890625
vt 0.671875 0.609375
vt 0.671875 0.625
vt 0.640625 0.625
vt 0.640625 0.609375
vt 0.671875 0.875
vt 0.640625 0.875
vt 0.640625 0.859375
vt 0.671875 0.859375
vt 0.21875 0.359375
vt 0.1875 0.359375
vt 0.1875 0.34375
vt 0.21875 0.34375
vt 0.46875 0.328125
vt 0.46875 0.34375
vt 0.453125 0.34375
vt 0.453125 0.328125
vt 0.65625 0.390625
vt 0.671875 0.390625
vt 0.671875 0.40625
vt 0.65625 0.40625
vt 0.625 0.328125
vt 0.625 0.34375
vt 0.609375 0.34375
vt 0.609375 0.328125
vt 0.3125 0.3125
vt 0.3125 0.328125
vt 0.296875 0.328125
vt 0.296875 0.3125
vt 0.609375 0.453125
vt 0.609375 0.46875
vt 0.578125 0.46875
vt 0.578125 0.453125
vt 0.4375 0.390625
vt 0.421875 0.390625
vt 0.421875 0.359375
vt 0.4375 0.359375
vt 0.609375 0.421875
vt 0.609375 0.4375
vt 0.578125 0.4375
vt 0.578125 0.421875
vt 0.03125 0.390625
vt 0.03125 0.40625
vt 0 0.40625
vt 0 0.390625
vt 0.671875 0.359375
vt 0.671875 0.375
vt 0.65625 0.375
vt 0.65625 0.359375
vt 0.34375 0.3125
vt 0.34375 0.328125
vt 0.328125 0.328125
vt 0.328125 0.3125
vt 0.625 0.890625
vt 0.625 0.90625
vt 0.59375 0.90625
vt 0.59375 0.890625
vt 0.46875 0.390625
vt 0.453125 0.390625
vt 0.453125 0.359375
vt 0.46875 0.359375
vt 0.625 0.859375
vt 0.625 0.875
vt 0.59375 0.875
vt 0.59375 0.859375
vt 0.171875 0.390625
vt 0.171875 0.40625
vt 0.140625 0.40625
vt 0.140625 0.390625
vn 1 0 0
vn -1 0 0
vn 0 1 0
vn 0 -1 0
vn 0 0 1
vn 0 0 -1
vn 1 0 0
vn -1 0 0
vn 0 1 0
vn 0 -1 0
vn 0 0 1
vn 0 0 -1
vn 1 0 0
vn -1 0 0
vn 0 0.7071067811865485 -0.7071067811865467
vn 0 -0.7071067811865485 0.7071067811865467
vn 0 0.7071067811865476 0.7071067811865476
vn 0 -0.7071067811865476 -0.7071067811865476
vn 1 0 0
vn -1 0 0
vn 0 1 0
vn 0 -1 0
vn 0 0 1
vn 0 0 -1
vn 1 0 0
vn -1 0 0
vn 0 0.7071067811865485 -0.7071067811865467
vn 0 -0.7071067811865485 0.7071067811865467
vn 0 0.7071067811865476 0.7071067811865476
vn 0 -0.7071067811865476 -0.7071067811865476
vn 1 0 0
vn 2.0511601988091313e-16 0.8660254037844372 0.5000000000000026
vn -1 0 0
vn 1 0 0
vn 2.0511601988091313e-16 0.8660254037844372 -0.5000000000000026
vn -1 0 0
vn 1 0 0
vn 0 0 -1
vn -1 0 0
vn 1 0 0
vn -2.0511601988091313e-16 -0.8660254037844372 -0.5000000000000026
vn -1 0 0
vn 1 0 0
vn -2.0511601988091375e-16 -0.8660254037844398 0.49999999999999795
vn -1 0 0
vn 1 0 0
vn 0 0 1
vn -1 0 0
vn 1 0 0
vn -1 0 0
vn 0 1 0
vn 0 -1 0
vn 0 0 1
vn 0 0 -1
vn 0.7071067811865458 0.7071067811865493 0
vn -0.7071067811865511 -0.707106781186544 0
vn -0.7071067811865529 0.7071067811865422 0
vn 0.707106781186544 -0.7071067811865511 0
vn 0 0 1
vn 0 0 -1
vn 1 1.4210854715202004e-14 0
vn -1 0 0
vn 5.551115123125802e-16 1 0
vn 5.551115123125778e-16 -1 0
vn 0 0 1
vn 0 0 -1
vn 1 1.4210854715202004e-14 0
vn -1 0 0
vn 5.551115123125802e-16 1 0
vn 5.551115123125778e-16 -1 0
vn 0 0 1
vn 0 0 -1
vn -0.7071067811865431 -0.707106781186552 0
vn 0.7071067811865511 0.707106781186544 0
vn 0.7071067811865511 -0.707106781186544 0
vn -0.7071067811865449 0.7071067811865502 0
vn 0 0 1
vn 0 0 -1
vn -1 -1.4210854715201953e-14 0
vn 1 0 0
vn -1.6653345369377407e-15 -1 0
vn -1.1102230246251556e-15 1 0
vn 0 0 1
vn 0 0 -1
vn -1 -1.4210854715201953e-14 0
vn 1 0 0
vn -1.6653345369377407e-15 -1 0
vn -1.1102230246251556e-15 1 0
vn 0 0 1
vn 0 0 -1
vn -0.7071067811865476 -0.7071067811865476 0
vn 0.707106781186544 0.7071067811865511 0
vn 0.707106781186544 -0.7071067811865511 0
vn -0.7071067811865547 0.7071067811865405 0
vn 0 0 1
vn 0 0 -1
vn -1 0 0
vn 1 0 0
vn 0 -1 0
vn 0 1 0
vn 0 0 1
vn 0 0 -1
vn -1 0 0
vn 1 0 0
vn 0 -1 0
vn 0 1 0
vn 0 0 1
vn 0 0 -1
vn 0.707106781186544 0.7071067811865511 0
vn -0.7071067811865405 -0.7071067811865547 0
vn -0.7071067811865511 0.707106781186544 0
vn 0.7071067811865476 -0.7071067811865476 0
vn 0 0 1
vn 0 0 -1
vn 1 0 0
vn -1 0 0
vn 0 1 0
vn 2.220446049250311e-15 -1 0
vn 0 0 1
vn 0 0 -1
vn 1 0 0
vn -1 0 0
vn 0 1 0
vn 2.220446049250311e-15 -1 0
vn 0 0 1
vn 0 0 -1
usemtl m_0ec21b79-f433-9f45-2808-8818603aebaa
f 4/1/1 2/2/1 1/3/1 3/4/1
f 7/5/2 5/6/2 6/7/2 8/8/2
f 1/9/3 2/10/3 6/11/3 5/12/3
f 4/13/4 3/14/4 7/15/4 8/16/4
f 3/17/5 1/18/5 5/19/5 7/20/5
f 8/21/6 6/22/6 2/23/6 4/24/6
f 12/25/7 10/26/7 9/27/7 11/28/7
f 15/29/8 13/30/8 14/31/8 16/32/8
f 9/33/9 10/34/9 14/35/9 13/36/9
f 12/37/10 11/38/10 15/39/10 16/40/10
f 11/41/11 9/42/11 13/43/11 15/44/11
f 16/45/12 14/46/12 10/47/12 12/48/12
f 20/49/13 18/50/13 17/51/13 19/52/13
f 23/53/14 21/54/14 22/55/14 24/56/14
f 17/57/15 18/58/15 22/59/15 21/60/15
f 20/61/16 19/62/16 23/63/16 24/64/16
f 19/65/17 17/66/17 21/67/17 23/68/17
f 24/69/18 22/70/18 18/71/18 20/72/18
f 28/73/19 26/74/19 25/75/19 27/76/19
f 31/77/20 29/78/20 30/79/20 32/80/20
f 25/81/21 26/82/21 30/83/21 29/84/21
f 28/85/22 27/86/22 31/87/22 32/88/22
f 27/89/23 25/90/23 29/91/23 31/92/23
f 32/93/24 30/94/24 26/95/24 28/96/24
f 36/97/25 34/98/25 33/99/25 35/100/25
f 39/101/26 37/102/26 38/103/26 40/104/26
f 33/105/27 34/106/27 38/107/27 37/108/27
f 36/109/28 35/110/28 39/111/28 40/112/28
f 35/113/29 33/114/29 37/115/29 39/116/29
f 40/117/30 38/118/30 34/119/30 36/120/30
f 45/121/31 43/122/31 41/123/31
f 43/124/32 45/125/32 46/126/32 44/127/32
f 44/128/33 46/129/33 42/130/33
f 47/131/34 45/132/34 41/133/34
f 45/134/35 47/135/35 48/136/35 46/137/35
f 46/138/36 48/139/36 42/140/36
f 49/141/37 47/142/37 41/143/37
f 47/144/38 49/145/38 50/146/38 48/147/38
f 48/148/39 50/149/39 42/150/39
f 51/151/40 49/152/40 41/153/40
f 49/154/41 51/155/41 52/156/41 50/157/41
f 50/158/42 52/159/42 42/160/42
f 53/161/43 51/162/43 41/163/43
f 51/164/44 53/165/44 54/166/44 52/167/44
f 52/168/45 54/169/45 42/170/45
f 43/171/46 53/172/46 41/173/46
f 53/174/47 43/175/47 44/176/47 54/177/47
f 54/178/48 44/179/48 42/180/48
f 58/181/49 56/182/49 55/183/49 57/184/49
f 61/185/50 59/186/50 60/187/50 62/188/50
f 55/189/51 56/190/51 60/191/51 59/192/51
f 58/193/52 57/194/52 61/195/52 62/196/52
f 57/197/53 55/198/53 59/199/53 61/200/53
f 62/201/54 60/202/54 56/203/54 58/204/54
f 66/205/55 64/206/55 63/207/55 65/208/55
f 69/209/56 67/210/56 68/211/56 70/212/56
f 63/213/57 64/214/57 68/215/57 67/216/57
f 66/217/58 65/218/58 69/219/58 70/220/58
f 65/221/59 63/222/59 67/223/59 69/224/59
f 70/225/60 68/226/60 64/227/60 66/228/60
f 74/229/61 72/230/61 71/231/61 73/232/61
f 77/233/62 75/234/62 76/235/62 78/236/62
f 71/237/63 72/238/63 76/239/63 75/240/63
f 74/241/64 73/242/64 77/243/64 78/244/64
f 73/245/65 71/246/65 75/247/65 77/248/65
f 78/249/66 76/250/66 72/251/66 74/252/66
f 82/253/67 80/254/67 79/255/67 81/256/67
f 85/257/68 83/258/68 84/259/68 86/260/68
f 79/261/69 80/262/69 84/263/69 83/264/69
f 82/265/70 81/266/70 85/267/70 86/268/70
f 81/269/71 79/270/71 83/271/71 85/272/71
f 86/273/72 84/274/72 80/275/72 82/276/72
f 90/277/73 88/278/73 87/279/73 89/280/73
f 93/281/74 91/282/74 92/283/74 94/284/74
f 87/285/75 88/286/75 92/287/75 91/288/75
f 90/289/76 89/290/76 93/291/76 94/292/76
f 89/293/77 87/294/77 91/295/77 93/296/77
f 94/297/78 92/298/78 88/299/78 90/300/78
f 98/301/79 96/302/79 95/303/79 97/304/79
f 101/305/80 99/306/80 100/307/80 102/308/80
f 95/309/81 96/310/81 100/311/81 99/312/81
f 98/313/82 97/314/82 101/315/82 102/316/82
f 97/317/83 95/318/83 99/319/83 101/320/83
f 102/321/84 100/322/84 96/323/84 98/324/84
f 106/325/85 104/326/85 103/327/85 105/328/85
f 109/329/86 107/330/86 108/331/86 110/332/86
f 103/333/87 104/334/87 108/335/87 107/336/87
f 106/337/88 105/338/88 109/339/88 110/340/88
f 105/341/89 103/342/89 107/343/89 109/344/89
f 110/345/90 108/346/90 104/347/90 106/348/90
f 114/349/91 112/350/91 111/351/91 113/352/91
f 117/353/92 115/354/92 116/355/92 118/356/92
f 111/357/93 112/358/93 116/359/93 115/360/93
f 114/361/94 113/362/94 117/363/94 118/364/94
f 113/365/95 111/366/95 115/367/95 117/368/95
f 118/369/96 116/370/96 112/371/96 114/372/96
f 122/373/97 120/374/97 119/375/97 121/376/97
f 125/377/98 123/378/98 124/379/98 126/380/98
f 119/381/99 120/382/99 124/383/99 123/384/99
f 122/385/100 121/386/100 125/387/100 126/388/100
f 121/389/101 119/390/101 123/391/101 125/392/101
f 126/393/102 124/394/102 120/395/102 122/396/102
f 130/397/103 128/398/103 127/399/103 129/400/103
f 133/401/104 131/402/104 132/403/104 134/404/104
f 127/405/105 128/406/105 132/407/105 131/408/105
f 130/409/106 129/410/106 133/411/106 134/412/106
f 129/413/107 127/414/107 131/415/107 133/416/107
f 134/417/108 132/418/108 128/419/108 130/420/108
f 138/421/109 136/422/109 135/423/109 137/424/109
f 141/425/110 139/426/110 140/427/110 142/428/110
f 135/429/111 136/430/111 140/431/111 139/432/111
f 138/433/112 137/434/112 141/435/112 142/436/112
f 137/437/113 135/438/113 139/439/113 141/440/113
f 142/441/114 140/442/114 136/443/114 138/444/114
f 146/445/115 144/446/115 143/447/115 145/448/115
f 149/449/116 147/450/116 148/451/116 150/452/116
f 143/453/117 144/454/117 148/455/117 147/456/117
f 146/457/118 145/458/118 149/459/118 150/460/118
f 145/461/119 143/462/119 147/463/119 149/464/119
f 150/465/120 148/466/120 144/467/120 146/468/120
f 154/469/121 152/470/121 151/471/121 153/472/121
f 157/473/122 155/474/122 156/475/122 158/476/122
f 151/477/123 152/478/123 156/479/123 155/480/123
f 154/481/124 153/482/124 157/483/124 158/484/124
f 153/485/125 151/486/125 155/487/125 157/488/125
f 158/489/126 156/490/126 152/491/126 154/492/126