# Made in Blockbench 4.9.4
mtllib df21_top.mtl

o cuboid_selection
v 1.1875 0.5625 -0.6875
v 1.1875 0.5625 -0.90625
v 1.1875 0.4375 -0.6875
v 1.1875 0.4375 -0.90625
v 0.75 0.1875 -0.6875
v 0.75 0.1875 -0.90625
v 0.25 0.5625 -0.6875
v 0.25 0.5625 -0.90625
v 0.25 0.1875 -0.6875
v 0.25 0.1875 -0.90625
v 0.75 0.328125 -0.90625
v 0.75 0.328125 -0.6875
v 1.15625 0.40625 -0.6875
v 1.15625 0.40625 -0.90625
v 0.84375 0.40625 -0.6875
v 0.84375 0.40625 -0.90625
v 0.75 0.4375 -0.90625
v 0.75 0.5625 -0.90625
v 0.75 0.5625 -0.6875
v 0.75 0.4375 -0.6875
v 0.734375 0.1875 -0.6875
v 0.734375 0.1875 -0.875
v 0.59375 -0.03125 -0.6875
v 0.59375 -0.03125 -0.875
v 0.265625 0.1875 -0.6875
v 0.265625 0.1875 -0.875
v 0.40625 -0.03125 -0.6875
v 0.40625 -0.03125 -0.875
v 1.75 0.15625 1.703125
v 1.75 0.15625 1.859375
v 1.75 -0.03125 1.703125
v 1.75 -0.03125 1.859375
v 1.5 0.15625 1.703125
v 1.5 0.15625 1.859375
v 1.5 -0.03125 1.703125
v 1.5 -0.03125 1.859375
v 1.625 0.125 1.71875
v 1.625 0.125 1.84375
v 1.625 0 1.71875
v 1.625 0 1.84375
v 0.5625 0.125 1.71875
v 0.5625 0.125 1.84375
v 0.5625 0 1.71875
v 0.5625 0 1.84375
v 0.734375 0.1875 1.6875
v 0.734375 0.1875 1.875
v 0.59375 -0.03125 1.6875
v 0.59375 -0.03125 1.875
v 0.265625 0.1875 1.6875
v 0.265625 0.1875 1.875
v 0.40625 -0.03125 1.6875
v 0.40625 -0.03125 1.875
v 1.1875 0.5625 1.6875
v 1.1875 0.5625 1.90625
v 1.1875 0.4375 1.6875
v 1.1875 0.4375 1.90625
v 0.75 0.1875 1.6875
v 0.75 0.1875 1.90625
v 0.25 0.5625 1.6875
v 0.25 0.5625 1.90625
v 0.25 0.1875 1.6875
v 0.25 0.1875 1.90625
v 0.75 0.328125 1.90625
v 0.75 0.328125 1.6875
v 1.15625 0.40625 1.6875
v 1.15625 0.40625 1.90625
v 0.84375 0.40625 1.6875
v 0.84375 0.40625 1.90625
v 0.75 0.4375 1.90625
v 0.75 0.5625 1.90625
v 0.75 0.5625 1.6875
v 0.75 0.4375 1.6875
v 1.1875 0.8125 -0.9375
v 1.1875 0.5625 -0.9375
v -0.1875 0.8125 -0.9375
v -0.1875 0.5625 -0.9375
v 1.1875 0.8125 1.9375
v 1.1875 0.5625 1.9375
v -0.1875 0.8125 1.9375
v -0.1875 0.5625 1.9375
v 1.1875 0.8125 -0.9375
v 1.1875 0.5625 -0.9375
v -0.1875 0.8125 -0.9375
v -0.1875 0.5625 -0.9375
v 1.1875 0.8125 1.9375
v 1.1875 0.5625 1.9375
v -0.1875 0.8125 1.9375
v -0.1875 0.5625 1.9375
v 1 1 1
v 1 1 0
v 1 0.5 1
v 1 0.5 0
v 0 1 1
v 0 1 0
v 0 0.5 1
v 0 0.5 0
v 1.75 0.15625 -0.703125
v 1.75 0.15625 -0.859375
v 1.75 -0.03125 -0.703125
v 1.75 -0.03125 -0.859375
v 1.5 0.15625 -0.703125
v 1.5 0.15625 -0.859375
v 1.5 -0.03125 -0.703125
v 1.5 -0.03125 -0.859375
v 1.625 0.125 -0.71875
v 1.625 0.125 -0.84375
v 1.625 0 -0.71875
v 1.625 0 -0.84375
v 0.5625 0.125 -0.71875
v 0.5625 0.125 -0.84375
v 0.5625 0 -0.71875
v 0.5625 0 -0.84375
v 1.6875 0.109375 1.734375
v 1.6875 0.109375 1.0468750000000002
v 1.6875 0.015625 1.734375
v 1.6875 0.015625 1.0468750000000002
v 1.5625 0.109375 1.734375
v 1.5625 0.109375 1.0468750000000002
v 1.5625 0.015625 1.734375
v 1.5625 0.015625 1.0468750000000002
v 1.6875 0.109375 -0.734375
v 1.6875 0.109375 -0.04687500000000022
v 1.6875 0.015625 -0.734375
v 1.6875 0.015625 -0.04687500000000022
v 1.5625 0.109375 -0.734375
v 1.5625 0.109375 -0.04687500000000022
v 1.5625 0.015625 -0.734375
v 1.5625 0.015625 -0.04687500000000022
v 1.23125 0.11249999999999999 1.01875
v 1.23125 0.11249999999999999 0.5
v 1.23125 0.01874999999999999 1.01875
v 1.23125 0.01874999999999999 0.5
v 1.1375 0.11249999999999999 1.01875
v 1.1375 0.11249999999999999 0.5
v 1.1375 0.01874999999999999 1.01875
v 1.1375 0.01874999999999999 0.5
v 1.23125 0.11249999999999999 0.5
v 1.23125 0.11249999999999999 -0.018750000000000044
v 1.23125 0.01874999999999999 0.5
v 1.23125 0.01874999999999999 -0.018750000000000044
v 1.1375 0.11249999999999999 0.5
v 1.1375 0.11249999999999999 -0.018750000000000044
v 1.1375 0.01874999999999999 0.5
v 1.1375 0.01874999999999999 -0.018750000000000044
v 1.5625 0.109375 1.171875
v 1.5625 0.109375 1.0468750000000002
v 1.5625 0.015625 1.171875
v 1.5625 0.015625 1.0468750000000002
v 1.25 0.109375 1.171875
v 1.25 0.109375 1.0468750000000002
v 1.25 0.015625 1.171875
v 1.25 0.015625 1.0468750000000002
v 1.5625 0.109375 -0.171875
v 1.5625 0.109375 -0.04687500000000022
v 1.5625 0.015625 -0.171875
v 1.5625 0.015625 -0.04687500000000022
v 1.25 0.109375 -0.171875
v 1.25 0.109375 -0.04687500000000022
v 1.25 0.015625 -0.171875
v 1.25 0.015625 -0.04687500000000022
vt 0.5625 0.84375
vt 0.53125 0.84375
vt 0.53125 0.828125
vt 0.5625 0.828125
vt 0.2265625 0.5
vt 0.2265625 0.546875
vt 0.1953125 0.546875
vt 0.1953125 0.5
vt 0.1953125 0.515625
vt 0.1953125 0.546875
vt 0.1328125 0.546875
vt 0.1328125 0.515625
vt 0.296875 0.515625
vt 0.296875 0.5625
vt 0.234375 0.5625
vt 0.234375 0.515625
vt 0.359375 0.5625
vt 0.296875 0.5625
vt 0.296875 0.515625
vt 0.359375 0.515625
vt 0.5625 0.796875
vt 0.5625 0.8125
vt 0.53125 0.8125
vt 0.53125 0.796875
vt 0.2265625 0.46875
vt 0.2265625 0.5
vt 0.1875 0.5
vt 0.1875 0.46875
vt 0.53125 0.78125
vt 0.53125 0.765625
vt 0.5625 0.765625
vt 0.5625 0.78125
vt 0.5 0.65625
vt 0.5 0.6640625
vt 0.46875 0.6640625
vt 0.46875 0.65625
vt 0.46875 0.671875
vt 0.5234375 0.671875
vt 0.5234375 0.6875
vt 0.46875 0.6875
vt 0.5234375 0.65625
vt 0.46875 0.65625
vt 0.46875 0.640625
vt 0.5234375 0.640625
vt 0.46875 0.671875
vt 0.47265625 0.66796875
vt 0.51171875 0.66796875
vt 0.5234375 0.671875
vt 0.51171875 0.66796875
vt 0.5234375 0.658203125
vt 0.5234375 0.671875
vt 0.51953125 0.63671875
vt 0.5234375 0.640625
vt 0.46875 0.640625
vt 0.48046875 0.63671875
vt 0.48046875 0.63671875
vt 0.46875 0.640625
vt 0.46875 0.626953125
vt 0.4765625 0.5
vt 0.453125 0.5
vt 0.453125 0.46875
vt 0.4765625 0.46875
vt 0.5234375 0.515625
vt 0.5234375 0.546875
vt 0.5 0.546875
vt 0.5 0.515625
vt 0.2109375 0.4453125
vt 0.2109375 0.46875
vt 0.1875 0.46875
vt 0.1875 0.4453125
vt 0.51171875 0.84375
vt 0.529296875 0.875
vt 0.470703125 0.875
vt 0.48828125 0.84375
vt 0.529296875 0.84375
vt 0.470703125 0.84375
vt 0.48828125 0.8125
vt 0.51171875 0.8125
vt 0.234375 0.46875
vt 0.2578125 0.46875
vt 0.2578125 0.4453125
vt 0.234375 0.4453125
vt 0.453125 0.46875
vt 0.4765625 0.46875
vt 0.4765625 0.4453125
vt 0.453125 0.4453125
vt 0.03125 0.4921875
vt 0.0625 0.4921875
vt 0.0625 0.46875
vt 0.03125 0.46875
vt 0.0625 0.4921875
vt 0.09375 0.4921875
vt 0.09375 0.46875
vt 0.0625 0.46875
vt 0.265625 0.484375
vt 0.296875 0.484375
vt 0.296875 0.4609375
vt 0.265625 0.4609375
vt 0.296875 0.484375
vt 0.328125 0.484375
vt 0.328125 0.4609375
vt 0.296875 0.4609375
vt 0 0.546875
vt 0.1328125 0.546875
vt 0.1328125 0.53125
vt 0 0.53125
vt 0 0.53125
vt 0.1328125 0.53125
vt 0.1328125 0.515625
vt 0 0.515625
vt 0.46875 1
vt 0.6015625 1
vt 0.6015625 0.984375
vt 0.46875 0.984375
vt 0.46875 0.984375
vt 0.6015625 0.984375
vt 0.6015625 0.96875
vt 0.46875 0.96875
vt 0.453125 0.46875
vt 0.453125 0.5
vt 0.4765625 0.5
vt 0.4765625 0.46875
vt 0.5 0.546875
vt 0.5234375 0.546875
vt 0.5234375 0.515625
vt 0.5 0.515625
vt 0.1875 0.46875
vt 0.2109375 0.46875
vt 0.2109375 0.4453125
vt 0.1875 0.4453125
vt 0.470703125 0.875
vt 0.529296875 0.875
vt 0.51171875 0.84375
vt 0.48828125 0.84375
vt 0.48828125 0.8125
vt 0.470703125 0.84375
vt 0.529296875 0.84375
vt 0.51171875 0.8125
vt 0.53125 0.828125
vt 0.53125 0.84375
vt 0.5625 0.84375
vt 0.5625 0.828125
vt 0.1953125 0.546875
vt 0.2265625 0.546875
vt 0.2265625 0.5
vt 0.1953125 0.5
vt 0.1328125 0.546875
vt 0.1953125 0.546875
vt 0.1953125 0.515625
vt 0.1328125 0.515625
vt 0.234375 0.5625
vt 0.296875 0.5625
vt 0.296875 0.515625
vt 0.234375 0.515625
vt 0.296875 0.515625
vt 0.296875 0.5625
vt 0.359375 0.5625
vt 0.359375 0.515625
vt 0.53125 0.8125
vt 0.5625 0.8125
vt 0.5625 0.796875
vt 0.53125 0.796875
vt 0.1875 0.5
vt 0.2265625 0.5
vt 0.2265625 0.46875
vt 0.1875 0.46875
vt 0.5625 0.765625
vt 0.53125 0.765625
vt 0.53125 0.78125
vt 0.5625 0.78125
vt 0.46875 0.6640625
vt 0.5 0.6640625
vt 0.5 0.65625
vt 0.46875 0.65625
vt 0.5234375 0.6875
vt 0.5234375 0.671875
vt 0.46875 0.671875
vt 0.46875 0.6875
vt 0.46875 0.640625
vt 0.46875 0.65625
vt 0.5234375 0.65625
vt 0.5234375 0.640625
vt 0.51171875 0.66796875
vt 0.47265625 0.66796875
vt 0.46875 0.671875
vt 0.5234375 0.671875
vt 0.5234375 0.658203125
vt 0.51171875 0.66796875
vt 0.5234375 0.671875
vt 0.46875 0.640625
vt 0.5234375 0.640625
vt 0.51953125 0.63671875
vt 0.48046875 0.63671875
vt 0.46875 0.640625
vt 0.48046875 0.63671875
vt 0.46875 0.626953125
vt 0.34375 0.71875
vt 0.703125 0.71875
vt 0.703125 0.75
vt 0.34375 0.75
vt 0.703125 0.71875
vt 0.34375 0.71875
vt 0.34375 0.6875
vt 0.703125 0.6875
vt 0.171875 1
vt 0.171875 0.640625
vt 0.34375 0.640625
vt 0.34375 1
vt 0.546875 0.625
vt 0.375 0.625
vt 0.375 0.59375
vt 0.546875 0.59375
vt 0.375 0.59375
vt 0.375 0.625
vt 0.546875 0.625
vt 0.546875 0.59375
vt 0.171875 0.640625
vt 0.171875 1
vt 0 1
vt 0 0.640625
vt 0.46875 0.6875
vt 0.34375 0.6875
vt 0.34375 0.625
vt 0.46875 0.625
vt 0.125 0.578125
vt 0.125 0.640625
vt 0 0.640625
vt 0 0.578125
vt 0.34375 0.875
vt 0.46875 0.875
vt 0.46875 1
vt 0.34375 1
vt 0.46875 0.75
vt 0.46875 0.875
vt 0.34375 0.875
vt 0.34375 0.75
vt 0.25 0.578125
vt 0.25 0.640625
vt 0.125 0.640625
vt 0.125 0.578125
vt 0.375 0.625
vt 0.25 0.625
vt 0.25 0.5625
vt 0.375 0.5625
vt 0.2578125 0.4453125
vt 0.2578125 0.46875
vt 0.234375 0.46875
vt 0.234375 0.4453125
vt 0.4765625 0.4453125
vt 0.4765625 0.46875
vt 0.453125 0.46875
vt 0.453125 0.4453125
vt 0.0625 0.46875
vt 0.0625 0.4921875
vt 0.03125 0.4921875
vt 0.03125 0.46875
vt 0.09375 0.46875
vt 0.09375 0.4921875
vt 0.0625 0.4921875
vt 0.0625 0.46875
vt 0.296875 0.4609375
vt 0.296875 0.484375
vt 0.265625 0.484375
vt 0.265625 0.4609375
vt 0.328125 0.4609375
vt 0.328125 0.484375
vt 0.296875 0.484375
vt 0.296875 0.4609375
vt 0.1328125 0.53125
vt 0.1328125 0.546875
vt 0 0.546875
vt 0 0.53125
vt 0.1328125 0.515625
vt 0.1328125 0.53125
vt 0 0.53125
vt 0 0.515625
vt 0.6015625 0.984375
vt 0.6015625 1
vt 0.46875 1
vt 0.46875 0.984375
vt 0.6015625 0.96875
vt 0.6015625 0.984375
vt 0.46875 0.984375
vt 0.46875 0.96875
vt 0.3359375 0.625
vt 0.3359375 0.640625
vt 0.25 0.640625
vt 0.25 0.625
vt 0.3125 0.5
vt 0.3125 0.515625
vt 0.2265625 0.515625
vt 0.2265625 0.5
vt 0.15625 0.4296875
vt 0.15625 0.515625
vt 0.140625 0.515625
vt 0.140625 0.4296875
vt 0.171875 0.4296875
vt 0.171875 0.515625
vt 0.15625 0.515625
vt 0.15625 0.4296875
vt 0.25 0.5625
vt 0.25 0.578125
vt 0.234375 0.578125
vt 0.234375 0.5625
vt 0.3984375 0.515625
vt 0.3125 0.515625
vt 0.3125 0.5
vt 0.3984375 0.5
vt 0.484375 0.515625
vt 0.3984375 0.515625
vt 0.3984375 0.5
vt 0.484375 0.5
vt 0.171875 0.4296875
vt 0.1875 0.4296875
vt 0.1875 0.515625
vt 0.171875 0.515625
vt 0.484375 0.4765625
vt 0.5 0.4765625
vt 0.5 0.5625
vt 0.484375 0.5625
vt 0.109375 0.484375
vt 0.09375 0.484375
vt 0.09375 0.46875
vt 0.109375 0.46875
vt 0.328125 0.484375
vt 0.328125 0.5
vt 0.265625 0.5
vt 0.265625 0.484375
vt 0.390625 0.484375
vt 0.390625 0.5
vt 0.328125 0.5
vt 0.328125 0.484375
vt 0.1328125 0.40625
vt 0.1328125 0.46875
vt 0.125 0.46875
vt 0.125 0.40625
vt 0.140625 0.40625
vt 0.140625 0.46875
vt 0.1328125 0.46875
vt 0.1328125 0.40625
vt 0.34375 0.625
vt 0.34375 0.640625
vt 0.3359375 0.640625
vt 0.3359375 0.625
vt 0.453125 0.484375
vt 0.453125 0.5
vt 0.390625 0.5
vt 0.390625 0.484375
vt 0.5625 0.546875
vt 0.5625 0.5625
vt 0.5 0.5625
vt 0.5 0.546875
vt 0.03125 0.3984375
vt 0.03125 0.4609375
vt 0.0234375 0.4609375
vt 0.0234375 0.3984375
vt 0.4296875 0.3984375
vt 0.4296875 0.4609375
vt 0.421875 0.4609375
vt 0.421875 0.3984375
vt 0.234375 0.53125
vt 0.234375 0.546875
vt 0.2265625 0.546875
vt 0.2265625 0.53125
vt 0.5625 0.84375
vt 0.5625 0.859375
vt 0.5234375 0.859375
vt 0.5234375 0.84375
vt 0.5625 0.8125
vt 0.5625 0.828125
vt 0.5234375 0.828125
vt 0.5234375 0.8125
vt 0.5625 0.78125
vt 0.5625 0.796875
vt 0.5234375 0.796875
vt 0.5234375 0.78125
vt 0.5625 0.765625
vt 0.5234375 0.765625
vt 0.5234375 0.75
vt 0.5625 0.75
vt 0.0859375 0.453125
vt 0.125 0.453125
vt 0.125 0.46875
vt 0.0859375 0.46875
vt 0.53125 0.890625
vt 0.5703125 0.890625
vt 0.5703125 0.90625
vt 0.53125 0.90625
vt 0.5703125 0.890625
vt 0.53125 0.890625
vt 0.53125 0.875
vt 0.5703125 0.875
vt 0.5703125 0.859375
vt 0.5703125 0.875
vt 0.53125 0.875
vt 0.53125 0.859375
vn 1 0 0
vn -1 0 0
vn 0 -1 0
vn 0 0 1
vn 0 0 -1
vn 1 0 0
vn 0 -1 0
vn 0.6401843996644799 -0.7682212795973759 0
vn 0.7071067811865476 -0.7071067811865476 0
vn 0 0 -1
vn 0 0 1
vn 0 0 -1
vn 0 0 -1
vn 0 0 1
vn 0 0 1
vn 0.8411784753765535 -0.5407575913134988 0
vn -0.8411784753765535 -0.5407575913134988 0
vn 0 -1 0
vn 0 0 1
vn 0 0 -1
vn 1 0 0
vn -1 0 0
vn 0 1 0
vn 0 -1 0
vn 0 0 -1
vn 0 0 1
vn 0 1 0
vn 0 -1 0
vn 0 0 -1
vn 0 0 1
vn 0.8411784753765535 -0.5407575913134988 0
vn -0.8411784753765535 -0.5407575913134988 0
vn 0 -1 0
vn 0 0 -1
vn 0 0 1
vn 1 0 0
vn -1 0 0
vn 0 -1 0
vn 0 0 -1
vn 0 0 1
vn 1 0 0
vn 0 -1 0
vn 0.6401843996644799 -0.7682212795973759 0
vn 0.7071067811865476 -0.7071067811865476 0
vn 0 0 1
vn 0 0 -1
vn 0 0 1
vn 0 0 1
vn 0 0 -1
vn 0 0 -1
vn 1 0 0
vn -1 0 0
vn 0 -1 0
vn 0 0 -1
vn 0 0 1
vn 0 1 0
vn 1 0 0
vn -1 0 0
vn 0 1 0
vn 0 -1 0
vn 0 0 1
vn 0 0 -1
vn 1 0 0
vn -1 0 0
vn 0 1 0
vn 0 -1 0
vn 0 0 1
vn 0 0 -1
vn 0 1 0
vn 0 -1 0
vn 0 0 1
vn 0 0 -1
vn 1 0 0
vn -1 0 0
vn 0 1 0
vn 0 -1 0
vn 0 0 -1
vn 1 0 0
vn -1 0 0
vn 0 1 0
vn 0 -1 0
vn 0 0 1
vn 1 0 0
vn -1 0 0
vn 0 1 0
vn 0 -1 0
vn 0 0 1
vn 1 0 0
vn -1 0 0
vn 0 1 0
vn 0 -1 0
vn 0 0 -1
vn 0 1 0
vn 0 -1 0
vn 0 0 -1
vn 0 0 1
vn 0 1 0
vn 0 -1 0
vn 0 0 1
vn 0 0 -1
usemtl m_112ae92c-2238-05db-564c-cb10b3476d9a
f 2/1/1 1/2/1 3/3/1 4/4/1
f 9/5/2 7/6/2 8/7/2 10/8/2
f 6/9/3 5/10/3 9/11/3 10/12/3
f 5/13/4 19/14/4 7/15/4 9/16/4
f 8/17/5 18/18/5 6/19/5 10/20/5
f 6/21/6 11/22/6 12/23/6 5/24/6
f 14/25/7 13/26/7 15/27/7 16/28/7
f 15/29/8 12/30/8 11/31/8 16/32/8
f 14/33/9 4/34/9 3/35/9 13/36/9
f 4/37/10 17/38/10 18/39/10 2/40/10
f 1/41/11 19/42/11 20/43/11 3/44/11
f 4/45/12 14/46/12 16/47/12 17/48/12
f 16/49/13 11/50/13 17/51/13
f 13/52/14 3/53/14 20/54/14 15/55/14
f 15/56/15 20/57/15 12/58/15
f 22/59/16 21/60/16 23/61/16 24/62/16
f 27/63/17 25/64/17 26/65/17 28/66/17
f 24/67/18 23/68/18 27/69/18 28/70/18
f 23/71/19 21/72/19 25/73/19 27/74/19
f 26/75/20 22/76/20 24/77/20 28/78/20
f 29/79/21 30/80/21 32/81/21 31/82/21
f 34/83/22 33/84/22 35/85/22 36/86/22
f 34/87/23 30/88/23 29/89/23 33/90/23
f 35/91/24 31/92/24 32/93/24 36/94/24
f 33/95/25 29/96/25 31/97/25 35/98/25
f 30/99/26 34/100/26 36/101/26 32/102/26
f 42/103/27 38/104/27 37/105/27 41/106/27
f 43/107/28 39/108/28 40/109/28 44/110/28
f 41/111/29 37/112/29 39/113/29 43/114/29
f 38/115/30 42/116/30 44/117/30 40/118/30
f 47/119/31 45/120/31 46/121/31 48/122/31
f 50/123/32 49/124/32 51/125/32 52/126/32
f 51/127/33 47/128/33 48/129/33 52/130/33
f 49/131/34 45/132/34 47/133/34 51/134/34
f 48/135/35 46/136/35 50/137/35 52/138/35
f 55/139/36 53/140/36 54/141/36 56/142/36
f 60/143/37 59/144/37 61/145/37 62/146/37
f 61/147/38 57/148/38 58/149/38 62/150/38
f 59/151/39 71/152/39 57/153/39 61/154/39
f 58/155/40 70/156/40 60/157/40 62/158/40
f 64/159/41 63/160/41 58/161/41 57/162/41
f 67/163/42 65/164/42 66/165/42 68/166/42
f 63/167/43 64/168/43 67/169/43 68/170/43
f 55/171/44 56/172/44 66/173/44 65/174/44
f 70/175/45 69/176/45 56/177/45 54/178/45
f 72/179/46 71/180/46 53/181/46 55/182/46
f 68/183/47 66/184/47 56/185/47 69/186/47
f 63/187/48 68/188/48 69/189/48
f 72/190/49 55/191/49 65/192/49 67/193/49
f 72/194/50 67/195/50 64/196/50
f 78/197/51 74/198/51 73/199/51 77/200/51
f 79/201/52 75/202/52 76/203/52 80/204/52
f 80/205/53 76/206/53 74/207/53 78/208/53
f 83/209/54 81/210/54 82/211/54 84/212/54
f 86/213/55 85/214/55 87/215/55 88/216/55
f 77/217/56 73/218/56 75/219/56 79/220/56
f 90/221/57 89/222/57 91/223/57 92/224/57
f 95/225/58 93/226/58 94/227/58 96/228/58
f 93/229/59 89/230/59 90/231/59 94/232/59
f 92/233/60 91/234/60 95/235/60 96/236/60
f 91/237/61 89/238/61 93/239/61 95/240/61
f 94/241/62 90/242/62 92/243/62 96/244/62
f 100/245/63 98/246/63 97/247/63 99/248/63
f 103/249/64 101/250/64 102/251/64 104/252/64
f 97/253/65 98/254/65 102/255/65 101/256/65
f 100/257/66 99/258/66 103/259/66 104/260/66
f 99/261/67 97/262/67 101/263/67 103/264/67
f 104/265/68 102/266/68 98/267/68 100/268/68
f 105/269/69 106/270/69 110/271/69 109/272/69
f 108/273/70 107/274/70 111/275/70 112/276/70
f 107/277/71 105/278/71 109/279/71 111/280/71
f 112/281/72 110/282/72 106/283/72 108/284/72
f 116/285/73 114/286/73 113/287/73 115/288/73
f 119/289/74 117/290/74 118/291/74 120/292/74
f 113/293/75 114/294/75 118/295/75 117/296/75
f 116/297/76 115/298/76 119/299/76 120/300/76
f 120/301/77 118/302/77 114/303/77 116/304/77
f 121/305/78 122/306/78 124/307/78 123/308/78
f 126/309/79 125/310/79 127/311/79 128/312/79
f 126/313/80 122/314/80 121/315/80 125/316/80
f 127/317/81 123/318/81 124/319/81 128/320/81
f 122/321/82 126/322/82 128/323/82 124/324/82
f 132/325/83 130/326/83 129/327/83 131/328/83
f 135/329/84 133/330/84 134/331/84 136/332/84
f 129/333/85 130/334/85 134/335/85 133/336/85
f 132/337/86 131/338/86 135/339/86 136/340/86
f 131/341/87 129/342/87 133/343/87 135/344/87
f 140/345/88 138/346/88 137/347/88 139/348/88
f 143/349/89 141/350/89 142/351/89 144/352/89
f 137/353/90 138/354/90 142/355/90 141/356/90
f 140/357/91 139/358/91 143/359/91 144/360/91
f 144/361/92 142/362/92 138/363/92 140/364/92
f 145/365/93 146/366/93 150/367/93 149/368/93
f 148/369/94 147/370/94 151/371/94 152/372/94
f 152/373/95 150/374/95 146/375/95 148/376/95
f 145/377/96 149/378/96 151/379/96 147/380/96
f 158/381/97 154/382/97 153/383/97 157/384/97
f 159/385/98 155/386/98 156/387/98 160/388/98
f 154/389/99 158/390/99 160/391/99 156/392/99
f 159/393/100 157/394/100 153/395/100 155/396/100
o cube
v 1.275 0.14375 1.2375
v 1.275 0.14375 1.01875
v 1.275 -0.012500000000000011 1.2375
v 1.275 -0.012500000000000011 1.01875
v 1.1125 0.14375 1.2375
v 1.1125 0.14375 1.01875
v 1.1125 -0.012500000000000011 1.2375
v 1.1125 -0.012500000000000011 1.01875
vt 0.53125 0.4609375
vt 0.53125 0.484375
vt 0.5 0.484375
vt 0.5 0.4609375
vt 0.5546875 0.6640625
vt 0.5546875 0.6875
vt 0.5234375 0.6875
vt 0.5234375 0.6640625
vt 0.5234375 0.6640625
vt 0.5234375 0.6328125
vt 0.546875 0.6328125
vt 0.546875 0.6640625
vt 0.5234375 0.515625
vt 0.5234375 0.546875
vt 0.546875 0.546875
vt 0.546875 0.515625
vt 0.28125 0.4375
vt 0.28125 0.4609375
vt 0.2578125 0.4609375
vt 0.2578125 0.4375
vt 0.0234375 0.4375
vt 0.0234375 0.4609375
vt 0 0.4609375
vt 0 0.4375
vn 1 0 0
vn -1 0 0
vn 0 1 0
vn 0 -1 0
vn 0 0 1
vn 0 0 -1
usemtl m_112ae92c-2238-05db-564c-cb10b3476d9a
f 164/397/101 162/398/101 161/399/101 163/400/101
f 167/401/102 165/402/102 166/403/102 168/404/102
f 161/405/103 162/406/103 166/407/103 165/408/103
f 164/409/104 163/410/104 167/411/104 168/412/104
f 163/413/105 161/414/105 165/415/105 167/416/105
f 168/417/106 166/418/106 162/419/106 164/420/106
o cube
v 1.275 0.14375 -0.018750000000000044
v 1.275 0.14375 -0.23750000000000004
v 1.275 -0.012500000000000011 -0.018750000000000044
v 1.275 -0.012500000000000011 -0.23750000000000004
v 1.1125 0.14375 -0.018750000000000044
v 1.1125 0.14375 -0.23750000000000004
v 1.1125 -0.012500000000000011 -0.018750000000000044
v 1.1125 -0.012500000000000011 -0.23750000000000004
vt 0.5546875 0.4921875
vt 0.5546875 0.515625
vt 0.5234375 0.515625
vt 0.5234375 0.4921875
vt 0.0625 0.4453125
vt 0.0625 0.46875
vt 0.03125 0.46875
vt 0.03125 0.4453125
vt 0.4765625 0.4765625
vt 0.4765625 0.4453125
vt 0.5 0.4453125
vt 0.5 0.4765625
vt 0.0625 0.4375
vt 0.0625 0.46875
vt 0.0859375 0.46875
vt 0.0859375 0.4375
vt 0.328125 0.4375
vt 0.328125 0.4609375
vt 0.3046875 0.4609375
vt 0.3046875 0.4375
vt 0.3046875 0.4375
vt 0.3046875 0.4609375
vt 0.28125 0.4609375
vt 0.28125 0.4375
vn 1 0 0
vn -1 0 0
vn 0 1 0
vn 0 -1 0
vn 0 0 1
vn 0 0 -1
usemtl m_112ae92c-2238-05db-564c-cb10b3476d9a
f 172/421/107 170/422/107 169/423/107 171/424/107
f 175/425/108 173/426/108 174/427/108 176/428/108
f 169/429/109 170/430/109 174/431/109 173/432/109
f 172/433/110 171/434/110 175/435/110 176/436/110
f 171/437/111 169/438/111 173/439/111 175/440/111
f 176/441/112 174/442/112 170/443/112 172/444/112