# Made in Blockbench 4.10.4
mtllib end_face_original_25z_3.mtl

o cube
v -0.15625 -0.8765625 1.334375
v 1.1875 1.3125 1.5
v 1.1875 1.3125 1.328125
v 1.1875 1.125 1.5
v 1.1875 1.125 1.328125
v -0.1875 1.3125 1.5
v -0.1875 1.3125 1.328125
v -0.1875 1.125 1.5
v -0.1875 1.125 1.328125
v 1.140625 1.19375 1.390625
v 1.140625 1.19375 1.0609375
v 1.140625 1.1171875 1.390625
v 1.140625 1.1171875 1.0609375
v -0.140625 1.19375 1.390625
v -0.140625 1.19375 1.0609375
v -0.140625 1.1171875 1.390625
v -0.140625 1.1171875 1.0609375
v 0.03125 1.125 1.5
v 0.03125 1.125 1.334375
v 0.03125 -0.8765625 1.5
v 0.03125 -0.8765625 1.334375
v -0.15625 1.125 1.5
v -0.15625 1.125 1.334375
v -0.15625 -0.8765625 1.5
v 1.1375 1.125 1.390625
v 1.1375 1.125 1.06875
v 1.1375 -0.875 1.390625
v 1.1375 -0.875 1.06875
v 0.95 1.125 1.390625
v 0.95 1.125 1.06875
v 0.95 -0.875 1.390625
v 0.95 -0.875 1.06875
v 1.15625 1.125 1.5
v 1.15625 1.125 1.334375
v 1.15625 -0.8765625 1.5
v 1.15625 -0.8765625 1.334375
v 0.96875 1.125 1.5
v 0.96875 1.125 1.334375
v 0.96875 -0.8765625 1.5
v 0.96875 -0.8765625 1.334375
v 0.050000000000000044 1.125 1.390625
v 0.050000000000000044 1.125 1.06875
v 0.050000000000000044 -0.875 1.390625
v 0.050000000000000044 -0.875 1.06875
v -0.13749999999999996 1.125 1.390625
v -0.13749999999999996 1.125 1.06875
v -0.13749999999999996 -0.875 1.390625
v -0.13749999999999996 -0.875 1.06875
v 1.0625 -0.875 1.490625
v 1.0625 -0.875 1.390625
v 1.0625 -1 1.490625
v 1.0625 -1 1.390625
v -0.0625 -0.875 1.490625
v -0.0625 -0.875 1.390625
v -0.0625 -1 1.490625
v -0.0625 -1 1.390625
v 1.0625 -0.875 1.390625
v 1.0625 -0.875 0.9468749999999999
v 1.0625 -1 1.390625
v 1.0625 -1 0.9468749999999999
v -0.0625 -0.875 1.390625
v -0.0625 -0.875 0.9468749999999999
v -0.0625 -1 1.390625
v -0.0625 -1 0.9468749999999999
v 0.9375 1.3125 1.06875
v 0.9375 1.3125 0.9437500000000001
v 0.9375 1.125 1.06875
v 0.9375 1.125 0.9437500000000001
v 0.0625 1.3125 1.06875
v 0.0625 1.3125 0.9437500000000001
v 0.0625 1.125 1.06875
v 0.0625 1.125 0.9437500000000001
v -0.828125 -0.84375 1.225
v -0.828125 -0.84375 1.06875
v -0.828125 -0.90625 1.225
v -0.828125 -0.90625 1.06875
v -0.890625 -0.84375 1.225
v -0.890625 -0.84375 1.06875
v -0.890625 -0.90625 1.225
v -0.890625 -0.90625 1.06875
v -0.5 -0.84375 1.225
v -0.5 -0.84375 1.1625
v -0.5 -0.90625 1.225
v -0.5 -0.90625 1.1625
v -0.828125 -0.84375 1.225
v -0.828125 -0.84375 1.1625
v -0.828125 -0.90625 1.225
v -0.828125 -0.90625 1.1625
v -0.765625 -0.40625 1.225
v -0.765625 -0.40625 1.06875
v -0.765625 -0.46875 1.225
v -0.765625 -0.46875 1.06875
v -0.828125 -0.40625 1.225
v -0.828125 -0.40625 1.06875
v -0.828125 -0.46875 1.225
v -0.828125 -0.46875 1.06875
v -0.375 -0.40625 1.225
v -0.375 -0.40625 1.06875
v -0.375 -0.46875 1.225
v -0.375 -0.46875 1.06875
v -0.4375 -0.40625 1.225
v -0.4375 -0.40625 1.06875
v -0.4375 -0.46875 1.225
v -0.4375 -0.46875 1.06875
v -0.4375 -0.40625 1.225
v -0.4375 -0.40625 1.1625
v -0.4375 -0.46875 1.225
v -0.4375 -0.46875 1.1625
v -0.765625 -0.40625 1.225
v -0.765625 -0.40625 1.1625
v -0.765625 -0.46875 1.225
v -0.765625 -0.46875 1.1625
v -0.765625 0.03125 1.225
v -0.765625 0.03125 1.06875
v -0.765625 -0.03125 1.225
v -0.765625 -0.03125 1.06875
v -0.828125 0.03125 1.225
v -0.828125 0.03125 1.06875
v -0.828125 -0.03125 1.225
v -0.828125 -0.03125 1.06875
v -0.375 0.03125 1.225
v -0.375 0.03125 1.06875
v -0.375 -0.03125 1.225
v -0.375 -0.03125 1.06875
v -0.4375 0.03125 1.225
v -0.4375 0.03125 1.06875
v -0.4375 -0.03125 1.225
v -0.4375 -0.03125 1.06875
v -0.4375 0.03125 1.225
v -0.4375 0.03125 1.1625
v -0.4375 -0.03125 1.225
v -0.4375 -0.03125 1.1625
v -0.765625 0.03125 1.225
v -0.765625 0.03125 1.1625
v -0.765625 -0.03125 1.225
v -0.765625 -0.03125 1.1625
v -0.75 0.46875 1.225
v -0.75 0.46875 1.06875
v -0.75 0.40625 1.225
v -0.75 0.40625 1.06875
v -0.8125 0.46875 1.225
v -0.8125 0.46875 1.06875
v -0.8125 0.40625 1.225
v -0.8125 0.40625 1.06875
v -0.359375 0.46875 1.225
v -0.359375 0.46875 1.06875
v -0.359375 0.40625 1.225
v -0.359375 0.40625 1.06875
v -0.421875 0.46875 1.225
v -0.421875 0.46875 1.06875
v -0.421875 0.40625 1.225
v -0.421875 0.40625 1.06875
v -0.421875 0.46875 1.225
v -0.421875 0.46875 1.1625
v -0.421875 0.40625 1.225
v -0.421875 0.40625 1.1625
v -0.75 0.46875 1.225
v -0.75 0.46875 1.1625
v -0.75 0.40625 1.225
v -0.75 0.40625 1.1625
v -0.4375 -0.84375 1.225
v -0.4375 -0.84375 1.06875
v -0.4375 -0.90625 1.225
v -0.4375 -0.90625 1.06875
v -0.5 -0.84375 1.225
v -0.5 -0.84375 1.06875
v -0.5 -0.90625 1.225
v -0.5 -0.90625 1.06875
v 0.0625 1.3125 1.06875
v 0.0625 1.3125 0.9437500000000001
v 0.0625 -1 1.06875
v 0.0625 -1 0.9437500000000001
v -0.9953125 1.3125 1.06875
v -0.9953125 1.3125 0.9437500000000001
v -0.9953125 -1 1.06875
v -0.9953125 -1 0.9437500000000001
v -0.5625 1.3125 1.19375
v -0.5625 1.3125 1.06875
v -0.5625 0.734375 1.19375
v -0.5625 0.734375 1.06875
v -1 1.3125 1.19375
v -1 1.3125 1.06875
v -1 0.734375 1.19375
v -1 0.734375 1.06875
v 1.9953124999999998 1.3125 1.06875
v 1.9953124999999998 1.3125 0.9437500000000001
v 1.9953124999999998 -1 1.06875
v 1.9953124999999998 -1 0.9437500000000001
v 0.9374999999999999 1.3125 1.06875
v 0.9374999999999999 1.3125 0.9437500000000001
v 0.9374999999999999 -1 1.06875
v 0.9374999999999999 -1 0.9437500000000001
vt 0.625 0.78125
vt 0.625 0.8046875
vt 0.6015625 0.8046875
vt 0.6015625 0.78125
vt 0.421875 0.7265625
vt 0.421875 0.75
vt 0.3984375 0.75
vt 0.3984375 0.7265625
vt 0.375 0.4609375
vt 0.3515625 0.4609375
vt 0.3515625 0.2890625
vt 0.375 0.2890625
vt 0.375 0.4609375
vt 0.3984375 0.4609375
vt 0.3984375 0.2890625
vt 0.375 0.2890625
vt 0.71875 0.953125
vt 0.71875 0.9765625
vt 0.546875 0.9765625
vt 0.546875 0.953125
vt 0.71875 0.9765625
vt 0.71875 1
vt 0.546875 1
vt 0.546875 0.9765625
vt 0.21875 0.375
vt 0.21875 0.3828125
vt 0.1796875 0.3828125
vt 0.1796875 0.375
vt 0.65625 0.8984375
vt 0.65625 0.90625
vt 0.6171875 0.90625
vt 0.6171875 0.8984375
vt 0.515625 0.5
vt 0.4765625 0.5
vt 0.4765625 0.359375
vt 0.515625 0.359375
vt 0.5078125 1
vt 0.546875 1
vt 0.546875 0.859375
vt 0.5078125 0.859375
vt 0.7265625 0.6328125
vt 0.7265625 0.640625
vt 0.5859375 0.640625
vt 0.5859375 0.6328125
vt 0.6953125 0.5703125
vt 0.6953125 0.578125
vt 0.5546875 0.578125
vt 0.5546875 0.5703125
vt 0.3515625 0.34375
vt 0.3515625 0.59375
vt 0.328125 0.59375
vt 0.328125 0.34375
vt 0.3046875 0.34375
vt 0.3046875 0.59375
vt 0.28125 0.59375
vt 0.28125 0.34375
vt 0.625 0.78125
vt 0.6015625 0.78125
vt 0.6015625 0.7578125
vt 0.625 0.7578125
vt 0.6015625 0.7578125
vt 0.625 0.7578125
vt 0.625 0.734375
vt 0.6015625 0.734375
vt 0.453125 0.5
vt 0.453125 0.75
vt 0.4296875 0.75
vt 0.4296875 0.5
vt 0.328125 0.34375
vt 0.328125 0.59375
vt 0.3046875 0.59375
vt 0.3046875 0.34375
vt 0.4296875 0.4609375
vt 0.4296875 0.7109375
vt 0.390625 0.7109375
vt 0.390625 0.4609375
vt 0.390625 0.4609375
vt 0.390625 0.7109375
vt 0.3515625 0.7109375
vt 0.3515625 0.4609375
vt 0.625 0.6328125
vt 0.5859375 0.6328125
vt 0.5859375 0.609375
vt 0.625 0.609375
vt 0.59375 0.46875
vt 0.6328125 0.46875
vt 0.6328125 0.4453125
vt 0.59375 0.4453125
vt 0.4765625 0.5
vt 0.4765625 0.75
vt 0.453125 0.75
vt 0.453125 0.5
vt 0.4609375 0.75
vt 0.4609375 1
vt 0.4375 1
vt 0.4375 0.75
vt 0.5078125 0.75
vt 0.5078125 1
vt 0.484375 1
vt 0.484375 0.75
vt 0.484375 0.75
vt 0.484375 1
vt 0.4609375 1
vt 0.4609375 0.75
vt 0.625 0.734375
vt 0.6015625 0.734375
vt 0.6015625 0.7109375
vt 0.625 0.7109375
vt 0.6015625 0.7109375
vt 0.625 0.7109375
vt 0.625 0.6875
vt 0.6015625 0.6875
vt 0.5234375 0.5
vt 0.5234375 0.75
vt 0.5 0.75
vt 0.5 0.5
vt 0.5 0.5
vt 0.5 0.75
vt 0.4765625 0.75
vt 0.4765625 0.5
vt 0.171875 0.34375
vt 0.171875 0.59375
vt 0.1328125 0.59375
vt 0.1328125 0.34375
vt 0.4375 0.75
vt 0.4375 1
vt 0.3984375 1
vt 0.3984375 0.75
vt 0.6328125 0.4453125
vt 0.59375 0.4453125
vt 0.59375 0.421875
vt 0.6328125 0.421875
vt 0.59375 0.421875
vt 0.6328125 0.421875
vt 0.6328125 0.3984375
vt 0.59375 0.3984375
vt 0.4765625 0.25
vt 0.4765625 0.5
vt 0.453125 0.5
vt 0.453125 0.25
vt 0.453125 0.25
vt 0.453125 0.5
vt 0.4296875 0.5
vt 0.4296875 0.25
vt 0.6328125 0.8046875
vt 0.6328125 0.8203125
vt 0.6171875 0.8203125
vt 0.6171875 0.8046875
vt 0.4140625 0.7109375
vt 0.4140625 0.7265625
vt 0.3984375 0.7265625
vt 0.3984375 0.7109375
vt 0.4140625 0.4609375
vt 0.3984375 0.4609375
vt 0.3984375 0.3203125
vt 0.4140625 0.3203125
vt 0.4140625 0.4609375
vt 0.4296875 0.4609375
vt 0.4296875 0.3203125
vt 0.4140625 0.3203125
vt 0.6875 0.515625
vt 0.6875 0.53125
vt 0.546875 0.53125
vt 0.546875 0.515625
vt 0.6875 0.53125
vt 0.6875 0.546875
vt 0.546875 0.546875
vt 0.546875 0.53125
vt 0.65625 0.8828125
vt 0.65625 0.8984375
vt 0.6015625 0.8984375
vt 0.6015625 0.8828125
vt 0.640625 0.59375
vt 0.640625 0.609375
vt 0.5859375 0.609375
vt 0.5859375 0.59375
vt 0.2265625 0.59375
vt 0.171875 0.59375
vt 0.171875 0.453125
vt 0.2265625 0.453125
vt 0.2265625 0.59375
vt 0.28125 0.59375
vt 0.28125 0.453125
vt 0.2265625 0.453125
vt 0.6875 0.484375
vt 0.6875 0.5
vt 0.546875 0.5
vt 0.546875 0.484375
vt 0.6875 0.5
vt 0.6875 0.515625
vt 0.546875 0.515625
vt 0.546875 0.5
vt 0.6171875 0.640625
vt 0.6171875 0.6640625
vt 0.6015625 0.6640625
vt 0.6015625 0.640625
vt 0.6171875 0.6640625
vt 0.6171875 0.6875
vt 0.6015625 0.6875
vt 0.6015625 0.6640625
vt 0.5234375 0.859375
vt 0.5078125 0.859375
vt 0.5078125 0.75
vt 0.5234375 0.75
vt 0.078125 0.421875
vt 0.09375 0.421875
vt 0.09375 0.3125
vt 0.078125 0.3125
vt 0.65625 0.546875
vt 0.65625 0.5703125
vt 0.546875 0.5703125
vt 0.546875 0.546875
vt 0.65625 0.859375
vt 0.65625 0.8828125
vt 0.546875 0.8828125
vt 0.546875 0.859375
vt 0.6484375 0.8515625
vt 0.6484375 0.859375
vt 0.625 0.859375
vt 0.625 0.8515625
vt 0.640625 0.3828125
vt 0.640625 0.390625
vt 0.6171875 0.390625
vt 0.6171875 0.3828125
vt 0.6484375 0.8515625
vt 0.625 0.8515625
vt 0.625 0.84375
vt 0.6484375 0.84375
vt 0.625 0.84375
vt 0.6484375 0.84375
vt 0.6484375 0.8359375
vt 0.625 0.8359375
vt 0.53125 0.515625
vt 0.53125 0.5234375
vt 0.5234375 0.5234375
vt 0.5234375 0.515625
vt 0.53125 0.5234375
vt 0.53125 0.53125
vt 0.5234375 0.53125
vt 0.5234375 0.5234375
vt 0.53125 0.5
vt 0.53125 0.5078125
vt 0.5234375 0.5078125
vt 0.5234375 0.5
vt 0.53125 0.5078125
vt 0.53125 0.515625
vt 0.5234375 0.515625
vt 0.5234375 0.5078125
vt 0.4296875 0.75
vt 0.421875 0.75
vt 0.421875 0.7109375
vt 0.4296875 0.7109375
vt 0.5234375 0.5703125
vt 0.53125 0.5703125
vt 0.53125 0.53125
vt 0.5234375 0.53125
vt 0.6171875 0.3828125
vt 0.6171875 0.390625
vt 0.578125 0.390625
vt 0.578125 0.3828125
vt 0.6328125 0.390625
vt 0.6328125 0.3984375
vt 0.59375 0.3984375
vt 0.59375 0.390625
vt 0.6484375 0.8203125
vt 0.6484375 0.828125
vt 0.625 0.828125
vt 0.625 0.8203125
vt 0.6484375 0.828125
vt 0.6484375 0.8359375
vt 0.625 0.8359375
vt 0.625 0.828125
vt 0.203125 0.375
vt 0.1796875 0.375
vt 0.1796875 0.3671875
vt 0.203125 0.3671875
vt 0.625 0.8046875
vt 0.6484375 0.8046875
vt 0.6484375 0.796875
vt 0.625 0.796875
vt 0.28125 0.3671875
vt 0.28125 0.375
vt 0.2734375 0.375
vt 0.2734375 0.3671875
vt 0.2265625 0.375
vt 0.2265625 0.3828125
vt 0.21875 0.3828125
vt 0.21875 0.375
vt 0.6484375 0.7890625
vt 0.6484375 0.796875
vt 0.625 0.796875
vt 0.625 0.7890625
vt 0.2265625 0.3671875
vt 0.2265625 0.375
vt 0.203125 0.375
vt 0.203125 0.3671875
vt 0.6484375 0.7890625
vt 0.625 0.7890625
vt 0.625 0.78125
vt 0.6484375 0.78125
vt 0.625 0.78125
vt 0.6484375 0.78125
vt 0.6484375 0.7734375
vt 0.625 0.7734375
vt 0.640625 0.6484375
vt 0.640625 0.65625
vt 0.6328125 0.65625
vt 0.6328125 0.6484375
vt 0.28125 0.359375
vt 0.28125 0.3671875
vt 0.2734375 0.3671875
vt 0.2734375 0.359375
vt 0.640625 0.5859375
vt 0.640625 0.59375
vt 0.6328125 0.59375
vt 0.6328125 0.5859375
vt 0.640625 0.640625
vt 0.640625 0.6484375
vt 0.6328125 0.6484375
vt 0.6328125 0.640625
vt 0.28125 0.453125
vt 0.2734375 0.453125
vt 0.2734375 0.4140625
vt 0.28125 0.4140625
vt 0.125 0.421875
vt 0.1328125 0.421875
vt 0.1328125 0.3828125
vt 0.125 0.3828125
vt 0.65625 0.9375
vt 0.65625 0.9453125
vt 0.6171875 0.9453125
vt 0.6171875 0.9375
vt 0.65625 0.9453125
vt 0.65625 0.953125
vt 0.6171875 0.953125
vt 0.6171875 0.9453125
vt 0.6484375 0.7578125
vt 0.6484375 0.765625
vt 0.625 0.765625
vt 0.625 0.7578125
vt 0.6484375 0.765625
vt 0.6484375 0.7734375
vt 0.625 0.7734375
vt 0.625 0.765625
vt 0.6484375 0.7578125
vt 0.625 0.7578125
vt 0.625 0.75
vt 0.6484375 0.75
vt 0.625 0.75
vt 0.6484375 0.75
vt 0.6484375 0.7421875
vt 0.625 0.7421875
vt 0.640625 0.4609375
vt 0.640625 0.46875
vt 0.6328125 0.46875
vt 0.6328125 0.4609375
vt 0.640625 0.578125
vt 0.640625 0.5859375
vt 0.6328125 0.5859375
vt 0.6328125 0.578125
vt 0.6484375 0.7265625
vt 0.6484375 0.734375
vt 0.625 0.734375
vt 0.625 0.7265625
vt 0.6484375 0.734375
vt 0.6484375 0.7421875
vt 0.625 0.7421875
vt 0.625 0.734375
vt 0.6484375 0.7265625
vt 0.625 0.7265625
vt 0.625 0.71875
vt 0.6484375 0.71875
vt 0.625 0.71875
vt 0.6484375 0.71875
vt 0.6484375 0.7109375
vt 0.625 0.7109375
vt 0.640625 0.4453125
vt 0.640625 0.453125
vt 0.6328125 0.453125
vt 0.6328125 0.4453125
vt 0.640625 0.453125
vt 0.640625 0.4609375
vt 0.6328125 0.4609375
vt 0.6328125 0.453125
vt 0.640625 0.4296875
vt 0.640625 0.4375
vt 0.6328125 0.4375
vt 0.6328125 0.4296875
vt 0.640625 0.4375
vt 0.640625 0.4453125
vt 0.6328125 0.4453125
vt 0.6328125 0.4375
vt 0.28125 0.4140625
vt 0.2734375 0.4140625
vt 0.2734375 0.375
vt 0.28125 0.375
vt 0.125 0.3828125
vt 0.1328125 0.3828125
vt 0.1328125 0.34375
vt 0.125 0.34375
vt 0.65625 0.921875
vt 0.65625 0.9296875
vt 0.6171875 0.9296875
vt 0.6171875 0.921875
vt 0.65625 0.9296875
vt 0.65625 0.9375
vt 0.6171875 0.9375
vt 0.6171875 0.9296875
vt 0.6484375 0.6953125
vt 0.6484375 0.703125
vt 0.625 0.703125
vt 0.625 0.6953125
vt 0.6484375 0.703125
vt 0.6484375 0.7109375
vt 0.625 0.7109375
vt 0.625 0.703125
vt 0.6484375 0.6953125
vt 0.625 0.6953125
vt 0.625 0.6875
vt 0.6484375 0.6875
vt 0.625 0.6328125
vt 0.6484375 0.6328125
vt 0.6484375 0.625
vt 0.625 0.625
vt 0.5859375 0.359375
vt 0.5859375 0.3671875
vt 0.578125 0.3671875
vt 0.578125 0.359375
vt 0.640625 0.421875
vt 0.640625 0.4296875
vt 0.6328125 0.4296875
vt 0.6328125 0.421875
vt 0.6484375 0.609375
vt 0.6484375 0.6171875
vt 0.625 0.6171875
vt 0.625 0.609375
vt 0.6484375 0.6171875
vt 0.6484375 0.625
vt 0.625 0.625
vt 0.625 0.6171875
vt 0.6484375 0.3828125
vt 0.625 0.3828125
vt 0.625 0.375
vt 0.6484375 0.375
vt 0.625 0.375
vt 0.6484375 0.375
vt 0.6484375 0.3671875
vt 0.625 0.3671875
vt 0.59375 0.359375
vt 0.59375 0.3671875
vt 0.5859375 0.3671875
vt 0.5859375 0.359375
vt 0.640625 0.4140625
vt 0.640625 0.421875
vt 0.6328125 0.421875
vt 0.6328125 0.4140625
vt 0.6015625 0.359375
vt 0.6015625 0.3671875
vt 0.59375 0.3671875
vt 0.59375 0.359375
vt 0.640625 0.40625
vt 0.640625 0.4140625
vt 0.6328125 0.4140625
vt 0.6328125 0.40625
vt 0.625 0.859375
vt 0.6171875 0.859375
vt 0.6171875 0.8203125
vt 0.625 0.8203125
vt 0.171875 0.3828125
vt 0.1796875 0.3828125
vt 0.1796875 0.34375
vt 0.171875 0.34375
vt 0.65625 0.90625
vt 0.65625 0.9140625
vt 0.6171875 0.9140625
vt 0.6171875 0.90625
vt 0.65625 0.9140625
vt 0.65625 0.921875
vt 0.6171875 0.921875
vt 0.6171875 0.9140625
vt 0.65625 0.8125
vt 0.65625 0.8203125
vt 0.6328125 0.8203125
vt 0.6328125 0.8125
vt 0.203125 0.359375
vt 0.203125 0.3671875
vt 0.1796875 0.3671875
vt 0.1796875 0.359375
vt 0.65625 0.8125
vt 0.6328125 0.8125
vt 0.6328125 0.8046875
vt 0.65625 0.8046875
vt 0.203125 0.3671875
vt 0.2265625 0.3671875
vt 0.2265625 0.359375
vt 0.203125 0.359375
vt 0.609375 0.359375
vt 0.609375 0.3671875
vt 0.6015625 0.3671875
vt 0.6015625 0.359375
vt 0.640625 0.3984375
vt 0.640625 0.40625
vt 0.6328125 0.40625
vt 0.6328125 0.3984375
vt 0.5390625 0.5703125
vt 0.5390625 0.859375
vt 0.5234375 0.859375
vt 0.5234375 0.5703125
vt 0.53125 0.2109375
vt 0.53125 0.5
vt 0.515625 0.5
vt 0.515625 0.2109375
vt 0.2421875 0.453125
vt 0.2265625 0.453125
vt 0.2265625 0.3203125
vt 0.2421875 0.3203125
vt 0.2421875 0.453125
vt 0.2578125 0.453125
vt 0.2578125 0.3203125
vt 0.2421875 0.3203125
vt 0.265625 0.7109375
vt 0.265625 1
vt 0.1328125 1
vt 0.1328125 0.7109375
vt 0.1328125 0.7109375
vt 0.1328125 1
vt 0 1
vt 0 0.7109375
vt 0.6015625 0.640625
vt 0.6015625 0.7109375
vt 0.5859375 0.7109375
vt 0.5859375 0.640625
vt 0.6015625 0.7109375
vt 0.6015625 0.78125
vt 0.5859375 0.78125
vt 0.5859375 0.7109375
vt 0.6171875 0.953125
vt 0.6015625 0.953125
vt 0.6015625 0.8984375
vt 0.6171875 0.8984375
vt 0.6015625 0.859375
vt 0.6171875 0.859375
vt 0.6171875 0.8046875
vt 0.6015625 0.8046875
vt 0.2265625 0.3828125
vt 0.2265625 0.453125
vt 0.171875 0.453125
vt 0.171875 0.3828125
vt 0.6015625 0.8828125
vt 0.6015625 0.953125
vt 0.546875 0.953125
vt 0.546875 0.8828125
vt 0.5546875 0.5703125
vt 0.5546875 0.859375
vt 0.5390625 0.859375
vt 0.5390625 0.5703125
vt 0.546875 0.28125
vt 0.546875 0.5703125
vt 0.53125 0.5703125
vt 0.53125 0.28125
vt 0.2734375 0.453125
vt 0.2578125 0.453125
vt 0.2578125 0.3203125
vt 0.2734375 0.3203125
vt 0.546875 0.484375
vt 0.5625 0.484375
vt 0.5625 0.3515625
vt 0.546875 0.3515625
vt 0.1328125 0.421875
vt 0.1328125 0.7109375
vt 0 0.7109375
vt 0 0.421875
vt 0.3984375 0.7109375
vt 0.3984375 1
vt 0.265625 1
vt 0.265625 0.7109375
vn 1 0 0
vn -1 0 0
vn 0 1 0
vn 0 -1 0
vn 0 0 1
vn 0 0 -1
vn 1 0 0
vn -1 0 0
vn 0 1 0
vn 0 -1 0
vn 0 0 1
vn 0 0 -1
vn 1 0 0
vn -1 0 0
vn 0 1 0
vn 0 -1 0
vn 0 0 1
vn 0 0 -1
vn 1 0 0
vn -1 0 0
vn 0 1 0
vn 0 -1 0
vn 0 0 1
vn 0 0 -1
vn 1 0 0
vn -1 0 0
vn 0 1 0
vn 0 -1 0
vn 0 0 1
vn 0 0 -1
vn 1 0 0
vn -1 0 0
vn 0 1 0
vn 0 -1 0
vn 0 0 1
vn 0 0 -1
vn 1 0 0
vn -1 0 0
vn 0 1 0
vn 0 -1 0
vn 0 0 1
vn 0 0 -1
vn 1 0 0
vn -1 0 0
vn 0 1 0
vn 0 -1 0
vn 0 0 1
vn 0 0 -1
vn 1 0 0
vn -1 0 0
vn 0 1 0
vn 0 -1 0
vn 0 0 1
vn 0 0 -1
vn 1 0 0
vn -1 0 0
vn 0 1 0
vn 0 -1 0
vn 0 0 1
vn 0 0 -1
vn 1 0 0
vn -1 0 0
vn 0 1 0
vn 0 -1 0
vn 0 0 1
vn 0 0 -1
vn 1 0 0
vn -1 0 0
vn 0 1 0
vn 0 -1 0
vn 0 0 1
vn 0 0 -1
vn 1 0 0
vn -1 0 0
vn 0 1 0
vn 0 -1 0
vn 0 0 1
vn 0 0 -1
vn 1 0 0
vn -1 0 0
vn 0 1 0
vn 0 -1 0
vn 0 0 1
vn 0 0 -1
vn 1 0 0
vn -1 0 0
vn 0 1 0
vn 0 -1 0
vn 0 0 1
vn 0 0 -1
vn 1 0 0
vn -1 0 0
vn 0 1 0
vn 0 -1 0
vn 0 0 1
vn 0 0 -1
vn 1 0 0
vn -1 0 0
vn 0 1 0
vn 0 -1 0
vn 0 0 1
vn 0 0 -1
vn 1 0 0
vn -1 0 0
vn 0 1 0
vn 0 -1 0
vn 0 0 1
vn 0 0 -1
vn 1 0 0
vn -1 0 0
vn 0 1 0
vn 0 -1 0
vn 0 0 1
vn 0 0 -1
vn 1 0 0
vn -1 0 0
vn 0 1 0
vn 0 -1 0
vn 0 0 1
vn 0 0 -1
vn 1 0 0
vn -1 0 0
vn 0 1 0
vn 0 -1 0
vn 0 0 1
vn 0 0 -1
vn 1 0 0
vn -1 0 0
vn 0 1 0
vn 0 -1 0
vn 0 0 1
vn 0 0 -1
vn 1 0 0
vn -1 0 0
vn 0 1 0
vn 0 -1 0
vn 0 0 1
vn 0 0 -1
vn 1 0 0
vn -1 0 0
vn 0 1 0
vn 0 -1 0
vn 0 0 1
vn 0 0 -1
usemtl m_65e345ac-f8dc-6325-067b-5b20155d98ee
f 5/1/1 3/2/1 2/3/1 4/4/1
f 8/5/2 6/6/2 7/7/2 9/8/2
f 2/9/3 3/10/3 7/11/3 6/12/3
f 5/13/4 4/14/4 8/15/4 9/16/4
f 4/17/5 2/18/5 6/19/5 8/20/5
f 9/21/6 7/22/6 3/23/6 5/24/6
f 13/25/7 11/26/7 10/27/7 12/28/7
f 16/29/8 14/30/8 15/31/8 17/32/8
f 10/33/9 11/34/9 15/35/9 14/36/9
f 13/37/10 12/38/10 16/39/10 17/40/10
f 12/41/11 10/42/11 14/43/11 16/44/11
f 17/45/12 15/46/12 11/47/12 13/48/12
f 21/49/13 19/50/13 18/51/13 20/52/13
f 24/53/14 22/54/14 23/55/14 1/56/14
f 18/57/15 19/58/15 23/59/15 22/60/15
f 21/61/16 20/62/16 24/63/16 1/64/16
f 20/65/17 18/66/17 22/67/17 24/68/17
f 1/69/18 23/70/18 19/71/18 21/72/18
f 28/73/19 26/74/19 25/75/19 27/76/19
f 31/77/20 29/78/20 30/79/20 32/80/20
f 25/81/21 26/82/21 30/83/21 29/84/21
f 28/85/22 27/86/22 31/87/22 32/88/22
f 27/89/23 25/90/23 29/91/23 31/92/23
f 32/93/24 30/94/24 26/95/24 28/96/24
f 36/97/25 34/98/25 33/99/25 35/100/25
f 39/101/26 37/102/26 38/103/26 40/104/26
f 33/105/27 34/106/27 38/107/27 37/108/27
f 36/109/28 35/110/28 39/111/28 40/112/28
f 35/113/29 33/114/29 37/115/29 39/116/29
f 40/117/30 38/118/30 34/119/30 36/120/30
f 44/121/31 42/122/31 41/123/31 43/124/31
f 47/125/32 45/126/32 46/127/32 48/128/32
f 41/129/33 42/130/33 46/131/33 45/132/33
f 44/133/34 43/134/34 47/135/34 48/136/34
f 43/137/35 41/138/35 45/139/35 47/140/35
f 48/141/36 46/142/36 42/143/36 44/144/36
f 52/145/37 50/146/37 49/147/37 51/148/37
f 55/149/38 53/150/38 54/151/38 56/152/38
f 49/153/39 50/154/39 54/155/39 53/156/39
f 52/157/40 51/158/40 55/159/40 56/160/40
f 51/161/41 49/162/41 53/163/41 55/164/41
f 56/165/42 54/166/42 50/167/42 52/168/42
f 60/169/43 58/170/43 57/171/43 59/172/43
f 63/173/44 61/174/44 62/175/44 64/176/44
f 57/177/45 58/178/45 62/179/45 61/180/45
f 60/181/46 59/182/46 63/183/46 64/184/46
f 59/185/47 57/186/47 61/187/47 63/188/47
f 64/189/48 62/190/48 58/191/48 60/192/48
f 68/193/49 66/194/49 65/195/49 67/196/49
f 71/197/50 69/198/50 70/199/50 72/200/50
f 65/201/51 66/202/51 70/203/51 69/204/51
f 68/205/52 67/206/52 71/207/52 72/208/52
f 67/209/53 65/210/53 69/211/53 71/212/53
f 72/213/54 70/214/54 66/215/54 68/216/54
f 76/217/55 74/218/55 73/219/55 75/220/55
f 79/221/56 77/222/56 78/223/56 80/224/56
f 73/225/57 74/226/57 78/227/57 77/228/57
f 76/229/58 75/230/58 79/231/58 80/232/58
f 75/233/59 73/234/59 77/235/59 79/236/59
f 80/237/60 78/238/60 74/239/60 76/240/60
f 84/241/61 82/242/61 81/243/61 83/244/61
f 87/245/62 85/246/62 86/247/62 88/248/62
f 81/249/63 82/250/63 86/251/63 85/252/63
f 84/253/64 83/254/64 87/255/64 88/256/64
f 83/257/65 81/258/65 85/259/65 87/260/65
f 88/261/66 86/262/66 82/263/66 84/264/66
f 92/265/67 90/266/67 89/267/67 91/268/67
f 95/269/68 93/270/68 94/271/68 96/272/68
f 89/273/69 90/274/69 94/275/69 93/276/69
f 92/277/70 91/278/70 95/279/70 96/280/70
f 91/281/71 89/282/71 93/283/71 95/284/71
f 96/285/72 94/286/72 90/287/72 92/288/72
f 100/289/73 98/290/73 97/291/73 99/292/73
f 103/293/74 101/294/74 102/295/74 104/296/74
f 97/297/75 98/298/75 102/299/75 101/300/75
f 100/301/76 99/302/76 103/303/76 104/304/76
f 99/305/77 97/306/77 101/307/77 103/308/77
f 104/309/78 102/310/78 98/311/78 100/312/78
f 108/313/79 106/314/79 105/315/79 107/316/79
f 111/317/80 109/318/80 110/319/80 112/320/80
f 105/321/81 106/322/81 110/323/81 109/324/81
f 108/325/82 107/326/82 111/327/82 112/328/82
f 107/329/83 105/330/83 109/331/83 111/332/83
f 112/333/84 110/334/84 106/335/84 108/336/84
f 116/337/85 114/338/85 113/339/85 115/340/85
f 119/341/86 117/342/86 118/343/86 120/344/86
f 113/345/87 114/346/87 118/347/87 117/348/87
f 116/349/88 115/350/88 119/351/88 120/352/88
f 115/353/89 113/354/89 117/355/89 119/356/89
f 120/357/90 118/358/90 114/359/90 116/360/90
f 124/361/91 122/362/91 121/363/91 123/364/91
f 127/365/92 125/366/92 126/367/92 128/368/92
f 121/369/93 122/370/93 126/371/93 125/372/93
f 124/373/94 123/374/94 127/375/94 128/376/94
f 123/377/95 121/378/95 125/379/95 127/380/95
f 128/381/96 126/382/96 122/383/96 124/384/96
f 132/385/97 130/386/97 129/387/97 131/388/97
f 135/389/98 133/390/98 134/391/98 136/392/98
f 129/393/99 130/394/99 134/395/99 133/396/99
f 132/397/100 131/398/100 135/399/100 136/400/100
f 131/401/101 129/402/101 133/403/101 135/404/101
f 136/405/102 134/406/102 130/407/102 132/408/102
f 140/409/103 138/410/103 137/411/103 139/412/103
f 143/413/104 141/414/104 142/415/104 144/416/104
f 137/417/105 138/418/105 142/419/105 141/420/105
f 140/421/106 139/422/106 143/423/106 144/424/106
f 139/425/107 137/426/107 141/427/107 143/428/107
f 144/429/108 142/430/108 138/431/108 140/432/108
f 148/433/109 146/434/109 145/435/109 147/436/109
f 151/437/110 149/438/110 150/439/110 152/440/110
f 145/441/111 146/442/111 150/443/111 149/444/111
f 148/445/112 147/446/112 151/447/112 152/448/112
f 147/449/113 145/450/113 149/451/113 151/452/113
f 152/453/114 150/454/114 146/455/114 148/456/114
f 156/457/115 154/458/115 153/459/115 155/460/115
f 159/461/116 157/462/116 158/463/116 160/464/116
f 153/465/117 154/466/117 158/467/117 157/468/117
f 156/469/118 155/470/118 159/471/118 160/472/118
f 155/473/119 153/474/119 157/475/119 159/476/119
f 160/477/120 158/478/120 154/479/120 156/480/120
f 164/481/121 162/482/121 161/483/121 163/484/121
f 167/485/122 165/486/122 166/487/122 168/488/122
f 161/489/123 162/490/123 166/491/123 165/492/123
f 164/493/124 163/494/124 167/495/124 168/496/124
f 163/497/125 161/498/125 165/499/125 167/500/125
f 168/501/126 166/502/126 162/503/126 164/504/126
f 172/505/127 170/506/127 169/507/127 171/508/127
f 175/509/128 173/510/128 174/511/128 176/512/128
f 169/513/129 170/514/129 174/515/129 173/516/129
f 172/517/130 171/518/130 175/519/130 176/520/130
f 171/521/131 169/522/131 173/523/131 175/524/131
f 176/525/132 174/526/132 170/527/132 172/528/132
f 180/529/133 178/530/133 177/531/133 179/532/133
f 183/533/134 181/534/134 182/535/134 184/536/134
f 177/537/135 178/538/135 182/539/135 181/540/135
f 180/541/136 179/542/136 183/543/136 184/544/136
f 179/545/137 177/546/137 181/547/137 183/548/137
f 184/549/138 182/550/138 178/551/138 180/552/138
f 188/553/139 186/554/139 185/555/139 187/556/139
f 191/557/140 189/558/140 190/559/140 192/560/140
f 185/561/141 186/562/141 190/563/141 189/564/141
f 188/565/142 187/566/142 191/567/142 192/568/142
f 187/569/143 185/570/143 189/571/143 191/572/143
f 192/573/144 190/574/144 186/575/144 188/576/144