# Made in Blockbench 4.8.3
mtllib tie.mtl

o cube
v 1.6592179608384559 -0.10884999519442018 0.13749999999999996
v 1.5875 -0.01874999999999999 0.13749999999999996
v 1.0375 -0.01874999999999999 0.13749999999999996
v 1.0375 0.14374999999999993 0.13749999999999996
v 1.5875 0.14374999999999993 0.13749999999999996
v 1.5875 -0.01874999999999999 0.36250000000000004
v 1.5875 0.14374999999999993 0.36250000000000004
v 1.0375 -0.01874999999999999 0.36250000000000004
v 1.0375 0.14374999999999993 0.36250000000000004
v -0.03749999999999998 -0.01874999999999999 0.13749999999999996
v -0.5874999999999999 -0.01874999999999999 0.13749999999999996
v -0.5874999999999999 0.14374999999999993 0.13749999999999996
v -0.03749999999999998 0.14374999999999993 0.13749999999999996
v -0.03749999999999998 -0.01874999999999999 0.36250000000000004
v -0.03749999999999998 0.14374999999999993 0.36250000000000004
v -0.5874999999999999 -0.01874999999999999 0.36250000000000004
v -0.5874999999999999 0.14374999999999993 0.36250000000000004
v 0.125 -0.16250000000000003 0.13749999999999996
v -0.75 -0.16250000000000003 0.13749999999999996
v -0.75 -0.01874999999999999 0.13749999999999996
v 0.125 -0.01874999999999999 0.13749999999999996
v 0.125 -0.16250000000000003 0.36250000000000004
v 0.125 -0.01874999999999999 0.36250000000000004
v -0.75 -0.16250000000000003 0.36250000000000004
v -0.75 -0.01874999999999999 0.36250000000000004
v -0.49790922638027446 0.05245873926376121 0.13749999999999996
v -0.6592179608384557 -0.10884999519442007 0.13749999999999996
v -0.7498160171779821 -0.018251938854893623 0.13749999999999996
v -0.5885072827198009 0.14305679560328755 0.13749999999999996
v -0.49790922638027446 0.05245873926376121 0.36250000000000004
v -0.5885072827198009 0.14305679560328755 0.36250000000000004
v -0.6592179608384557 -0.10884999519442007 0.36250000000000004
v -0.7498160171779821 -0.018251938854893623 0.36250000000000004
v 0.03421796083845574 -0.10884999519442007 0.13749999999999996
v -0.12709077361972554 0.05245873926376121 0.13749999999999996
v -0.03649271728019915 0.14305679560328755 0.13749999999999996
v 0.12481601717798207 -0.018251938854893623 0.13749999999999996
v 0.03421796083845574 -0.10884999519442007 0.36250000000000004
v 0.12481601717798207 -0.018251938854893623 0.36250000000000004
v -0.12709077361972554 0.05245873926376121 0.36250000000000004
v -0.03649271728019915 0.14305679560328755 0.36250000000000004
v 1.75 -0.16250000000000003 0.13749999999999996
v 0.875 -0.16250000000000003 0.13749999999999996
v 0.875 -0.01874999999999999 0.13749999999999996
v 1.75 -0.01874999999999999 0.13749999999999996
v 1.75 -0.16250000000000003 0.36250000000000004
v 1.75 -0.01874999999999999 0.36250000000000004
v 0.875 -0.16250000000000003 0.36250000000000004
v 0.875 -0.01874999999999999 0.36250000000000004
v 1.4979092263802745 0.05245873926376121 0.13749999999999996
v 1.5885072827198008 0.14305679560328755 0.13749999999999996
v 1.7498160171779822 -0.018251938854893845 0.13749999999999996
v 1.6592179608384559 -0.10884999519442018 0.36250000000000004
v 1.7498160171779822 -0.018251938854893845 0.36250000000000004
v 1.4979092263802745 0.05245873926376121 0.36250000000000004
v 1.5885072827198008 0.14305679560328755 0.36250000000000004
v 1.1270907736197255 0.05245873926376121 0.13749999999999996
v 0.9657820391615441 -0.10884999519442007 0.13749999999999996
v 0.8751839828220178 -0.018251938854893623 0.13749999999999996
v 1.0364927172801992 0.14305679560328755 0.13749999999999996
v 1.1270907736197255 0.05245873926376121 0.36250000000000004
v 1.0364927172801992 0.14305679560328755 0.36250000000000004
v 0.9657820391615441 -0.10884999519442007 0.36250000000000004
v 0.8751839828220178 -0.018251938854893623 0.36250000000000004
vt 0.65625 0.78125
vt 0.375 0.78125
vt 0.375 0.875
vt 0.65625 0.875
vt 0.625 0.59375
vt 0.5 0.59375
vt 0.5 0.6875
vt 0.625 0.6875
vt 0.65625 0.6875
vt 0.375 0.6875
vt 0.375 0.78125
vt 0.65625 0.78125
vt 0.625 0.5
vt 0.5 0.5
vt 0.5 0.59375
vt 0.625 0.59375
vt 0.375 1
vt 0.375 0.71875
vt 0.25 0.71875
vt 0.25 1
vt 0.25 0.71875
vt 0.25 0.4375
vt 0.375 0.4375
vt 0.375 0.71875
vt 0.375 0.78125
vt 0.65625 0.78125
vt 0.65625 0.875
vt 0.375 0.875
vt 0.5 0.5
vt 0.625 0.5
vt 0.625 0.59375
vt 0.5 0.59375
vt 0.375 0.6875
vt 0.65625 0.6875
vt 0.65625 0.78125
vt 0.375 0.78125
vt 0.5 0.59375
vt 0.625 0.59375
vt 0.625 0.6875
vt 0.5 0.6875
vt 0.375 0.71875
vt 0.375 1
vt 0.25 1
vt 0.25 0.71875
vt 0.25 0.4375
vt 0.25 0.71875
vt 0.375 0.71875
vt 0.375 0.4375
vt 0.375 0.9375
vt 0.8125 0.9375
vt 0.8125 1
vt 0.375 1
vt 0 0.375
vt 0.125 0.375
vt 0.125 0.4375
vt 0 0.4375
vt 0.375 0.875
vt 0.8125 0.875
vt 0.8125 0.9375
vt 0.375 0.9375
vt 0.5 0.4375
vt 0.625 0.4375
vt 0.625 0.5
vt 0.5 0.5
vt 0.125 0.5625
vt 0.125 1
vt 0 1
vt 0 0.5625
vt 0.125 0.5625
vt 0.125 1
vt 0.25 1
vt 0.25 0.5625
vt 0.25 0.375
vt 0.375 0.375
vt 0.375 0.4375
vt 0.25 0.4375
vt 0.375 0.375
vt 0.5 0.375
vt 0.5 0.4375
vt 0.375 0.4375
vt 0.5 0.375
vt 0.625 0.375
vt 0.625 0.4375
vt 0.5 0.4375
vt 0.125 0.375
vt 0.25 0.375
vt 0.25 0.4375
vt 0.125 0.4375
vt 0.5 0.5625
vt 0.5 0.6875
vt 0.375 0.6875
vt 0.375 0.5625
vt 0 0.4375
vt 0 0.5625
vt 0.125 0.5625
vt 0.125 0.4375
vt 0.125 0.3125
vt 0.25 0.3125
vt 0.25 0.375
vt 0.125 0.375
vt 0.25 0.3125
vt 0.375 0.3125
vt 0.375 0.375
vt 0.25 0.375
vt 0.625 0.625
vt 0.75 0.625
vt 0.75 0.6875
vt 0.625 0.6875
vt 0 0.3125
vt 0.125 0.3125
vt 0.125 0.375
vt 0 0.375
vt 0.25 0.4375
vt 0.25 0.5625
vt 0.125 0.5625
vt 0.125 0.4375
vt 0.375 0.4375
vt 0.375 0.5625
vt 0.5 0.5625
vt 0.5 0.4375
vt 0.8125 0.9375
vt 0.375 0.9375
vt 0.375 1
vt 0.8125 1
vt 0.625 0.4375
vt 0.5 0.4375
vt 0.5 0.5
vt 0.625 0.5
vt 0.8125 0.875
vt 0.375 0.875
vt 0.375 0.9375
vt 0.8125 0.9375
vt 0.125 0.375
vt 0 0.375
vt 0 0.4375
vt 0.125 0.4375
vt 0.125 1
vt 0.125 0.5625
vt 0 0.5625
vt 0 1
vt 0.125 1
vt 0.125 0.5625
vt 0.25 0.5625
vt 0.25 1
vt 0.375 0.375
vt 0.25 0.375
vt 0.25 0.4375
vt 0.375 0.4375
vt 0.25 0.375
vt 0.125 0.375
vt 0.125 0.4375
vt 0.25 0.4375
vt 0.625 0.375
vt 0.5 0.375
vt 0.5 0.4375
vt 0.625 0.4375
vt 0.5 0.375
vt 0.375 0.375
vt 0.375 0.4375
vt 0.5 0.4375
vt 0.5 0.6875
vt 0.5 0.5625
vt 0.375 0.5625
vt 0.375 0.6875
vt 0 0.5625
vt 0 0.4375
vt 0.125 0.4375
vt 0.125 0.5625
vt 0.25 0.3125
vt 0.125 0.3125
vt 0.125 0.375
vt 0.25 0.375
vt 0.125 0.3125
vt 0 0.3125
vt 0 0.375
vt 0.125 0.375
vt 0.75 0.625
vt 0.625 0.625
vt 0.625 0.6875
vt 0.75 0.6875
vt 0.375 0.3125
vt 0.25 0.3125
vt 0.25 0.375
vt 0.375 0.375
vt 0.25 0.5625
vt 0.25 0.4375
vt 0.125 0.4375
vt 0.125 0.5625
vt 0.375 0.5625
vt 0.375 0.4375
vt 0.5 0.4375
vt 0.5 0.5625
vn 0 0 -1
vn 1 0 0
vn 0 0 1
vn -1 0 0
vn 0 1 0
vn 0 -1 0
vn 0 0 -1
vn 1 0 0
vn 0 0 1
vn -1 0 0
vn 0 1 0
vn 0 -1 0
vn 0 0 -1
vn 1 0 0
vn 0 0 1
vn -1 0 0
vn 0 1 0
vn 0 -1 0
vn 0 0 -1
vn 0.7071067811865471 0.7071067811865479 0
vn 0 0 1
vn -0.7071067811865479 -0.7071067811865471 0
vn -0.7071067811865476 0.7071067811865476 0
vn 0.7071067811865476 -0.7071067811865476 0
vn 0 0 -1
vn 0.7071067811865479 -0.7071067811865471 0
vn 0 0 1
vn -0.7071067811865472 0.7071067811865478 0
vn 0.7071067811865475 0.7071067811865477 0
vn -0.7071067811865476 -0.7071067811865476 0
vn 0 0 -1
vn 1 0 0
vn 0 0 1
vn -1 0 0
vn 0 1 0
vn 0 -1 0
vn 0 0 -1
vn 0.7071067811865476 -0.7071067811865476 0
vn 0 0 1
vn -0.7071067811865476 0.7071067811865476 0
vn 0.7071067811865476 0.7071067811865476 0
vn -0.7071067811865476 -0.7071067811865476 0
vn 0 0 -1
vn 0.7071067811865476 0.7071067811865476 0
vn 0 0 1
vn -0.7071067811865479 -0.7071067811865471 0
vn -0.707106781186547 0.707106781186548 0
vn 0.7071067811865474 -0.7071067811865478 0
usemtl m_479b58bd-f8c4-c4c5-cd2b-f0d695da159d
f 2/1/1 3/2/1 4/3/1 5/4/1
f 6/5/2 2/6/2 5/7/2 7/8/2
f 8/9/3 6/10/3 7/11/3 9/12/3
f 3/13/4 8/14/4 9/15/4 4/16/4
f 9/17/5 7/18/5 5/19/5 4/20/5
f 3/21/6 2/22/6 6/23/6 8/24/6
f 10/25/7 11/26/7 12/27/7 13/28/7
f 14/29/8 10/30/8 13/31/8 15/32/8
f 16/33/9 14/34/9 15/35/9 17/36/9
f 11/37/10 16/38/10 17/39/10 12/40/10
f 17/41/11 15/42/11 13/43/11 12/44/11
f 11/45/12 10/46/12 14/47/12 16/48/12
f 18/49/13 19/50/13 20/51/13 21/52/13
f 22/53/14 18/54/14 21/55/14 23/56/14
f 24/57/15 22/58/15 23/59/15 25/60/15
f 19/61/16 24/62/16 25/63/16 20/64/16
f 25/65/17 23/66/17 21/67/17 20/68/17
f 19/69/18 18/70/18 22/71/18 24/72/18
f 26/73/19 27/74/19 28/75/19 29/76/19
f 30/77/20 26/78/20 29/79/20 31/80/20
f 32/81/21 30/82/21 31/83/21 33/84/21
f 27/85/22 32/86/22 33/87/22 28/88/22
f 33/89/23 31/90/23 29/91/23 28/92/23
f 27/93/24 26/94/24 30/95/24 32/96/24
f 34/97/25 35/98/25 36/99/25 37/100/25
f 38/101/26 34/102/26 37/103/26 39/104/26
f 40/105/27 38/106/27 39/107/27 41/108/27
f 35/109/28 40/110/28 41/111/28 36/112/28
f 41/113/29 39/114/29 37/115/29 36/116/29
f 35/117/30 34/118/30 38/119/30 40/120/30
f 42/121/31 43/122/31 44/123/31 45/124/31
f 46/125/32 42/126/32 45/127/32 47/128/32
f 48/129/33 46/130/33 47/131/33 49/132/33
f 43/133/34 48/134/34 49/135/34 44/136/34
f 49/137/35 47/138/35 45/139/35 44/140/35
f 43/141/36 42/142/36 46/143/36 48/144/36
f 1/145/37 50/146/37 51/147/37 52/148/37
f 53/149/38 1/150/38 52/151/38 54/152/38
f 55/153/39 53/154/39 54/155/39 56/156/39
f 50/157/40 55/158/40 56/159/40 51/160/40
f 56/161/41 54/162/41 52/163/41 51/164/41
f 50/165/42 1/166/42 53/167/42 55/168/42
f 57/169/43 58/170/43 59/171/43 60/172/43
f 61/173/44 57/174/44 60/175/44 62/176/44
f 63/177/45 61/178/45 62/179/45 64/180/45
f 58/181/46 63/182/46 64/183/46 59/184/46
f 64/185/47 62/186/47 60/187/47 59/188/47
f 58/189/48 57/190/48 61/191/48 63/192/48